<?xml version="1.0" encoding="utf-8"?>
<!-- Generator: Adobe Illustrator 26.5.0, SVG Export Plug-In . SVG Version: 6.00 Build 0)  -->
<svg version="1.1" id="tagline1" xmlns="http://www.w3.org/2000/svg" xmlns:xlink="http://www.w3.org/1999/xlink" x="0px" y="0px"
	 viewBox="0 0 1480.2 120.9" style="enable-background:new 0 0 1480.2 120.9;" xml:space="preserve">
<style type="text/css">
	.st0{fill:#FFFFFF;}
</style>
<path class="st0" d="M0,2.4h49.2c23.9,0,37.7,10.7,37.7,29.2c0,14.4-6.3,20.8-12,24.5v0.3c7.3,2.4,16.5,10.9,16.5,28.1
	c0,22.2-15.4,33.9-39.4,33.9H0V2.4z M67.8,34.4c0-10.2-6.3-16.2-18.2-16.2H18.3v32h30C62.8,50.1,67.9,44.8,67.8,34.4L67.8,34.4z
	 M72.4,83.7c0-12.2-7.5-17.8-19.6-17.8H18.3v36.8h32.1C67.4,102.7,72.4,94.6,72.4,83.7L72.4,83.7z M106,2.4h82.3v15.7h-63.9v32.5h56
	v15.7h-56v36.3H190v15.7h-84V2.4z M307.9,90.7h-48l-9.6,27.8H231l43.2-116H294l43.5,116h-20L307.9,90.7L307.9,90.7z M265.2,75.3
	h37.3L284,22.1h-0.3L265.2,75.3L265.2,75.3z M351,2.4h18.3v100.3h58.4v15.7H351V2.4z M441.9,2.4h18.3v100.3h58.4v15.7h-76.8V2.4
	H441.9z M575.5,72.2L533.9,2.4h21.3l29.4,50.8h0.3l29.5-50.8h21.1L594,72.2v46.2h-18.5V72.2z M633.1,60.4c0-34.9,21.9-60.4,56-60.4
	s56,25.5,56,60.4s-21.9,60.5-56,60.5S633.1,95.2,633.1,60.4z M726.1,60.4c0-23.7-10.5-44.5-37-44.5s-36.8,20.8-36.8,44.5
	s10.4,44.6,36.8,44.6S726.1,84.1,726.1,60.4z M760.2,79V2.4h18.5V79c0,17.8,8.9,26,27.1,26s27.1-8.1,27.1-26V2.4h18.3V79
	c0,25-13.5,41.9-45.4,41.9S760.2,104,760.2,79L760.2,79z M890.7,60.5c0-35,21.3-60.5,54.4-60.5c29.2,0,47.1,18.7,49.8,42h-19
	c-2.1-11.5-9.2-26.1-31.2-26.1c-25.5,0-34.9,21.6-34.9,44.5s9.4,44.6,34.9,44.6c22.1,0,29.9-14.6,31.2-28.9h19
	c-2.6,26-20.6,44.8-50,44.8C911.8,120.9,890.7,95.4,890.7,60.5z M1076.8,90.7h-48l-9.6,27.8h-19.3l43.2-116h19.8l43.5,116h-20
	L1076.8,90.7L1076.8,90.7z M1034.1,75.3h37.3L1053,22.1h-0.3L1034.1,75.3z M1120,2.4h20.8l53.4,88.4h0.3V2.4h18.3v116H1192
	L1138.6,30h-0.3v88.4H1120V2.4z M1262.5,2.4h49.2c23.9,0,37.7,10.7,37.7,29.2c0,14.4-6.3,20.8-12,24.5v0.3
	c7.3,2.4,16.6,10.9,16.6,28.1c0,22.2-15.4,33.9-39.4,33.9h-51.9L1262.5,2.4L1262.5,2.4z M1330.3,34.4c0-10.2-6.3-16.2-18.2-16.2
	h-31.3v32h30C1325.3,50.1,1330.3,44.8,1330.3,34.4L1330.3,34.4z M1334.9,83.7c0-12.2-7.5-17.8-19.6-17.8h-34.4v36.8h32.1
	C1329.8,102.7,1334.9,94.6,1334.9,83.7z M1367.8,2.4h82.3v15.7h-63.9v32.5h56v15.7h-56v36.3h65.6v15.7h-83.9L1367.8,2.4L1367.8,2.4z
	 M1464.7,102.8h15.6v15.7h-15.6V102.8z"/>
</svg>
