<?xml version="1.0" encoding="utf-8"?>
<!-- Generator: Adobe Illustrator 27.1.1, SVG Export Plug-In . SVG Version: 6.00 Build 0)  -->
<svg version="1.1" xmlns="http://www.w3.org/2000/svg" xmlns:xlink="http://www.w3.org/1999/xlink" x="0px" y="0px"
	 viewBox="0 0 120 120" style="enable-background:new 0 0 120 120;" xml:space="preserve">
<style type="text/css">
	.st0{display:none;}
	.st1{display:inline;fill:#FFFFFF;}
	.st2{display:inline;fill:#221F20;}
	.st3{display:inline;}
	.st4{fill:#221F20;}
	.st5{fill:#FFFFFF;}
	.st6{fill:#FFCC01;}
	.st7{fill:none;stroke:#646464;stroke-width:0.035;stroke-miterlimit:10;}
</style>
<g id="Labels__x26__Base" class="st0">
	<rect class="st1" width="120" height="120"/>
	<g class="st3">
		<g>
			<path class="st4" d="M3.14,1.99h0.82l0.88,3.92h0.01l1.03-3.92h0.83l1.04,3.92h0.01l0.87-3.92h0.82L8.2,7H7.35L6.3,3.01H6.28
				L5.23,7H4.39L3.14,1.99z"/>
			<path class="st4" d="M9.62,5.21c0-1.12,0.68-1.89,1.77-1.89c1.09,0,1.7,0.71,1.7,1.83c0,0.09,0,0.2-0.01,0.25h-2.74
				c0.01,0.6,0.36,1.13,1.06,1.13c0.62,0,0.86-0.39,0.92-0.62h0.72c-0.19,0.68-0.72,1.21-1.66,1.21C10.26,7.11,9.62,6.3,9.62,5.21z
				 M10.35,4.86h2.01c0-0.55-0.38-0.97-0.99-0.97C10.81,3.88,10.39,4.28,10.35,4.86z"/>
			<path class="st4" d="M13.77,1.99h0.71V7h-0.71V1.99z"/>
			<path class="st4" d="M15.33,1.99h0.71V7h-0.71V1.99z"/>
			<path class="st4" d="M16.9,3.42h0.71v0.38h0.01c0.18-0.24,0.53-0.48,1.11-0.48c0.7,0,1.26,0.38,1.26,1.2V7h-0.71V4.72
				c0-0.48-0.21-0.8-0.72-0.8c-0.58,0-0.95,0.35-0.95,0.89V7H16.9V3.42z"/>
			<path class="st4" d="M20.62,5.21c0-1.12,0.68-1.89,1.77-1.89c1.09,0,1.7,0.71,1.7,1.83c0,0.09,0,0.2-0.01,0.25h-2.74
				c0.01,0.6,0.36,1.13,1.06,1.13c0.62,0,0.86-0.39,0.92-0.62h0.72c-0.19,0.68-0.72,1.21-1.66,1.21C21.26,7.11,20.62,6.3,20.62,5.21
				z M21.35,4.86h2.01c0-0.55-0.38-0.97-0.99-0.97C21.8,3.88,21.39,4.28,21.35,4.86z"/>
			<path class="st4" d="M24.57,5.86h0.7c0.02,0.43,0.29,0.68,0.9,0.68c0.58,0,0.78-0.23,0.78-0.52s-0.17-0.44-0.56-0.51l-0.63-0.1
				c-0.67-0.11-1.09-0.41-1.09-1.04c0-0.63,0.52-1.04,1.42-1.04c1.02,0,1.44,0.48,1.46,1.13h-0.71c-0.01-0.36-0.21-0.58-0.75-0.58
				c-0.46,0-0.69,0.16-0.69,0.44c0,0.27,0.16,0.41,0.55,0.48l0.63,0.1c0.67,0.12,1.11,0.45,1.11,1.07c0,0.71-0.55,1.12-1.53,1.12
				C25.06,7.1,24.58,6.58,24.57,5.86z"/>
			<path class="st4" d="M28.15,5.86h0.7c0.02,0.43,0.29,0.68,0.9,0.68c0.58,0,0.78-0.23,0.78-0.52s-0.17-0.44-0.56-0.51l-0.63-0.1
				c-0.67-0.11-1.09-0.41-1.09-1.04c0-0.63,0.52-1.04,1.42-1.04c1.02,0,1.44,0.48,1.46,1.13h-0.71c-0.01-0.36-0.21-0.58-0.75-0.58
				c-0.46,0-0.69,0.16-0.69,0.44c0,0.27,0.16,0.41,0.55,0.48l0.63,0.1c0.67,0.12,1.11,0.45,1.11,1.07c0,0.71-0.55,1.12-1.53,1.12
				C28.63,7.1,28.16,6.58,28.15,5.86z"/>
			<path class="st4" d="M4.69,13.19c0.81-0.53,1.22-0.74,1.22-1.42c0-0.4-0.16-0.82-0.81-0.82c-0.75,0-0.99,0.49-0.99,1.16H3.33
				c0-1.04,0.56-1.82,1.79-1.82c0.88,0,1.6,0.53,1.6,1.46c0,0.99-0.76,1.49-1.46,1.94c-0.46,0.29-0.9,0.59-1.04,1.04v0.01h2.45v0.67
				H3.21C3.21,14.45,3.76,13.8,4.69,13.19z"/>
			<path class="st4" d="M7.28,12.9c0-1.44,0.57-2.61,1.93-2.61c1.35,0,1.93,1.18,1.93,2.61c0,1.44-0.57,2.61-1.93,2.61
				C7.85,15.5,7.28,14.34,7.28,12.9z M8.35,14.36l1.25-3.36c-0.11-0.04-0.25-0.07-0.39-0.07c-0.89,0-1.16,0.91-1.16,1.96
				C8.05,13.47,8.13,14,8.35,14.36z M10.36,12.9c0-0.57-0.08-1.1-0.29-1.46l-1.25,3.35c0.11,0.04,0.25,0.07,0.39,0.07
				C10.1,14.85,10.36,13.94,10.36,12.9z"/>
			<path class="st4" d="M13.4,11.82h0.71v0.42h0.01c0.19-0.25,0.54-0.52,1.1-0.52c0.91,0,1.6,0.71,1.6,1.89
				c0,1.18-0.69,1.89-1.6,1.89c-0.56,0-0.91-0.27-1.1-0.54h-0.01v1.67H13.4V11.82z M16.08,13.61c0-0.7-0.32-1.31-0.99-1.31
				c-0.61,0-0.98,0.5-0.98,1.31c0,0.81,0.37,1.31,0.98,1.31C15.76,14.92,16.08,14.31,16.08,13.61z"/>
			<path class="st4" d="M18.22,13.57l-1.23-1.75h0.81l0.83,1.28h0.01l0.83-1.28h0.8l-1.22,1.75l1.35,1.83h-0.83l-0.95-1.36h-0.01
				l-0.94,1.36h-0.82L18.22,13.57z"/>
		</g>
	</g>
</g>
<g id="Icons">
	<path class="st6" d="M63,70h-9v-6.41l-1.66-4.36c-0.68-2.13-0.31-4.38,1-6.18c1.39-1.91,3.68-3.05,6.11-3.05
		c4.13,0,7.49,3.21,7.49,7.16v0.76l1.3,4.03c0.08,0.25,0.04,0.5-0.12,0.71c-0.15,0.21-0.41,0.34-0.67,0.34H66L66.03,66
		c0,0.56-0.46,1.01-1.03,1.01l-2,0V70z M55,69h7v-3l3,0L65,62.02h2.21l-1.26-4.01v-0.84c0-3.4-2.91-6.16-6.49-6.16
		c-2.15,0-4.08,0.96-5.3,2.64c-1.13,1.54-1.44,3.46-0.87,5.26L55,63.5V69z M59.5,62.52l-3.67-3.67c-1.11-1.11-1.11-2.91,0-4.02
		c1-1,2.56-1.1,3.67-0.3c1.11-0.8,2.67-0.7,3.66,0.3c0.54,0.54,0.83,1.25,0.83,2.01s-0.3,1.47-0.83,2.01L59.5,62.52z M57.84,55
		c-0.47,0-0.94,0.18-1.3,0.54c-0.72,0.72-0.72,1.89,0,2.6l2.96,2.96l2.96-2.96c0.35-0.35,0.54-0.81,0.54-1.3
		c0-0.49-0.19-0.96-0.54-1.3c-0.72-0.72-1.89-0.72-2.6,0l-0.35,0.35l-0.35-0.35C58.78,55.18,58.31,55,57.84,55z"/>
</g>
<g id="Grid" class="st0">
	<g class="st3">
		<rect x="50" y="50" class="st7" width="20" height="20"/>
		<g>
			<line class="st7" x1="51" y1="50" x2="51" y2="70"/>
			<line class="st7" x1="52" y1="50" x2="52" y2="70"/>
			<line class="st7" x1="53" y1="50" x2="53" y2="70"/>
			<line class="st7" x1="54" y1="50" x2="54" y2="70"/>
			<line class="st7" x1="55" y1="50" x2="55" y2="70"/>
			<line class="st7" x1="56" y1="50" x2="56" y2="70"/>
			<line class="st7" x1="57" y1="50" x2="57" y2="70"/>
			<line class="st7" x1="58" y1="50" x2="58" y2="70"/>
			<line class="st7" x1="59" y1="50" x2="59" y2="70"/>
			<line class="st7" x1="60" y1="50" x2="60" y2="70"/>
			<line class="st7" x1="61" y1="50" x2="61" y2="70"/>
			<line class="st7" x1="62" y1="50" x2="62" y2="70"/>
			<line class="st7" x1="63" y1="50" x2="63" y2="70"/>
			<line class="st7" x1="64" y1="50" x2="64" y2="70"/>
			<line class="st7" x1="65" y1="50" x2="65" y2="70"/>
			<line class="st7" x1="66" y1="50" x2="66" y2="70"/>
			<line class="st7" x1="67" y1="50" x2="67" y2="70"/>
			<line class="st7" x1="68" y1="50" x2="68" y2="70"/>
			<line class="st7" x1="69" y1="50" x2="69" y2="70"/>
		</g>
		<g>
			<line class="st7" x1="70" y1="51" x2="50" y2="51"/>
			<line class="st7" x1="70" y1="52" x2="50" y2="52"/>
			<line class="st7" x1="70" y1="53" x2="50" y2="53"/>
			<line class="st7" x1="70" y1="54" x2="50" y2="54"/>
			<line class="st7" x1="70" y1="55" x2="50" y2="55"/>
			<line class="st7" x1="70" y1="56" x2="50" y2="56"/>
			<line class="st7" x1="70" y1="57" x2="50" y2="57"/>
			<line class="st7" x1="70" y1="58" x2="50" y2="58"/>
			<line class="st7" x1="70" y1="59" x2="50" y2="59"/>
			<line class="st7" x1="70" y1="60" x2="50" y2="60"/>
			<line class="st7" x1="70" y1="61" x2="50" y2="61"/>
			<line class="st7" x1="70" y1="62" x2="50" y2="62"/>
			<line class="st7" x1="70" y1="63" x2="50" y2="63"/>
			<line class="st7" x1="70" y1="64" x2="50" y2="64"/>
			<line class="st7" x1="70" y1="65" x2="50" y2="65"/>
			<line class="st7" x1="70" y1="66" x2="50" y2="66"/>
			<line class="st7" x1="70" y1="67" x2="50" y2="67"/>
			<line class="st7" x1="70" y1="68" x2="50" y2="68"/>
			<line class="st7" x1="70" y1="69" x2="50" y2="69"/>
		</g>
	</g>
</g>
</svg>
