<?xml version="1.0" encoding="utf-8"?>
<!-- Generator: Adobe Illustrator 27.1.1, SVG Export Plug-In . SVG Version: 6.00 Build 0)  -->
<svg version="1.1" xmlns="http://www.w3.org/2000/svg" xmlns:xlink="http://www.w3.org/1999/xlink" x="0px" y="0px"
	 viewBox="0 0 120 120" style="enable-background:new 0 0 120 120;" xml:space="preserve">
<style type="text/css">
	.st0{display:none;}
	.st1{display:inline;fill:#FFFFFF;}
	.st2{display:inline;fill:#221F20;}
	.st3{display:inline;}
	.st4{fill:#221F20;}
	.st5{fill:#FFFFFF;}
	.st6{fill:#FFCC01;}
	.st7{fill:none;stroke:#646464;stroke-width:0.035;stroke-miterlimit:10;}
</style>
<g id="Labels__x26__Base" class="st0">
	<rect class="st1" width="120" height="120"/>
	<g class="st3">
		<g>
			<path class="st4" d="M3.52,1.99h0.79v2.09h2.42V1.99h0.8V7h-0.8V4.76H4.31V7H3.52V1.99z"/>
			<path class="st4" d="M8.3,5.21c0-1.12,0.68-1.9,1.8-1.9c1.11,0,1.79,0.78,1.79,1.89c0,1.12-0.67,1.91-1.79,1.91
				C8.98,7.11,8.3,6.33,8.3,5.21z M11.16,5.21c0-0.75-0.34-1.32-1.06-1.32c-0.73,0-1.06,0.57-1.06,1.32c0,0.74,0.34,1.32,1.06,1.32
				C10.81,6.53,11.16,5.96,11.16,5.21z"/>
			<path class="st4" d="M12.52,5.9V3.42h0.71V5.7c0,0.48,0.21,0.8,0.72,0.8c0.57,0,0.95-0.35,0.95-0.89V3.42h0.7V7h-0.7V6.62h-0.01
				c-0.18,0.23-0.53,0.48-1.11,0.48C13.07,7.1,12.52,6.72,12.52,5.9z"/>
			<path class="st4" d="M16.26,5.86h0.7c0.02,0.43,0.29,0.68,0.9,0.68c0.58,0,0.78-0.23,0.78-0.52s-0.17-0.44-0.56-0.51l-0.63-0.1
				c-0.67-0.11-1.09-0.41-1.09-1.04c0-0.63,0.52-1.04,1.42-1.04c1.02,0,1.44,0.48,1.46,1.13h-0.71c-0.01-0.36-0.21-0.58-0.75-0.58
				c-0.46,0-0.69,0.16-0.69,0.44c0,0.27,0.16,0.41,0.55,0.48l0.63,0.1c0.67,0.12,1.11,0.45,1.11,1.07c0,0.71-0.55,1.12-1.53,1.12
				C16.74,7.1,16.27,6.58,16.26,5.86z"/>
			<path class="st4" d="M19.99,2.04h0.79V2.8h-0.79V2.04z M20.03,3.42h0.71V7h-0.71V3.42z"/>
			<path class="st4" d="M21.59,3.42h0.71v0.38h0.01c0.18-0.24,0.53-0.48,1.11-0.48c0.7,0,1.26,0.38,1.26,1.2V7h-0.71V4.72
				c0-0.48-0.21-0.8-0.72-0.8c-0.58,0-0.95,0.35-0.95,0.89V7h-0.71V3.42z"/>
			<path class="st4" d="M25.32,5.07c0-1.14,0.69-1.75,1.58-1.75c0.57,0,0.9,0.27,1.09,0.52H28V3.42h0.71v3.29
				c0,1.08-0.65,1.57-1.68,1.57c-1.02,0-1.53-0.5-1.61-1.13h0.73c0.07,0.32,0.31,0.56,0.88,0.56c0.64,0,0.97-0.28,0.97-0.95V6.29
				h-0.01c-0.19,0.27-0.52,0.54-1.09,0.54C26,6.82,25.32,6.22,25.32,5.07z M28,5.07c0-0.78-0.36-1.17-0.97-1.17
				c-0.67,0-0.97,0.5-0.97,1.17c0,0.67,0.31,1.17,0.97,1.17C27.63,6.24,28,5.84,28,5.07z"/>
			<path class="st4" d="M4.69,13.19c0.81-0.53,1.22-0.74,1.22-1.42c0-0.4-0.16-0.82-0.81-0.82c-0.75,0-0.99,0.49-0.99,1.16H3.33
				c0-1.04,0.56-1.82,1.79-1.82c0.88,0,1.6,0.53,1.6,1.46c0,0.99-0.76,1.49-1.46,1.94c-0.46,0.29-0.9,0.59-1.04,1.04v0.01h2.45v0.67
				H3.21C3.21,14.45,3.76,13.8,4.69,13.19z"/>
			<path class="st4" d="M7.28,12.9c0-1.44,0.57-2.61,1.93-2.61c1.35,0,1.93,1.18,1.93,2.61c0,1.44-0.57,2.61-1.93,2.61
				C7.85,15.5,7.28,14.34,7.28,12.9z M8.35,14.36l1.25-3.36c-0.11-0.04-0.25-0.07-0.39-0.07c-0.89,0-1.16,0.91-1.16,1.96
				C8.05,13.47,8.13,14,8.35,14.36z M10.36,12.9c0-0.57-0.08-1.1-0.29-1.46l-1.25,3.35c0.11,0.04,0.25,0.07,0.39,0.07
				C10.1,14.85,10.36,13.94,10.36,12.9z"/>
			<path class="st4" d="M13.4,11.82h0.71v0.42h0.01c0.19-0.25,0.54-0.52,1.1-0.52c0.91,0,1.6,0.71,1.6,1.89
				c0,1.18-0.69,1.89-1.6,1.89c-0.56,0-0.91-0.27-1.1-0.54h-0.01v1.67H13.4V11.82z M16.08,13.61c0-0.7-0.32-1.31-0.99-1.31
				c-0.61,0-0.98,0.5-0.98,1.31c0,0.81,0.37,1.31,0.98,1.31C15.76,14.92,16.08,14.31,16.08,13.61z"/>
			<path class="st4" d="M18.22,13.57l-1.23-1.75h0.81l0.83,1.28h0.01l0.83-1.28h0.8l-1.22,1.75l1.35,1.83h-0.83l-0.95-1.36h-0.01
				l-0.94,1.36h-0.82L18.22,13.57z"/>
		</g>
	</g>
</g>
<g id="Icons">
	<path class="st6" d="M67,67v-8.69l2.06,1.57l0.6-0.8L60,51.74l-9.67,7.34l0.6,0.8L53,58.31V67h-2.99v1H53h1h4.02v0l0.5,0h2.95
		l0.5,0v0H66h1h2.97v-1H67z M59,62h2l-0.02,5h-1.96L59,62z M61.98,67L62,61h-4l0.02,6H54v-9.45l6-4.56l6,4.56V67H61.98z"/>
</g>
<g id="Grid" class="st0">
	<g class="st3">
		<rect x="50" y="50" class="st7" width="20" height="20"/>
		<g>
			<line class="st7" x1="51" y1="50" x2="51" y2="70"/>
			<line class="st7" x1="52" y1="50" x2="52" y2="70"/>
			<line class="st7" x1="53" y1="50" x2="53" y2="70"/>
			<line class="st7" x1="54" y1="50" x2="54" y2="70"/>
			<line class="st7" x1="55" y1="50" x2="55" y2="70"/>
			<line class="st7" x1="56" y1="50" x2="56" y2="70"/>
			<line class="st7" x1="57" y1="50" x2="57" y2="70"/>
			<line class="st7" x1="58" y1="50" x2="58" y2="70"/>
			<line class="st7" x1="59" y1="50" x2="59" y2="70"/>
			<line class="st7" x1="60" y1="50" x2="60" y2="70"/>
			<line class="st7" x1="61" y1="50" x2="61" y2="70"/>
			<line class="st7" x1="62" y1="50" x2="62" y2="70"/>
			<line class="st7" x1="63" y1="50" x2="63" y2="70"/>
			<line class="st7" x1="64" y1="50" x2="64" y2="70"/>
			<line class="st7" x1="65" y1="50" x2="65" y2="70"/>
			<line class="st7" x1="66" y1="50" x2="66" y2="70"/>
			<line class="st7" x1="67" y1="50" x2="67" y2="70"/>
			<line class="st7" x1="68" y1="50" x2="68" y2="70"/>
			<line class="st7" x1="69" y1="50" x2="69" y2="70"/>
		</g>
		<g>
			<line class="st7" x1="70" y1="51" x2="50" y2="51"/>
			<line class="st7" x1="70" y1="52" x2="50" y2="52"/>
			<line class="st7" x1="70" y1="53" x2="50" y2="53"/>
			<line class="st7" x1="70" y1="54" x2="50" y2="54"/>
			<line class="st7" x1="70" y1="55" x2="50" y2="55"/>
			<line class="st7" x1="70" y1="56" x2="50" y2="56"/>
			<line class="st7" x1="70" y1="57" x2="50" y2="57"/>
			<line class="st7" x1="70" y1="58" x2="50" y2="58"/>
			<line class="st7" x1="70" y1="59" x2="50" y2="59"/>
			<line class="st7" x1="70" y1="60" x2="50" y2="60"/>
			<line class="st7" x1="70" y1="61" x2="50" y2="61"/>
			<line class="st7" x1="70" y1="62" x2="50" y2="62"/>
			<line class="st7" x1="70" y1="63" x2="50" y2="63"/>
			<line class="st7" x1="70" y1="64" x2="50" y2="64"/>
			<line class="st7" x1="70" y1="65" x2="50" y2="65"/>
			<line class="st7" x1="70" y1="66" x2="50" y2="66"/>
			<line class="st7" x1="70" y1="67" x2="50" y2="67"/>
			<line class="st7" x1="70" y1="68" x2="50" y2="68"/>
			<line class="st7" x1="70" y1="69" x2="50" y2="69"/>
		</g>
	</g>
</g>
</svg>
