<?xml version="1.0" encoding="utf-8"?>
<!-- Generator: Adobe Illustrator 27.1.1, SVG Export Plug-In . SVG Version: 6.00 Build 0)  -->
<svg version="1.1" xmlns="http://www.w3.org/2000/svg" xmlns:xlink="http://www.w3.org/1999/xlink" x="0px" y="0px"
	 viewBox="0 0 120 120" style="enable-background:new 0 0 120 120;" xml:space="preserve">
<style type="text/css">
	.st0{display:none;}
	.st1{display:inline;fill:#FFFFFF;}
	.st2{display:inline;fill:#221F20;}
	.st3{display:inline;}
	.st4{fill:#221F20;}
	.st5{fill:#FFFFFF;}
	.st6{fill:#FFCC01;}
	.st7{fill:none;stroke:#646464;stroke-width:0.035;stroke-miterlimit:10;}
</style>
<g id="Labels__x26__Base" class="st0">
	<rect class="st1" width="120" height="120"/>
	<g class="st3">
		<g>
			<path class="st4" d="M4.12,7H3.44V2.71h1.8c0.94,0,1.46,0.47,1.46,1.31c0,0.66-0.32,1.08-0.91,1.24L6.76,7H6.01l-0.9-1.67H4.12V7
				z M6.02,4.02c0-0.47-0.26-0.73-0.91-0.73H4.12v1.45h0.98C5.76,4.75,6.02,4.49,6.02,4.02z"/>
			<path class="st4" d="M7.11,6.21c0-0.68,0.52-0.89,1.27-1.03c0.47-0.09,0.77-0.14,0.77-0.45c0-0.22-0.13-0.4-0.58-0.4
				c-0.5,0-0.67,0.17-0.7,0.57H7.28C7.31,4.31,7.69,3.85,8.6,3.85c0.64,0,1.14,0.26,1.14,1.06V7H9.17V6.63H9.16
				C8.95,6.91,8.6,7.09,8.11,7.09C7.49,7.09,7.11,6.74,7.11,6.21z M9.16,5.8V5.4c-0.1,0.08-0.36,0.15-0.67,0.22
				C7.96,5.72,7.74,5.86,7.74,6.17c0,0.28,0.15,0.44,0.51,0.44C8.78,6.6,9.16,6.33,9.16,5.8z"/>
			<path class="st4" d="M10.44,3.94h0.61v0.33h0.01c0.15-0.2,0.45-0.41,0.95-0.41c0.6,0,1.08,0.33,1.08,1.03V7h-0.61V5.05
				c0-0.41-0.18-0.68-0.62-0.68c-0.5,0-0.82,0.3-0.82,0.76V7h-0.61V3.94z"/>
			<path class="st4" d="M13.78,2.71h0.61v2.46l1.26-1.24h0.75l-1.18,1.12L16.53,7h-0.74l-0.98-1.54l-0.42,0.4V7h-0.61V2.71z"/>
			<path class="st4" d="M18.16,2.71h2.12v0.58h-0.72v3.12h0.72V7h-2.12V6.42h0.72V3.29h-0.72V2.71z"/>
			<path class="st4" d="M20.81,3.94h0.61v0.33h0.01c0.15-0.2,0.45-0.41,0.95-0.41c0.6,0,1.08,0.33,1.08,1.03V7h-0.61V5.05
				c0-0.41-0.18-0.68-0.62-0.68c-0.5,0-0.82,0.3-0.82,0.76V7h-0.61V3.94z"/>
			<path class="st4" d="M23.98,6.02h0.6c0.02,0.37,0.25,0.58,0.77,0.58c0.5,0,0.67-0.2,0.67-0.44s-0.14-0.38-0.48-0.44l-0.54-0.09
				c-0.57-0.1-0.94-0.35-0.94-0.89c0-0.54,0.44-0.89,1.22-0.89c0.87,0,1.23,0.41,1.25,0.97h-0.61c-0.01-0.31-0.18-0.5-0.64-0.5
				c-0.39,0-0.59,0.14-0.59,0.38c0,0.23,0.14,0.35,0.47,0.41l0.54,0.09c0.58,0.1,0.95,0.38,0.95,0.92c0,0.61-0.47,0.96-1.31,0.96
				C24.39,7.08,23.99,6.64,23.98,6.02z"/>
			<path class="st4" d="M27.18,2.75h0.68V3.4h-0.68V2.75z M27.21,3.94h0.61V7h-0.61V3.94z"/>
			<path class="st4" d="M28.4,5.35c0-0.98,0.59-1.5,1.35-1.5c0.49,0,0.77,0.23,0.94,0.44h0.01V3.94h0.61v2.82
				c0,0.93-0.56,1.34-1.44,1.34c-0.88,0-1.31-0.42-1.38-0.97h0.62c0.06,0.27,0.26,0.48,0.76,0.48c0.55,0,0.83-0.24,0.83-0.82v-0.4
				h-0.01c-0.16,0.23-0.44,0.46-0.94,0.46C28.99,6.85,28.4,6.33,28.4,5.35z M30.7,5.35c0-0.67-0.31-1-0.83-1
				c-0.57,0-0.83,0.43-0.83,1c0,0.57,0.26,1,0.83,1C30.39,6.35,30.7,6.01,30.7,5.35z"/>
			<path class="st4" d="M32.04,3.94h0.61v0.33h0.01c0.15-0.2,0.45-0.41,0.95-0.41c0.6,0,1.08,0.33,1.08,1.03V7h-0.61V5.05
				c0-0.41-0.18-0.68-0.62-0.68c-0.5,0-0.82,0.3-0.82,0.76V7h-0.61V3.94z"/>
			<path class="st4" d="M35.34,2.75h0.68V3.4h-0.68V2.75z M35.38,3.94h0.61V7h-0.61V3.94z"/>
			<path class="st4" d="M36.54,6.21c0-0.68,0.52-0.89,1.27-1.03c0.47-0.09,0.77-0.14,0.77-0.45c0-0.22-0.13-0.4-0.58-0.4
				c-0.5,0-0.67,0.17-0.7,0.57h-0.61c0.03-0.59,0.41-1.05,1.32-1.05c0.64,0,1.14,0.26,1.14,1.06V7H38.6V6.63h-0.01
				c-0.21,0.28-0.55,0.46-1.04,0.46C36.92,7.09,36.54,6.74,36.54,6.21z M38.58,5.8V5.4c-0.1,0.08-0.36,0.15-0.67,0.22
				c-0.53,0.11-0.75,0.25-0.75,0.55c0,0.28,0.15,0.44,0.51,0.44C38.21,6.6,38.58,6.33,38.58,5.8z"/>
			<path class="st4" d="M4.45,12.31c0.69-0.45,1.04-0.63,1.04-1.22c0-0.34-0.14-0.7-0.69-0.7c-0.64,0-0.85,0.42-0.85,0.99H3.28
				c0-0.89,0.48-1.56,1.53-1.56c0.76,0,1.37,0.46,1.37,1.25c0,0.85-0.65,1.28-1.25,1.66c-0.4,0.25-0.77,0.5-0.89,0.89v0.01h2.1v0.57
				H3.18C3.18,13.39,3.65,12.83,4.45,12.31z"/>
			<path class="st4" d="M6.67,12.06c0-1.23,0.49-2.24,1.66-2.24c1.16,0,1.65,1.01,1.65,2.24c0,1.24-0.49,2.23-1.65,2.23
				C7.16,14.29,6.67,13.29,6.67,12.06z M7.58,13.31l1.07-2.87c-0.1-0.04-0.21-0.06-0.33-0.06c-0.76,0-0.99,0.78-0.99,1.68
				C7.33,12.54,7.4,13,7.58,13.31z M9.3,12.06c0-0.49-0.07-0.94-0.25-1.25l-1.07,2.87c0.1,0.04,0.21,0.06,0.34,0.06
				C9.08,13.73,9.3,12.95,9.3,12.06z"/>
			<path class="st4" d="M11.92,11.14h0.61v0.36h0.01c0.16-0.22,0.46-0.44,0.94-0.44c0.78,0,1.37,0.61,1.37,1.62
				s-0.59,1.62-1.37,1.62c-0.48,0-0.78-0.23-0.94-0.46h-0.01v1.43h-0.61V11.14z M14.21,12.67c0-0.6-0.28-1.12-0.85-1.12
				c-0.52,0-0.84,0.43-0.84,1.12s0.32,1.12,0.84,1.12C13.94,13.79,14.21,13.27,14.21,12.67z"/>
			<path class="st4" d="M16.04,12.63l-1.05-1.5h0.7l0.71,1.09h0.01l0.71-1.09h0.68l-1.04,1.5l1.16,1.57h-0.71l-0.81-1.16H16.4
				l-0.8,1.16h-0.7L16.04,12.63z"/>
		</g>
	</g>
</g>
<g id="Icons">
	<path class="st6" d="M60,50l-7,5.25v6.37v2.71v1v1.17v1.8l0.28,0.14C55.38,69.47,57.64,70,60,70c2.36,0,4.62-0.53,6.72-1.56
		L67,68.3v-2.8v-0.17v-1v-2.71v-6.37L60,50z M60,51.25l6,4.5v3.75L60,55l-6,4.5v-3.75L60,51.25z M66,60.75v1.85
		c-1.63,1.55-3.75,2.4-6,2.4c-2.25,0-4.37-0.86-6-2.4v-1.85l6-4.5L66,60.75z M66,65.33v0.17v2.18c-3.77,1.76-8.23,1.76-12,0V66.5
		v-1.17v-1v-0.4c1.7,1.34,3.8,2.07,6,2.07s4.29-0.73,6-2.07v0.4V65.33z"/>
</g>
<g id="Grid" class="st0">
	<g class="st3">
		<rect x="50" y="50" class="st7" width="20" height="20"/>
		<g>
			<line class="st7" x1="51" y1="50" x2="51" y2="70"/>
			<line class="st7" x1="52" y1="50" x2="52" y2="70"/>
			<line class="st7" x1="53" y1="50" x2="53" y2="70"/>
			<line class="st7" x1="54" y1="50" x2="54" y2="70"/>
			<line class="st7" x1="55" y1="50" x2="55" y2="70"/>
			<line class="st7" x1="56" y1="50" x2="56" y2="70"/>
			<line class="st7" x1="57" y1="50" x2="57" y2="70"/>
			<line class="st7" x1="58" y1="50" x2="58" y2="70"/>
			<line class="st7" x1="59" y1="50" x2="59" y2="70"/>
			<line class="st7" x1="60" y1="50" x2="60" y2="70"/>
			<line class="st7" x1="61" y1="50" x2="61" y2="70"/>
			<line class="st7" x1="62" y1="50" x2="62" y2="70"/>
			<line class="st7" x1="63" y1="50" x2="63" y2="70"/>
			<line class="st7" x1="64" y1="50" x2="64" y2="70"/>
			<line class="st7" x1="65" y1="50" x2="65" y2="70"/>
			<line class="st7" x1="66" y1="50" x2="66" y2="70"/>
			<line class="st7" x1="67" y1="50" x2="67" y2="70"/>
			<line class="st7" x1="68" y1="50" x2="68" y2="70"/>
			<line class="st7" x1="69" y1="50" x2="69" y2="70"/>
		</g>
		<g>
			<line class="st7" x1="70" y1="51" x2="50" y2="51"/>
			<line class="st7" x1="70" y1="52" x2="50" y2="52"/>
			<line class="st7" x1="70" y1="53" x2="50" y2="53"/>
			<line class="st7" x1="70" y1="54" x2="50" y2="54"/>
			<line class="st7" x1="70" y1="55" x2="50" y2="55"/>
			<line class="st7" x1="70" y1="56" x2="50" y2="56"/>
			<line class="st7" x1="70" y1="57" x2="50" y2="57"/>
			<line class="st7" x1="70" y1="58" x2="50" y2="58"/>
			<line class="st7" x1="70" y1="59" x2="50" y2="59"/>
			<line class="st7" x1="70" y1="60" x2="50" y2="60"/>
			<line class="st7" x1="70" y1="61" x2="50" y2="61"/>
			<line class="st7" x1="70" y1="62" x2="50" y2="62"/>
			<line class="st7" x1="70" y1="63" x2="50" y2="63"/>
			<line class="st7" x1="70" y1="64" x2="50" y2="64"/>
			<line class="st7" x1="70" y1="65" x2="50" y2="65"/>
			<line class="st7" x1="70" y1="66" x2="50" y2="66"/>
			<line class="st7" x1="70" y1="67" x2="50" y2="67"/>
			<line class="st7" x1="70" y1="68" x2="50" y2="68"/>
			<line class="st7" x1="70" y1="69" x2="50" y2="69"/>
		</g>
	</g>
</g>
</svg>
