<?xml version="1.0" encoding="utf-8"?>
<!-- Generator: Adobe Illustrator 27.1.1, SVG Export Plug-In . SVG Version: 6.00 Build 0)  -->
<svg version="1.1" xmlns="http://www.w3.org/2000/svg" xmlns:xlink="http://www.w3.org/1999/xlink" x="0px" y="0px"
	 viewBox="0 0 120 120" style="enable-background:new 0 0 120 120;" xml:space="preserve">
<style type="text/css">
	.st0{display:none;}
	.st1{display:inline;fill:#FFFFFF;}
	.st2{display:inline;fill:#221F20;}
	.st3{display:inline;}
	.st4{fill:#221F20;}
	.st5{fill:#FFFFFF;}
	.st6{fill:#FFCC01;}
	.st7{fill:none;stroke:#646464;stroke-width:0.035;stroke-miterlimit:10;}
</style>
<g id="Labels__x26__Base" class="st0">
	<rect class="st1" width="120" height="120"/>
	<g class="st3">
		<g>
			<path class="st4" d="M3.23,4.86c0-1.3,0.79-2.24,2.01-2.24c1.08,0,1.74,0.69,1.84,1.55h-0.7C6.3,3.75,6.03,3.21,5.22,3.21
				c-0.94,0-1.29,0.8-1.29,1.64c0,0.85,0.35,1.65,1.29,1.65c0.82,0,1.1-0.54,1.15-1.07h0.7c-0.1,0.96-0.76,1.66-1.85,1.66
				C4.01,7.09,3.23,6.15,3.23,4.86z"/>
			<path class="st4" d="M7.45,6.21c0-0.68,0.52-0.89,1.27-1.03C9.2,5.09,9.5,5.03,9.5,4.73c0-0.22-0.13-0.4-0.58-0.4
				c-0.5,0-0.67,0.17-0.7,0.57H7.62c0.03-0.59,0.41-1.05,1.33-1.05c0.64,0,1.14,0.26,1.14,1.06V7H9.51V6.63H9.5
				c-0.2,0.28-0.55,0.46-1.04,0.46C7.84,7.09,7.45,6.74,7.45,6.21z M9.5,5.8V5.4C9.4,5.48,9.14,5.55,8.83,5.61
				C8.3,5.72,8.08,5.86,8.08,6.17c0,0.28,0.15,0.44,0.51,0.44C9.12,6.6,9.5,6.33,9.5,5.8z"/>
			<path class="st4" d="M10.78,2.71h0.61V7h-0.61V2.71z"/>
			<path class="st4" d="M11.97,5.46c0-0.96,0.58-1.62,1.52-1.62s1.46,0.61,1.46,1.57c0,0.08,0,0.17-0.01,0.21h-2.34
				c0.01,0.52,0.31,0.97,0.91,0.97c0.53,0,0.74-0.34,0.79-0.53h0.62c-0.16,0.58-0.62,1.03-1.42,1.03C12.52,7.1,11.97,6.4,11.97,5.46
				z M12.59,5.17h1.72c0-0.47-0.32-0.83-0.85-0.83C12.98,4.33,12.63,4.67,12.59,5.17z"/>
			<path class="st4" d="M15.53,3.94h0.61v0.33h0.01c0.15-0.2,0.45-0.41,0.95-0.41c0.6,0,1.08,0.33,1.08,1.03V7h-0.61V5.05
				c0-0.41-0.18-0.68-0.62-0.68c-0.5,0-0.82,0.3-0.82,0.76V7h-0.61V3.94z"/>
			<path class="st4" d="M18.73,5.47c0-1.01,0.59-1.62,1.37-1.62c0.48,0,0.77,0.22,0.94,0.46h0.01v-1.6h0.61V7h-0.61V6.64h-0.01
				c-0.16,0.22-0.46,0.45-0.94,0.45C19.32,7.09,18.73,6.48,18.73,5.47z M21.05,5.47c0-0.69-0.32-1.12-0.85-1.12
				c-0.57,0-0.85,0.52-0.85,1.12s0.28,1.12,0.85,1.12C20.72,6.59,21.05,6.16,21.05,5.47z"/>
			<path class="st4" d="M22.21,6.21c0-0.68,0.52-0.89,1.27-1.03c0.47-0.09,0.77-0.14,0.77-0.45c0-0.22-0.13-0.4-0.58-0.4
				c-0.5,0-0.67,0.17-0.7,0.57h-0.61c0.03-0.59,0.41-1.05,1.33-1.05c0.64,0,1.14,0.26,1.14,1.06V7h-0.58V6.63h-0.01
				c-0.2,0.28-0.55,0.46-1.04,0.46C22.59,7.09,22.21,6.74,22.21,6.21z M24.25,5.8V5.4c-0.1,0.08-0.36,0.15-0.67,0.22
				c-0.53,0.11-0.75,0.25-0.75,0.55c0,0.28,0.15,0.44,0.51,0.44C23.87,6.6,24.25,6.33,24.25,5.8z"/>
			<path class="st4" d="M25.54,3.94h0.61v0.58h0.01c0.16-0.36,0.41-0.61,0.82-0.61h0.28v0.58h-0.2c-0.53,0-0.91,0.38-0.91,0.94V7
				h-0.61V3.94z"/>
			<path class="st4" d="M4.45,12.31c0.69-0.45,1.04-0.63,1.04-1.22c0-0.34-0.14-0.7-0.69-0.7c-0.64,0-0.85,0.42-0.85,0.99H3.28
				c0-0.89,0.48-1.56,1.53-1.56c0.76,0,1.37,0.46,1.37,1.25c0,0.85-0.65,1.28-1.25,1.66c-0.4,0.25-0.77,0.5-0.89,0.89v0.01h2.1v0.57
				H3.18C3.18,13.39,3.65,12.83,4.45,12.31z"/>
			<path class="st4" d="M6.67,12.06c0-1.23,0.49-2.24,1.66-2.24c1.16,0,1.65,1.01,1.65,2.24c0,1.24-0.49,2.23-1.65,2.23
				C7.16,14.29,6.67,13.29,6.67,12.06z M7.58,13.31l1.07-2.87c-0.1-0.04-0.21-0.06-0.33-0.06c-0.76,0-0.99,0.78-0.99,1.68
				C7.33,12.54,7.4,13,7.58,13.31z M9.3,12.06c0-0.49-0.07-0.94-0.25-1.25l-1.07,2.87c0.1,0.04,0.21,0.06,0.34,0.06
				C9.08,13.73,9.3,12.95,9.3,12.06z"/>
			<path class="st4" d="M11.92,11.14h0.61v0.36h0.01c0.16-0.22,0.46-0.44,0.94-0.44c0.78,0,1.37,0.61,1.37,1.62
				s-0.59,1.62-1.37,1.62c-0.48,0-0.78-0.23-0.94-0.46h-0.01v1.43h-0.61V11.14z M14.21,12.67c0-0.6-0.28-1.12-0.85-1.12
				c-0.52,0-0.84,0.43-0.84,1.12s0.32,1.12,0.84,1.12C13.94,13.79,14.21,13.27,14.21,12.67z"/>
			<path class="st4" d="M16.04,12.63l-1.05-1.5h0.7l0.71,1.09h0.01l0.71-1.09h0.68l-1.04,1.5l1.16,1.57h-0.71l-0.81-1.16H16.4
				l-0.8,1.16h-0.7L16.04,12.63z"/>
		</g>
	</g>
</g>
<g id="Icons">
	<path class="st6" d="M65.01,51.51V50h-1v1.46H56V50h-1v1.47h-4.99V70h13.66L70,65.25V51.51H65.01z M64,68.5V65h4.67L64,68.5z
		 M69,64h-6v5H51.01V57H69V64z M69,56H51.01v-3.53H55v0.03h1v-0.04h8.01v0.04H65v0.01h4V56z"/>
</g>
<g id="Grid" class="st0">
	<g class="st3">
		<rect x="50" y="50" class="st7" width="20" height="20"/>
		<g>
			<line class="st7" x1="51" y1="50" x2="51" y2="70"/>
			<line class="st7" x1="52" y1="50" x2="52" y2="70"/>
			<line class="st7" x1="53" y1="50" x2="53" y2="70"/>
			<line class="st7" x1="54" y1="50" x2="54" y2="70"/>
			<line class="st7" x1="55" y1="50" x2="55" y2="70"/>
			<line class="st7" x1="56" y1="50" x2="56" y2="70"/>
			<line class="st7" x1="57" y1="50" x2="57" y2="70"/>
			<line class="st7" x1="58" y1="50" x2="58" y2="70"/>
			<line class="st7" x1="59" y1="50" x2="59" y2="70"/>
			<line class="st7" x1="60" y1="50" x2="60" y2="70"/>
			<line class="st7" x1="61" y1="50" x2="61" y2="70"/>
			<line class="st7" x1="62" y1="50" x2="62" y2="70"/>
			<line class="st7" x1="63" y1="50" x2="63" y2="70"/>
			<line class="st7" x1="64" y1="50" x2="64" y2="70"/>
			<line class="st7" x1="65" y1="50" x2="65" y2="70"/>
			<line class="st7" x1="66" y1="50" x2="66" y2="70"/>
			<line class="st7" x1="67" y1="50" x2="67" y2="70"/>
			<line class="st7" x1="68" y1="50" x2="68" y2="70"/>
			<line class="st7" x1="69" y1="50" x2="69" y2="70"/>
		</g>
		<g>
			<line class="st7" x1="70" y1="51" x2="50" y2="51"/>
			<line class="st7" x1="70" y1="52" x2="50" y2="52"/>
			<line class="st7" x1="70" y1="53" x2="50" y2="53"/>
			<line class="st7" x1="70" y1="54" x2="50" y2="54"/>
			<line class="st7" x1="70" y1="55" x2="50" y2="55"/>
			<line class="st7" x1="70" y1="56" x2="50" y2="56"/>
			<line class="st7" x1="70" y1="57" x2="50" y2="57"/>
			<line class="st7" x1="70" y1="58" x2="50" y2="58"/>
			<line class="st7" x1="70" y1="59" x2="50" y2="59"/>
			<line class="st7" x1="70" y1="60" x2="50" y2="60"/>
			<line class="st7" x1="70" y1="61" x2="50" y2="61"/>
			<line class="st7" x1="70" y1="62" x2="50" y2="62"/>
			<line class="st7" x1="70" y1="63" x2="50" y2="63"/>
			<line class="st7" x1="70" y1="64" x2="50" y2="64"/>
			<line class="st7" x1="70" y1="65" x2="50" y2="65"/>
			<line class="st7" x1="70" y1="66" x2="50" y2="66"/>
			<line class="st7" x1="70" y1="67" x2="50" y2="67"/>
			<line class="st7" x1="70" y1="68" x2="50" y2="68"/>
			<line class="st7" x1="70" y1="69" x2="50" y2="69"/>
		</g>
	</g>
</g>
</svg>
