<?xml version="1.0" encoding="utf-8"?>
<!-- Generator: Adobe Illustrator 27.1.1, SVG Export Plug-In . SVG Version: 6.00 Build 0)  -->
<svg version="1.1" xmlns="http://www.w3.org/2000/svg" xmlns:xlink="http://www.w3.org/1999/xlink" x="0px" y="0px"
	 viewBox="0 0 120 120" style="enable-background:new 0 0 120 120;" xml:space="preserve">
<style type="text/css">
	.st0{display:none;}
	.st1{display:inline;fill:#FFFFFF;}
	.st2{display:inline;fill:#221F20;}
	.st3{display:inline;}
	.st4{fill:#221F20;}
	.st5{fill:#FFFFFF;}
	.st6{fill:#FFCC01;}
	.st7{fill:none;stroke:#646464;stroke-width:0.035;stroke-miterlimit:10;}
</style>
<g id="Labels__x26__Base" class="st0">
	<rect class="st1" width="120" height="120"/>
	<g class="st3">
		<g>
			<path class="st4" d="M2.85,2.81h0.68v3.71h2.16V7.1H2.85V2.81z"/>
			<path class="st4" d="M6.03,5.57c0-0.96,0.58-1.62,1.54-1.62c0.95,0,1.53,0.67,1.53,1.62c0,0.96-0.58,1.63-1.54,1.63
				C6.61,7.19,6.03,6.53,6.03,5.57z M8.47,5.57c0-0.64-0.29-1.13-0.91-1.13c-0.62,0-0.91,0.49-0.91,1.13c0,0.64,0.29,1.13,0.91,1.13
				C8.18,6.69,8.47,6.2,8.47,5.57z"/>
			<path class="st4" d="M9.53,5.57c0-0.96,0.59-1.62,1.51-1.62c0.79,0,1.31,0.51,1.38,1.2H11.8c-0.02-0.31-0.2-0.7-0.75-0.7
				c-0.64,0-0.88,0.54-0.88,1.12c0,0.58,0.24,1.12,0.88,1.12c0.55,0,0.73-0.38,0.75-0.73h0.62c-0.04,0.7-0.59,1.22-1.38,1.22
				C10.12,7.19,9.53,6.53,9.53,5.57z"/>
			<path class="st4" d="M12.8,6.3c0-0.68,0.52-0.89,1.27-1.03c0.47-0.09,0.77-0.14,0.77-0.45c0-0.22-0.13-0.4-0.58-0.4
				c-0.5,0-0.67,0.17-0.7,0.57h-0.61C13,4.4,13.38,3.94,14.29,3.94c0.64,0,1.14,0.26,1.14,1.06V7.1h-0.58V6.72h-0.01
				c-0.2,0.28-0.55,0.46-1.04,0.46C13.19,7.19,12.8,6.83,12.8,6.3z M14.85,5.9v-0.4c-0.1,0.08-0.36,0.15-0.67,0.22
				c-0.53,0.11-0.75,0.25-0.75,0.55c0,0.28,0.15,0.44,0.51,0.44C14.47,6.7,14.85,6.42,14.85,5.9z"/>
			<path class="st4" d="M16.37,6.28V4.53h-0.44v-0.5h0.44V3.32h0.61v0.71h0.7v0.5h-0.7v1.72c0,0.26,0.09,0.32,0.34,0.32h0.37V7.1
				h-0.5C16.67,7.1,16.37,6.92,16.37,6.28z"/>
			<path class="st4" d="M18.23,2.85h0.68V3.5h-0.68V2.85z M18.26,4.03h0.61V7.1h-0.61V4.03z"/>
			<path class="st4" d="M19.45,5.57c0-0.96,0.58-1.62,1.54-1.62c0.95,0,1.53,0.67,1.53,1.62c0,0.96-0.58,1.63-1.54,1.63
				C20.03,7.19,19.45,6.53,19.45,5.57z M21.9,5.57c0-0.64-0.29-1.13-0.91-1.13c-0.62,0-0.91,0.49-0.91,1.13
				c0,0.64,0.29,1.13,0.91,1.13C21.6,6.69,21.9,6.2,21.9,5.57z"/>
			<path class="st4" d="M23.1,4.03h0.61v0.33h0.01c0.15-0.2,0.45-0.41,0.95-0.41c0.6,0,1.08,0.33,1.08,1.03V7.1h-0.61V5.15
				c0-0.41-0.18-0.68-0.62-0.68c-0.5,0-0.82,0.3-0.82,0.76V7.1H23.1V4.03z"/>
			<path class="st4" d="M2.67,12.17c0-1.41,0.6-2.25,1.63-2.25c0.77,0,1.29,0.52,1.37,1.14H4.99c-0.05-0.34-0.25-0.58-0.69-0.58
				c-0.77,0-0.96,0.78-0.98,1.46l0.01,0.01c0.22-0.28,0.59-0.45,1.04-0.45c0.85,0,1.4,0.58,1.4,1.41s-0.56,1.49-1.49,1.49
				C3.1,14.39,2.67,13.46,2.67,12.17z M5.11,12.94c0-0.56-0.32-0.9-0.79-0.9c-0.56,0-0.91,0.38-0.91,0.91
				c0,0.52,0.31,0.88,0.88,0.88C4.81,13.83,5.11,13.48,5.11,12.94z"/>
			<path class="st4" d="M6.26,12.16c0-1.23,0.49-2.24,1.66-2.24c1.16,0,1.65,1.01,1.65,2.24c0,1.24-0.49,2.23-1.65,2.23
				C6.75,14.39,6.26,13.39,6.26,12.16z M7.18,13.41l1.07-2.87c-0.1-0.04-0.21-0.06-0.33-0.06c-0.76,0-0.99,0.78-0.99,1.68
				C6.93,12.64,6.99,13.1,7.18,13.41z M8.9,12.16c0-0.49-0.07-0.94-0.25-1.25l-1.07,2.87c0.1,0.04,0.21,0.06,0.34,0.06
				C8.68,13.83,8.9,13.05,8.9,12.16z"/>
			<path class="st4" d="M11.51,11.23h0.61v0.36h0.01c0.16-0.22,0.46-0.44,0.94-0.44c0.78,0,1.37,0.61,1.37,1.62
				s-0.59,1.62-1.37,1.62c-0.48,0-0.78-0.23-0.94-0.46h-0.01v1.43h-0.61V11.23z M13.81,12.77c0-0.6-0.28-1.12-0.85-1.12
				c-0.52,0-0.84,0.43-0.84,1.12s0.32,1.12,0.84,1.12C13.53,13.89,13.81,13.37,13.81,12.77z"/>
			<path class="st4" d="M15.64,12.73l-1.05-1.5h0.7L16,12.32h0.01l0.71-1.09h0.68l-1.04,1.5l1.16,1.57h-0.71L16,13.13h-0.01
				l-0.8,1.16h-0.7L15.64,12.73z"/>
		</g>
	</g>
</g>
<g id="Icons">
	<path class="st4" d="M76.42,36.59c-8.78-8.78-23.06-8.78-31.84,0c-8.27,8.27-8.88,21.26-1.44,30.26c0,0,0,0.01,0.01,0.01
		L60.5,88.93l17.44-22.17c0,0,0-0.01,0.01-0.01C85.29,57.77,84.64,44.81,76.42,36.59z M45.5,65.01c0-0.01-0.01-0.01-0.01-0.01
		c0-0.01-0.01-0.01-0.01-0.02C39,57.18,39.52,45.89,46.7,38.72c7.61-7.61,19.99-7.61,27.6,0c7.13,7.13,7.69,18.38,1.3,26.16
		c0,0-0.01,0.01-0.01,0.01c0,0-0.01,0.01-0.01,0.01L60.5,84.07L45.5,65.01z M72,49.54l-7.38,5.68l2.8,9.16L60,58.74l-7.42,5.63
		l2.8-9.16L48,49.54l9.15-0.03L60,40.38l2.85,9.14L72,49.54z"/>
</g>
<g id="Grid" class="st0">
	<g class="st3">
		<rect x="30" y="30" class="st7" width="60" height="60"/>
		<g>
			<line class="st7" x1="31" y1="30" x2="31" y2="90"/>
			<line class="st7" x1="32" y1="30" x2="32" y2="90"/>
			<line class="st7" x1="33" y1="30" x2="33" y2="90"/>
			<line class="st7" x1="34" y1="30" x2="34" y2="90"/>
			<line class="st7" x1="35" y1="30" x2="35" y2="90"/>
			<line class="st7" x1="36" y1="30" x2="36" y2="90"/>
			<line class="st7" x1="37" y1="30" x2="37" y2="90"/>
			<line class="st7" x1="38" y1="30" x2="38" y2="90"/>
			<line class="st7" x1="39" y1="30" x2="39" y2="90"/>
			<line class="st7" x1="40" y1="30" x2="40" y2="90"/>
			<line class="st7" x1="41" y1="30" x2="41" y2="90"/>
			<line class="st7" x1="42" y1="30" x2="42" y2="90"/>
			<line class="st7" x1="43" y1="30" x2="43" y2="90"/>
			<line class="st7" x1="44" y1="30" x2="44" y2="90"/>
			<line class="st7" x1="45" y1="30" x2="45" y2="90"/>
			<line class="st7" x1="46" y1="30" x2="46" y2="90"/>
			<line class="st7" x1="47" y1="30" x2="47" y2="90"/>
			<line class="st7" x1="48" y1="30" x2="48" y2="90"/>
			<line class="st7" x1="49" y1="30" x2="49" y2="90"/>
			<line class="st7" x1="50" y1="30" x2="50" y2="90"/>
			<line class="st7" x1="51" y1="30" x2="51" y2="90"/>
			<line class="st7" x1="52" y1="30" x2="52" y2="90"/>
			<line class="st7" x1="53" y1="30" x2="53" y2="90"/>
			<line class="st7" x1="54" y1="30" x2="54" y2="90"/>
			<line class="st7" x1="55" y1="30" x2="55" y2="90"/>
			<line class="st7" x1="56" y1="30" x2="56" y2="90"/>
			<line class="st7" x1="57" y1="30" x2="57" y2="90"/>
			<line class="st7" x1="58" y1="30" x2="58" y2="90"/>
			<line class="st7" x1="59" y1="30" x2="59" y2="90"/>
			<line class="st7" x1="60" y1="30" x2="60" y2="90"/>
			<line class="st7" x1="61" y1="30" x2="61" y2="90"/>
			<line class="st7" x1="62" y1="30" x2="62" y2="90"/>
			<line class="st7" x1="63" y1="30" x2="63" y2="90"/>
			<line class="st7" x1="64" y1="30" x2="64" y2="90"/>
			<line class="st7" x1="65" y1="30" x2="65" y2="90"/>
			<line class="st7" x1="66" y1="30" x2="66" y2="90"/>
			<line class="st7" x1="67" y1="30" x2="67" y2="90"/>
			<line class="st7" x1="68" y1="30" x2="68" y2="90"/>
			<line class="st7" x1="69" y1="30" x2="69" y2="90"/>
			<line class="st7" x1="70" y1="30" x2="70" y2="90"/>
			<line class="st7" x1="71" y1="30" x2="71" y2="90"/>
			<line class="st7" x1="72" y1="30" x2="72" y2="90"/>
			<line class="st7" x1="73" y1="30" x2="73" y2="90"/>
			<line class="st7" x1="74" y1="30" x2="74" y2="90"/>
			<line class="st7" x1="75" y1="30" x2="75" y2="90"/>
			<line class="st7" x1="76" y1="30" x2="76" y2="90"/>
			<line class="st7" x1="77" y1="30" x2="77" y2="90"/>
			<line class="st7" x1="78" y1="30" x2="78" y2="90"/>
			<line class="st7" x1="79" y1="30" x2="79" y2="90"/>
			<line class="st7" x1="80" y1="30" x2="80" y2="90"/>
			<line class="st7" x1="81" y1="30" x2="81" y2="90"/>
			<line class="st7" x1="82" y1="30" x2="82" y2="90"/>
			<line class="st7" x1="83" y1="30" x2="83" y2="90"/>
			<line class="st7" x1="84" y1="30" x2="84" y2="90"/>
			<line class="st7" x1="85" y1="30" x2="85" y2="90"/>
			<line class="st7" x1="86" y1="30" x2="86" y2="90"/>
			<line class="st7" x1="87" y1="30" x2="87" y2="90"/>
			<line class="st7" x1="88" y1="30" x2="88" y2="90"/>
			<line class="st7" x1="89" y1="30" x2="89" y2="90"/>
		</g>
		<g>
			<line class="st7" x1="90" y1="31" x2="30" y2="31"/>
			<line class="st7" x1="90" y1="32" x2="30" y2="32"/>
			<line class="st7" x1="90" y1="33" x2="30" y2="33"/>
			<line class="st7" x1="90" y1="34" x2="30" y2="34"/>
			<line class="st7" x1="90" y1="35" x2="30" y2="35"/>
			<line class="st7" x1="90" y1="36" x2="30" y2="36"/>
			<line class="st7" x1="90" y1="37" x2="30" y2="37"/>
			<line class="st7" x1="90" y1="38" x2="30" y2="38"/>
			<line class="st7" x1="90" y1="39" x2="30" y2="39"/>
			<line class="st7" x1="90" y1="40" x2="30" y2="40"/>
			<line class="st7" x1="90" y1="41" x2="30" y2="41"/>
			<line class="st7" x1="90" y1="42" x2="30" y2="42"/>
			<line class="st7" x1="90" y1="43" x2="30" y2="43"/>
			<line class="st7" x1="90" y1="44" x2="30" y2="44"/>
			<line class="st7" x1="90" y1="45" x2="30" y2="45"/>
			<line class="st7" x1="90" y1="46" x2="30" y2="46"/>
			<line class="st7" x1="90" y1="47" x2="30" y2="47"/>
			<line class="st7" x1="90" y1="48" x2="30" y2="48"/>
			<line class="st7" x1="90" y1="49" x2="30" y2="49"/>
			<line class="st7" x1="90" y1="50" x2="30" y2="50"/>
			<line class="st7" x1="90" y1="51" x2="30" y2="51"/>
			<line class="st7" x1="90" y1="52" x2="30" y2="52"/>
			<line class="st7" x1="90" y1="53" x2="30" y2="53"/>
			<line class="st7" x1="90" y1="54" x2="30" y2="54"/>
			<line class="st7" x1="90" y1="55" x2="30" y2="55"/>
			<line class="st7" x1="90" y1="56" x2="30" y2="56"/>
			<line class="st7" x1="90" y1="57" x2="30" y2="57"/>
			<line class="st7" x1="90" y1="58" x2="30" y2="58"/>
			<line class="st7" x1="90" y1="59" x2="30" y2="59"/>
			<line class="st7" x1="90" y1="60" x2="30" y2="60"/>
			<line class="st7" x1="90" y1="61" x2="30" y2="61"/>
			<line class="st7" x1="90" y1="62" x2="30" y2="62"/>
			<line class="st7" x1="90" y1="63" x2="30" y2="63"/>
			<line class="st7" x1="90" y1="64" x2="30" y2="64"/>
			<line class="st7" x1="90" y1="65" x2="30" y2="65"/>
			<line class="st7" x1="90" y1="66" x2="30" y2="66"/>
			<line class="st7" x1="90" y1="67" x2="30" y2="67"/>
			<line class="st7" x1="90" y1="68" x2="30" y2="68"/>
			<line class="st7" x1="90" y1="69" x2="30" y2="69"/>
			<line class="st7" x1="90" y1="70" x2="30" y2="70"/>
			<line class="st7" x1="90" y1="71" x2="30" y2="71"/>
			<line class="st7" x1="90" y1="72" x2="30" y2="72"/>
			<line class="st7" x1="90" y1="73" x2="30" y2="73"/>
			<line class="st7" x1="90" y1="74" x2="30" y2="74"/>
			<line class="st7" x1="90" y1="75" x2="30" y2="75"/>
			<line class="st7" x1="90" y1="76" x2="30" y2="76"/>
			<line class="st7" x1="90" y1="77" x2="30" y2="77"/>
			<line class="st7" x1="90" y1="78" x2="30" y2="78"/>
			<line class="st7" x1="90" y1="79" x2="30" y2="79"/>
			<line class="st7" x1="90" y1="80" x2="30" y2="80"/>
			<line class="st7" x1="90" y1="81" x2="30" y2="81"/>
			<line class="st7" x1="90" y1="82" x2="30" y2="82"/>
			<line class="st7" x1="90" y1="83" x2="30" y2="83"/>
			<line class="st7" x1="90" y1="84" x2="30" y2="84"/>
			<line class="st7" x1="90" y1="85" x2="30" y2="85"/>
			<line class="st7" x1="90" y1="86" x2="30" y2="86"/>
			<line class="st7" x1="90" y1="87" x2="30" y2="87"/>
			<line class="st7" x1="90" y1="88" x2="30" y2="88"/>
			<line class="st7" x1="90" y1="89" x2="30" y2="89"/>
		</g>
	</g>
</g>
</svg>
