<?xml version="1.0" encoding="utf-8"?>
<!-- Generator: Adobe Illustrator 27.1.1, SVG Export Plug-In . SVG Version: 6.00 Build 0)  -->
<svg version="1.1" xmlns="http://www.w3.org/2000/svg" xmlns:xlink="http://www.w3.org/1999/xlink" x="0px" y="0px"
	 viewBox="0 0 120 120" style="enable-background:new 0 0 120 120;" xml:space="preserve">
<style type="text/css">
	.st0{display:none;}
	.st1{display:inline;fill:#FFFFFF;}
	.st2{display:inline;fill:#221F20;}
	.st3{display:inline;}
	.st4{fill:#221F20;}
	.st5{fill:#FFFFFF;}
	.st6{fill:#FFCC01;}
	.st7{fill:none;stroke:#646464;stroke-width:0.035;stroke-miterlimit:10;}
</style>
<g id="Labels__x26__Base" class="st0">
	<rect class="st1" width="120" height="120"/>
	<g class="st3">
		<g>
			<path class="st4" d="M3.22,1.99H5.7v0.68H4.86v3.65H5.7V7H3.22V6.32h0.84V2.67H3.22V1.99z"/>
			<path class="st4" d="M6.3,3.42h0.71v0.39h0.01C7.2,3.57,7.55,3.32,8.13,3.32c0.7,0,1.26,0.38,1.26,1.2V7H8.69V4.72
				c0-0.48-0.21-0.8-0.72-0.8c-0.58,0-0.95,0.35-0.95,0.89V7H6.3V3.42z"/>
			<path class="st4" d="M9.96,3.42h0.5V2.99c0-0.78,0.34-1,0.93-1h0.58v0.62h-0.44c-0.28,0-0.37,0.07-0.37,0.37v0.44h0.81V4h-0.81v3
				h-0.71V4h-0.5V3.42z"/>
			<path class="st4" d="M12.37,5.21c0-1.12,0.68-1.9,1.8-1.9c1.11,0,1.79,0.78,1.79,1.89c0,1.12-0.67,1.91-1.79,1.91
				C13.04,7.11,12.37,6.33,12.37,5.21z M15.22,5.21c0-0.75-0.34-1.32-1.06-1.32c-0.73,0-1.06,0.57-1.06,1.32
				c0,0.74,0.34,1.32,1.06,1.32C14.88,6.53,15.22,5.96,15.22,5.21z"/>
			<path class="st4" d="M16.63,3.42h0.71V4.1h0.01c0.18-0.42,0.48-0.71,0.96-0.71h0.32v0.67H18.4c-0.62,0-1.06,0.45-1.06,1.1V7
				h-0.71V3.42z"/>
			<path class="st4" d="M19.25,3.42h0.71v0.39h0.01c0.18-0.24,0.49-0.48,1-0.48c0.51,0,0.83,0.2,0.98,0.55h0.01
				c0.25-0.3,0.6-0.55,1.13-0.55c0.76,0,1.15,0.43,1.15,1.2V7h-0.71V4.72c0-0.48-0.1-0.8-0.62-0.8c-0.5,0-0.83,0.35-0.83,0.89V7
				h-0.71V4.72c0-0.48-0.09-0.8-0.61-0.8c-0.51,0-0.83,0.35-0.83,0.89V7h-0.71V3.42z"/>
			<path class="st4" d="M24.85,6.08c0-0.8,0.6-1.04,1.49-1.2c0.55-0.11,0.9-0.17,0.9-0.53c0-0.26-0.15-0.47-0.67-0.47
				c-0.59,0-0.78,0.2-0.81,0.67h-0.71c0.04-0.69,0.48-1.23,1.55-1.23c0.75,0,1.33,0.31,1.33,1.24V7h-0.67V6.57h-0.01
				C27,6.9,26.6,7.1,26.02,7.1C25.3,7.1,24.85,6.69,24.85,6.08z M27.24,5.6V5.13c-0.11,0.1-0.42,0.18-0.78,0.25
				c-0.62,0.13-0.88,0.29-0.88,0.64c0,0.33,0.17,0.51,0.59,0.51C26.8,6.54,27.24,6.22,27.24,5.6z"/>
			<path class="st4" d="M29.01,6.05V4h-0.52V3.42h0.52V2.59h0.71v0.83h0.82V4h-0.82v2.01c0,0.31,0.11,0.37,0.4,0.37h0.43V7h-0.59
				C29.37,7,29.01,6.8,29.01,6.05z"/>
			<path class="st4" d="M31.18,2.04h0.79V2.8h-0.79V2.04z M31.22,3.42h0.71V7h-0.71V3.42z"/>
			<path class="st4" d="M32.61,5.21c0-1.12,0.68-1.9,1.8-1.9c1.11,0,1.79,0.78,1.79,1.89c0,1.12-0.67,1.91-1.79,1.91
				C33.29,7.11,32.61,6.33,32.61,5.21z M35.47,5.21c0-0.75-0.34-1.32-1.06-1.32c-0.73,0-1.06,0.57-1.06,1.32
				c0,0.74,0.34,1.32,1.06,1.32C35.12,6.53,35.47,5.96,35.47,5.21z"/>
			<path class="st4" d="M36.87,3.42h0.71v0.39h0.01c0.18-0.24,0.53-0.48,1.11-0.48c0.7,0,1.26,0.38,1.26,1.2V7h-0.71V4.72
				c0-0.48-0.21-0.8-0.72-0.8c-0.58,0-0.95,0.35-0.95,0.89V7h-0.71V3.42z"/>
			<path class="st4" d="M3.31,12.91c0-1.65,0.7-2.63,1.9-2.63c0.9,0,1.51,0.6,1.6,1.33h-0.8c-0.06-0.39-0.29-0.68-0.81-0.68
				c-0.9,0-1.12,0.91-1.14,1.7l0.01,0.01c0.25-0.32,0.69-0.53,1.22-0.53c0.99,0,1.64,0.68,1.64,1.65c0,0.97-0.66,1.74-1.74,1.74
				C3.81,15.5,3.31,14.43,3.31,12.91z M6.15,13.82c0-0.66-0.37-1.05-0.93-1.05c-0.66,0-1.06,0.44-1.06,1.06
				c0,0.61,0.37,1.02,1.02,1.02C5.81,14.85,6.15,14.45,6.15,13.82z"/>
			<path class="st4" d="M7.49,12.9c0-1.44,0.57-2.61,1.93-2.61c1.35,0,1.93,1.18,1.93,2.61c0,1.44-0.57,2.61-1.93,2.61
				C8.07,15.5,7.49,14.34,7.49,12.9z M8.57,14.36l1.25-3.35c-0.11-0.04-0.25-0.07-0.39-0.07c-0.89,0-1.16,0.91-1.16,1.96
				C8.27,13.47,8.35,14,8.57,14.36z M10.58,12.9c0-0.57-0.08-1.1-0.29-1.46l-1.25,3.35c0.11,0.04,0.24,0.07,0.39,0.07
				C10.32,14.85,10.58,13.94,10.58,12.9z"/>
			<path class="st4" d="M13.62,11.82h0.71v0.42h0.01c0.19-0.25,0.54-0.52,1.1-0.52c0.91,0,1.6,0.71,1.6,1.89
				c0,1.18-0.69,1.89-1.6,1.89c-0.56,0-0.91-0.27-1.1-0.54h-0.01v1.67h-0.71V11.82z M16.3,13.61c0-0.7-0.32-1.31-0.99-1.31
				c-0.61,0-0.98,0.5-0.98,1.31c0,0.81,0.37,1.31,0.98,1.31C15.98,14.92,16.3,14.31,16.3,13.61z"/>
			<path class="st4" d="M18.44,13.57l-1.23-1.75h0.81l0.83,1.27h0.01l0.83-1.27h0.8l-1.22,1.75l1.35,1.83h-0.83l-0.95-1.36h-0.01
				l-0.94,1.36h-0.82L18.44,13.57z"/>
		</g>
	</g>
</g>
<g id="Icons">
	<path class="st4" d="M60,90c-16.54,0-30-13.46-30-30s13.46-30,30-30s30,13.46,30,30S76.54,90,60,90z M60,33
		c-14.89,0-27,12.11-27,27s12.11,27,27,27s27-12.11,27-27S74.89,33,60,33z M52.35,44h15.31v3.09h-5.91v25.82h5.91V76H52.35v-3.09
		h5.91V47.09h-5.91V44z"/>
</g>
<g id="Grid" class="st0">
	<g class="st3">
		<rect x="30" y="30" class="st7" width="60" height="60"/>
		<g>
			<line class="st7" x1="31" y1="30" x2="31" y2="90"/>
			<line class="st7" x1="32" y1="30" x2="32" y2="90"/>
			<line class="st7" x1="33" y1="30" x2="33" y2="90"/>
			<line class="st7" x1="34" y1="30" x2="34" y2="90"/>
			<line class="st7" x1="35" y1="30" x2="35" y2="90"/>
			<line class="st7" x1="36" y1="30" x2="36" y2="90"/>
			<line class="st7" x1="37" y1="30" x2="37" y2="90"/>
			<line class="st7" x1="38" y1="30" x2="38" y2="90"/>
			<line class="st7" x1="39" y1="30" x2="39" y2="90"/>
			<line class="st7" x1="40" y1="30" x2="40" y2="90"/>
			<line class="st7" x1="41" y1="30" x2="41" y2="90"/>
			<line class="st7" x1="42" y1="30" x2="42" y2="90"/>
			<line class="st7" x1="43" y1="30" x2="43" y2="90"/>
			<line class="st7" x1="44" y1="30" x2="44" y2="90"/>
			<line class="st7" x1="45" y1="30" x2="45" y2="90"/>
			<line class="st7" x1="46" y1="30" x2="46" y2="90"/>
			<line class="st7" x1="47" y1="30" x2="47" y2="90"/>
			<line class="st7" x1="48" y1="30" x2="48" y2="90"/>
			<line class="st7" x1="49" y1="30" x2="49" y2="90"/>
			<line class="st7" x1="50" y1="30" x2="50" y2="90"/>
			<line class="st7" x1="51" y1="30" x2="51" y2="90"/>
			<line class="st7" x1="52" y1="30" x2="52" y2="90"/>
			<line class="st7" x1="53" y1="30" x2="53" y2="90"/>
			<line class="st7" x1="54" y1="30" x2="54" y2="90"/>
			<line class="st7" x1="55" y1="30" x2="55" y2="90"/>
			<line class="st7" x1="56" y1="30" x2="56" y2="90"/>
			<line class="st7" x1="57" y1="30" x2="57" y2="90"/>
			<line class="st7" x1="58" y1="30" x2="58" y2="90"/>
			<line class="st7" x1="59" y1="30" x2="59" y2="90"/>
			<line class="st7" x1="60" y1="30" x2="60" y2="90"/>
			<line class="st7" x1="61" y1="30" x2="61" y2="90"/>
			<line class="st7" x1="62" y1="30" x2="62" y2="90"/>
			<line class="st7" x1="63" y1="30" x2="63" y2="90"/>
			<line class="st7" x1="64" y1="30" x2="64" y2="90"/>
			<line class="st7" x1="65" y1="30" x2="65" y2="90"/>
			<line class="st7" x1="66" y1="30" x2="66" y2="90"/>
			<line class="st7" x1="67" y1="30" x2="67" y2="90"/>
			<line class="st7" x1="68" y1="30" x2="68" y2="90"/>
			<line class="st7" x1="69" y1="30" x2="69" y2="90"/>
			<line class="st7" x1="70" y1="30" x2="70" y2="90"/>
			<line class="st7" x1="71" y1="30" x2="71" y2="90"/>
			<line class="st7" x1="72" y1="30" x2="72" y2="90"/>
			<line class="st7" x1="73" y1="30" x2="73" y2="90"/>
			<line class="st7" x1="74" y1="30" x2="74" y2="90"/>
			<line class="st7" x1="75" y1="30" x2="75" y2="90"/>
			<line class="st7" x1="76" y1="30" x2="76" y2="90"/>
			<line class="st7" x1="77" y1="30" x2="77" y2="90"/>
			<line class="st7" x1="78" y1="30" x2="78" y2="90"/>
			<line class="st7" x1="79" y1="30" x2="79" y2="90"/>
			<line class="st7" x1="80" y1="30" x2="80" y2="90"/>
			<line class="st7" x1="81" y1="30" x2="81" y2="90"/>
			<line class="st7" x1="82" y1="30" x2="82" y2="90"/>
			<line class="st7" x1="83" y1="30" x2="83" y2="90"/>
			<line class="st7" x1="84" y1="30" x2="84" y2="90"/>
			<line class="st7" x1="85" y1="30" x2="85" y2="90"/>
			<line class="st7" x1="86" y1="30" x2="86" y2="90"/>
			<line class="st7" x1="87" y1="30" x2="87" y2="90"/>
			<line class="st7" x1="88" y1="30" x2="88" y2="90"/>
			<line class="st7" x1="89" y1="30" x2="89" y2="90"/>
		</g>
		<g>
			<line class="st7" x1="90" y1="31" x2="30" y2="31"/>
			<line class="st7" x1="90" y1="32" x2="30" y2="32"/>
			<line class="st7" x1="90" y1="33" x2="30" y2="33"/>
			<line class="st7" x1="90" y1="34" x2="30" y2="34"/>
			<line class="st7" x1="90" y1="35" x2="30" y2="35"/>
			<line class="st7" x1="90" y1="36" x2="30" y2="36"/>
			<line class="st7" x1="90" y1="37" x2="30" y2="37"/>
			<line class="st7" x1="90" y1="38" x2="30" y2="38"/>
			<line class="st7" x1="90" y1="39" x2="30" y2="39"/>
			<line class="st7" x1="90" y1="40" x2="30" y2="40"/>
			<line class="st7" x1="90" y1="41" x2="30" y2="41"/>
			<line class="st7" x1="90" y1="42" x2="30" y2="42"/>
			<line class="st7" x1="90" y1="43" x2="30" y2="43"/>
			<line class="st7" x1="90" y1="44" x2="30" y2="44"/>
			<line class="st7" x1="90" y1="45" x2="30" y2="45"/>
			<line class="st7" x1="90" y1="46" x2="30" y2="46"/>
			<line class="st7" x1="90" y1="47" x2="30" y2="47"/>
			<line class="st7" x1="90" y1="48" x2="30" y2="48"/>
			<line class="st7" x1="90" y1="49" x2="30" y2="49"/>
			<line class="st7" x1="90" y1="50" x2="30" y2="50"/>
			<line class="st7" x1="90" y1="51" x2="30" y2="51"/>
			<line class="st7" x1="90" y1="52" x2="30" y2="52"/>
			<line class="st7" x1="90" y1="53" x2="30" y2="53"/>
			<line class="st7" x1="90" y1="54" x2="30" y2="54"/>
			<line class="st7" x1="90" y1="55" x2="30" y2="55"/>
			<line class="st7" x1="90" y1="56" x2="30" y2="56"/>
			<line class="st7" x1="90" y1="57" x2="30" y2="57"/>
			<line class="st7" x1="90" y1="58" x2="30" y2="58"/>
			<line class="st7" x1="90" y1="59" x2="30" y2="59"/>
			<line class="st7" x1="90" y1="60" x2="30" y2="60"/>
			<line class="st7" x1="90" y1="61" x2="30" y2="61"/>
			<line class="st7" x1="90" y1="62" x2="30" y2="62"/>
			<line class="st7" x1="90" y1="63" x2="30" y2="63"/>
			<line class="st7" x1="90" y1="64" x2="30" y2="64"/>
			<line class="st7" x1="90" y1="65" x2="30" y2="65"/>
			<line class="st7" x1="90" y1="66" x2="30" y2="66"/>
			<line class="st7" x1="90" y1="67" x2="30" y2="67"/>
			<line class="st7" x1="90" y1="68" x2="30" y2="68"/>
			<line class="st7" x1="90" y1="69" x2="30" y2="69"/>
			<line class="st7" x1="90" y1="70" x2="30" y2="70"/>
			<line class="st7" x1="90" y1="71" x2="30" y2="71"/>
			<line class="st7" x1="90" y1="72" x2="30" y2="72"/>
			<line class="st7" x1="90" y1="73" x2="30" y2="73"/>
			<line class="st7" x1="90" y1="74" x2="30" y2="74"/>
			<line class="st7" x1="90" y1="75" x2="30" y2="75"/>
			<line class="st7" x1="90" y1="76" x2="30" y2="76"/>
			<line class="st7" x1="90" y1="77" x2="30" y2="77"/>
			<line class="st7" x1="90" y1="78" x2="30" y2="78"/>
			<line class="st7" x1="90" y1="79" x2="30" y2="79"/>
			<line class="st7" x1="90" y1="80" x2="30" y2="80"/>
			<line class="st7" x1="90" y1="81" x2="30" y2="81"/>
			<line class="st7" x1="90" y1="82" x2="30" y2="82"/>
			<line class="st7" x1="90" y1="83" x2="30" y2="83"/>
			<line class="st7" x1="90" y1="84" x2="30" y2="84"/>
			<line class="st7" x1="90" y1="85" x2="30" y2="85"/>
			<line class="st7" x1="90" y1="86" x2="30" y2="86"/>
			<line class="st7" x1="90" y1="87" x2="30" y2="87"/>
			<line class="st7" x1="90" y1="88" x2="30" y2="88"/>
			<line class="st7" x1="90" y1="89" x2="30" y2="89"/>
		</g>
	</g>
</g>
</svg>
