<?xml version="1.0" encoding="utf-8"?>
<!-- Generator: Adobe Illustrator 26.3.1, SVG Export Plug-In . SVG Version: 6.00 Build 0)  -->
<svg version="1.1" id="Layer_1" xmlns="http://www.w3.org/2000/svg" xmlns:xlink="http://www.w3.org/1999/xlink" x="0px" y="0px"
	 viewBox="0 0 200 200" style="enable-background:new 0 0 200 200;" xml:space="preserve">
<style type="text/css">
	.st0{fill:#010101;stroke:#818181;stroke-width:5;stroke-miterlimit:10;}
	.st1{fill:#FFCA06;}
</style>
<g id="Layer_2_00000026871169769835825500000007017973590724321187_">
	<path class="st0" d="M170.79,49.12l-70.41-23.29H99.6l0,0L29.26,49.12c-16.11,114.1,61.73,141.23,71.11,143.82
		C100.37,192.94,186.9,163.22,170.79,49.12z"/>
	<path class="st1" d="M108.16,5.15c-9.77,16.91-21.01,34.92-30.93,48.44c-8.14,11.1-15.2,19.55-11.94,35.93
		c-3.37-11.58-4.85-20.12-15.2-27.48c8.27,16.8-5.17,36.28-1.28,54.28c3.55,16.4,21.23,40.42,40.89,38.72
		c-13.71-5.35-21.61-21.36-16.28-34.87c2.04,7.11,7.96,12.55,14.11,15.85c-5.24-13.24-10.83-25.8-7.33-40.69
		c3.62-15.4,11.93-29.09,19.37-41.72c0,11.66,0.87,34.08,5.46,45.02c5.23,12.47,16.52,16.76,12.89-2.24
		c22.73,14.7,13.39,48.89-6.51,61.29c31.75-10.02,38.38-36.23,27.49-66.3C128.08,61.45,101.72,39.84,108.16,5.15z"/>
</g>
</svg>
