<?xml version="1.0" encoding="utf-8"?>
<!-- Generator: Adobe Illustrator 26.5.0, SVG Export Plug-In . SVG Version: 6.00 Build 0)  -->
<svg version="1.1" id="logo2" xmlns="http://www.w3.org/2000/svg" xmlns:xlink="http://www.w3.org/1999/xlink" x="0px" y="0px"
	 viewBox="0 0 351.7 437.8" style="enable-background:new 0 0 351.7 437.8;" xml:space="preserve">
<style type="text/css">
	.st0{fill:#FFFFFF;}
	.st1{fill:#FFCC01;}
</style>
<path class="st0" d="M30.3,379.7h12.2v44.4c0,7.3-5.1,11.7-12.6,11.7H14.6c-7.6,0-12.6-4.4-12.6-11.7v-44.4h12.4v42.7
	c0,1,0.8,1.9,1.9,1.9h12.2c1,0,1.9-0.8,1.9-1.9V379.7z M47.5,423.4h12.2v12.4H47.5V423.4z M64.8,390c0-5.9,4.3-10.3,11-10.3h17.7
	c6.7,0,11,4.4,11,10.3v8.2H92.6v-5.8c0-1-0.8-1.9-1.9-1.9H78.6c-1.1,0-1.9,0.8-1.9,1.9v5.2c0,0.8,0.4,1.6,1.7,2l18.3,5.4
	c6.2,1.8,7.8,4.6,7.8,11.1v9.4c0,5.8-4.3,10.3-10.9,10.3H75.6c-6.6,0-10.9-4.5-10.9-10.3v-9.1h11.8v6.7c0,1,0.8,1.9,1.9,1.9h12.2
	c1.1,0,1.9-0.8,1.9-1.9v-5.8c0-0.8-0.6-1.6-1.7-1.9l-18.3-5.4c-6.2-1.8-7.8-4.6-7.8-11.1L64.8,390L64.8,390z M109.5,423.4h12.2v12.4
	h-12.2V423.4z M172.8,426.4h-19.7l-2.6,9.4h-12.7l16.8-56.1h17.7l16.1,56.1h-12.9L172.8,426.4L172.8,426.4z M169.8,415.6l-6.8-24.9
	l-6.9,24.9H169.8L169.8,415.6z M230.1,412.6l-3,2.5l9.9,20.7h-13.6l-8.8-19.2h-8.1v19.2h-12.4v-56.1h28.4c7,0,11.9,4.3,11.9,10.7v11
	C234.5,407,233.9,409.4,230.1,412.6L230.1,412.6z M222.2,404v-11.1c0-1-0.8-1.9-1.9-1.9h-13.7v14.8h13.7
	C221.4,405.8,222.2,405,222.2,404L222.2,404z M278.8,379.7h15.9v56.1h-11.8v-35l-12.1,35h-3.5l-12.1-35v35h-11.4v-56.1h15.9
	l9.6,30.4L278.8,379.7L278.8,379.7z M349.7,379.7l-18.9,34.6v21.4h-12.4v-21.3L300,379.7h14.4l10.7,21.7l10.6-21.7L349.7,379.7
	L349.7,379.7z"/>
<path class="st1" d="M344.7,124.9H215.5L175.6,2l-39.9,122.9H6.5L111,200.8L71.1,323.7l104.5-75.9l104.5,75.9l-39.9-122.9
	L344.7,124.9L344.7,124.9z M175.6,210l-46.5,33.8l17.8-54.7l-46.5-33.8h57.5l17.8-54.7l17.8,54.7h57.5l-46.5,33.8l17.8,54.7
	L175.6,210L175.6,210z"/>
</svg>
