<?xml version="1.0" encoding="utf-8"?>
<!-- Generator: Adobe Illustrator 26.5.0, SVG Export Plug-In . SVG Version: 6.00 Build 0)  -->
<svg version="1.1" id="logo2" xmlns="http://www.w3.org/2000/svg" xmlns:xlink="http://www.w3.org/1999/xlink" x="0px" y="0px"
	 viewBox="0 0 350.8 437.8" style="enable-background:new 0 0 350.8 437.8;" xml:space="preserve">
<style type="text/css">
	.st0{fill:#FFCC01;}
	.st1{fill:#221F20;}
</style>
<path class="st0" d="M344.3,124.9H215.1L175.2,2l-39.9,122.9H6.1l104.5,75.9L70.7,323.7l104.5-75.9l104.5,75.9l-39.9-122.9
	L344.3,124.9L344.3,124.9z M175.2,210l-46.5,33.8l17.8-54.7l-46.5-33.8h57.5l17.8-54.7l17.8,54.7h57.5l-46.5,33.8l17.8,54.7
	L175.2,210L175.2,210z"/>
<path class="st1" d="M30,379.7h12.9v44.4c0,7.3-5.1,11.7-12.8,11.7H14.8c-7.7,0-12.8-4.4-12.8-11.7v-44.4H15v42.1
	c0,1.1,0.8,1.9,1.9,1.9h11.3c1,0,1.9-0.8,1.9-1.9V379.7z M47.3,422.7h12.8v13H47.3V422.7z M64.8,390c0-5.9,4.3-10.3,11.1-10.3h17.9
	c6.8,0,11.1,4.4,11.1,10.3v8.2H92.3v-5.1c0-1-0.8-1.9-1.9-1.9H79.2c-1.1,0-1.9,0.8-1.9,1.9v4.1c0,0.8,0.4,1.6,1.6,1.9l17.8,5.4
	c6.1,1.9,8,4.4,8,11.4v9.4c0,5.8-4.3,10.3-11.1,10.3H75.8c-6.7,0-11.1-4.5-11.1-10.3v-9.1h12.5v5.9c0,1,0.8,1.9,1.9,1.9h11.2
	c1.1,0,1.9-0.8,1.9-1.9v-4.8c0-0.8-0.5-1.6-1.6-1.9l-17.7-5.3c-6.1-1.9-8-4.4-8-11.5V390L64.8,390z M109.4,422.7h12.8v13h-12.8
	V422.7z M172.4,426.9h-19.2l-2.4,8.9h-13.3l16.5-56.1h18.4l15.9,56.1h-13.6L172.4,426.9L172.4,426.9z M169.3,415.4l-6.4-23.7
	l-6.5,23.7H169.3z M229.9,412.9l-2.8,2.2l9.9,20.7h-14.3l-8.6-19h-7.3v19h-12.9v-56.1h28.5c7.2,0,12.1,4.3,12.1,10.7v11.1
	C234.4,407.1,233.8,409.6,229.9,412.9L229.9,412.9z M221.4,403.5v-10c0-1-0.8-1.9-1.9-1.9h-12.8v13.8h12.8
	C220.6,405.4,221.4,404.6,221.4,403.5z M277.9,379.7h16.2v56.1h-12.5v-33.7L270,435.8h-3.5l-11.6-33.7v33.7h-12v-56.1h16.5l9.3,29.7
	L277.9,379.7L277.9,379.7z M348.8,379.7l-18.9,34.5v21.5h-13v-21.6l-18.3-34.4h15l10.2,20.7l10.2-20.7L348.8,379.7L348.8,379.7z"/>
</svg>
