<?xml version="1.0" encoding="utf-8"?>
<!-- Generator: Adobe Illustrator 27.1.1, SVG Export Plug-In . SVG Version: 6.00 Build 0)  -->
<svg version="1.1" xmlns="http://www.w3.org/2000/svg" xmlns:xlink="http://www.w3.org/1999/xlink" x="0px" y="0px"
	 viewBox="0 0 120 120" style="enable-background:new 0 0 120 120;" xml:space="preserve">
<style type="text/css">
	.st0{display:none;}
	.st1{display:inline;fill:#FFFFFF;}
	.st2{display:inline;fill:#221F20;}
	.st3{display:inline;}
	.st4{fill:#221F20;}
	.st5{fill:#FFFFFF;}
	.st6{fill:#FFCC01;}
	.st7{fill:none;stroke:#646464;stroke-width:0.035;stroke-miterlimit:10;}
</style>
<g id="Labels__x26__Base" class="st0">
	<rect class="st2" width="120" height="120"/>
	<g class="st3">
		<path class="st5" d="M5.47,2.71h0.68v3.71H8.3V7H5.47V2.71z"/>
		<path class="st5" d="M8.64,5.47c0-0.96,0.58-1.62,1.54-1.62c0.95,0,1.53,0.67,1.53,1.62c0,0.96-0.58,1.63-1.54,1.63
			C9.22,7.1,8.64,6.43,8.64,5.47z M11.09,5.47c0-0.64-0.29-1.13-0.91-1.13c-0.62,0-0.91,0.49-0.91,1.13c0,0.64,0.29,1.13,0.91,1.13
			C10.8,6.6,11.09,6.11,11.09,5.47z"/>
		<path class="st5" d="M12.15,5.47c0-0.96,0.59-1.62,1.5-1.62c0.79,0,1.31,0.51,1.39,1.2h-0.62c-0.02-0.31-0.2-0.7-0.75-0.7
			c-0.64,0-0.88,0.55-0.88,1.12c0,0.58,0.24,1.12,0.88,1.12c0.55,0,0.73-0.38,0.75-0.73h0.62c-0.04,0.7-0.59,1.22-1.38,1.22
			C12.74,7.09,12.15,6.43,12.15,5.47z"/>
		<path class="st5" d="M15.42,6.21c0-0.68,0.52-0.89,1.27-1.03c0.47-0.09,0.77-0.14,0.77-0.45c0-0.22-0.13-0.4-0.58-0.4
			c-0.5,0-0.67,0.17-0.7,0.57h-0.61c0.03-0.59,0.41-1.05,1.33-1.05c0.64,0,1.14,0.26,1.14,1.06V7h-0.58V6.63h-0.01
			c-0.2,0.28-0.55,0.46-1.04,0.46C15.8,7.09,15.42,6.74,15.42,6.21z M17.46,5.8V5.4c-0.1,0.08-0.36,0.15-0.67,0.22
			c-0.53,0.11-0.75,0.25-0.75,0.55c0,0.28,0.15,0.44,0.51,0.44C17.08,6.6,17.46,6.33,17.46,5.8z"/>
		<path class="st5" d="M18.98,6.18V4.43h-0.44v-0.5h0.44V3.23h0.61v0.71h0.7v0.5h-0.7v1.72c0,0.26,0.09,0.32,0.34,0.32h0.37V7h-0.5
			C19.29,7,18.98,6.83,18.98,6.18z"/>
		<path class="st5" d="M20.84,2.75h0.68V3.4h-0.68V2.75z M20.88,3.94h0.61V7h-0.61V3.94z"/>
		<path class="st5" d="M22.06,5.47c0-0.96,0.58-1.62,1.54-1.62c0.95,0,1.53,0.67,1.53,1.62c0,0.96-0.58,1.63-1.54,1.63
			C22.65,7.1,22.06,6.43,22.06,5.47z M24.51,5.47c0-0.64-0.29-1.13-0.91-1.13c-0.62,0-0.91,0.49-0.91,1.13
			c0,0.64,0.29,1.13,0.91,1.13C24.22,6.6,24.51,6.11,24.51,5.47z"/>
		<path class="st5" d="M25.72,3.94h0.61v0.33h0.01c0.15-0.2,0.45-0.41,0.95-0.41c0.6,0,1.08,0.33,1.08,1.03V7h-0.61V5.05
			c0-0.41-0.18-0.68-0.62-0.68c-0.5,0-0.82,0.3-0.82,0.76V7h-0.61V3.94z"/>
		<path class="st5" d="M7.13,13.25H5.17v-0.61l1.97-2.73h0.66v2.77h0.58v0.57H7.79v0.95H7.13V13.25z M7.13,12.68v-1.92l-1.37,1.92
			H7.13z"/>
		<path class="st5" d="M8.76,12.06c0-1.23,0.49-2.24,1.66-2.24c1.16,0,1.65,1.01,1.65,2.24c0,1.24-0.49,2.23-1.65,2.23
			C9.25,14.29,8.76,13.29,8.76,12.06z M9.68,13.31l1.07-2.87c-0.1-0.04-0.21-0.06-0.34-0.06c-0.76,0-0.99,0.78-0.99,1.68
			C9.43,12.54,9.49,13,9.68,13.31z M11.4,12.06c0-0.49-0.07-0.94-0.25-1.25l-1.07,2.87c0.1,0.04,0.21,0.06,0.34,0.06
			C11.18,13.73,11.4,12.95,11.4,12.06z"/>
		<path class="st5" d="M12.69,11.14h0.61v0.36h0.01c0.16-0.22,0.46-0.44,0.94-0.44c0.78,0,1.37,0.61,1.37,1.62
			c0,1.01-0.59,1.62-1.37,1.62c-0.48,0-0.78-0.23-0.94-0.46H13.3v1.43h-0.61V11.14z M14.99,12.67c0-0.6-0.28-1.12-0.84-1.12
			c-0.52,0-0.84,0.43-0.84,1.12s0.32,1.12,0.84,1.12C14.71,13.79,14.99,13.27,14.99,12.67z"/>
		<path class="st5" d="M16.82,12.63l-1.05-1.5h0.7l0.71,1.09h0.01l0.71-1.09h0.68l-1.04,1.5l1.16,1.57H18l-0.81-1.16h-0.01
			l-0.8,1.16h-0.7L16.82,12.63z"/>
	</g>
</g>
<g id="Icons">
	<path class="st5" d="M70.61,44.44C67.78,41.58,64.01,40,60,40s-7.78,1.58-10.61,4.44C43.88,50,43.48,58.76,48.45,64.8c0,0,0,0,0,0
		s0,0,0,0L60,78.56l11.6-13.82c0,0,0,0,0-0.01c0,0,0.01,0,0.01-0.01C76.52,58.69,76.09,49.97,70.61,44.44z M50,63.53
		C50,63.53,50,63.53,50,63.53c-4.32-5.25-3.97-12.85,0.82-17.69C53.27,43.37,56.53,42,60,42s6.73,1.37,9.19,3.84
		c4.76,4.8,5.13,12.38,0.87,17.62c0,0,0,0,0,0L60,75.44L50,63.53z M68,53.11l-4.92,3.78l1.87,6.1L60,59.25L55.06,63l1.87-6.1
		L52,53.11l6.1-0.02L60,47l1.9,6.09L68,53.11z"/>
</g>
<g id="Grid" class="st0">
	<g class="st3">
		<g>
			<line class="st7" x1="41" y1="40" x2="41" y2="80"/>
			<line class="st7" x1="42" y1="40" x2="42" y2="80"/>
			<line class="st7" x1="43" y1="40" x2="43" y2="80"/>
			<line class="st7" x1="44" y1="40" x2="44" y2="80"/>
			<line class="st7" x1="45" y1="40" x2="45" y2="80"/>
			<line class="st7" x1="46" y1="40" x2="46" y2="80"/>
			<line class="st7" x1="47" y1="40" x2="47" y2="80"/>
			<line class="st7" x1="48" y1="40" x2="48" y2="80"/>
			<line class="st7" x1="49" y1="40" x2="49" y2="80"/>
			<line class="st7" x1="50" y1="40" x2="50" y2="80"/>
			<line class="st7" x1="51" y1="40" x2="51" y2="80"/>
			<line class="st7" x1="52" y1="40" x2="52" y2="80"/>
			<line class="st7" x1="53" y1="40" x2="53" y2="80"/>
			<line class="st7" x1="54" y1="40" x2="54" y2="80"/>
			<line class="st7" x1="55" y1="40" x2="55" y2="80"/>
			<line class="st7" x1="56" y1="40" x2="56" y2="80"/>
			<line class="st7" x1="57" y1="40" x2="57" y2="80"/>
			<line class="st7" x1="58" y1="40" x2="58" y2="80"/>
			<line class="st7" x1="59" y1="40" x2="59" y2="80"/>
			<line class="st7" x1="60" y1="40" x2="60" y2="80"/>
			<line class="st7" x1="61" y1="40" x2="61" y2="80"/>
			<line class="st7" x1="62" y1="40" x2="62" y2="80"/>
			<line class="st7" x1="63" y1="40" x2="63" y2="80"/>
			<line class="st7" x1="64" y1="40" x2="64" y2="80"/>
			<line class="st7" x1="65" y1="40" x2="65" y2="80"/>
			<line class="st7" x1="66" y1="40" x2="66" y2="80"/>
			<line class="st7" x1="67" y1="40" x2="67" y2="80"/>
			<line class="st7" x1="68" y1="40" x2="68" y2="80"/>
			<line class="st7" x1="69" y1="40" x2="69" y2="80"/>
			<line class="st7" x1="70" y1="40" x2="70" y2="80"/>
			<line class="st7" x1="71" y1="40" x2="71" y2="80"/>
			<line class="st7" x1="72" y1="40" x2="72" y2="80"/>
			<line class="st7" x1="73" y1="40" x2="73" y2="80"/>
			<line class="st7" x1="74" y1="40" x2="74" y2="80"/>
			<line class="st7" x1="75" y1="40" x2="75" y2="80"/>
			<line class="st7" x1="76" y1="40" x2="76" y2="80"/>
			<line class="st7" x1="77" y1="40" x2="77" y2="80"/>
			<line class="st7" x1="78" y1="40" x2="78" y2="80"/>
			<line class="st7" x1="79" y1="40" x2="79" y2="80"/>
			<line class="st7" x1="80" y1="40" x2="80" y2="80"/>
		</g>
		<g>
			<line class="st7" x1="80" y1="41" x2="40" y2="41"/>
			<line class="st7" x1="80" y1="42" x2="40" y2="42"/>
			<line class="st7" x1="80" y1="43" x2="40" y2="43"/>
			<line class="st7" x1="80" y1="44" x2="40" y2="44"/>
			<line class="st7" x1="80" y1="45" x2="40" y2="45"/>
			<line class="st7" x1="80" y1="46" x2="40" y2="46"/>
			<line class="st7" x1="80" y1="47" x2="40" y2="47"/>
			<line class="st7" x1="80" y1="48" x2="40" y2="48"/>
			<line class="st7" x1="80" y1="49" x2="40" y2="49"/>
			<line class="st7" x1="80" y1="50" x2="40" y2="50"/>
			<line class="st7" x1="80" y1="51" x2="40" y2="51"/>
			<line class="st7" x1="80" y1="52" x2="40" y2="52"/>
			<line class="st7" x1="80" y1="53" x2="40" y2="53"/>
			<line class="st7" x1="80" y1="54" x2="40" y2="54"/>
			<line class="st7" x1="80" y1="55" x2="40" y2="55"/>
			<line class="st7" x1="80" y1="56" x2="40" y2="56"/>
			<line class="st7" x1="80" y1="57" x2="40" y2="57"/>
			<line class="st7" x1="80" y1="58" x2="40" y2="58"/>
			<line class="st7" x1="80" y1="59" x2="40" y2="59"/>
			<line class="st7" x1="80" y1="60" x2="40" y2="60"/>
			<line class="st7" x1="80" y1="61" x2="40" y2="61"/>
			<line class="st7" x1="80" y1="62" x2="40" y2="62"/>
			<line class="st7" x1="80" y1="63" x2="40" y2="63"/>
			<line class="st7" x1="80" y1="64" x2="40" y2="64"/>
			<line class="st7" x1="80" y1="65" x2="40" y2="65"/>
			<line class="st7" x1="80" y1="66" x2="40" y2="66"/>
			<line class="st7" x1="80" y1="67" x2="40" y2="67"/>
			<line class="st7" x1="80" y1="68" x2="40" y2="68"/>
			<line class="st7" x1="80" y1="69" x2="40" y2="69"/>
			<line class="st7" x1="80" y1="70" x2="40" y2="70"/>
			<line class="st7" x1="80" y1="71" x2="40" y2="71"/>
			<line class="st7" x1="80" y1="72" x2="40" y2="72"/>
			<line class="st7" x1="80" y1="73" x2="40" y2="73"/>
			<line class="st7" x1="80" y1="74" x2="40" y2="74"/>
			<line class="st7" x1="80" y1="75" x2="40" y2="75"/>
			<line class="st7" x1="80" y1="76" x2="40" y2="76"/>
			<line class="st7" x1="80" y1="77" x2="40" y2="77"/>
			<line class="st7" x1="80" y1="78" x2="40" y2="78"/>
			<line class="st7" x1="80" y1="79" x2="40" y2="79"/>
		</g>
		<rect x="40" y="40" class="st7" width="40" height="40"/>
	</g>
</g>
</svg>
