<?xml version="1.0" encoding="utf-8"?>
<!-- Generator: Adobe Illustrator 27.1.1, SVG Export Plug-In . SVG Version: 6.00 Build 0)  -->
<svg version="1.1" xmlns="http://www.w3.org/2000/svg" xmlns:xlink="http://www.w3.org/1999/xlink" x="0px" y="0px"
	 viewBox="0 0 120 120" style="enable-background:new 0 0 120 120;" xml:space="preserve">
<style type="text/css">
	.st0{display:none;}
	.st1{display:inline;fill:#FFFFFF;}
	.st2{display:inline;fill:#221F20;}
	.st3{display:inline;}
	.st4{fill:#221F20;}
	.st5{fill:#FFFFFF;}
	.st6{fill:#FFCC01;}
	.st7{fill:none;stroke:#646464;stroke-width:0.035;stroke-miterlimit:10;}
</style>
<g id="Labels__x26__Base" class="st0">
	<rect class="st2" width="120" height="120"/>
	<g class="st3">
		<g>
			<path class="st5" d="M3.44,2.71h0.68V4.5H6.2V2.71h0.68V7H6.2V5.08H4.12V7H3.44V2.71z"/>
			<path class="st5" d="M7.54,5.46c0-0.96,0.58-1.62,1.52-1.62s1.46,0.61,1.46,1.57c0,0.08,0,0.17-0.01,0.21H8.17
				C8.18,6.14,8.48,6.6,9.07,6.6c0.53,0,0.74-0.34,0.79-0.53h0.62C10.32,6.65,9.86,7.1,9.06,7.1C8.09,7.1,7.54,6.4,7.54,5.46z
				 M8.17,5.17h1.72c0-0.47-0.32-0.83-0.85-0.83C8.56,4.33,8.2,4.67,8.17,5.17z"/>
			<path class="st5" d="M11.1,2.71h0.61V7H11.1V2.71z"/>
			<path class="st5" d="M12.4,2.75h0.68V3.4H12.4V2.75z M12.44,3.94h0.61V7h-0.61V3.94z"/>
			<path class="st5" d="M13.63,5.47c0-0.96,0.59-1.62,1.51-1.62c0.79,0,1.31,0.51,1.39,1.2h-0.62c-0.02-0.31-0.2-0.7-0.76-0.7
				c-0.64,0-0.88,0.54-0.88,1.12c0,0.58,0.24,1.12,0.88,1.12c0.55,0,0.73-0.38,0.76-0.73h0.62c-0.04,0.7-0.59,1.22-1.38,1.22
				C14.22,7.09,13.63,6.43,13.63,5.47z"/>
			<path class="st5" d="M16.93,5.47c0-0.96,0.58-1.62,1.54-1.62c0.95,0,1.53,0.67,1.53,1.62c0,0.96-0.58,1.63-1.54,1.63
				C17.51,7.1,16.93,6.43,16.93,5.47z M19.37,5.47c0-0.64-0.29-1.13-0.91-1.13c-0.62,0-0.91,0.49-0.91,1.13
				c0,0.64,0.29,1.13,0.91,1.13C19.08,6.6,19.37,6.11,19.37,5.47z"/>
			<path class="st5" d="M20.58,3.94h0.61v0.36h0.01c0.16-0.22,0.46-0.44,0.94-0.44c0.78,0,1.37,0.61,1.37,1.62s-0.59,1.62-1.37,1.62
				c-0.48,0-0.78-0.23-0.94-0.46h-0.01v1.43h-0.61V3.94z M22.88,5.47c0-0.6-0.28-1.12-0.85-1.12c-0.52,0-0.84,0.43-0.84,1.12
				s0.32,1.12,0.84,1.12C22.6,6.59,22.88,6.07,22.88,5.47z"/>
			<path class="st5" d="M24.33,6.18V4.43h-0.44v-0.5h0.44V3.23h0.61v0.71h0.7v0.5h-0.7v1.72c0,0.26,0.09,0.32,0.34,0.32h0.37V7h-0.5
				C24.63,7,24.33,6.83,24.33,6.18z"/>
			<path class="st5" d="M26.02,5.46c0-0.96,0.58-1.62,1.52-1.62s1.46,0.61,1.46,1.57c0,0.08,0,0.17-0.01,0.21h-2.34
				c0.01,0.52,0.31,0.97,0.91,0.97c0.53,0,0.74-0.34,0.79-0.53h0.62c-0.16,0.58-0.62,1.03-1.42,1.03C26.56,7.1,26.02,6.4,26.02,5.46
				z M26.64,5.17h1.72c0-0.47-0.32-0.83-0.85-0.83C27.03,4.33,26.67,4.67,26.64,5.17z"/>
			<path class="st5" d="M29.57,3.94h0.61v0.58h0.01c0.16-0.36,0.41-0.61,0.82-0.61h0.28v0.58h-0.2c-0.53,0-0.91,0.38-0.91,0.94V7
				h-0.61V3.94z"/>
			<path class="st5" d="M5.11,13.25H3.14v-0.61l1.97-2.73h0.66v2.77h0.58v0.57H5.77v0.95H5.11V13.25z M5.11,12.68v-1.92l-1.37,1.92
				H5.11z"/>
			<path class="st5" d="M6.74,12.06c0-1.23,0.49-2.24,1.66-2.24c1.16,0,1.65,1.01,1.65,2.24c0,1.24-0.49,2.23-1.65,2.23
				C7.23,14.29,6.74,13.29,6.74,12.06z M7.65,13.31l1.07-2.87c-0.1-0.04-0.21-0.06-0.34-0.06c-0.76,0-0.99,0.78-0.99,1.68
				C7.4,12.54,7.47,13,7.65,13.31z M9.38,12.06c0-0.49-0.07-0.94-0.25-1.25l-1.07,2.87c0.1,0.04,0.21,0.06,0.34,0.06
				C9.15,13.73,9.38,12.95,9.38,12.06z"/>
			<path class="st5" d="M11.99,11.14h0.61v0.36h0.01c0.16-0.22,0.46-0.44,0.94-0.44c0.78,0,1.37,0.61,1.37,1.62
				s-0.59,1.62-1.37,1.62c-0.48,0-0.78-0.23-0.94-0.46h-0.01v1.43h-0.61V11.14z M14.28,12.67c0-0.6-0.28-1.12-0.85-1.12
				c-0.52,0-0.84,0.43-0.84,1.12s0.32,1.12,0.84,1.12C14.01,13.79,14.28,13.27,14.28,12.67z"/>
			<path class="st5" d="M16.11,12.63l-1.05-1.5h0.7l0.71,1.09h0.01l0.71-1.09h0.68l-1.04,1.5L18,14.2h-0.71l-0.81-1.16h-0.01
				l-0.8,1.16h-0.7L16.11,12.63z"/>
		</g>
	</g>
</g>
<g id="Icons">
	<path class="st5" d="M72.08,65.5c0.72,0,1.43-0.12,2.1-0.34l2.76-0.92C78.77,63.63,80,61.93,80,60c0-1.92-1.23-3.63-3.05-4.24
		l-2.76-0.92c-0.68-0.23-1.39-0.34-2.11-0.34h-2.14l9.77-9.79l-1.42-1.41L67.11,54.5h-8.68L46.89,42.95l-1.41,1.41l11.39,11.39
		L53.61,59h-7.79l-0.66-5.97H40v13.94h5.2L45.83,61h7.78l3.49,3.49L45.48,76.06l1.41,1.42L58.93,65.5h7.94l11.66,11.92l1.43-1.4
		L69.66,65.5H72.08z M72.08,56.5c0.5,0,1,0.08,1.47,0.24l2.76,0.92C77.32,58,78,58.94,78,60c0,1.06-0.68,2-1.69,2.34l-2.76,0.92
		c-0.47,0.16-0.97,0.24-1.47,0.24h-4.38l-2.06-2.11C65.86,60.97,66,60.5,66,60c0-0.45-0.11-0.88-0.29-1.26l2.23-2.24H72.08z M62,60
		c0-0.55,0.45-1,1-1s1,0.45,1,1s-0.45,1-1,1S62,60.55,62,60z M65.12,56.5l-0.81,0.81C63.91,57.12,63.47,57,63,57
		c-0.59,0-1.13,0.18-1.6,0.47l-0.97-0.97H65.12z M43.38,55.03L43.82,59H42v-3.97H43.38z M43.4,64.97H42V61h1.82L43.4,64.97z
		 M58.27,57.17l1.89,1.89C60.07,59.36,60,59.67,60,60c0,0.47,0.12,0.91,0.31,1.3l-1.79,1.78L55.44,60L58.27,57.17z M60.94,63.5
		l0.79-0.79C62.12,62.89,62.55,63,63,63c0.42,0,0.82-0.09,1.18-0.24l0.73,0.74H60.94z"/>
</g>
<g id="Grid" class="st0">
	<g class="st3">
		<g>
			<line class="st7" x1="41" y1="40" x2="41" y2="80"/>
			<line class="st7" x1="42" y1="40" x2="42" y2="80"/>
			<line class="st7" x1="43" y1="40" x2="43" y2="80"/>
			<line class="st7" x1="44" y1="40" x2="44" y2="80"/>
			<line class="st7" x1="45" y1="40" x2="45" y2="80"/>
			<line class="st7" x1="46" y1="40" x2="46" y2="80"/>
			<line class="st7" x1="47" y1="40" x2="47" y2="80"/>
			<line class="st7" x1="48" y1="40" x2="48" y2="80"/>
			<line class="st7" x1="49" y1="40" x2="49" y2="80"/>
			<line class="st7" x1="50" y1="40" x2="50" y2="80"/>
			<line class="st7" x1="51" y1="40" x2="51" y2="80"/>
			<line class="st7" x1="52" y1="40" x2="52" y2="80"/>
			<line class="st7" x1="53" y1="40" x2="53" y2="80"/>
			<line class="st7" x1="54" y1="40" x2="54" y2="80"/>
			<line class="st7" x1="55" y1="40" x2="55" y2="80"/>
			<line class="st7" x1="56" y1="40" x2="56" y2="80"/>
			<line class="st7" x1="57" y1="40" x2="57" y2="80"/>
			<line class="st7" x1="58" y1="40" x2="58" y2="80"/>
			<line class="st7" x1="59" y1="40" x2="59" y2="80"/>
			<line class="st7" x1="60" y1="40" x2="60" y2="80"/>
			<line class="st7" x1="61" y1="40" x2="61" y2="80"/>
			<line class="st7" x1="62" y1="40" x2="62" y2="80"/>
			<line class="st7" x1="63" y1="40" x2="63" y2="80"/>
			<line class="st7" x1="64" y1="40" x2="64" y2="80"/>
			<line class="st7" x1="65" y1="40" x2="65" y2="80"/>
			<line class="st7" x1="66" y1="40" x2="66" y2="80"/>
			<line class="st7" x1="67" y1="40" x2="67" y2="80"/>
			<line class="st7" x1="68" y1="40" x2="68" y2="80"/>
			<line class="st7" x1="69" y1="40" x2="69" y2="80"/>
			<line class="st7" x1="70" y1="40" x2="70" y2="80"/>
			<line class="st7" x1="71" y1="40" x2="71" y2="80"/>
			<line class="st7" x1="72" y1="40" x2="72" y2="80"/>
			<line class="st7" x1="73" y1="40" x2="73" y2="80"/>
			<line class="st7" x1="74" y1="40" x2="74" y2="80"/>
			<line class="st7" x1="75" y1="40" x2="75" y2="80"/>
			<line class="st7" x1="76" y1="40" x2="76" y2="80"/>
			<line class="st7" x1="77" y1="40" x2="77" y2="80"/>
			<line class="st7" x1="78" y1="40" x2="78" y2="80"/>
			<line class="st7" x1="79" y1="40" x2="79" y2="80"/>
			<line class="st7" x1="80" y1="40" x2="80" y2="80"/>
		</g>
		<g>
			<line class="st7" x1="80" y1="41" x2="40" y2="41"/>
			<line class="st7" x1="80" y1="42" x2="40" y2="42"/>
			<line class="st7" x1="80" y1="43" x2="40" y2="43"/>
			<line class="st7" x1="80" y1="44" x2="40" y2="44"/>
			<line class="st7" x1="80" y1="45" x2="40" y2="45"/>
			<line class="st7" x1="80" y1="46" x2="40" y2="46"/>
			<line class="st7" x1="80" y1="47" x2="40" y2="47"/>
			<line class="st7" x1="80" y1="48" x2="40" y2="48"/>
			<line class="st7" x1="80" y1="49" x2="40" y2="49"/>
			<line class="st7" x1="80" y1="50" x2="40" y2="50"/>
			<line class="st7" x1="80" y1="51" x2="40" y2="51"/>
			<line class="st7" x1="80" y1="52" x2="40" y2="52"/>
			<line class="st7" x1="80" y1="53" x2="40" y2="53"/>
			<line class="st7" x1="80" y1="54" x2="40" y2="54"/>
			<line class="st7" x1="80" y1="55" x2="40" y2="55"/>
			<line class="st7" x1="80" y1="56" x2="40" y2="56"/>
			<line class="st7" x1="80" y1="57" x2="40" y2="57"/>
			<line class="st7" x1="80" y1="58" x2="40" y2="58"/>
			<line class="st7" x1="80" y1="59" x2="40" y2="59"/>
			<line class="st7" x1="80" y1="60" x2="40" y2="60"/>
			<line class="st7" x1="80" y1="61" x2="40" y2="61"/>
			<line class="st7" x1="80" y1="62" x2="40" y2="62"/>
			<line class="st7" x1="80" y1="63" x2="40" y2="63"/>
			<line class="st7" x1="80" y1="64" x2="40" y2="64"/>
			<line class="st7" x1="80" y1="65" x2="40" y2="65"/>
			<line class="st7" x1="80" y1="66" x2="40" y2="66"/>
			<line class="st7" x1="80" y1="67" x2="40" y2="67"/>
			<line class="st7" x1="80" y1="68" x2="40" y2="68"/>
			<line class="st7" x1="80" y1="69" x2="40" y2="69"/>
			<line class="st7" x1="80" y1="70" x2="40" y2="70"/>
			<line class="st7" x1="80" y1="71" x2="40" y2="71"/>
			<line class="st7" x1="80" y1="72" x2="40" y2="72"/>
			<line class="st7" x1="80" y1="73" x2="40" y2="73"/>
			<line class="st7" x1="80" y1="74" x2="40" y2="74"/>
			<line class="st7" x1="80" y1="75" x2="40" y2="75"/>
			<line class="st7" x1="80" y1="76" x2="40" y2="76"/>
			<line class="st7" x1="80" y1="77" x2="40" y2="77"/>
			<line class="st7" x1="80" y1="78" x2="40" y2="78"/>
			<line class="st7" x1="80" y1="79" x2="40" y2="79"/>
		</g>
		<rect x="40" y="40" class="st7" width="40" height="40"/>
	</g>
</g>
</svg>
