<?xml version="1.0" encoding="utf-8"?>
<!-- Generator: Adobe Illustrator 27.1.1, SVG Export Plug-In . SVG Version: 6.00 Build 0)  -->
<svg version="1.1" xmlns="http://www.w3.org/2000/svg" xmlns:xlink="http://www.w3.org/1999/xlink" x="0px" y="0px"
	 viewBox="0 0 120 120" style="enable-background:new 0 0 120 120;" xml:space="preserve">
<style type="text/css">
	.st0{display:none;}
	.st1{display:inline;fill:#FFFFFF;}
	.st2{display:inline;fill:#221F20;}
	.st3{display:inline;}
	.st4{fill:#221F20;}
	.st5{fill:#FFFFFF;}
	.st6{fill:#FFCC01;}
	.st7{fill:none;stroke:#646464;stroke-width:0.035;stroke-miterlimit:10;}
</style>
<g id="Labels__x26__Base" class="st0">
	<rect class="st2" width="120" height="120"/>
	<g class="st3">
		<g>
			<path class="st5" d="M3.44,2.71h1.82c0.88,0,1.39,0.4,1.39,1.08c0,0.53-0.23,0.77-0.44,0.91v0.01c0.27,0.09,0.61,0.4,0.61,1.04
				C6.82,6.57,6.25,7,5.36,7H3.44V2.71z M5.95,3.89c0-0.38-0.23-0.6-0.67-0.6H4.12v1.18h1.11C5.76,4.48,5.95,4.28,5.95,3.89z
				 M6.12,5.72c0-0.45-0.28-0.66-0.73-0.66H4.12v1.36h1.19C5.93,6.42,6.12,6.12,6.12,5.72z"/>
			<path class="st5" d="M7.23,6.21c0-0.68,0.52-0.89,1.27-1.03c0.47-0.09,0.77-0.14,0.77-0.45c0-0.22-0.13-0.4-0.58-0.4
				c-0.5,0-0.67,0.17-0.7,0.57H7.4c0.03-0.59,0.41-1.05,1.32-1.05c0.64,0,1.14,0.26,1.14,1.06V7H9.29V6.63H9.28
				C9.07,6.91,8.72,7.09,8.23,7.09C7.61,7.09,7.23,6.74,7.23,6.21z M9.28,5.8V5.4c-0.1,0.08-0.36,0.15-0.67,0.22
				C8.08,5.72,7.86,5.86,7.86,6.17c0,0.28,0.15,0.44,0.51,0.44C8.9,6.6,9.28,6.33,9.28,5.8z"/>
			<path class="st5" d="M10.39,6.02h0.6c0.02,0.37,0.25,0.58,0.77,0.58c0.5,0,0.67-0.2,0.67-0.44s-0.14-0.38-0.48-0.44l-0.54-0.09
				c-0.57-0.1-0.94-0.35-0.94-0.89c0-0.54,0.44-0.89,1.22-0.89c0.87,0,1.23,0.41,1.25,0.97h-0.61c-0.01-0.31-0.18-0.5-0.64-0.5
				c-0.39,0-0.59,0.14-0.59,0.38c0,0.23,0.14,0.35,0.47,0.41l0.54,0.09c0.58,0.1,0.95,0.38,0.95,0.92c0,0.61-0.47,0.96-1.31,0.96
				C10.81,7.08,10.4,6.64,10.39,6.02z"/>
			<path class="st5" d="M13.48,5.46c0-0.96,0.58-1.62,1.52-1.62s1.46,0.61,1.46,1.57c0,0.08,0,0.17-0.01,0.21H14.1
				C14.11,6.14,14.41,6.6,15,6.6c0.53,0,0.74-0.34,0.79-0.53h0.62C16.25,6.65,15.8,7.1,14.99,7.1C14.02,7.1,13.48,6.4,13.48,5.46z
				 M14.1,5.17h1.72c0-0.47-0.32-0.83-0.85-0.83C14.49,4.33,14.13,4.67,14.1,5.17z"/>
			<path class="st5" d="M19.8,2.71h0.56L18.7,7h-0.56L19.8,2.71z"/>
			<path class="st5" d="M22.27,2.71h2.98v0.58h-2.3v1.28h1.87v0.58h-1.87V7h-0.68V2.71z"/>
			<path class="st5" d="M25.38,5.47c0-0.96,0.58-1.62,1.54-1.62c0.95,0,1.53,0.67,1.53,1.62c0,0.96-0.58,1.63-1.54,1.63
				C25.96,7.1,25.38,6.43,25.38,5.47z M27.83,5.47c0-0.64-0.29-1.13-0.91-1.13c-0.62,0-0.91,0.49-0.91,1.13
				c0,0.64,0.29,1.13,0.91,1.13C27.53,6.6,27.83,6.11,27.83,5.47z"/>
			<path class="st5" d="M29.03,3.94h0.61v0.58h0.01c0.16-0.36,0.41-0.61,0.82-0.61h0.28v0.58h-0.2c-0.53,0-0.91,0.38-0.91,0.94V7
				h-0.61V3.94z"/>
			<path class="st5" d="M31.51,6.18V4.43h-0.44v-0.5h0.44V3.23h0.61v0.71h0.7v0.5h-0.7v1.72c0,0.26,0.09,0.32,0.34,0.32h0.37V7h-0.5
				C31.82,7,31.51,6.83,31.51,6.18z"/>
			<path class="st5" d="M5.11,13.25H3.14v-0.61l1.97-2.73h0.66v2.77h0.58v0.57H5.77v0.95H5.11V13.25z M5.11,12.68v-1.92l-1.37,1.92
				H5.11z"/>
			<path class="st5" d="M6.74,12.06c0-1.23,0.49-2.24,1.65-2.24c1.16,0,1.65,1.01,1.65,2.24c0,1.24-0.49,2.23-1.65,2.23
				C7.23,14.29,6.74,13.29,6.74,12.06z M7.66,13.31l1.07-2.87c-0.1-0.04-0.21-0.06-0.34-0.06c-0.76,0-0.99,0.78-0.99,1.68
				C7.4,12.54,7.47,13,7.66,13.31z M9.38,12.06c0-0.49-0.07-0.94-0.25-1.25l-1.07,2.87c0.1,0.04,0.21,0.06,0.34,0.06
				C9.15,13.73,9.38,12.95,9.38,12.06z"/>
			<path class="st5" d="M11.99,11.14h0.61v0.36h0.01c0.16-0.22,0.46-0.44,0.94-0.44c0.78,0,1.37,0.61,1.37,1.62
				s-0.59,1.62-1.37,1.62c-0.48,0-0.78-0.23-0.94-0.46h-0.01v1.43h-0.61V11.14z M14.28,12.67c0-0.6-0.28-1.12-0.85-1.12
				c-0.52,0-0.84,0.43-0.84,1.12s0.32,1.12,0.84,1.12C14.01,13.79,14.28,13.27,14.28,12.67z"/>
			<path class="st5" d="M16.12,12.63l-1.05-1.5h0.7l0.71,1.09h0.01l0.71-1.09h0.68l-1.04,1.5L18,14.2h-0.71l-0.81-1.16h-0.01
				l-0.8,1.16h-0.7L16.12,12.63z"/>
		</g>
	</g>
</g>
<g id="Icons">
	<path class="st5" d="M78,78V64.59L61.01,51.73V40h-9v7h7v4.72L42,64.59V78h-2v2h2h36h2v-2H78z M54.01,45v-3h5v3H54.01z M64,78h-8
		v-8.01h8V78z M66,78V67.99h-12V78H44V65.58l16-12.11l16,12.11V78H66z"/>
</g>
<g id="Grid" class="st0">
	<g class="st3">
		<g>
			<line class="st7" x1="41" y1="40" x2="41" y2="80"/>
			<line class="st7" x1="42" y1="40" x2="42" y2="80"/>
			<line class="st7" x1="43" y1="40" x2="43" y2="80"/>
			<line class="st7" x1="44" y1="40" x2="44" y2="80"/>
			<line class="st7" x1="45" y1="40" x2="45" y2="80"/>
			<line class="st7" x1="46" y1="40" x2="46" y2="80"/>
			<line class="st7" x1="47" y1="40" x2="47" y2="80"/>
			<line class="st7" x1="48" y1="40" x2="48" y2="80"/>
			<line class="st7" x1="49" y1="40" x2="49" y2="80"/>
			<line class="st7" x1="50" y1="40" x2="50" y2="80"/>
			<line class="st7" x1="51" y1="40" x2="51" y2="80"/>
			<line class="st7" x1="52" y1="40" x2="52" y2="80"/>
			<line class="st7" x1="53" y1="40" x2="53" y2="80"/>
			<line class="st7" x1="54" y1="40" x2="54" y2="80"/>
			<line class="st7" x1="55" y1="40" x2="55" y2="80"/>
			<line class="st7" x1="56" y1="40" x2="56" y2="80"/>
			<line class="st7" x1="57" y1="40" x2="57" y2="80"/>
			<line class="st7" x1="58" y1="40" x2="58" y2="80"/>
			<line class="st7" x1="59" y1="40" x2="59" y2="80"/>
			<line class="st7" x1="60" y1="40" x2="60" y2="80"/>
			<line class="st7" x1="61" y1="40" x2="61" y2="80"/>
			<line class="st7" x1="62" y1="40" x2="62" y2="80"/>
			<line class="st7" x1="63" y1="40" x2="63" y2="80"/>
			<line class="st7" x1="64" y1="40" x2="64" y2="80"/>
			<line class="st7" x1="65" y1="40" x2="65" y2="80"/>
			<line class="st7" x1="66" y1="40" x2="66" y2="80"/>
			<line class="st7" x1="67" y1="40" x2="67" y2="80"/>
			<line class="st7" x1="68" y1="40" x2="68" y2="80"/>
			<line class="st7" x1="69" y1="40" x2="69" y2="80"/>
			<line class="st7" x1="70" y1="40" x2="70" y2="80"/>
			<line class="st7" x1="71" y1="40" x2="71" y2="80"/>
			<line class="st7" x1="72" y1="40" x2="72" y2="80"/>
			<line class="st7" x1="73" y1="40" x2="73" y2="80"/>
			<line class="st7" x1="74" y1="40" x2="74" y2="80"/>
			<line class="st7" x1="75" y1="40" x2="75" y2="80"/>
			<line class="st7" x1="76" y1="40" x2="76" y2="80"/>
			<line class="st7" x1="77" y1="40" x2="77" y2="80"/>
			<line class="st7" x1="78" y1="40" x2="78" y2="80"/>
			<line class="st7" x1="79" y1="40" x2="79" y2="80"/>
			<line class="st7" x1="80" y1="40" x2="80" y2="80"/>
		</g>
		<g>
			<line class="st7" x1="80" y1="41" x2="40" y2="41"/>
			<line class="st7" x1="80" y1="42" x2="40" y2="42"/>
			<line class="st7" x1="80" y1="43" x2="40" y2="43"/>
			<line class="st7" x1="80" y1="44" x2="40" y2="44"/>
			<line class="st7" x1="80" y1="45" x2="40" y2="45"/>
			<line class="st7" x1="80" y1="46" x2="40" y2="46"/>
			<line class="st7" x1="80" y1="47" x2="40" y2="47"/>
			<line class="st7" x1="80" y1="48" x2="40" y2="48"/>
			<line class="st7" x1="80" y1="49" x2="40" y2="49"/>
			<line class="st7" x1="80" y1="50" x2="40" y2="50"/>
			<line class="st7" x1="80" y1="51" x2="40" y2="51"/>
			<line class="st7" x1="80" y1="52" x2="40" y2="52"/>
			<line class="st7" x1="80" y1="53" x2="40" y2="53"/>
			<line class="st7" x1="80" y1="54" x2="40" y2="54"/>
			<line class="st7" x1="80" y1="55" x2="40" y2="55"/>
			<line class="st7" x1="80" y1="56" x2="40" y2="56"/>
			<line class="st7" x1="80" y1="57" x2="40" y2="57"/>
			<line class="st7" x1="80" y1="58" x2="40" y2="58"/>
			<line class="st7" x1="80" y1="59" x2="40" y2="59"/>
			<line class="st7" x1="80" y1="60" x2="40" y2="60"/>
			<line class="st7" x1="80" y1="61" x2="40" y2="61"/>
			<line class="st7" x1="80" y1="62" x2="40" y2="62"/>
			<line class="st7" x1="80" y1="63" x2="40" y2="63"/>
			<line class="st7" x1="80" y1="64" x2="40" y2="64"/>
			<line class="st7" x1="80" y1="65" x2="40" y2="65"/>
			<line class="st7" x1="80" y1="66" x2="40" y2="66"/>
			<line class="st7" x1="80" y1="67" x2="40" y2="67"/>
			<line class="st7" x1="80" y1="68" x2="40" y2="68"/>
			<line class="st7" x1="80" y1="69" x2="40" y2="69"/>
			<line class="st7" x1="80" y1="70" x2="40" y2="70"/>
			<line class="st7" x1="80" y1="71" x2="40" y2="71"/>
			<line class="st7" x1="80" y1="72" x2="40" y2="72"/>
			<line class="st7" x1="80" y1="73" x2="40" y2="73"/>
			<line class="st7" x1="80" y1="74" x2="40" y2="74"/>
			<line class="st7" x1="80" y1="75" x2="40" y2="75"/>
			<line class="st7" x1="80" y1="76" x2="40" y2="76"/>
			<line class="st7" x1="80" y1="77" x2="40" y2="77"/>
			<line class="st7" x1="80" y1="78" x2="40" y2="78"/>
			<line class="st7" x1="80" y1="79" x2="40" y2="79"/>
		</g>
		<rect x="40" y="40" class="st7" width="40" height="40"/>
	</g>
</g>
</svg>
