<?xml version="1.0" encoding="utf-8"?>
<!-- Generator: Adobe Illustrator 27.1.1, SVG Export Plug-In . SVG Version: 6.00 Build 0)  -->
<svg version="1.1" xmlns="http://www.w3.org/2000/svg" xmlns:xlink="http://www.w3.org/1999/xlink" x="0px" y="0px"
	 viewBox="0 0 120 120" style="enable-background:new 0 0 120 120;" xml:space="preserve">
<style type="text/css">
	.st0{display:none;}
	.st1{display:inline;fill:#FFFFFF;}
	.st2{display:inline;fill:#221F20;}
	.st3{display:inline;}
	.st4{fill:#221F20;}
	.st5{fill:#FFFFFF;}
	.st6{fill:#FFCC01;}
	.st7{fill:none;stroke:#646464;stroke-width:0.035;stroke-miterlimit:10;}
</style>
<g id="Labels__x26__Base" class="st0">
	<rect class="st2" width="120" height="120"/>
	<g class="st3">
		<g>
			<path class="st5" d="M3.44,2.71h1.8c0.82,0,1.41,0.38,1.41,1.28S6.06,5.27,5.24,5.27H4.12V7H3.44V2.71z M5.94,3.99
				c0-0.48-0.25-0.7-0.74-0.7H4.12v1.39h1.09C5.7,4.68,5.94,4.47,5.94,3.99z"/>
			<path class="st5" d="M6.93,6.21c0-0.68,0.52-0.89,1.27-1.03c0.47-0.09,0.77-0.14,0.77-0.45c0-0.22-0.13-0.4-0.58-0.4
				c-0.5,0-0.67,0.17-0.7,0.57H7.1c0.03-0.59,0.41-1.05,1.33-1.05c0.64,0,1.14,0.26,1.14,1.06V7H8.99V6.63H8.97
				c-0.2,0.28-0.55,0.46-1.04,0.46C7.31,7.09,6.93,6.74,6.93,6.21z M8.97,5.8V5.4c-0.1,0.08-0.36,0.15-0.67,0.22
				C7.78,5.72,7.56,5.86,7.56,6.17c0,0.28,0.15,0.44,0.51,0.44C8.6,6.6,8.97,6.33,8.97,5.8z"/>
			<path class="st5" d="M10.26,3.94h0.61v0.58h0.01c0.16-0.36,0.41-0.61,0.82-0.61h0.28v0.58h-0.2c-0.53,0-0.91,0.38-0.91,0.94V7
				h-0.61V3.94z"/>
			<path class="st5" d="M12.32,6.21c0-0.68,0.52-0.89,1.27-1.03c0.47-0.09,0.77-0.14,0.77-0.45c0-0.22-0.13-0.4-0.58-0.4
				c-0.5,0-0.67,0.17-0.7,0.57h-0.61c0.03-0.59,0.41-1.05,1.32-1.05c0.64,0,1.14,0.26,1.14,1.06V7h-0.58V6.63h-0.01
				c-0.21,0.28-0.55,0.46-1.04,0.46C12.71,7.09,12.32,6.74,12.32,6.21z M14.37,5.8V5.4c-0.1,0.08-0.36,0.15-0.67,0.22
				c-0.53,0.11-0.75,0.25-0.75,0.55c0,0.28,0.15,0.44,0.51,0.44C13.99,6.6,14.37,6.33,14.37,5.8z"/>
			<path class="st5" d="M15.5,5.47c0-0.96,0.59-1.62,1.5-1.62c0.79,0,1.31,0.51,1.39,1.2h-0.62c-0.02-0.31-0.2-0.7-0.75-0.7
				c-0.64,0-0.88,0.54-0.88,1.12c0,0.58,0.24,1.12,0.88,1.12c0.55,0,0.73-0.38,0.75-0.73h0.62c-0.04,0.7-0.59,1.22-1.38,1.22
				C16.1,7.09,15.5,6.43,15.5,5.47z"/>
			<path class="st5" d="M18.95,2.71h0.61v1.55h0.01c0.15-0.2,0.45-0.41,0.95-0.41c0.6,0,1.08,0.33,1.08,1.03V7h-0.61V5.05
				c0-0.41-0.18-0.68-0.62-0.68c-0.5,0-0.82,0.3-0.82,0.76V7h-0.61V2.71z"/>
			<path class="st5" d="M22.26,6.06V3.94h0.61v1.96c0,0.41,0.18,0.68,0.62,0.68c0.49,0,0.82-0.3,0.82-0.76V3.94h0.6V7h-0.6V6.68
				h-0.01c-0.15,0.2-0.45,0.41-0.95,0.41C22.73,7.09,22.26,6.76,22.26,6.06z"/>
			<path class="st5" d="M25.87,6.18V4.43h-0.44v-0.5h0.44V3.23h0.61v0.71h0.7v0.5h-0.7v1.72c0,0.26,0.09,0.32,0.34,0.32h0.37V7h-0.5
				C26.17,7,25.87,6.83,25.87,6.18z"/>
			<path class="st5" d="M27.55,5.46c0-0.96,0.58-1.62,1.52-1.62s1.46,0.61,1.46,1.57c0,0.08,0,0.17-0.01,0.21h-2.35
				c0.01,0.52,0.31,0.97,0.91,0.97c0.53,0,0.74-0.34,0.79-0.53h0.62c-0.16,0.58-0.62,1.03-1.42,1.03C28.1,7.1,27.55,6.4,27.55,5.46z
				 M28.17,5.17h1.72c0-0.47-0.32-0.83-0.85-0.83C28.56,4.33,28.21,4.67,28.17,5.17z"/>
			<path class="st5" d="M5.11,13.25H3.14v-0.61l1.97-2.73h0.66v2.77h0.58v0.57H5.77v0.95H5.11V13.25z M5.11,12.68v-1.92l-1.37,1.92
				H5.11z"/>
			<path class="st5" d="M6.74,12.06c0-1.23,0.49-2.24,1.66-2.24c1.16,0,1.65,1.01,1.65,2.24c0,1.24-0.49,2.23-1.65,2.23
				C7.23,14.29,6.74,13.29,6.74,12.06z M7.65,13.31l1.07-2.87c-0.1-0.04-0.21-0.06-0.34-0.06c-0.76,0-0.99,0.78-0.99,1.68
				C7.4,12.54,7.47,13,7.65,13.31z M9.38,12.06c0-0.49-0.07-0.94-0.25-1.25l-1.07,2.87c0.1,0.04,0.21,0.06,0.34,0.06
				C9.15,13.73,9.38,12.95,9.38,12.06z"/>
			<path class="st5" d="M11.99,11.14h0.61v0.36h0.01c0.16-0.22,0.46-0.44,0.94-0.44c0.78,0,1.37,0.61,1.37,1.62
				s-0.59,1.62-1.37,1.62c-0.48,0-0.78-0.23-0.94-0.46h-0.01v1.43h-0.61V11.14z M14.28,12.67c0-0.6-0.28-1.12-0.85-1.12
				c-0.52,0-0.84,0.43-0.84,1.12s0.32,1.12,0.84,1.12C14.01,13.79,14.28,13.27,14.28,12.67z"/>
			<path class="st5" d="M16.12,12.63l-1.05-1.5h0.7l0.71,1.09h0.01l0.71-1.09h0.68l-1.04,1.5L18,14.2h-0.71l-0.81-1.16h-0.01
				l-0.8,1.16h-0.7L16.12,12.63z"/>
		</g>
	</g>
</g>
<g id="Icons">
	<path class="st5" d="M69.42,40l-9.33,0c-0.03,0-0.06,0-0.09,0c-0.03,0-0.06,0-0.09,0l-9.32,0c0,0,0,0,0,0
		c-2.83,0-5.49,1.1-7.49,3.1c-2,2-3.1,4.66-3.1,7.49v1.98c0,2.41,0.83,4.77,2.35,6.65l16.88,20.93h1.56l16.88-20.95
		c1.51-1.88,2.34-4.24,2.34-6.64v-1.96C80,44.75,75.25,40,69.42,40z M67.37,49.37c0,2.37-0.37,4.72-1.11,6.99l-0.64,2.04H54.35
		l-0.66-2.09c-0.7-2.21-1.06-4.51-1.06-6.83v-0.1c0-4.04,3.26-7.32,7.28-7.37h0.18C64.11,42.05,67.37,45.33,67.37,49.37z M60,76.2
		l-5.02-15.81h10.01L60,76.2z M67.09,60.39h7.04L62.55,74.75L67.09,60.39z M57.44,74.74L45.86,60.39h7.02L57.44,74.74z M42,52.57
		v-1.98c0-2.29,0.89-4.45,2.52-6.07c1.62-1.62,3.78-2.52,6.07-2.52c0,0,0,0,0,0l3.64,0c-2.19,1.72-3.6,4.38-3.6,7.37v0.1
		c0,2.53,0.39,5.03,1.15,7.44l0.47,1.49h-7.99v0.01l-0.36-0.45C42.67,56.44,42,54.52,42,52.57z M78,52.55c0,1.95-0.68,3.87-1.9,5.39
		l-0.37,0.46h-8.02l0.45-1.42c0.8-2.46,1.21-5.01,1.21-7.6c0-2.99-1.41-5.65-3.6-7.37l3.64,0c4.74,0,8.59,3.85,8.59,8.59V52.55z"/>
</g>
<g id="Grid" class="st0">
	<g class="st3">
		<g>
			<line class="st7" x1="41" y1="40" x2="41" y2="80"/>
			<line class="st7" x1="42" y1="40" x2="42" y2="80"/>
			<line class="st7" x1="43" y1="40" x2="43" y2="80"/>
			<line class="st7" x1="44" y1="40" x2="44" y2="80"/>
			<line class="st7" x1="45" y1="40" x2="45" y2="80"/>
			<line class="st7" x1="46" y1="40" x2="46" y2="80"/>
			<line class="st7" x1="47" y1="40" x2="47" y2="80"/>
			<line class="st7" x1="48" y1="40" x2="48" y2="80"/>
			<line class="st7" x1="49" y1="40" x2="49" y2="80"/>
			<line class="st7" x1="50" y1="40" x2="50" y2="80"/>
			<line class="st7" x1="51" y1="40" x2="51" y2="80"/>
			<line class="st7" x1="52" y1="40" x2="52" y2="80"/>
			<line class="st7" x1="53" y1="40" x2="53" y2="80"/>
			<line class="st7" x1="54" y1="40" x2="54" y2="80"/>
			<line class="st7" x1="55" y1="40" x2="55" y2="80"/>
			<line class="st7" x1="56" y1="40" x2="56" y2="80"/>
			<line class="st7" x1="57" y1="40" x2="57" y2="80"/>
			<line class="st7" x1="58" y1="40" x2="58" y2="80"/>
			<line class="st7" x1="59" y1="40" x2="59" y2="80"/>
			<line class="st7" x1="60" y1="40" x2="60" y2="80"/>
			<line class="st7" x1="61" y1="40" x2="61" y2="80"/>
			<line class="st7" x1="62" y1="40" x2="62" y2="80"/>
			<line class="st7" x1="63" y1="40" x2="63" y2="80"/>
			<line class="st7" x1="64" y1="40" x2="64" y2="80"/>
			<line class="st7" x1="65" y1="40" x2="65" y2="80"/>
			<line class="st7" x1="66" y1="40" x2="66" y2="80"/>
			<line class="st7" x1="67" y1="40" x2="67" y2="80"/>
			<line class="st7" x1="68" y1="40" x2="68" y2="80"/>
			<line class="st7" x1="69" y1="40" x2="69" y2="80"/>
			<line class="st7" x1="70" y1="40" x2="70" y2="80"/>
			<line class="st7" x1="71" y1="40" x2="71" y2="80"/>
			<line class="st7" x1="72" y1="40" x2="72" y2="80"/>
			<line class="st7" x1="73" y1="40" x2="73" y2="80"/>
			<line class="st7" x1="74" y1="40" x2="74" y2="80"/>
			<line class="st7" x1="75" y1="40" x2="75" y2="80"/>
			<line class="st7" x1="76" y1="40" x2="76" y2="80"/>
			<line class="st7" x1="77" y1="40" x2="77" y2="80"/>
			<line class="st7" x1="78" y1="40" x2="78" y2="80"/>
			<line class="st7" x1="79" y1="40" x2="79" y2="80"/>
			<line class="st7" x1="80" y1="40" x2="80" y2="80"/>
		</g>
		<g>
			<line class="st7" x1="80" y1="41" x2="40" y2="41"/>
			<line class="st7" x1="80" y1="42" x2="40" y2="42"/>
			<line class="st7" x1="80" y1="43" x2="40" y2="43"/>
			<line class="st7" x1="80" y1="44" x2="40" y2="44"/>
			<line class="st7" x1="80" y1="45" x2="40" y2="45"/>
			<line class="st7" x1="80" y1="46" x2="40" y2="46"/>
			<line class="st7" x1="80" y1="47" x2="40" y2="47"/>
			<line class="st7" x1="80" y1="48" x2="40" y2="48"/>
			<line class="st7" x1="80" y1="49" x2="40" y2="49"/>
			<line class="st7" x1="80" y1="50" x2="40" y2="50"/>
			<line class="st7" x1="80" y1="51" x2="40" y2="51"/>
			<line class="st7" x1="80" y1="52" x2="40" y2="52"/>
			<line class="st7" x1="80" y1="53" x2="40" y2="53"/>
			<line class="st7" x1="80" y1="54" x2="40" y2="54"/>
			<line class="st7" x1="80" y1="55" x2="40" y2="55"/>
			<line class="st7" x1="80" y1="56" x2="40" y2="56"/>
			<line class="st7" x1="80" y1="57" x2="40" y2="57"/>
			<line class="st7" x1="80" y1="58" x2="40" y2="58"/>
			<line class="st7" x1="80" y1="59" x2="40" y2="59"/>
			<line class="st7" x1="80" y1="60" x2="40" y2="60"/>
			<line class="st7" x1="80" y1="61" x2="40" y2="61"/>
			<line class="st7" x1="80" y1="62" x2="40" y2="62"/>
			<line class="st7" x1="80" y1="63" x2="40" y2="63"/>
			<line class="st7" x1="80" y1="64" x2="40" y2="64"/>
			<line class="st7" x1="80" y1="65" x2="40" y2="65"/>
			<line class="st7" x1="80" y1="66" x2="40" y2="66"/>
			<line class="st7" x1="80" y1="67" x2="40" y2="67"/>
			<line class="st7" x1="80" y1="68" x2="40" y2="68"/>
			<line class="st7" x1="80" y1="69" x2="40" y2="69"/>
			<line class="st7" x1="80" y1="70" x2="40" y2="70"/>
			<line class="st7" x1="80" y1="71" x2="40" y2="71"/>
			<line class="st7" x1="80" y1="72" x2="40" y2="72"/>
			<line class="st7" x1="80" y1="73" x2="40" y2="73"/>
			<line class="st7" x1="80" y1="74" x2="40" y2="74"/>
			<line class="st7" x1="80" y1="75" x2="40" y2="75"/>
			<line class="st7" x1="80" y1="76" x2="40" y2="76"/>
			<line class="st7" x1="80" y1="77" x2="40" y2="77"/>
			<line class="st7" x1="80" y1="78" x2="40" y2="78"/>
			<line class="st7" x1="80" y1="79" x2="40" y2="79"/>
		</g>
		<rect x="40" y="40" class="st7" width="40" height="40"/>
	</g>
</g>
</svg>
