<?xml version="1.0" encoding="utf-8"?>
<!-- Generator: Adobe Illustrator 27.1.1, SVG Export Plug-In . SVG Version: 6.00 Build 0)  -->
<svg version="1.1" xmlns="http://www.w3.org/2000/svg" xmlns:xlink="http://www.w3.org/1999/xlink" x="0px" y="0px"
	 viewBox="0 0 120 120" style="enable-background:new 0 0 120 120;" xml:space="preserve">
<style type="text/css">
	.st0{display:none;}
	.st1{display:inline;fill:#FFFFFF;}
	.st2{display:inline;fill:#221F20;}
	.st3{display:inline;}
	.st4{fill:#221F20;}
	.st5{fill:#FFFFFF;}
	.st6{fill:#FFCC01;}
	.st7{fill:none;stroke:#646464;stroke-width:0.035;stroke-miterlimit:10;}
</style>
<g id="Labels__x26__Base" class="st0">
	<rect class="st2" width="120" height="120"/>
	<g class="st3">
		<g>
			<path class="st5" d="M4.75,2.67H3.14V1.99h4.02v0.68H5.55V7h-0.8V2.67z"/>
			<path class="st5" d="M6.96,5.21c0-1.12,0.68-1.9,1.8-1.9c1.11,0,1.79,0.78,1.79,1.89c0,1.12-0.67,1.91-1.79,1.91
				C7.63,7.11,6.96,6.33,6.96,5.21z M9.81,5.21c0-0.75-0.34-1.32-1.06-1.32c-0.73,0-1.07,0.57-1.07,1.32c0,0.74,0.34,1.32,1.07,1.32
				C9.47,6.53,9.81,5.96,9.81,5.21z"/>
			<path class="st5" d="M11.04,5.21c0-1.12,0.68-1.9,1.8-1.9c1.11,0,1.79,0.78,1.79,1.89c0,1.12-0.67,1.91-1.79,1.91
				C11.72,7.11,11.04,6.33,11.04,5.21z M13.9,5.21c0-0.75-0.34-1.32-1.06-1.32c-0.73,0-1.07,0.57-1.07,1.32
				c0,0.74,0.34,1.32,1.07,1.32C13.56,6.53,13.9,5.96,13.9,5.21z"/>
			<path class="st5" d="M15.31,1.99h0.71V7h-0.71V1.99z"/>
			<path class="st5" d="M16.67,5.86h0.7c0.02,0.43,0.29,0.68,0.9,0.68c0.58,0,0.78-0.23,0.78-0.52s-0.17-0.44-0.56-0.51l-0.63-0.1
				c-0.67-0.11-1.09-0.41-1.09-1.04c0-0.63,0.52-1.04,1.42-1.04c1.02,0,1.44,0.48,1.46,1.13h-0.71c-0.01-0.36-0.21-0.58-0.75-0.58
				c-0.46,0-0.69,0.16-0.69,0.44c0,0.27,0.16,0.41,0.55,0.48l0.63,0.1c0.67,0.12,1.11,0.45,1.11,1.07c0,0.71-0.55,1.12-1.53,1.12
				C17.15,7.1,16.68,6.58,16.67,5.86z"/>
			<path class="st5" d="M5.46,14.29h-2.3v-0.71l2.3-3.19h0.77v3.24h0.68v0.67H6.24v1.11H5.46V14.29z M5.46,13.63v-2.25l-1.6,2.25
				H5.46z"/>
			<path class="st5" d="M7.36,12.9c0-1.44,0.57-2.61,1.93-2.61c1.35,0,1.93,1.18,1.93,2.61c0,1.44-0.57,2.61-1.93,2.61
				C7.94,15.5,7.36,14.34,7.36,12.9z M8.43,14.36l1.25-3.35c-0.11-0.04-0.25-0.07-0.39-0.07c-0.89,0-1.16,0.91-1.16,1.96
				C8.14,13.47,8.22,14,8.43,14.36z M10.44,12.9c0-0.57-0.08-1.1-0.29-1.46L8.9,14.78c0.11,0.04,0.24,0.07,0.39,0.07
				C10.18,14.85,10.44,13.94,10.44,12.9z"/>
			<path class="st5" d="M13.49,11.82h0.71v0.42h0.01c0.19-0.25,0.54-0.52,1.1-0.52c0.91,0,1.6,0.71,1.6,1.89
				c0,1.18-0.69,1.89-1.6,1.89c-0.56,0-0.91-0.27-1.1-0.54h-0.01v1.67h-0.71V11.82z M16.17,13.61c0-0.7-0.32-1.31-0.99-1.31
				c-0.61,0-0.98,0.5-0.98,1.31c0,0.81,0.37,1.31,0.98,1.31C15.85,14.92,16.17,14.31,16.17,13.61z"/>
			<path class="st5" d="M18.3,13.57l-1.23-1.75h0.81l0.83,1.27h0.01l0.83-1.27h0.8l-1.22,1.75l1.35,1.83h-0.83l-0.95-1.36h-0.01
				l-0.94,1.36h-0.82L18.3,13.57z"/>
		</g>
	</g>
</g>
<g id="Icons">
	<path class="st5" d="M77.24,49H68v-3.03c0-1.64-1.29-2.97-2.87-2.97H54.87C53.29,43,52,44.33,52,45.97V49h-9.22l-2.74,8.98L40,63.1
		V77h40V63.1l0.02-4.98L77.24,49z M54,45.97c0-0.53,0.39-0.97,0.87-0.97h10.26c0.48,0,0.87,0.43,0.87,0.97V49H54V45.97z M44.26,51
		h31.49l2.26,7.42L78,62H42v-3.58L44.26,51z M58,64h4v4h-4V64z M42,75V64h14v6h8v-6h14v11H42z"/>
</g>
<g id="Grid" class="st0">
	<g class="st3">
		<g>
			<line class="st7" x1="41" y1="40" x2="41" y2="80"/>
			<line class="st7" x1="42" y1="40" x2="42" y2="80"/>
			<line class="st7" x1="43" y1="40" x2="43" y2="80"/>
			<line class="st7" x1="44" y1="40" x2="44" y2="80"/>
			<line class="st7" x1="45" y1="40" x2="45" y2="80"/>
			<line class="st7" x1="46" y1="40" x2="46" y2="80"/>
			<line class="st7" x1="47" y1="40" x2="47" y2="80"/>
			<line class="st7" x1="48" y1="40" x2="48" y2="80"/>
			<line class="st7" x1="49" y1="40" x2="49" y2="80"/>
			<line class="st7" x1="50" y1="40" x2="50" y2="80"/>
			<line class="st7" x1="51" y1="40" x2="51" y2="80"/>
			<line class="st7" x1="52" y1="40" x2="52" y2="80"/>
			<line class="st7" x1="53" y1="40" x2="53" y2="80"/>
			<line class="st7" x1="54" y1="40" x2="54" y2="80"/>
			<line class="st7" x1="55" y1="40" x2="55" y2="80"/>
			<line class="st7" x1="56" y1="40" x2="56" y2="80"/>
			<line class="st7" x1="57" y1="40" x2="57" y2="80"/>
			<line class="st7" x1="58" y1="40" x2="58" y2="80"/>
			<line class="st7" x1="59" y1="40" x2="59" y2="80"/>
			<line class="st7" x1="60" y1="40" x2="60" y2="80"/>
			<line class="st7" x1="61" y1="40" x2="61" y2="80"/>
			<line class="st7" x1="62" y1="40" x2="62" y2="80"/>
			<line class="st7" x1="63" y1="40" x2="63" y2="80"/>
			<line class="st7" x1="64" y1="40" x2="64" y2="80"/>
			<line class="st7" x1="65" y1="40" x2="65" y2="80"/>
			<line class="st7" x1="66" y1="40" x2="66" y2="80"/>
			<line class="st7" x1="67" y1="40" x2="67" y2="80"/>
			<line class="st7" x1="68" y1="40" x2="68" y2="80"/>
			<line class="st7" x1="69" y1="40" x2="69" y2="80"/>
			<line class="st7" x1="70" y1="40" x2="70" y2="80"/>
			<line class="st7" x1="71" y1="40" x2="71" y2="80"/>
			<line class="st7" x1="72" y1="40" x2="72" y2="80"/>
			<line class="st7" x1="73" y1="40" x2="73" y2="80"/>
			<line class="st7" x1="74" y1="40" x2="74" y2="80"/>
			<line class="st7" x1="75" y1="40" x2="75" y2="80"/>
			<line class="st7" x1="76" y1="40" x2="76" y2="80"/>
			<line class="st7" x1="77" y1="40" x2="77" y2="80"/>
			<line class="st7" x1="78" y1="40" x2="78" y2="80"/>
			<line class="st7" x1="79" y1="40" x2="79" y2="80"/>
			<line class="st7" x1="80" y1="40" x2="80" y2="80"/>
		</g>
		<g>
			<line class="st7" x1="80" y1="41" x2="40" y2="41"/>
			<line class="st7" x1="80" y1="42" x2="40" y2="42"/>
			<line class="st7" x1="80" y1="43" x2="40" y2="43"/>
			<line class="st7" x1="80" y1="44" x2="40" y2="44"/>
			<line class="st7" x1="80" y1="45" x2="40" y2="45"/>
			<line class="st7" x1="80" y1="46" x2="40" y2="46"/>
			<line class="st7" x1="80" y1="47" x2="40" y2="47"/>
			<line class="st7" x1="80" y1="48" x2="40" y2="48"/>
			<line class="st7" x1="80" y1="49" x2="40" y2="49"/>
			<line class="st7" x1="80" y1="50" x2="40" y2="50"/>
			<line class="st7" x1="80" y1="51" x2="40" y2="51"/>
			<line class="st7" x1="80" y1="52" x2="40" y2="52"/>
			<line class="st7" x1="80" y1="53" x2="40" y2="53"/>
			<line class="st7" x1="80" y1="54" x2="40" y2="54"/>
			<line class="st7" x1="80" y1="55" x2="40" y2="55"/>
			<line class="st7" x1="80" y1="56" x2="40" y2="56"/>
			<line class="st7" x1="80" y1="57" x2="40" y2="57"/>
			<line class="st7" x1="80" y1="58" x2="40" y2="58"/>
			<line class="st7" x1="80" y1="59" x2="40" y2="59"/>
			<line class="st7" x1="80" y1="60" x2="40" y2="60"/>
			<line class="st7" x1="80" y1="61" x2="40" y2="61"/>
			<line class="st7" x1="80" y1="62" x2="40" y2="62"/>
			<line class="st7" x1="80" y1="63" x2="40" y2="63"/>
			<line class="st7" x1="80" y1="64" x2="40" y2="64"/>
			<line class="st7" x1="80" y1="65" x2="40" y2="65"/>
			<line class="st7" x1="80" y1="66" x2="40" y2="66"/>
			<line class="st7" x1="80" y1="67" x2="40" y2="67"/>
			<line class="st7" x1="80" y1="68" x2="40" y2="68"/>
			<line class="st7" x1="80" y1="69" x2="40" y2="69"/>
			<line class="st7" x1="80" y1="70" x2="40" y2="70"/>
			<line class="st7" x1="80" y1="71" x2="40" y2="71"/>
			<line class="st7" x1="80" y1="72" x2="40" y2="72"/>
			<line class="st7" x1="80" y1="73" x2="40" y2="73"/>
			<line class="st7" x1="80" y1="74" x2="40" y2="74"/>
			<line class="st7" x1="80" y1="75" x2="40" y2="75"/>
			<line class="st7" x1="80" y1="76" x2="40" y2="76"/>
			<line class="st7" x1="80" y1="77" x2="40" y2="77"/>
			<line class="st7" x1="80" y1="78" x2="40" y2="78"/>
			<line class="st7" x1="80" y1="79" x2="40" y2="79"/>
		</g>
		<rect x="40" y="40" class="st7" width="40" height="40"/>
	</g>
</g>
</svg>
