<?xml version="1.0" encoding="utf-8"?>
<!-- Generator: Adobe Illustrator 27.1.1, SVG Export Plug-In . SVG Version: 6.00 Build 0)  -->
<svg version="1.1" xmlns="http://www.w3.org/2000/svg" xmlns:xlink="http://www.w3.org/1999/xlink" x="0px" y="0px"
	 viewBox="0 0 120 120" style="enable-background:new 0 0 120 120;" xml:space="preserve">
<style type="text/css">
	.st0{display:none;}
	.st1{display:inline;fill:#FFFFFF;}
	.st2{display:inline;fill:#221F20;}
	.st3{display:inline;}
	.st4{fill:#221F20;}
	.st5{fill:#FFFFFF;}
	.st6{fill:#FFCC01;}
	.st7{fill:none;stroke:#646464;stroke-width:0.035;stroke-miterlimit:10;}
</style>
<g id="Labels__x26__Base" class="st0">
	<rect class="st1" width="120" height="120"/>
	<g class="st3">
		<g>
			<path class="st4" d="M4.31,7H3.52V1.99h2.1c1.1,0,1.7,0.55,1.7,1.53c0,0.77-0.37,1.27-1.06,1.45L7.39,7H6.52L5.46,5.05H4.31V7z
				 M6.52,3.52c0-0.55-0.3-0.85-1.06-0.85H4.31v1.69h1.15C6.22,4.37,6.52,4.07,6.52,3.52z"/>
			<path class="st4" d="M7.76,5.21c0-1.12,0.68-1.9,1.8-1.9c1.11,0,1.79,0.78,1.79,1.89c0,1.12-0.67,1.91-1.79,1.91
				C8.44,7.11,7.76,6.33,7.76,5.21z M10.62,5.21c0-0.75-0.34-1.32-1.06-1.32C8.83,3.9,8.5,4.46,8.5,5.21c0,0.74,0.34,1.32,1.07,1.32
				C10.27,6.53,10.62,5.96,10.62,5.21z"/>
			<path class="st4" d="M12.02,1.99h0.71v1.85h0.01c0.19-0.25,0.54-0.52,1.1-0.52c0.91,0,1.6,0.71,1.6,1.89s-0.69,1.89-1.6,1.89
				c-0.56,0-0.91-0.27-1.1-0.54h-0.01V7h-0.71V1.99z M14.71,5.21c0-0.7-0.32-1.31-0.99-1.31c-0.61,0-0.98,0.5-0.98,1.31
				s0.37,1.31,0.98,1.31C14.38,6.52,14.71,5.91,14.71,5.21z"/>
			<path class="st4" d="M15.95,5.21c0-1.12,0.68-1.9,1.8-1.9c1.11,0,1.79,0.78,1.79,1.89c0,1.12-0.67,1.91-1.79,1.91
				C16.63,7.11,15.95,6.33,15.95,5.21z M18.81,5.21c0-0.75-0.34-1.32-1.06-1.32c-0.73,0-1.06,0.57-1.06,1.32
				c0,0.74,0.34,1.32,1.06,1.32C18.46,6.53,18.81,5.96,18.81,5.21z"/>
			<path class="st4" d="M20.45,6.05V4h-0.52V3.42h0.52V2.59h0.71v0.83h0.82V4h-0.82v2.01c0,0.31,0.11,0.37,0.4,0.37h0.43V7H21.4
				C20.81,7,20.45,6.8,20.45,6.05z"/>
			<path class="st4" d="M22.62,2.04h0.79V2.8h-0.79V2.04z M22.66,3.42h0.71V7h-0.71V3.42z"/>
			<path class="st4" d="M24.05,5.21c0-1.12,0.69-1.89,1.76-1.89c0.92,0,1.53,0.59,1.62,1.4H26.7c-0.03-0.36-0.24-0.82-0.88-0.82
				c-0.75,0-1.03,0.64-1.03,1.31c0,0.67,0.28,1.31,1.03,1.31c0.64,0,0.85-0.45,0.88-0.85h0.73C27.38,6.5,26.73,7.1,25.81,7.1
				C24.74,7.1,24.05,6.33,24.05,5.21z"/>
			<path class="st4" d="M27.88,5.86h0.7c0.02,0.43,0.29,0.68,0.9,0.68c0.58,0,0.78-0.23,0.78-0.52s-0.17-0.44-0.56-0.51l-0.63-0.1
				c-0.67-0.11-1.09-0.41-1.09-1.04c0-0.63,0.52-1.04,1.42-1.04c1.02,0,1.44,0.48,1.46,1.13h-0.71c-0.01-0.36-0.21-0.58-0.75-0.58
				c-0.46,0-0.69,0.16-0.69,0.44c0,0.27,0.16,0.41,0.55,0.48l0.63,0.1C30.57,5.02,31,5.35,31,5.98c0,0.71-0.55,1.12-1.53,1.12
				C28.36,7.1,27.88,6.58,27.88,5.86z"/>
			<path class="st4" d="M4.69,13.19c0.81-0.53,1.22-0.74,1.22-1.42c0-0.4-0.16-0.82-0.8-0.82c-0.75,0-0.99,0.49-0.99,1.16H3.33
				c0-1.04,0.56-1.82,1.79-1.82c0.88,0,1.6,0.53,1.6,1.46c0,0.99-0.76,1.49-1.46,1.94c-0.46,0.29-0.9,0.59-1.04,1.04v0.01h2.45v0.67
				H3.21C3.21,14.45,3.76,13.8,4.69,13.19z"/>
			<path class="st4" d="M7.28,12.9c0-1.44,0.57-2.61,1.93-2.61c1.35,0,1.93,1.18,1.93,2.61c0,1.44-0.57,2.61-1.93,2.61
				C7.85,15.5,7.28,14.34,7.28,12.9z M8.35,14.36l1.25-3.36c-0.11-0.04-0.25-0.07-0.39-0.07c-0.89,0-1.16,0.91-1.16,1.96
				C8.05,13.47,8.13,14,8.35,14.36z M10.36,12.9c0-0.57-0.08-1.1-0.29-1.46l-1.25,3.35c0.11,0.04,0.24,0.07,0.39,0.07
				C10.1,14.85,10.36,13.94,10.36,12.9z"/>
			<path class="st4" d="M13.4,11.82h0.71v0.42h0.01c0.19-0.25,0.54-0.52,1.1-0.52c0.91,0,1.6,0.71,1.6,1.89
				c0,1.18-0.69,1.89-1.6,1.89c-0.56,0-0.91-0.27-1.1-0.54h-0.01v1.67H13.4V11.82z M16.08,13.61c0-0.7-0.32-1.31-0.99-1.31
				c-0.61,0-0.98,0.5-0.98,1.31c0,0.81,0.37,1.31,0.98,1.31C15.76,14.92,16.08,14.31,16.08,13.61z"/>
			<path class="st4" d="M18.22,13.57l-1.23-1.75h0.81l0.83,1.28h0.01l0.83-1.28h0.8l-1.22,1.75l1.35,1.83h-0.83l-0.95-1.36h-0.01
				l-0.94,1.36h-0.82L18.22,13.57z"/>
		</g>
	</g>
</g>
<g id="Icons">
	<path class="st4" d="M69.98,52v-2h-3.69c-0.72,0-1.31,0.59-1.31,1.31v1.19h-1.07c-0.23-0.86-1-1.5-1.93-1.5h-6.76
		c-0.55-0.61-1.34-1-2.22-1c-1.65,0-3,1.35-3,3c0,1.06,0.56,1.99,1.39,2.52l-0.05,0.02L54.18,65l-2.33,0l-1.52,5h19.34l-1.49-5
		l-9.23,0l-3-10h6.03l0-0.01V55c0.93,0,1.71-0.64,1.93-1.5h1.07v1.19c0,0.72,0.59,1.31,1.31,1.31h3.69v-2h-1v1h-2.69
		c-0.17,0-0.31-0.14-0.31-0.31v-3.39c0-0.17,0.14-0.31,0.31-0.31h2.69v1H69.98z M51,53c0-1.1,0.9-2,2-2s2,0.9,2,2s-0.9,2-2,2
		S51,54.1,51,53z M67.44,66l0.89,3H51.67l0.91-3L67.44,66z M57.91,65l-2.69,0l-2.71-9.05C52.67,55.98,52.83,56,53,56
		c0.76,0,1.45-0.29,1.98-0.76L57.91,65z M61.98,54L61.98,54L61.98,54h-6.17c0.11-0.31,0.18-0.65,0.18-1s-0.07-0.69-0.18-1h6.16
		c0.55,0,1,0.45,1,1.01C62.98,53.55,62.53,54,61.98,54z"/>
</g>
<g id="Grid" class="st0">
	<g class="st3">
		<rect x="50" y="50" class="st7" width="20" height="20"/>
		<g>
			<line class="st7" x1="51" y1="50" x2="51" y2="70"/>
			<line class="st7" x1="52" y1="50" x2="52" y2="70"/>
			<line class="st7" x1="53" y1="50" x2="53" y2="70"/>
			<line class="st7" x1="54" y1="50" x2="54" y2="70"/>
			<line class="st7" x1="55" y1="50" x2="55" y2="70"/>
			<line class="st7" x1="56" y1="50" x2="56" y2="70"/>
			<line class="st7" x1="57" y1="50" x2="57" y2="70"/>
			<line class="st7" x1="58" y1="50" x2="58" y2="70"/>
			<line class="st7" x1="59" y1="50" x2="59" y2="70"/>
			<line class="st7" x1="60" y1="50" x2="60" y2="70"/>
			<line class="st7" x1="61" y1="50" x2="61" y2="70"/>
			<line class="st7" x1="62" y1="50" x2="62" y2="70"/>
			<line class="st7" x1="63" y1="50" x2="63" y2="70"/>
			<line class="st7" x1="64" y1="50" x2="64" y2="70"/>
			<line class="st7" x1="65" y1="50" x2="65" y2="70"/>
			<line class="st7" x1="66" y1="50" x2="66" y2="70"/>
			<line class="st7" x1="67" y1="50" x2="67" y2="70"/>
			<line class="st7" x1="68" y1="50" x2="68" y2="70"/>
			<line class="st7" x1="69" y1="50" x2="69" y2="70"/>
		</g>
		<g>
			<line class="st7" x1="70" y1="51" x2="50" y2="51"/>
			<line class="st7" x1="70" y1="52" x2="50" y2="52"/>
			<line class="st7" x1="70" y1="53" x2="50" y2="53"/>
			<line class="st7" x1="70" y1="54" x2="50" y2="54"/>
			<line class="st7" x1="70" y1="55" x2="50" y2="55"/>
			<line class="st7" x1="70" y1="56" x2="50" y2="56"/>
			<line class="st7" x1="70" y1="57" x2="50" y2="57"/>
			<line class="st7" x1="70" y1="58" x2="50" y2="58"/>
			<line class="st7" x1="70" y1="59" x2="50" y2="59"/>
			<line class="st7" x1="70" y1="60" x2="50" y2="60"/>
			<line class="st7" x1="70" y1="61" x2="50" y2="61"/>
			<line class="st7" x1="70" y1="62" x2="50" y2="62"/>
			<line class="st7" x1="70" y1="63" x2="50" y2="63"/>
			<line class="st7" x1="70" y1="64" x2="50" y2="64"/>
			<line class="st7" x1="70" y1="65" x2="50" y2="65"/>
			<line class="st7" x1="70" y1="66" x2="50" y2="66"/>
			<line class="st7" x1="70" y1="67" x2="50" y2="67"/>
			<line class="st7" x1="70" y1="68" x2="50" y2="68"/>
			<line class="st7" x1="70" y1="69" x2="50" y2="69"/>
		</g>
	</g>
</g>
</svg>
