<?xml version="1.0" encoding="utf-8"?>
<!-- Generator: Adobe Illustrator 27.1.1, SVG Export Plug-In . SVG Version: 6.00 Build 0)  -->
<svg version="1.1" xmlns="http://www.w3.org/2000/svg" xmlns:xlink="http://www.w3.org/1999/xlink" x="0px" y="0px"
	 viewBox="0 0 120 120" style="enable-background:new 0 0 120 120;" xml:space="preserve">
<style type="text/css">
	.st0{display:none;}
	.st1{display:inline;fill:#FFFFFF;}
	.st2{display:inline;fill:#221F20;}
	.st3{display:inline;}
	.st4{fill:#221F20;}
	.st5{fill:#FFFFFF;}
	.st6{fill:#FFCC01;}
	.st7{fill:none;stroke:#646464;stroke-width:0.035;stroke-miterlimit:10;}
</style>
<g id="Labels__x26__Base" class="st0">
	<rect class="st1" width="120" height="120"/>
	<g class="st3">
		<g>
			<path class="st4" d="M3.27,4.5c0-1.51,0.92-2.61,2.35-2.61c1.26,0,2.03,0.81,2.15,1.81H6.94C6.85,3.2,6.54,2.57,5.6,2.57
				c-1.1,0-1.51,0.93-1.51,1.92c0,1,0.41,1.93,1.51,1.93c0.95,0,1.29-0.63,1.34-1.25h0.82C7.65,6.29,6.87,7.1,5.61,7.1
				C4.18,7.1,3.27,6,3.27,4.5z"/>
			<path class="st4" d="M8.4,1.99h0.71v1.81h0.01c0.18-0.24,0.53-0.48,1.11-0.48c0.7,0,1.26,0.38,1.26,1.2V7h-0.71V4.72
				c0-0.48-0.21-0.8-0.72-0.8c-0.58,0-0.95,0.35-0.95,0.89V7H8.4V1.99z"/>
			<path class="st4" d="M12.13,5.21c0-1.12,0.68-1.89,1.77-1.89c1.09,0,1.7,0.71,1.7,1.83c0,0.09,0,0.2-0.01,0.25h-2.74
				c0.01,0.6,0.36,1.13,1.06,1.13c0.62,0,0.86-0.39,0.92-0.62h0.72c-0.19,0.68-0.72,1.21-1.66,1.21C12.77,7.11,12.13,6.3,12.13,5.21
				z M12.86,4.86h2.01c0-0.55-0.38-0.97-0.99-0.97C13.31,3.88,12.9,4.28,12.86,4.86z"/>
			<path class="st4" d="M16.28,3.42h0.71v0.38H17c0.18-0.24,0.49-0.48,1-0.48s0.83,0.2,0.98,0.55H19c0.25-0.3,0.6-0.55,1.13-0.55
				c0.76,0,1.15,0.43,1.15,1.2V7h-0.71V4.72c0-0.48-0.1-0.8-0.62-0.8c-0.5,0-0.83,0.35-0.83,0.89V7h-0.71V4.72
				c0-0.48-0.09-0.8-0.61-0.8c-0.51,0-0.83,0.35-0.83,0.89V7h-0.71V3.42z"/>
			<path class="st4" d="M22.05,2.04h0.79V2.8h-0.79V2.04z M22.1,3.42h0.71V7H22.1V3.42z"/>
			<path class="st4" d="M23.46,5.86h0.7c0.02,0.43,0.29,0.68,0.9,0.68c0.58,0,0.78-0.23,0.78-0.52s-0.17-0.44-0.56-0.51l-0.63-0.1
				c-0.67-0.11-1.09-0.41-1.09-1.04c0-0.63,0.52-1.04,1.42-1.04c1.01,0,1.44,0.48,1.46,1.13h-0.71c-0.01-0.36-0.21-0.58-0.75-0.58
				c-0.46,0-0.69,0.16-0.69,0.44c0,0.27,0.16,0.41,0.55,0.48l0.63,0.1c0.67,0.12,1.11,0.45,1.11,1.07c0,0.71-0.55,1.12-1.53,1.12
				C23.94,7.1,23.47,6.58,23.46,5.86z"/>
			<path class="st4" d="M27.51,6.05V4h-0.52V3.42h0.52V2.59h0.71v0.83h0.82V4h-0.82v2.01c0,0.31,0.1,0.37,0.4,0.37h0.43V7h-0.59
				C27.86,7,27.51,6.8,27.51,6.05z"/>
			<path class="st4" d="M29.72,3.42h0.71V4.1h0.01c0.18-0.42,0.48-0.71,0.96-0.71h0.32v0.67h-0.23c-0.62,0-1.06,0.45-1.06,1.1V7
				h-0.71V3.42z"/>
			<path class="st4" d="M32.37,8.24V7.61h0.29c0.27,0,0.6-0.13,0.74-0.65l-1.33-3.54h0.77l0.92,2.72h0.01l0.92-2.72h0.73l-1.35,3.66
				c-0.36,0.88-0.73,1.16-1.32,1.16H32.37z"/>
			<path class="st4" d="M4.69,13.19c0.81-0.53,1.22-0.74,1.22-1.42c0-0.4-0.16-0.82-0.8-0.82c-0.75,0-0.99,0.49-0.99,1.16H3.33
				c0-1.04,0.56-1.82,1.79-1.82c0.88,0,1.6,0.53,1.6,1.46c0,0.99-0.76,1.49-1.46,1.94c-0.46,0.29-0.9,0.59-1.04,1.04v0.01h2.45v0.67
				H3.21C3.21,14.45,3.76,13.8,4.69,13.19z"/>
			<path class="st4" d="M7.28,12.9c0-1.44,0.57-2.61,1.93-2.61c1.35,0,1.93,1.18,1.93,2.61c0,1.44-0.57,2.61-1.93,2.61
				C7.85,15.5,7.28,14.34,7.28,12.9z M8.35,14.36l1.25-3.36c-0.11-0.04-0.25-0.07-0.39-0.07c-0.89,0-1.16,0.91-1.16,1.96
				C8.05,13.47,8.13,14,8.35,14.36z M10.36,12.9c0-0.57-0.08-1.1-0.29-1.46l-1.25,3.35c0.11,0.04,0.24,0.07,0.39,0.07
				C10.1,14.85,10.36,13.94,10.36,12.9z"/>
			<path class="st4" d="M13.4,11.82h0.71v0.42h0.01c0.19-0.25,0.54-0.52,1.1-0.52c0.91,0,1.6,0.71,1.6,1.89
				c0,1.18-0.69,1.89-1.6,1.89c-0.56,0-0.91-0.27-1.1-0.54h-0.01v1.67H13.4V11.82z M16.08,13.61c0-0.7-0.32-1.31-0.99-1.31
				c-0.61,0-0.98,0.5-0.98,1.31c0,0.81,0.37,1.31,0.98,1.31C15.76,14.92,16.08,14.31,16.08,13.61z"/>
			<path class="st4" d="M18.22,13.57l-1.23-1.75h0.81l0.83,1.28h0.01l0.83-1.28h0.8l-1.22,1.75l1.35,1.83h-0.83l-0.95-1.36h-0.01
				l-0.94,1.36h-0.82L18.22,13.57z"/>
		</g>
	</g>
</g>
<g id="Icons">
	<path class="st4" d="M68.74,64.32l-6.49-4.9v-8.41h1.25v-1h-1.25h-4.5H56.5v1h1.25l-0.01,8.33l-6.48,4.98
		c-1.1,0.84-1.52,2.22-1.08,3.53c0.44,1.31,1.62,2.15,3,2.15h13.63c1.38,0,2.56-0.84,3-2.15C70.26,66.54,69.83,65.16,68.74,64.32z
		 M68.87,67.53C68.63,68.24,67.96,69,66.82,69H53.18c-1.15,0-1.81-0.76-2.05-1.47c-0.24-0.71-0.17-1.72,0.74-2.42l6.87-5.28
		l0.01-8.83h2.5v8.91l6.88,5.2C69.04,65.81,69.11,66.82,68.87,67.53z"/>
</g>
<g id="Grid" class="st0">
	<g class="st3">
		<rect x="50" y="50" class="st7" width="20" height="20"/>
		<g>
			<line class="st7" x1="51" y1="50" x2="51" y2="70"/>
			<line class="st7" x1="52" y1="50" x2="52" y2="70"/>
			<line class="st7" x1="53" y1="50" x2="53" y2="70"/>
			<line class="st7" x1="54" y1="50" x2="54" y2="70"/>
			<line class="st7" x1="55" y1="50" x2="55" y2="70"/>
			<line class="st7" x1="56" y1="50" x2="56" y2="70"/>
			<line class="st7" x1="57" y1="50" x2="57" y2="70"/>
			<line class="st7" x1="58" y1="50" x2="58" y2="70"/>
			<line class="st7" x1="59" y1="50" x2="59" y2="70"/>
			<line class="st7" x1="60" y1="50" x2="60" y2="70"/>
			<line class="st7" x1="61" y1="50" x2="61" y2="70"/>
			<line class="st7" x1="62" y1="50" x2="62" y2="70"/>
			<line class="st7" x1="63" y1="50" x2="63" y2="70"/>
			<line class="st7" x1="64" y1="50" x2="64" y2="70"/>
			<line class="st7" x1="65" y1="50" x2="65" y2="70"/>
			<line class="st7" x1="66" y1="50" x2="66" y2="70"/>
			<line class="st7" x1="67" y1="50" x2="67" y2="70"/>
			<line class="st7" x1="68" y1="50" x2="68" y2="70"/>
			<line class="st7" x1="69" y1="50" x2="69" y2="70"/>
		</g>
		<g>
			<line class="st7" x1="70" y1="51" x2="50" y2="51"/>
			<line class="st7" x1="70" y1="52" x2="50" y2="52"/>
			<line class="st7" x1="70" y1="53" x2="50" y2="53"/>
			<line class="st7" x1="70" y1="54" x2="50" y2="54"/>
			<line class="st7" x1="70" y1="55" x2="50" y2="55"/>
			<line class="st7" x1="70" y1="56" x2="50" y2="56"/>
			<line class="st7" x1="70" y1="57" x2="50" y2="57"/>
			<line class="st7" x1="70" y1="58" x2="50" y2="58"/>
			<line class="st7" x1="70" y1="59" x2="50" y2="59"/>
			<line class="st7" x1="70" y1="60" x2="50" y2="60"/>
			<line class="st7" x1="70" y1="61" x2="50" y2="61"/>
			<line class="st7" x1="70" y1="62" x2="50" y2="62"/>
			<line class="st7" x1="70" y1="63" x2="50" y2="63"/>
			<line class="st7" x1="70" y1="64" x2="50" y2="64"/>
			<line class="st7" x1="70" y1="65" x2="50" y2="65"/>
			<line class="st7" x1="70" y1="66" x2="50" y2="66"/>
			<line class="st7" x1="70" y1="67" x2="50" y2="67"/>
			<line class="st7" x1="70" y1="68" x2="50" y2="68"/>
			<line class="st7" x1="70" y1="69" x2="50" y2="69"/>
		</g>
	</g>
</g>
</svg>
