<?xml version="1.0" encoding="utf-8"?>
<!-- Generator: Adobe Illustrator 27.1.1, SVG Export Plug-In . SVG Version: 6.00 Build 0)  -->
<svg version="1.1" xmlns="http://www.w3.org/2000/svg" xmlns:xlink="http://www.w3.org/1999/xlink" x="0px" y="0px"
	 viewBox="0 0 120 120" style="enable-background:new 0 0 120 120;" xml:space="preserve">
<style type="text/css">
	.st0{display:none;}
	.st1{display:inline;fill:#FFFFFF;}
	.st2{display:inline;fill:#221F20;}
	.st3{display:inline;}
	.st4{fill:#221F20;}
	.st5{fill:#FFFFFF;}
	.st6{fill:#FFCC01;}
	.st7{fill:none;stroke:#646464;stroke-width:0.035;stroke-miterlimit:10;}
</style>
<g id="Labels__x26__Base" class="st0">
	<rect class="st1" width="120" height="120"/>
	<g class="st3">
		<g>
			<path class="st4" d="M3.22,5.4h0.81c0.04,0.69,0.46,1.03,1.28,1.03c0.82,0,1.13-0.34,1.13-0.81c0-0.42-0.25-0.68-0.86-0.78
				L4.83,4.7C3.86,4.52,3.36,4.02,3.36,3.29c0-0.9,0.73-1.4,1.81-1.4c1.16,0,1.89,0.55,1.93,1.57H6.29c-0.05-0.6-0.4-0.9-1.12-0.9
				c-0.64,0-0.99,0.26-0.99,0.7c0,0.39,0.25,0.64,0.85,0.75l0.76,0.14c0.97,0.17,1.48,0.64,1.48,1.43c0,0.88-0.65,1.52-1.93,1.52
				C4.1,7.1,3.26,6.52,3.22,5.4z"/>
			<path class="st4" d="M7.75,5.21c0-1.12,0.68-1.9,1.8-1.9c1.11,0,1.79,0.78,1.79,1.89c0,1.12-0.67,1.91-1.79,1.91
				C8.43,7.11,7.75,6.33,7.75,5.21z M10.61,5.21c0-0.75-0.34-1.32-1.06-1.32c-0.73,0-1.06,0.57-1.06,1.32
				c0,0.74,0.34,1.32,1.06,1.32C10.27,6.53,10.61,5.96,10.61,5.21z"/>
			<path class="st4" d="M12.02,1.99h0.71V7h-0.71V1.99z"/>
			<path class="st4" d="M13.41,5.21c0-1.18,0.69-1.89,1.6-1.89c0.56,0,0.9,0.26,1.09,0.54h0.01V1.99h0.71V7h-0.71V6.58h-0.01
				c-0.19,0.25-0.53,0.53-1.09,0.53C14.1,7.1,13.41,6.39,13.41,5.21z M16.12,5.21c0-0.81-0.38-1.31-0.99-1.31
				c-0.67,0-0.99,0.61-0.99,1.31s0.32,1.31,0.99,1.31C15.74,6.52,16.12,6.02,16.12,5.21z"/>
			<path class="st4" d="M17.64,2.04h0.79V2.8h-0.79V2.04z M17.68,3.42h0.71V7h-0.71V3.42z"/>
			<path class="st4" d="M19.06,5.21c0-1.12,0.68-1.89,1.77-1.89c1.09,0,1.7,0.71,1.7,1.83c0,0.09,0,0.2-0.01,0.25h-2.74
				c0.01,0.6,0.36,1.13,1.06,1.13c0.62,0,0.86-0.39,0.92-0.62h0.72c-0.19,0.68-0.72,1.21-1.66,1.21C19.7,7.11,19.06,6.3,19.06,5.21z
				 M19.79,4.86h2.01c0-0.55-0.38-0.97-0.99-0.97C20.25,3.88,19.84,4.28,19.79,4.86z"/>
			<path class="st4" d="M23.22,3.42h0.71V4.1h0.01c0.18-0.42,0.48-0.71,0.96-0.71h0.32v0.67h-0.23c-0.62,0-1.06,0.45-1.06,1.1V7
				h-0.71V3.42z"/>
			<path class="st4" d="M25.64,5.86h0.7c0.02,0.43,0.29,0.68,0.9,0.68c0.58,0,0.78-0.23,0.78-0.52s-0.17-0.44-0.56-0.51l-0.63-0.1
				c-0.67-0.11-1.09-0.41-1.09-1.04c0-0.63,0.52-1.04,1.42-1.04c1.02,0,1.44,0.48,1.46,1.13h-0.71c-0.01-0.36-0.21-0.58-0.75-0.58
				c-0.46,0-0.69,0.16-0.69,0.44c0,0.27,0.16,0.41,0.55,0.48l0.63,0.1c0.67,0.12,1.11,0.45,1.11,1.07c0,0.71-0.55,1.12-1.53,1.12
				C26.12,7.1,25.65,6.58,25.64,5.86z"/>
			<path class="st4" d="M31.06,5.06c0-1.31,0.45-2.39,0.97-3.1h0.62c-0.45,0.85-0.81,1.8-0.81,3.1c0,1.27,0.36,2.23,0.81,3.08h-0.62
				C31.51,7.43,31.06,6.33,31.06,5.06z"/>
			<path class="st4" d="M32.94,5.07c0-1.14,0.69-1.75,1.58-1.75c0.57,0,0.9,0.27,1.09,0.52h0.01V3.42h0.71v3.29
				c0,1.08-0.65,1.57-1.68,1.57c-1.02,0-1.53-0.5-1.61-1.13h0.73c0.07,0.32,0.31,0.56,0.88,0.56c0.64,0,0.97-0.28,0.97-0.95V6.29
				h-0.01c-0.19,0.27-0.52,0.54-1.09,0.54C33.62,6.82,32.94,6.22,32.94,5.07z M35.62,5.07c0-0.78-0.36-1.17-0.97-1.17
				c-0.67,0-0.97,0.5-0.97,1.17c0,0.67,0.31,1.17,0.97,1.17C35.26,6.24,35.62,5.84,35.62,5.07z"/>
			<path class="st4" d="M37.18,3.42h0.71V4.1h0.01c0.18-0.42,0.48-0.71,0.96-0.71h0.32v0.67h-0.23c-0.62,0-1.06,0.45-1.06,1.1V7
				h-0.71V3.42z"/>
			<path class="st4" d="M39.62,5.21c0-1.12,0.68-1.9,1.8-1.9c1.11,0,1.79,0.78,1.79,1.89c0,1.12-0.67,1.91-1.79,1.91
				C40.3,7.11,39.62,6.33,39.62,5.21z M42.48,5.21c0-0.75-0.34-1.32-1.06-1.32c-0.73,0-1.06,0.57-1.06,1.32
				c0,0.74,0.34,1.32,1.06,1.32C42.14,6.53,42.48,5.96,42.48,5.21z"/>
			<path class="st4" d="M43.84,5.9V3.42h0.71V5.7c0,0.48,0.21,0.8,0.72,0.8c0.57,0,0.95-0.35,0.95-0.89V3.42h0.7V7h-0.7V6.62h-0.01
				c-0.17,0.23-0.53,0.48-1.11,0.48C44.4,7.1,43.84,6.72,43.84,5.9z"/>
			<path class="st4" d="M47.78,3.42h0.71v0.42h0.01c0.19-0.25,0.54-0.52,1.1-0.52c0.91,0,1.6,0.71,1.6,1.89S50.51,7.1,49.6,7.1
				c-0.56,0-0.91-0.27-1.1-0.54h-0.01v1.67h-0.71V3.42z M50.46,5.21c0-0.7-0.32-1.31-0.99-1.31c-0.61,0-0.98,0.5-0.98,1.31
				s0.37,1.31,0.98,1.31C50.14,6.52,50.46,5.91,50.46,5.21z"/>
			<path class="st4" d="M52.29,5.04c0-1.27-0.36-2.23-0.81-3.08h0.62c0.52,0.71,0.97,1.81,0.97,3.08c0,1.31-0.45,2.39-0.97,3.1
				h-0.62C51.94,7.29,52.29,6.33,52.29,5.04z"/>
			<path class="st4" d="M4.69,13.19c0.81-0.53,1.22-0.74,1.22-1.42c0-0.4-0.16-0.82-0.81-0.82c-0.75,0-0.99,0.49-0.99,1.16H3.33
				c0-1.04,0.56-1.82,1.79-1.82c0.88,0,1.6,0.53,1.6,1.46c0,0.99-0.76,1.49-1.46,1.94c-0.46,0.29-0.9,0.59-1.04,1.04v0.01h2.45v0.67
				H3.21C3.21,14.45,3.76,13.8,4.69,13.19z"/>
			<path class="st4" d="M7.28,12.9c0-1.44,0.57-2.61,1.93-2.61c1.35,0,1.93,1.18,1.93,2.61c0,1.44-0.57,2.61-1.93,2.61
				C7.85,15.5,7.28,14.34,7.28,12.9z M8.35,14.36l1.25-3.36c-0.11-0.04-0.25-0.07-0.39-0.07c-0.89,0-1.16,0.91-1.16,1.96
				C8.05,13.47,8.13,14,8.35,14.36z M10.36,12.9c0-0.57-0.08-1.1-0.29-1.46l-1.25,3.35c0.11,0.04,0.25,0.07,0.39,0.07
				C10.1,14.85,10.36,13.94,10.36,12.9z"/>
			<path class="st4" d="M13.4,11.82h0.71v0.42h0.01c0.19-0.25,0.54-0.52,1.1-0.52c0.91,0,1.6,0.71,1.6,1.89
				c0,1.18-0.69,1.89-1.6,1.89c-0.56,0-0.91-0.27-1.1-0.54h-0.01v1.67H13.4V11.82z M16.08,13.61c0-0.7-0.32-1.31-0.99-1.31
				c-0.61,0-0.98,0.5-0.98,1.31c0,0.81,0.37,1.31,0.98,1.31C15.76,14.92,16.08,14.31,16.08,13.61z"/>
			<path class="st4" d="M18.22,13.57l-1.23-1.75h0.81l0.83,1.28h0.01l0.83-1.28h0.8l-1.22,1.75l1.35,1.83h-0.83l-0.95-1.36h-0.01
				l-0.94,1.36h-0.82L18.22,13.57z"/>
		</g>
	</g>
</g>
<g id="Icons">
	<path class="st4" d="M55.5,59c1.38,0,2.5-1.12,2.5-2.5v-1v-1c0-1.38-1.12-2.5-2.5-2.5S53,53.12,53,54.5v1v1
		C53,57.88,54.12,59,55.5,59z M55.5,53c0.83,0,1.5,0.67,1.5,1.5h-3C54,53.67,54.67,53,55.5,53z M57,55.5v1c0,0.83-0.67,1.5-1.5,1.5
		S54,57.33,54,56.5v-1H57z M64.5,59c1.38,0,2.5-1.12,2.5-2.5v-1v-1c0-1.38-1.12-2.5-2.5-2.5S62,53.12,62,54.5v1v1
		C62,57.88,63.12,59,64.5,59z M64.5,53c0.83,0,1.5,0.67,1.5,1.5h-3C63,53.67,63.67,53,64.5,53z M66,55.5v1c0,0.83-0.67,1.5-1.5,1.5
		S63,57.33,63,56.5v-1H66z M70,70h-1l0-7.28c0-0.95-0.79-1.72-1.76-1.72h-5.48c-0.42,0-0.81,0.15-1.12,0.4
		C60.86,61.8,61,62.24,61,62.72L61,70h-1l0-7.28c0-0.95-0.79-1.72-1.76-1.72h-5.48c-0.47,0-0.91,0.18-1.25,0.51
		C51.18,61.83,51,62.27,51,62.72L51,70h-1l0-7.28c0-0.73,0.29-1.41,0.81-1.93c0.52-0.51,1.21-0.8,1.95-0.8h5.48
		c0.67,0,1.28,0.25,1.75,0.64C60.48,60.23,61.1,60,61.76,60h5.48c1.52,0,2.76,1.22,2.76,2.72L70,70z"/>
</g>
<g id="Grid" class="st0">
	<g class="st3">
		<rect x="50" y="50" class="st7" width="20" height="20"/>
		<g>
			<line class="st7" x1="51" y1="50" x2="51" y2="70"/>
			<line class="st7" x1="52" y1="50" x2="52" y2="70"/>
			<line class="st7" x1="53" y1="50" x2="53" y2="70"/>
			<line class="st7" x1="54" y1="50" x2="54" y2="70"/>
			<line class="st7" x1="55" y1="50" x2="55" y2="70"/>
			<line class="st7" x1="56" y1="50" x2="56" y2="70"/>
			<line class="st7" x1="57" y1="50" x2="57" y2="70"/>
			<line class="st7" x1="58" y1="50" x2="58" y2="70"/>
			<line class="st7" x1="59" y1="50" x2="59" y2="70"/>
			<line class="st7" x1="60" y1="50" x2="60" y2="70"/>
			<line class="st7" x1="61" y1="50" x2="61" y2="70"/>
			<line class="st7" x1="62" y1="50" x2="62" y2="70"/>
			<line class="st7" x1="63" y1="50" x2="63" y2="70"/>
			<line class="st7" x1="64" y1="50" x2="64" y2="70"/>
			<line class="st7" x1="65" y1="50" x2="65" y2="70"/>
			<line class="st7" x1="66" y1="50" x2="66" y2="70"/>
			<line class="st7" x1="67" y1="50" x2="67" y2="70"/>
			<line class="st7" x1="68" y1="50" x2="68" y2="70"/>
			<line class="st7" x1="69" y1="50" x2="69" y2="70"/>
		</g>
		<g>
			<line class="st7" x1="70" y1="51" x2="50" y2="51"/>
			<line class="st7" x1="70" y1="52" x2="50" y2="52"/>
			<line class="st7" x1="70" y1="53" x2="50" y2="53"/>
			<line class="st7" x1="70" y1="54" x2="50" y2="54"/>
			<line class="st7" x1="70" y1="55" x2="50" y2="55"/>
			<line class="st7" x1="70" y1="56" x2="50" y2="56"/>
			<line class="st7" x1="70" y1="57" x2="50" y2="57"/>
			<line class="st7" x1="70" y1="58" x2="50" y2="58"/>
			<line class="st7" x1="70" y1="59" x2="50" y2="59"/>
			<line class="st7" x1="70" y1="60" x2="50" y2="60"/>
			<line class="st7" x1="70" y1="61" x2="50" y2="61"/>
			<line class="st7" x1="70" y1="62" x2="50" y2="62"/>
			<line class="st7" x1="70" y1="63" x2="50" y2="63"/>
			<line class="st7" x1="70" y1="64" x2="50" y2="64"/>
			<line class="st7" x1="70" y1="65" x2="50" y2="65"/>
			<line class="st7" x1="70" y1="66" x2="50" y2="66"/>
			<line class="st7" x1="70" y1="67" x2="50" y2="67"/>
			<line class="st7" x1="70" y1="68" x2="50" y2="68"/>
			<line class="st7" x1="70" y1="69" x2="50" y2="69"/>
		</g>
	</g>
</g>
</svg>
