<?xml version="1.0" encoding="utf-8"?>
<!-- Generator: Adobe Illustrator 27.1.1, SVG Export Plug-In . SVG Version: 6.00 Build 0)  -->
<svg version="1.1" xmlns="http://www.w3.org/2000/svg" xmlns:xlink="http://www.w3.org/1999/xlink" x="0px" y="0px"
	 viewBox="0 0 120 120" style="enable-background:new 0 0 120 120;" xml:space="preserve">
<style type="text/css">
	.st0{display:none;}
	.st1{display:inline;fill:#FFFFFF;}
	.st2{display:inline;fill:#221F20;}
	.st3{display:inline;}
	.st4{fill:#221F20;}
	.st5{fill:#FFFFFF;}
	.st6{fill:#FFCC01;}
	.st7{fill:none;stroke:#646464;stroke-width:0.035;stroke-miterlimit:10;}
</style>
<g id="Labels__x26__Base" class="st0">
	<rect class="st1" width="120" height="120"/>
	<g class="st3">
		<g>
			<path class="st4" d="M3.52,1.99h2.12c1.03,0,1.62,0.46,1.62,1.26c0,0.62-0.27,0.9-0.52,1.06v0.01c0.32,0.11,0.71,0.47,0.71,1.21
				C7.46,6.5,6.8,7,5.76,7H3.52V1.99z M6.45,3.37c0-0.44-0.27-0.7-0.78-0.7H4.31v1.38h1.3C6.23,4.05,6.45,3.82,6.45,3.37z M6.64,5.5
				c0-0.53-0.32-0.77-0.85-0.77H4.31v1.59H5.7C6.42,6.32,6.64,5.97,6.64,5.5z"/>
			<path class="st4" d="M7.94,6.08c0-0.8,0.6-1.04,1.48-1.2c0.55-0.11,0.9-0.17,0.9-0.53c0-0.26-0.15-0.47-0.67-0.47
				c-0.59,0-0.78,0.2-0.81,0.67H8.13c0.04-0.69,0.48-1.23,1.55-1.23c0.75,0,1.33,0.31,1.33,1.24V7h-0.67V6.57h-0.01
				C10.08,6.89,9.68,7.1,9.1,7.1C8.38,7.1,7.94,6.69,7.94,6.08z M10.32,5.6V5.13C10.21,5.23,9.9,5.3,9.55,5.38
				C8.92,5.51,8.67,5.67,8.67,6.03c0,0.33,0.18,0.51,0.6,0.51C9.88,6.54,10.32,6.22,10.32,5.6z"/>
			<path class="st4" d="M11.64,5.21c0-1.12,0.69-1.89,1.76-1.89c0.92,0,1.53,0.59,1.62,1.4h-0.73c-0.03-0.36-0.24-0.82-0.88-0.82
				c-0.75,0-1.03,0.64-1.03,1.31c0,0.67,0.28,1.31,1.03,1.31c0.64,0,0.85-0.45,0.88-0.85h0.73C14.97,6.5,14.33,7.1,13.41,7.1
				C12.34,7.1,11.64,6.33,11.64,5.21z"/>
			<path class="st4" d="M15.67,1.99h0.71v2.87l1.48-1.44h0.88l-1.37,1.31L18.88,7h-0.87l-1.14-1.79l-0.49,0.46V7h-0.71V1.99z"/>
			<path class="st4" d="M19.45,3.42h0.71v0.42h0.01c0.19-0.25,0.54-0.52,1.1-0.52c0.91,0,1.6,0.71,1.6,1.89s-0.69,1.89-1.6,1.89
				c-0.56,0-0.91-0.27-1.1-0.54h-0.01v1.67h-0.71V3.42z M22.13,5.21c0-0.7-0.32-1.31-0.99-1.31c-0.61,0-0.98,0.5-0.98,1.31
				s0.37,1.31,0.98,1.31C21.81,6.52,22.13,5.91,22.13,5.21z"/>
			<path class="st4" d="M23.34,6.08c0-0.8,0.6-1.04,1.49-1.2c0.55-0.11,0.9-0.17,0.9-0.53c0-0.26-0.15-0.47-0.67-0.47
				c-0.59,0-0.78,0.2-0.81,0.67h-0.71c0.04-0.69,0.48-1.23,1.55-1.23c0.75,0,1.33,0.31,1.33,1.24V7h-0.67V6.57h-0.01
				c-0.24,0.33-0.64,0.54-1.22,0.54C23.79,7.1,23.34,6.69,23.34,6.08z M25.73,5.6V5.13c-0.11,0.1-0.42,0.17-0.78,0.25
				c-0.62,0.13-0.88,0.29-0.88,0.64c0,0.33,0.17,0.51,0.59,0.51C25.29,6.54,25.73,6.22,25.73,5.6z"/>
			<path class="st4" d="M27.05,5.21c0-1.12,0.69-1.89,1.76-1.89c0.92,0,1.53,0.59,1.62,1.4H29.7c-0.03-0.36-0.24-0.82-0.88-0.82
				c-0.75,0-1.03,0.64-1.03,1.31c0,0.67,0.28,1.31,1.03,1.31c0.64,0,0.86-0.45,0.88-0.85h0.73C30.38,6.5,29.73,7.1,28.82,7.1
				C27.75,7.1,27.05,6.33,27.05,5.21z"/>
			<path class="st4" d="M31.08,1.99h0.71v2.87l1.48-1.44h0.88l-1.37,1.31L34.28,7h-0.87l-1.14-1.79l-0.49,0.46V7h-0.71V1.99z"/>
			<path class="st4" d="M36.51,5.06c0-1.31,0.45-2.39,0.97-3.1h0.62c-0.45,0.85-0.81,1.8-0.81,3.1c0,1.27,0.36,2.23,0.81,3.08h-0.62
				C36.96,7.43,36.51,6.33,36.51,5.06z"/>
			<path class="st4" d="M38.73,3.42h0.71v0.38h0.01c0.18-0.24,0.49-0.48,1-0.48c0.51,0,0.83,0.2,0.98,0.55h0.01
				c0.25-0.3,0.6-0.55,1.13-0.55c0.76,0,1.15,0.43,1.15,1.2V7h-0.71V4.72c0-0.48-0.1-0.8-0.62-0.8c-0.5,0-0.83,0.35-0.83,0.89V7
				h-0.71V4.72c0-0.48-0.09-0.8-0.61-0.8c-0.51,0-0.83,0.35-0.83,0.89V7h-0.71V3.42z"/>
			<path class="st4" d="M44.38,5.21c0-1.12,0.68-1.9,1.8-1.9c1.11,0,1.79,0.78,1.79,1.89c0,1.12-0.67,1.91-1.79,1.91
				C45.06,7.11,44.38,6.33,44.38,5.21z M47.23,5.21c0-0.75-0.34-1.32-1.06-1.32c-0.73,0-1.07,0.57-1.07,1.32
				c0,0.74,0.34,1.32,1.07,1.32C46.89,6.53,47.23,5.96,47.23,5.21z"/>
			<path class="st4" d="M48.64,1.99h0.71V7h-0.71V1.99z"/>
			<path class="st4" d="M50.2,1.99h0.71V7H50.2V1.99z"/>
			<path class="st4" d="M51.59,5.21c0-1.12,0.68-1.89,1.77-1.89s1.7,0.71,1.7,1.83c0,0.09,0,0.2-0.01,0.25h-2.74
				c0.01,0.6,0.37,1.13,1.06,1.13c0.62,0,0.86-0.39,0.92-0.62h0.72c-0.19,0.68-0.72,1.21-1.66,1.21C52.22,7.11,51.59,6.3,51.59,5.21
				z M52.31,4.86h2.01c0-0.55-0.38-0.97-0.99-0.97C52.77,3.88,52.36,4.28,52.31,4.86z"/>
			<path class="st4" d="M56.15,5.04c0-1.27-0.36-2.23-0.8-3.08h0.62c0.52,0.71,0.97,1.81,0.97,3.08c0,1.31-0.45,2.39-0.97,3.1h-0.62
				C55.79,7.29,56.15,6.33,56.15,5.04z"/>
			<path class="st4" d="M4.69,13.19c0.81-0.53,1.22-0.74,1.22-1.42c0-0.4-0.16-0.82-0.8-0.82c-0.75,0-0.99,0.49-0.99,1.16H3.33
				c0-1.04,0.56-1.82,1.79-1.82c0.88,0,1.6,0.53,1.6,1.46c0,0.99-0.76,1.49-1.46,1.94c-0.46,0.29-0.9,0.59-1.04,1.04v0.01h2.45v0.67
				H3.21C3.21,14.45,3.76,13.8,4.69,13.19z"/>
			<path class="st4" d="M7.28,12.9c0-1.44,0.57-2.61,1.93-2.61c1.35,0,1.93,1.18,1.93,2.61c0,1.44-0.57,2.61-1.93,2.61
				C7.85,15.5,7.28,14.34,7.28,12.9z M8.35,14.36l1.25-3.36c-0.11-0.04-0.25-0.07-0.39-0.07c-0.89,0-1.16,0.91-1.16,1.96
				C8.05,13.47,8.13,14,8.35,14.36z M10.36,12.9c0-0.57-0.08-1.1-0.29-1.46l-1.25,3.35c0.11,0.04,0.24,0.07,0.39,0.07
				C10.1,14.85,10.36,13.94,10.36,12.9z"/>
			<path class="st4" d="M13.4,11.82h0.71v0.42h0.01c0.19-0.25,0.54-0.52,1.1-0.52c0.91,0,1.6,0.71,1.6,1.89
				c0,1.18-0.69,1.89-1.6,1.89c-0.56,0-0.91-0.27-1.1-0.54h-0.01v1.67H13.4V11.82z M16.08,13.61c0-0.7-0.32-1.31-0.99-1.31
				c-0.61,0-0.98,0.5-0.98,1.31c0,0.81,0.37,1.31,0.98,1.31C15.76,14.92,16.08,14.31,16.08,13.61z"/>
			<path class="st4" d="M18.22,13.57l-1.23-1.75h0.81l0.83,1.28h0.01l0.83-1.28h0.8l-1.22,1.75l1.35,1.83h-0.83l-0.95-1.36h-0.01
				l-0.94,1.36h-0.82L18.22,13.57z"/>
		</g>
	</g>
</g>
<g id="Icons">
	<g>
		<path class="st4" d="M68.24,57h-2.25v-2.74c0-1.24-1.01-2.25-2.25-2.25H62.3l-0.41-1.34c-0.12-0.39-0.47-0.65-0.88-0.65h-2
			c-0.4,0-0.75,0.26-0.87,0.64L57.71,52h-1.45c-1.24,0-2.25,1.01-2.25,2.25V57h-2.25c-0.96,0-1.75,0.78-1.75,1.75v7.49
			c0,0.96,0.78,1.75,1.75,1.75h2.27c0.13,1.12,1.07,2,2.23,2h7.48c1.15,0,2.1-0.88,2.23-2h2.27c0.96,0,1.75-0.78,1.75-1.75v-7.49
			C69.99,57.78,69.2,57,68.24,57z M68.24,58c0.41,0,0.75,0.33,0.75,0.75v3.74l-3-2.27V58H68.24z M59.01,51.02l1.92-0.06L61.25,52
			h-2.51L59.01,51.02z M55.01,54.26c0-0.69,0.56-1.25,1.25-1.25h7.48c0.69,0,1.25,0.56,1.25,1.25V57v0.17l-2.43,1.84l-5.14,0
			l-2.42-1.84V57V54.26z M51.76,58h2.25v2.25l-3,2.27v-3.77C51.01,58.33,51.35,58,51.76,58z M51.01,66.24v-2.47l3-2.27v5.48h-2.25
			C51.35,66.99,51.01,66.65,51.01,66.24z M63.74,68.98h-7.48c-0.69,0-1.25-0.56-1.25-1.25v-9.3l1.95,1.48
			c0.09,0.07,0.19,0.1,0.3,0.1l5.47,0c0.11,0,0.21-0.04,0.3-0.1l1.96-1.49v9.3C64.99,68.42,64.43,68.98,63.74,68.98z M68.24,66.99
			h-2.25v-5.51l3,2.27v2.5C68.99,66.65,68.65,66.99,68.24,66.99z"/>
		<path class="st4" d="M62.99,61.99H57c-0.28,0-0.5,0.22-0.5,0.5v4.99c0,0.28,0.22,0.5,0.5,0.5h5.99c0.28,0,0.5-0.22,0.5-0.5v-4.99
			C63.49,62.22,63.26,61.99,62.99,61.99z M62.49,62.99V64H57.5v-1.01H62.49z M57.5,66.99V65h4.99v1.99H57.5z"/>
	</g>
</g>
<g id="Grid" class="st0">
	<g class="st3">
		<rect x="50" y="50" class="st7" width="20" height="20"/>
		<g>
			<line class="st7" x1="51" y1="50" x2="51" y2="70"/>
			<line class="st7" x1="52" y1="50" x2="52" y2="70"/>
			<line class="st7" x1="53" y1="50" x2="53" y2="70"/>
			<line class="st7" x1="54" y1="50" x2="54" y2="70"/>
			<line class="st7" x1="55" y1="50" x2="55" y2="70"/>
			<line class="st7" x1="56" y1="50" x2="56" y2="70"/>
			<line class="st7" x1="57" y1="50" x2="57" y2="70"/>
			<line class="st7" x1="58" y1="50" x2="58" y2="70"/>
			<line class="st7" x1="59" y1="50" x2="59" y2="70"/>
			<line class="st7" x1="60" y1="50" x2="60" y2="70"/>
			<line class="st7" x1="61" y1="50" x2="61" y2="70"/>
			<line class="st7" x1="62" y1="50" x2="62" y2="70"/>
			<line class="st7" x1="63" y1="50" x2="63" y2="70"/>
			<line class="st7" x1="64" y1="50" x2="64" y2="70"/>
			<line class="st7" x1="65" y1="50" x2="65" y2="70"/>
			<line class="st7" x1="66" y1="50" x2="66" y2="70"/>
			<line class="st7" x1="67" y1="50" x2="67" y2="70"/>
			<line class="st7" x1="68" y1="50" x2="68" y2="70"/>
			<line class="st7" x1="69" y1="50" x2="69" y2="70"/>
		</g>
		<g>
			<line class="st7" x1="70" y1="51" x2="50" y2="51"/>
			<line class="st7" x1="70" y1="52" x2="50" y2="52"/>
			<line class="st7" x1="70" y1="53" x2="50" y2="53"/>
			<line class="st7" x1="70" y1="54" x2="50" y2="54"/>
			<line class="st7" x1="70" y1="55" x2="50" y2="55"/>
			<line class="st7" x1="70" y1="56" x2="50" y2="56"/>
			<line class="st7" x1="70" y1="57" x2="50" y2="57"/>
			<line class="st7" x1="70" y1="58" x2="50" y2="58"/>
			<line class="st7" x1="70" y1="59" x2="50" y2="59"/>
			<line class="st7" x1="70" y1="60" x2="50" y2="60"/>
			<line class="st7" x1="70" y1="61" x2="50" y2="61"/>
			<line class="st7" x1="70" y1="62" x2="50" y2="62"/>
			<line class="st7" x1="70" y1="63" x2="50" y2="63"/>
			<line class="st7" x1="70" y1="64" x2="50" y2="64"/>
			<line class="st7" x1="70" y1="65" x2="50" y2="65"/>
			<line class="st7" x1="70" y1="66" x2="50" y2="66"/>
			<line class="st7" x1="70" y1="67" x2="50" y2="67"/>
			<line class="st7" x1="70" y1="68" x2="50" y2="68"/>
			<line class="st7" x1="70" y1="69" x2="50" y2="69"/>
		</g>
	</g>
</g>
</svg>
