<?xml version="1.0" encoding="utf-8"?>
<!-- Generator: Adobe Illustrator 27.1.1, SVG Export Plug-In . SVG Version: 6.00 Build 0)  -->
<svg version="1.1" xmlns="http://www.w3.org/2000/svg" xmlns:xlink="http://www.w3.org/1999/xlink" x="0px" y="0px"
	 viewBox="0 0 120 120" style="enable-background:new 0 0 120 120;" xml:space="preserve">
<style type="text/css">
	.st0{display:none;}
	.st1{display:inline;fill:#FFFFFF;}
	.st2{display:inline;fill:#221F20;}
	.st3{display:inline;}
	.st4{fill:#221F20;}
	.st5{fill:#FFFFFF;}
	.st6{fill:#FFCC01;}
	.st7{fill:none;stroke:#646464;stroke-width:0.035;stroke-miterlimit:10;}
</style>
<g id="Labels__x26__Base" class="st0">
	<rect class="st1" width="120" height="120"/>
	<g class="st3">
		<g>
			<path class="st4" d="M3.44,2.71h0.68V4.5H6.2V2.71h0.68V7H6.2V5.08H4.12V7H3.44V2.71z"/>
			<path class="st4" d="M7.54,5.46c0-0.96,0.58-1.62,1.52-1.62s1.46,0.61,1.46,1.57c0,0.08,0,0.17-0.01,0.21H8.17
				C8.18,6.14,8.48,6.6,9.07,6.6c0.53,0,0.74-0.34,0.79-0.53h0.62C10.32,6.65,9.86,7.1,9.06,7.1C8.09,7.1,7.54,6.4,7.54,5.46z
				 M8.17,5.17h1.72c0-0.47-0.32-0.83-0.85-0.83C8.56,4.33,8.2,4.67,8.17,5.17z"/>
			<path class="st4" d="M11.1,2.71h0.61V7H11.1V2.71z"/>
			<path class="st4" d="M12.4,2.75h0.68V3.4H12.4V2.75z M12.44,3.94h0.61V7h-0.61V3.94z"/>
			<path class="st4" d="M13.63,5.47c0-0.96,0.59-1.62,1.51-1.62c0.79,0,1.31,0.51,1.39,1.2h-0.62c-0.02-0.31-0.2-0.7-0.76-0.7
				c-0.64,0-0.88,0.54-0.88,1.12c0,0.58,0.24,1.12,0.88,1.12c0.55,0,0.73-0.38,0.76-0.73h0.62c-0.04,0.7-0.59,1.22-1.38,1.22
				C14.22,7.09,13.63,6.43,13.63,5.47z"/>
			<path class="st4" d="M16.93,5.47c0-0.96,0.58-1.62,1.54-1.62c0.95,0,1.53,0.67,1.53,1.62c0,0.96-0.58,1.63-1.54,1.63
				C17.51,7.1,16.93,6.43,16.93,5.47z M19.37,5.47c0-0.64-0.29-1.13-0.91-1.13c-0.62,0-0.91,0.49-0.91,1.13
				c0,0.64,0.29,1.13,0.91,1.13C19.08,6.6,19.37,6.11,19.37,5.47z"/>
			<path class="st4" d="M20.58,3.94h0.61v0.36h0.01c0.16-0.22,0.46-0.44,0.94-0.44c0.78,0,1.37,0.61,1.37,1.62s-0.59,1.62-1.37,1.62
				c-0.48,0-0.78-0.23-0.94-0.46h-0.01v1.43h-0.61V3.94z M22.88,5.47c0-0.6-0.28-1.12-0.85-1.12c-0.52,0-0.84,0.43-0.84,1.12
				s0.32,1.12,0.84,1.12C22.6,6.59,22.88,6.07,22.88,5.47z"/>
			<path class="st4" d="M24.33,6.18V4.43h-0.44v-0.5h0.44V3.23h0.61v0.71h0.7v0.5h-0.7v1.72c0,0.26,0.09,0.32,0.34,0.32h0.37V7h-0.5
				C24.64,7,24.33,6.83,24.33,6.18z"/>
			<path class="st4" d="M26.02,5.46c0-0.96,0.58-1.62,1.52-1.62s1.46,0.61,1.46,1.57c0,0.08,0,0.17-0.01,0.21h-2.34
				c0.01,0.52,0.31,0.97,0.91,0.97c0.53,0,0.74-0.34,0.79-0.53h0.62c-0.16,0.58-0.62,1.03-1.42,1.03C26.56,7.1,26.02,6.4,26.02,5.46
				z M26.64,5.17h1.72c0-0.47-0.32-0.83-0.85-0.83C27.03,4.33,26.68,4.67,26.64,5.17z"/>
			<path class="st4" d="M29.57,3.94h0.61v0.58h0.01c0.16-0.36,0.41-0.61,0.82-0.61h0.28v0.58h-0.2c-0.53,0-0.91,0.38-0.91,0.94V7
				h-0.61V3.94z"/>
			<path class="st4" d="M4.45,12.31c0.69-0.45,1.04-0.63,1.04-1.22c0-0.34-0.14-0.7-0.69-0.7c-0.64,0-0.85,0.42-0.85,0.99H3.28
				c0-0.89,0.48-1.56,1.53-1.56c0.76,0,1.37,0.46,1.37,1.25c0,0.85-0.65,1.28-1.25,1.66c-0.4,0.25-0.77,0.5-0.89,0.89v0.01h2.1v0.57
				H3.18C3.18,13.39,3.65,12.83,4.45,12.31z"/>
			<path class="st4" d="M6.67,12.06c0-1.23,0.49-2.24,1.66-2.24c1.16,0,1.65,1.01,1.65,2.24c0,1.24-0.49,2.23-1.65,2.23
				C7.16,14.29,6.67,13.29,6.67,12.06z M7.58,13.31l1.07-2.87c-0.1-0.04-0.21-0.06-0.34-0.06c-0.76,0-0.99,0.78-0.99,1.68
				C7.33,12.54,7.4,13,7.58,13.31z M9.3,12.06c0-0.49-0.07-0.94-0.25-1.25l-1.07,2.87c0.1,0.04,0.21,0.06,0.34,0.06
				C9.08,13.73,9.3,12.95,9.3,12.06z"/>
			<path class="st4" d="M11.92,11.14h0.61v0.36h0.01c0.16-0.22,0.46-0.44,0.94-0.44c0.78,0,1.37,0.61,1.37,1.62
				s-0.59,1.62-1.37,1.62c-0.48,0-0.78-0.23-0.94-0.46h-0.01v1.43h-0.61V11.14z M14.21,12.67c0-0.6-0.28-1.12-0.85-1.12
				c-0.52,0-0.84,0.43-0.84,1.12s0.32,1.12,0.84,1.12C13.94,13.79,14.21,13.27,14.21,12.67z"/>
			<path class="st4" d="M16.04,12.63l-1.05-1.5h0.7l0.71,1.09h0.01l0.71-1.09h0.68l-1.04,1.5l1.16,1.57h-0.71l-0.81-1.16H16.4
				l-0.8,1.16h-0.7L16.04,12.63z"/>
		</g>
	</g>
</g>
<g id="Icons">
	<path class="st4" d="M66.21,63c0.39,0,0.78-0.06,1.15-0.19l1.53-0.51c0.99-0.33,1.66-1.26,1.66-2.3c0-1.04-0.67-1.97-1.66-2.3
		l-1.53-0.51C66.99,57.07,66.6,57,66.21,57h-1.02l4.63-4.64l-0.71-0.71L63.78,57h-4.84l-5.52-5.52l-0.71,0.71l5.69,5.69l-1.62,1.62
		h-3.89l-0.33-2.98h-2.58v6.97h2.6l0.32-2.98h3.89l1.75,1.75l-5.81,5.78l0.71,0.71L59.19,63h4.46l5.58,5.71l0.71-0.7L65.05,63H66.21
		z M66.21,58c0.29,0,0.57,0.05,0.84,0.14l1.53,0.51c0.58,0.19,0.97,0.74,0.97,1.35c0,0.62-0.39,1.16-0.98,1.35l-1.53,0.51
		C66.78,61.96,66.5,62,66.21,62h-2.14l-1.26-1.29c0.12-0.21,0.19-0.45,0.19-0.71c0-0.23-0.06-0.45-0.15-0.64L64.19,58H66.21z
		 M60.99,60c0-0.28,0.22-0.5,0.5-0.5s0.5,0.22,0.5,0.5s-0.22,0.5-0.5,0.5S60.99,60.27,60.99,60z M62.78,58l-0.64,0.65
		c-0.2-0.09-0.41-0.15-0.64-0.15c-0.3,0-0.58,0.09-0.82,0.24L59.94,58H62.78z M51.66,57.52l0.22,1.98h-0.91v-1.98H51.66z
		 M51.68,62.49h-0.7V60.5h0.91L51.68,62.49z M57.69,60l1.42-1.41l0.96,0.96c-0.04,0.14-0.08,0.29-0.08,0.45
		c0,0.23,0.06,0.45,0.15,0.64l-0.91,0.9L57.69,60z M60.19,62l0.66-0.66c0.2,0.09,0.41,0.15,0.64,0.15c0.2,0,0.4-0.04,0.57-0.11
		L62.67,62H60.19z"/>
</g>
<g id="Grid" class="st0">
	<g class="st3">
		<rect x="50" y="50" class="st7" width="20" height="20"/>
		<g>
			<line class="st7" x1="51" y1="50" x2="51" y2="70"/>
			<line class="st7" x1="52" y1="50" x2="52" y2="70"/>
			<line class="st7" x1="53" y1="50" x2="53" y2="70"/>
			<line class="st7" x1="54" y1="50" x2="54" y2="70"/>
			<line class="st7" x1="55" y1="50" x2="55" y2="70"/>
			<line class="st7" x1="56" y1="50" x2="56" y2="70"/>
			<line class="st7" x1="57" y1="50" x2="57" y2="70"/>
			<line class="st7" x1="58" y1="50" x2="58" y2="70"/>
			<line class="st7" x1="59" y1="50" x2="59" y2="70"/>
			<line class="st7" x1="60" y1="50" x2="60" y2="70"/>
			<line class="st7" x1="61" y1="50" x2="61" y2="70"/>
			<line class="st7" x1="62" y1="50" x2="62" y2="70"/>
			<line class="st7" x1="63" y1="50" x2="63" y2="70"/>
			<line class="st7" x1="64" y1="50" x2="64" y2="70"/>
			<line class="st7" x1="65" y1="50" x2="65" y2="70"/>
			<line class="st7" x1="66" y1="50" x2="66" y2="70"/>
			<line class="st7" x1="67" y1="50" x2="67" y2="70"/>
			<line class="st7" x1="68" y1="50" x2="68" y2="70"/>
			<line class="st7" x1="69" y1="50" x2="69" y2="70"/>
		</g>
		<g>
			<line class="st7" x1="70" y1="51" x2="50" y2="51"/>
			<line class="st7" x1="70" y1="52" x2="50" y2="52"/>
			<line class="st7" x1="70" y1="53" x2="50" y2="53"/>
			<line class="st7" x1="70" y1="54" x2="50" y2="54"/>
			<line class="st7" x1="70" y1="55" x2="50" y2="55"/>
			<line class="st7" x1="70" y1="56" x2="50" y2="56"/>
			<line class="st7" x1="70" y1="57" x2="50" y2="57"/>
			<line class="st7" x1="70" y1="58" x2="50" y2="58"/>
			<line class="st7" x1="70" y1="59" x2="50" y2="59"/>
			<line class="st7" x1="70" y1="60" x2="50" y2="60"/>
			<line class="st7" x1="70" y1="61" x2="50" y2="61"/>
			<line class="st7" x1="70" y1="62" x2="50" y2="62"/>
			<line class="st7" x1="70" y1="63" x2="50" y2="63"/>
			<line class="st7" x1="70" y1="64" x2="50" y2="64"/>
			<line class="st7" x1="70" y1="65" x2="50" y2="65"/>
			<line class="st7" x1="70" y1="66" x2="50" y2="66"/>
			<line class="st7" x1="70" y1="67" x2="50" y2="67"/>
			<line class="st7" x1="70" y1="68" x2="50" y2="68"/>
			<line class="st7" x1="70" y1="69" x2="50" y2="69"/>
		</g>
	</g>
</g>
</svg>
