<?xml version="1.0" encoding="utf-8"?>
<!-- Generator: Adobe Illustrator 27.1.1, SVG Export Plug-In . SVG Version: 6.00 Build 0)  -->
<svg version="1.1" xmlns="http://www.w3.org/2000/svg" xmlns:xlink="http://www.w3.org/1999/xlink" x="0px" y="0px"
	 viewBox="0 0 120 120" style="enable-background:new 0 0 120 120;" xml:space="preserve">
<style type="text/css">
	.st0{display:none;}
	.st1{display:inline;fill:#FFFFFF;}
	.st2{display:inline;fill:#221F20;}
	.st3{display:inline;}
	.st4{fill:#221F20;}
	.st5{fill:#FFFFFF;}
	.st6{fill:#FFCC01;}
	.st7{fill:none;stroke:#646464;stroke-width:0.035;stroke-miterlimit:10;}
</style>
<g id="Labels__x26__Base" class="st0">
	<rect class="st1" width="120" height="120"/>
	<g class="st3">
		<g>
			<path class="st4" d="M3.11,1.99h0.87L5.3,6.02H5.3l1.31-4.03h0.83L5.72,7H4.87L3.11,1.99z"/>
			<path class="st4" d="M7.42,5.21c0-1.12,0.68-1.89,1.77-1.89c1.09,0,1.7,0.71,1.7,1.83c0,0.09,0,0.2-0.01,0.25H8.15
				C8.16,6,8.51,6.53,9.2,6.53c0.62,0,0.86-0.39,0.92-0.62h0.72c-0.19,0.68-0.72,1.21-1.66,1.21C8.05,7.11,7.42,6.3,7.42,5.21z
				 M8.15,4.86h2.01c0-0.55-0.38-0.97-0.99-0.97C8.6,3.88,8.19,4.28,8.15,4.86z"/>
			<path class="st4" d="M11.57,1.99h0.71v1.81h0.01c0.18-0.24,0.53-0.48,1.11-0.48c0.7,0,1.26,0.38,1.26,1.2V7h-0.71V4.72
				c0-0.48-0.21-0.8-0.72-0.8c-0.58,0-0.95,0.35-0.95,0.89V7h-0.71V1.99z"/>
			<path class="st4" d="M15.43,2.04h0.79V2.8h-0.79V2.04z M15.47,3.42h0.71V7h-0.71V3.42z"/>
			<path class="st4" d="M16.85,5.21c0-1.12,0.69-1.89,1.76-1.89c0.92,0,1.53,0.59,1.62,1.4H19.5c-0.03-0.36-0.24-0.82-0.88-0.82
				c-0.75,0-1.03,0.64-1.03,1.31c0,0.67,0.28,1.31,1.03,1.31c0.64,0,0.85-0.45,0.88-0.85h0.73C20.18,6.5,19.54,7.1,18.62,7.1
				C17.55,7.1,16.85,6.33,16.85,5.21z"/>
			<path class="st4" d="M20.88,1.99h0.71V7h-0.71V1.99z"/>
			<path class="st4" d="M22.26,5.21c0-1.12,0.68-1.89,1.77-1.89c1.09,0,1.7,0.71,1.7,1.83c0,0.09,0,0.2-0.01,0.25h-2.74
				c0.01,0.6,0.36,1.13,1.06,1.13c0.62,0,0.86-0.39,0.92-0.62h0.72c-0.19,0.68-0.72,1.21-1.66,1.21C22.9,7.11,22.26,6.3,22.26,5.21z
				 M22.99,4.86H25c0-0.55-0.38-0.97-0.99-0.97C23.45,3.88,23.03,4.28,22.99,4.86z"/>
			<path class="st4" d="M27.79,4.49c0-1.51,0.95-2.61,2.42-2.61c1.47,0,2.42,1.1,2.42,2.61S31.68,7.1,30.21,7.1
				C28.74,7.1,27.79,6,27.79,4.49z M31.81,4.49c0-1.02-0.46-1.92-1.6-1.92s-1.59,0.9-1.59,1.92s0.45,1.93,1.59,1.93
				S31.81,5.51,31.81,4.49z"/>
			<path class="st4" d="M33.32,3.42h0.71v0.42h0.01c0.19-0.25,0.54-0.52,1.1-0.52c0.91,0,1.6,0.71,1.6,1.89s-0.69,1.89-1.6,1.89
				c-0.56,0-0.91-0.27-1.1-0.54h-0.01v1.67h-0.71V3.42z M36,5.21c0-0.7-0.32-1.31-0.99-1.31c-0.61,0-0.98,0.5-0.98,1.31
				s0.37,1.31,0.98,1.31C35.68,6.52,36,5.91,36,5.21z"/>
			<path class="st4" d="M37.24,5.21c0-1.12,0.68-1.89,1.77-1.89c1.09,0,1.7,0.71,1.7,1.83c0,0.09,0,0.2-0.01,0.25h-2.74
				c0.01,0.6,0.36,1.13,1.06,1.13c0.62,0,0.86-0.39,0.92-0.62h0.72c-0.19,0.68-0.72,1.21-1.66,1.21C37.88,7.11,37.24,6.3,37.24,5.21
				z M37.97,4.86h2.01c0-0.55-0.38-0.97-0.99-0.97C38.43,3.88,38.01,4.28,37.97,4.86z"/>
			<path class="st4" d="M41.39,3.42h0.71V4.1h0.01c0.18-0.42,0.48-0.71,0.96-0.71h0.32v0.67h-0.23c-0.62,0-1.06,0.45-1.06,1.1V7
				h-0.71V3.42z"/>
			<path class="st4" d="M43.8,6.08c0-0.8,0.6-1.04,1.48-1.2c0.55-0.11,0.9-0.17,0.9-0.53c0-0.26-0.15-0.47-0.67-0.47
				c-0.59,0-0.78,0.2-0.81,0.67H44c0.04-0.69,0.48-1.23,1.55-1.23c0.75,0,1.33,0.31,1.33,1.24V7h-0.67V6.57h-0.01
				c-0.24,0.33-0.64,0.54-1.22,0.54C44.25,7.1,43.8,6.69,43.8,6.08z M46.19,5.6V5.13c-0.11,0.1-0.42,0.17-0.78,0.25
				c-0.62,0.13-0.88,0.29-0.88,0.64c0,0.33,0.17,0.51,0.59,0.51C45.75,6.54,46.19,6.22,46.19,5.6z"/>
			<path class="st4" d="M47.96,6.05V4h-0.52V3.42h0.52V2.59h0.71v0.83h0.82V4h-0.82v2.01c0,0.31,0.11,0.37,0.4,0.37h0.43V7h-0.59
				C48.32,7,47.96,6.8,47.96,6.05z"/>
			<path class="st4" d="M50.13,2.04h0.79V2.8h-0.79V2.04z M50.17,3.42h0.71V7h-0.71V3.42z"/>
			<path class="st4" d="M51.56,5.21c0-1.12,0.68-1.9,1.8-1.9c1.11,0,1.79,0.78,1.79,1.89c0,1.12-0.67,1.91-1.79,1.91
				C52.24,7.11,51.56,6.33,51.56,5.21z M54.42,5.21c0-0.75-0.34-1.32-1.06-1.32c-0.73,0-1.07,0.57-1.07,1.32
				c0,0.74,0.34,1.32,1.07,1.32C54.07,6.53,54.42,5.96,54.42,5.21z"/>
			<path class="st4" d="M55.82,3.42h0.71v0.38h0.01c0.17-0.24,0.53-0.48,1.11-0.48c0.7,0,1.26,0.38,1.26,1.2V7H58.2V4.72
				c0-0.48-0.21-0.8-0.72-0.8c-0.58,0-0.95,0.35-0.95,0.89V7h-0.71V3.42z"/>
			<path class="st4" d="M59.52,5.86h0.7c0.02,0.43,0.29,0.68,0.9,0.68c0.58,0,0.78-0.23,0.78-0.52s-0.17-0.44-0.56-0.51l-0.63-0.1
				c-0.66-0.11-1.09-0.41-1.09-1.04c0-0.63,0.52-1.04,1.42-1.04c1.02,0,1.44,0.48,1.46,1.13h-0.71c-0.01-0.36-0.21-0.58-0.75-0.58
				c-0.46,0-0.69,0.16-0.69,0.44c0,0.27,0.16,0.41,0.55,0.48l0.63,0.1c0.67,0.12,1.11,0.45,1.11,1.07c0,0.71-0.55,1.12-1.53,1.12
				C60.01,7.1,59.53,6.58,59.52,5.86z"/>
			<path class="st4" d="M4.69,13.19c0.81-0.53,1.22-0.74,1.22-1.42c0-0.4-0.16-0.82-0.8-0.82c-0.75,0-0.99,0.49-0.99,1.16H3.33
				c0-1.04,0.56-1.82,1.79-1.82c0.88,0,1.6,0.53,1.6,1.46c0,0.99-0.76,1.49-1.46,1.94c-0.46,0.29-0.9,0.59-1.04,1.04v0.01h2.45v0.67
				H3.21C3.21,14.45,3.76,13.8,4.69,13.19z"/>
			<path class="st4" d="M7.28,12.9c0-1.44,0.57-2.61,1.93-2.61c1.35,0,1.93,1.18,1.93,2.61c0,1.44-0.57,2.61-1.93,2.61
				C7.85,15.5,7.28,14.34,7.28,12.9z M8.35,14.36l1.25-3.36c-0.11-0.04-0.25-0.07-0.39-0.07c-0.89,0-1.16,0.91-1.16,1.96
				C8.05,13.47,8.13,14,8.35,14.36z M10.36,12.9c0-0.57-0.08-1.1-0.29-1.46l-1.25,3.35c0.11,0.04,0.24,0.07,0.39,0.07
				C10.1,14.85,10.36,13.94,10.36,12.9z"/>
			<path class="st4" d="M13.4,11.82h0.71v0.42h0.01c0.19-0.25,0.54-0.52,1.1-0.52c0.91,0,1.6,0.71,1.6,1.89
				c0,1.18-0.69,1.89-1.6,1.89c-0.56,0-0.91-0.27-1.1-0.54h-0.01v1.67H13.4V11.82z M16.08,13.61c0-0.7-0.32-1.31-0.99-1.31
				c-0.61,0-0.98,0.5-0.98,1.31c0,0.81,0.37,1.31,0.98,1.31C15.76,14.92,16.08,14.31,16.08,13.61z"/>
			<path class="st4" d="M18.22,13.57l-1.23-1.75h0.81l0.83,1.28h0.01l0.83-1.28h0.8l-1.22,1.75l1.35,1.83h-0.83l-0.95-1.36h-0.01
				l-0.94,1.36h-0.82L18.22,13.57z"/>
		</g>
	</g>
</g>
<g id="Icons">
	<path class="st4" d="M60,50c-5.51,0-10,4.49-10,10s4.49,10,10,10s10-4.49,10-10S65.51,50,60,50z M68.29,56.51l0-0.01
		C68.29,56.5,68.29,56.5,68.29,56.51z M63.5,51.71l-0.01,0C63.5,51.71,63.5,51.71,63.5,51.71z M56.51,51.71L56.51,51.71
		C56.5,51.71,56.5,51.71,56.51,51.71z M51.71,56.5L51.71,56.5C51.71,56.5,51.71,56.5,51.71,56.5z M51.71,63.5L51.71,63.5
		C51.71,63.5,51.71,63.5,51.71,63.5z M56.5,68.29L56.5,68.29C56.5,68.29,56.5,68.29,56.5,68.29z M63.5,68.29L63.5,68.29
		C63.5,68.29,63.5,68.29,63.5,68.29z M63.9,68.1l-0.5-1.21l-0.92,0.38l0.5,1.21C62.04,68.81,61.04,69,60,69s-2.04-0.19-2.97-0.52
		l0.5-1.21l-0.92-0.38l-0.5,1.21c-1.83-0.89-3.32-2.37-4.2-4.2l1.21-0.5l-0.38-0.92l-1.21,0.5C51.19,62.04,51,61.04,51,60
		s0.19-2.04,0.52-2.97l1.21,0.5l0.38-0.92l-1.21-0.5c0.89-1.83,2.37-3.32,4.2-4.2l0.5,1.21l0.92-0.38l-0.5-1.21
		C57.96,51.19,58.96,51,60,51s2.04,0.19,2.97,0.52l-0.5,1.21l0.92,0.38l0.5-1.21c1.83,0.89,3.32,2.37,4.2,4.2l-1.21,0.5l0.38,0.92
		l1.21-0.5C68.81,57.96,69,58.96,69,60s-0.19,2.04-0.52,2.97l-1.21-0.5l-0.38,0.92l1.21,0.5C67.21,65.73,65.73,67.21,63.9,68.1z
		 M68.29,63.49C68.29,63.5,68.29,63.5,68.29,63.49L68.29,63.49z M60,54.5c-3.03,0-5.5,2.47-5.5,5.5s2.47,5.5,5.5,5.5
		s5.5-2.47,5.5-5.5S63.03,54.5,60,54.5z M60,64.5c-2.48,0-4.5-2.02-4.5-4.5s2.02-4.5,4.5-4.5s4.5,2.02,4.5,4.5S62.48,64.5,60,64.5z
		 M60,57.5c-1.38,0-2.5,1.12-2.5,2.5s1.12,2.5,2.5,2.5s2.5-1.12,2.5-2.5S61.38,57.5,60,57.5z M60,61.5c-0.83,0-1.5-0.67-1.5-1.5
		s0.67-1.5,1.5-1.5s1.5,0.67,1.5,1.5S60.83,61.5,60,61.5z"/>
</g>
<g id="Grid" class="st0">
	<g class="st3">
		<rect x="50" y="50" class="st7" width="20" height="20"/>
		<g>
			<line class="st7" x1="51" y1="50" x2="51" y2="70"/>
			<line class="st7" x1="52" y1="50" x2="52" y2="70"/>
			<line class="st7" x1="53" y1="50" x2="53" y2="70"/>
			<line class="st7" x1="54" y1="50" x2="54" y2="70"/>
			<line class="st7" x1="55" y1="50" x2="55" y2="70"/>
			<line class="st7" x1="56" y1="50" x2="56" y2="70"/>
			<line class="st7" x1="57" y1="50" x2="57" y2="70"/>
			<line class="st7" x1="58" y1="50" x2="58" y2="70"/>
			<line class="st7" x1="59" y1="50" x2="59" y2="70"/>
			<line class="st7" x1="60" y1="50" x2="60" y2="70"/>
			<line class="st7" x1="61" y1="50" x2="61" y2="70"/>
			<line class="st7" x1="62" y1="50" x2="62" y2="70"/>
			<line class="st7" x1="63" y1="50" x2="63" y2="70"/>
			<line class="st7" x1="64" y1="50" x2="64" y2="70"/>
			<line class="st7" x1="65" y1="50" x2="65" y2="70"/>
			<line class="st7" x1="66" y1="50" x2="66" y2="70"/>
			<line class="st7" x1="67" y1="50" x2="67" y2="70"/>
			<line class="st7" x1="68" y1="50" x2="68" y2="70"/>
			<line class="st7" x1="69" y1="50" x2="69" y2="70"/>
		</g>
		<g>
			<line class="st7" x1="70" y1="51" x2="50" y2="51"/>
			<line class="st7" x1="70" y1="52" x2="50" y2="52"/>
			<line class="st7" x1="70" y1="53" x2="50" y2="53"/>
			<line class="st7" x1="70" y1="54" x2="50" y2="54"/>
			<line class="st7" x1="70" y1="55" x2="50" y2="55"/>
			<line class="st7" x1="70" y1="56" x2="50" y2="56"/>
			<line class="st7" x1="70" y1="57" x2="50" y2="57"/>
			<line class="st7" x1="70" y1="58" x2="50" y2="58"/>
			<line class="st7" x1="70" y1="59" x2="50" y2="59"/>
			<line class="st7" x1="70" y1="60" x2="50" y2="60"/>
			<line class="st7" x1="70" y1="61" x2="50" y2="61"/>
			<line class="st7" x1="70" y1="62" x2="50" y2="62"/>
			<line class="st7" x1="70" y1="63" x2="50" y2="63"/>
			<line class="st7" x1="70" y1="64" x2="50" y2="64"/>
			<line class="st7" x1="70" y1="65" x2="50" y2="65"/>
			<line class="st7" x1="70" y1="66" x2="50" y2="66"/>
			<line class="st7" x1="70" y1="67" x2="50" y2="67"/>
			<line class="st7" x1="70" y1="68" x2="50" y2="68"/>
			<line class="st7" x1="70" y1="69" x2="50" y2="69"/>
		</g>
	</g>
</g>
</svg>
