<?xml version="1.0" encoding="utf-8"?>
<!-- Generator: Adobe Illustrator 27.1.1, SVG Export Plug-In . SVG Version: 6.00 Build 0)  -->
<svg version="1.1" xmlns="http://www.w3.org/2000/svg" xmlns:xlink="http://www.w3.org/1999/xlink" x="0px" y="0px"
	 viewBox="0 0 120 120" style="enable-background:new 0 0 120 120;" xml:space="preserve">
<style type="text/css">
	.st0{display:none;}
	.st1{display:inline;fill:#FFFFFF;}
	.st2{display:inline;fill:#221F20;}
	.st3{display:inline;}
	.st4{fill:#221F20;}
	.st5{fill:#FFFFFF;}
	.st6{fill:#FFCC01;}
	.st7{fill:none;stroke:#646464;stroke-width:0.035;stroke-miterlimit:10;}
</style>
<g id="Labels__x26__Base" class="st0">
	<rect class="st1" width="120" height="120"/>
	<g class="st3">
		<g>
			<path class="st4" d="M3.12,2.71h0.7l0.75,3.36h0.01l0.88-3.36h0.71l0.89,3.36h0.01l0.74-3.36h0.7L7.45,7H6.72l-0.9-3.42H5.81
				L4.91,7H4.19L3.12,2.71z"/>
			<path class="st4" d="M8.68,5.46c0-0.96,0.58-1.62,1.52-1.62s1.46,0.61,1.46,1.57c0,0.08,0,0.17-0.01,0.21H9.3
				C9.31,6.14,9.61,6.6,10.21,6.6c0.53,0,0.74-0.34,0.79-0.53h0.62C11.45,6.65,11,7.1,10.19,7.1C9.22,7.1,8.68,6.4,8.68,5.46z
				 M9.3,5.17h1.72c0-0.47-0.32-0.83-0.85-0.83C9.69,4.33,9.34,4.67,9.3,5.17z"/>
			<path class="st4" d="M12.05,6.21c0-0.68,0.52-0.89,1.27-1.03c0.47-0.09,0.77-0.14,0.77-0.45c0-0.22-0.13-0.4-0.58-0.4
				c-0.5,0-0.67,0.17-0.7,0.57h-0.61c0.03-0.59,0.41-1.05,1.33-1.05c0.64,0,1.14,0.26,1.14,1.06V7h-0.58V6.63H14.1
				c-0.2,0.28-0.55,0.46-1.04,0.46C12.44,7.09,12.05,6.74,12.05,6.21z M14.1,5.8V5.4c-0.1,0.08-0.36,0.15-0.67,0.22
				c-0.53,0.11-0.75,0.25-0.75,0.55c0,0.28,0.15,0.44,0.51,0.44C13.72,6.6,14.1,6.33,14.1,5.8z"/>
			<path class="st4" d="M15.38,3.94h0.61v0.36H16c0.16-0.22,0.46-0.44,0.94-0.44c0.78,0,1.37,0.61,1.37,1.62s-0.59,1.62-1.37,1.62
				c-0.48,0-0.78-0.23-0.94-0.46h-0.01v1.43h-0.61V3.94z M17.68,5.47c0-0.6-0.28-1.12-0.85-1.12C16.31,4.35,16,4.78,16,5.47
				s0.32,1.12,0.84,1.12C17.4,6.59,17.68,6.07,17.68,5.47z"/>
			<path class="st4" d="M18.75,5.47c0-0.96,0.58-1.62,1.54-1.62c0.95,0,1.53,0.67,1.53,1.62c0,0.96-0.58,1.63-1.54,1.63
				C19.33,7.1,18.75,6.43,18.75,5.47z M21.2,5.47c0-0.64-0.29-1.13-0.91-1.13c-0.62,0-0.91,0.49-0.91,1.13
				c0,0.64,0.29,1.13,0.91,1.13C20.9,6.6,21.2,6.11,21.2,5.47z"/>
			<path class="st4" d="M22.4,3.94h0.61v0.33h0.01c0.15-0.2,0.45-0.41,0.95-0.41c0.6,0,1.08,0.33,1.08,1.03V7h-0.61V5.05
				c0-0.41-0.18-0.68-0.62-0.68c-0.5,0-0.82,0.3-0.82,0.76V7H22.4V3.94z"/>
			<path class="st4" d="M25.58,6.02h0.6c0.02,0.37,0.25,0.58,0.77,0.58c0.5,0,0.67-0.2,0.67-0.44s-0.14-0.38-0.48-0.44l-0.54-0.09
				c-0.57-0.1-0.94-0.35-0.94-0.89c0-0.54,0.44-0.89,1.22-0.89c0.87,0,1.23,0.41,1.25,0.97h-0.61c-0.01-0.31-0.18-0.5-0.64-0.5
				c-0.39,0-0.59,0.14-0.59,0.38c0,0.23,0.14,0.35,0.47,0.41l0.54,0.09c0.58,0.1,0.95,0.38,0.95,0.92c0,0.61-0.47,0.96-1.31,0.96
				C25.99,7.08,25.58,6.64,25.58,6.02z"/>
			<path class="st4" d="M31.26,3.29h-1.38V2.71h3.44v0.58h-1.38V7h-0.68V3.29z"/>
			<path class="st4" d="M33.43,3.94h0.61v0.58h0.01c0.16-0.36,0.41-0.61,0.82-0.61h0.28v0.58h-0.2c-0.53,0-0.91,0.38-0.91,0.94V7
				h-0.61V3.94z"/>
			<path class="st4" d="M35.49,6.21c0-0.68,0.52-0.89,1.27-1.03c0.47-0.09,0.77-0.14,0.77-0.45c0-0.22-0.13-0.4-0.58-0.4
				c-0.5,0-0.67,0.17-0.7,0.57h-0.61c0.03-0.59,0.41-1.05,1.33-1.05c0.64,0,1.14,0.26,1.14,1.06V7h-0.58V6.63h-0.01
				c-0.2,0.28-0.55,0.46-1.04,0.46C35.87,7.09,35.49,6.74,35.49,6.21z M37.54,5.8V5.4c-0.1,0.08-0.36,0.15-0.67,0.22
				c-0.53,0.11-0.75,0.25-0.75,0.55c0,0.28,0.15,0.44,0.51,0.44C37.16,6.6,37.54,6.33,37.54,5.8z"/>
			<path class="st4" d="M38.78,2.75h0.68V3.4h-0.68V2.75z M38.82,3.94h0.61V7h-0.61V3.94z"/>
			<path class="st4" d="M40.16,3.94h0.61v0.33h0.01c0.15-0.2,0.45-0.41,0.95-0.41c0.6,0,1.08,0.33,1.08,1.03V7H42.2V5.05
				c0-0.41-0.18-0.68-0.62-0.68c-0.5,0-0.82,0.3-0.82,0.76V7h-0.61V3.94z"/>
			<path class="st4" d="M43.46,2.75h0.68V3.4h-0.68V2.75z M43.5,3.94h0.61V7H43.5V3.94z"/>
			<path class="st4" d="M44.84,3.94h0.61v0.33h0.01c0.15-0.2,0.45-0.41,0.95-0.41c0.6,0,1.08,0.33,1.08,1.03V7h-0.61V5.05
				c0-0.41-0.18-0.68-0.62-0.68c-0.5,0-0.82,0.3-0.82,0.76V7h-0.61V3.94z"/>
			<path class="st4" d="M48.03,5.35c0-0.98,0.59-1.5,1.35-1.5c0.49,0,0.77,0.23,0.94,0.44h0.01V3.94h0.61v2.82
				c0,0.93-0.56,1.34-1.44,1.34c-0.88,0-1.31-0.42-1.38-0.97h0.62C48.8,7.4,49,7.61,49.49,7.61c0.55,0,0.83-0.24,0.83-0.82v-0.4
				h-0.01c-0.16,0.23-0.44,0.46-0.94,0.46C48.62,6.85,48.03,6.33,48.03,5.35z M50.33,5.35c0-0.67-0.31-1-0.83-1
				c-0.57,0-0.83,0.43-0.83,1c0,0.57,0.26,1,0.83,1C50.01,6.35,50.33,6.01,50.33,5.35z"/>
			<path class="st4" d="M5.11,13.25H3.14v-0.61l1.97-2.73h0.66v2.77h0.58v0.57H5.77v0.95H5.11V13.25z M5.11,12.68v-1.92l-1.37,1.92
				H5.11z"/>
			<path class="st4" d="M6.74,12.06c0-1.23,0.49-2.24,1.66-2.24c1.16,0,1.65,1.01,1.65,2.24c0,1.24-0.49,2.23-1.65,2.23
				C7.23,14.29,6.74,13.29,6.74,12.06z M7.66,13.31l1.07-2.87c-0.1-0.04-0.21-0.06-0.33-0.06c-0.76,0-0.99,0.78-0.99,1.68
				C7.4,12.54,7.47,13,7.66,13.31z M9.38,12.06c0-0.49-0.07-0.94-0.25-1.25l-1.07,2.87c0.1,0.04,0.21,0.06,0.34,0.06
				C9.15,13.73,9.38,12.95,9.38,12.06z"/>
			<path class="st4" d="M11.99,11.14h0.61v0.36h0.01c0.16-0.22,0.46-0.44,0.94-0.44c0.78,0,1.37,0.61,1.37,1.62
				s-0.59,1.62-1.37,1.62c-0.48,0-0.78-0.23-0.94-0.46h-0.01v1.43h-0.61V11.14z M14.28,12.67c0-0.6-0.28-1.12-0.85-1.12
				c-0.52,0-0.84,0.43-0.84,1.12s0.32,1.12,0.84,1.12C14.01,13.79,14.28,13.27,14.28,12.67z"/>
			<path class="st4" d="M16.12,12.63l-1.05-1.5h0.7l0.71,1.09h0.01l0.71-1.09h0.68l-1.04,1.5L18,14.2h-0.71l-0.81-1.16h-0.01
				l-0.8,1.16h-0.7L16.12,12.63z"/>
		</g>
	</g>
</g>
<g id="Icons">
	<path class="st6" d="M60,80c-11.03,0-20-8.97-20-20c0-11.03,8.97-20,20-20s20,8.97,20,20C80,71.03,71.03,80,60,80z M60,42
		c-9.93,0-18,8.07-18,18c0,9.92,8.07,18,18,18s18-8.08,18-18C78,50.07,69.93,42,60,42z M75,59h-3.05
		C71.47,53.18,66.82,48.53,61,48.05V45h-2v3.05C53.18,48.53,48.53,53.18,48.05,59H45v2h3.05c0.48,5.82,5.13,10.47,10.95,10.95V75h2
		v-3.05c5.82-0.48,10.47-5.13,10.95-10.95H75V59z M60,70c-5.51,0-10-4.49-10-10c0-5.51,4.49-10,10-10s10,4.49,10,10
		C70,65.51,65.51,70,60,70z M64,59h-3v-3h-2v3h-3v2h3v3h2v-3h3V59z"/>
</g>
<g id="Grid" class="st0">
	<g class="st3">
		<g>
			<line class="st7" x1="41" y1="40" x2="41" y2="80"/>
			<line class="st7" x1="42" y1="40" x2="42" y2="80"/>
			<line class="st7" x1="43" y1="40" x2="43" y2="80"/>
			<line class="st7" x1="44" y1="40" x2="44" y2="80"/>
			<line class="st7" x1="45" y1="40" x2="45" y2="80"/>
			<line class="st7" x1="46" y1="40" x2="46" y2="80"/>
			<line class="st7" x1="47" y1="40" x2="47" y2="80"/>
			<line class="st7" x1="48" y1="40" x2="48" y2="80"/>
			<line class="st7" x1="49" y1="40" x2="49" y2="80"/>
			<line class="st7" x1="50" y1="40" x2="50" y2="80"/>
			<line class="st7" x1="51" y1="40" x2="51" y2="80"/>
			<line class="st7" x1="52" y1="40" x2="52" y2="80"/>
			<line class="st7" x1="53" y1="40" x2="53" y2="80"/>
			<line class="st7" x1="54" y1="40" x2="54" y2="80"/>
			<line class="st7" x1="55" y1="40" x2="55" y2="80"/>
			<line class="st7" x1="56" y1="40" x2="56" y2="80"/>
			<line class="st7" x1="57" y1="40" x2="57" y2="80"/>
			<line class="st7" x1="58" y1="40" x2="58" y2="80"/>
			<line class="st7" x1="59" y1="40" x2="59" y2="80"/>
			<line class="st7" x1="60" y1="40" x2="60" y2="80"/>
			<line class="st7" x1="61" y1="40" x2="61" y2="80"/>
			<line class="st7" x1="62" y1="40" x2="62" y2="80"/>
			<line class="st7" x1="63" y1="40" x2="63" y2="80"/>
			<line class="st7" x1="64" y1="40" x2="64" y2="80"/>
			<line class="st7" x1="65" y1="40" x2="65" y2="80"/>
			<line class="st7" x1="66" y1="40" x2="66" y2="80"/>
			<line class="st7" x1="67" y1="40" x2="67" y2="80"/>
			<line class="st7" x1="68" y1="40" x2="68" y2="80"/>
			<line class="st7" x1="69" y1="40" x2="69" y2="80"/>
			<line class="st7" x1="70" y1="40" x2="70" y2="80"/>
			<line class="st7" x1="71" y1="40" x2="71" y2="80"/>
			<line class="st7" x1="72" y1="40" x2="72" y2="80"/>
			<line class="st7" x1="73" y1="40" x2="73" y2="80"/>
			<line class="st7" x1="74" y1="40" x2="74" y2="80"/>
			<line class="st7" x1="75" y1="40" x2="75" y2="80"/>
			<line class="st7" x1="76" y1="40" x2="76" y2="80"/>
			<line class="st7" x1="77" y1="40" x2="77" y2="80"/>
			<line class="st7" x1="78" y1="40" x2="78" y2="80"/>
			<line class="st7" x1="79" y1="40" x2="79" y2="80"/>
			<line class="st7" x1="80" y1="40" x2="80" y2="80"/>
		</g>
		<g>
			<line class="st7" x1="80" y1="41" x2="40" y2="41"/>
			<line class="st7" x1="80" y1="42" x2="40" y2="42"/>
			<line class="st7" x1="80" y1="43" x2="40" y2="43"/>
			<line class="st7" x1="80" y1="44" x2="40" y2="44"/>
			<line class="st7" x1="80" y1="45" x2="40" y2="45"/>
			<line class="st7" x1="80" y1="46" x2="40" y2="46"/>
			<line class="st7" x1="80" y1="47" x2="40" y2="47"/>
			<line class="st7" x1="80" y1="48" x2="40" y2="48"/>
			<line class="st7" x1="80" y1="49" x2="40" y2="49"/>
			<line class="st7" x1="80" y1="50" x2="40" y2="50"/>
			<line class="st7" x1="80" y1="51" x2="40" y2="51"/>
			<line class="st7" x1="80" y1="52" x2="40" y2="52"/>
			<line class="st7" x1="80" y1="53" x2="40" y2="53"/>
			<line class="st7" x1="80" y1="54" x2="40" y2="54"/>
			<line class="st7" x1="80" y1="55" x2="40" y2="55"/>
			<line class="st7" x1="80" y1="56" x2="40" y2="56"/>
			<line class="st7" x1="80" y1="57" x2="40" y2="57"/>
			<line class="st7" x1="80" y1="58" x2="40" y2="58"/>
			<line class="st7" x1="80" y1="59" x2="40" y2="59"/>
			<line class="st7" x1="80" y1="60" x2="40" y2="60"/>
			<line class="st7" x1="80" y1="61" x2="40" y2="61"/>
			<line class="st7" x1="80" y1="62" x2="40" y2="62"/>
			<line class="st7" x1="80" y1="63" x2="40" y2="63"/>
			<line class="st7" x1="80" y1="64" x2="40" y2="64"/>
			<line class="st7" x1="80" y1="65" x2="40" y2="65"/>
			<line class="st7" x1="80" y1="66" x2="40" y2="66"/>
			<line class="st7" x1="80" y1="67" x2="40" y2="67"/>
			<line class="st7" x1="80" y1="68" x2="40" y2="68"/>
			<line class="st7" x1="80" y1="69" x2="40" y2="69"/>
			<line class="st7" x1="80" y1="70" x2="40" y2="70"/>
			<line class="st7" x1="80" y1="71" x2="40" y2="71"/>
			<line class="st7" x1="80" y1="72" x2="40" y2="72"/>
			<line class="st7" x1="80" y1="73" x2="40" y2="73"/>
			<line class="st7" x1="80" y1="74" x2="40" y2="74"/>
			<line class="st7" x1="80" y1="75" x2="40" y2="75"/>
			<line class="st7" x1="80" y1="76" x2="40" y2="76"/>
			<line class="st7" x1="80" y1="77" x2="40" y2="77"/>
			<line class="st7" x1="80" y1="78" x2="40" y2="78"/>
			<line class="st7" x1="80" y1="79" x2="40" y2="79"/>
		</g>
		<rect x="40" y="40" class="st7" width="40" height="40"/>
	</g>
</g>
</svg>
