<?xml version="1.0" encoding="utf-8"?>
<!-- Generator: Adobe Illustrator 27.1.1, SVG Export Plug-In . SVG Version: 6.00 Build 0)  -->
<svg version="1.1" xmlns="http://www.w3.org/2000/svg" xmlns:xlink="http://www.w3.org/1999/xlink" x="0px" y="0px"
	 viewBox="0 0 120 120" style="enable-background:new 0 0 120 120;" xml:space="preserve">
<style type="text/css">
	.st0{display:none;}
	.st1{display:inline;fill:#FFFFFF;}
	.st2{display:inline;fill:#221F20;}
	.st3{display:inline;}
	.st4{fill:#221F20;}
	.st5{fill:#FFFFFF;}
	.st6{fill:#FFCC01;}
	.st7{fill:none;stroke:#646464;stroke-width:0.035;stroke-miterlimit:10;}
</style>
<g id="Labels__x26__Base" class="st0">
	<rect class="st1" width="120" height="120"/>
	<g class="st3">
		<g>
			<path class="st4" d="M3.11,1.99h0.87L5.3,6.02H5.3l1.31-4.03h0.83L5.72,7H4.87L3.11,1.99z"/>
			<path class="st4" d="M7.42,5.21c0-1.12,0.68-1.89,1.77-1.89c1.09,0,1.7,0.71,1.7,1.83c0,0.09,0,0.2-0.01,0.25H8.15
				C8.16,6,8.51,6.53,9.2,6.53c0.62,0,0.86-0.39,0.92-0.62h0.72c-0.19,0.68-0.72,1.21-1.66,1.21C8.05,7.11,7.42,6.3,7.42,5.21z
				 M8.15,4.86h2.01c0-0.55-0.38-0.97-0.99-0.97C8.6,3.88,8.19,4.28,8.15,4.86z"/>
			<path class="st4" d="M11.57,1.99h0.71v1.81h0.01c0.18-0.24,0.53-0.48,1.11-0.48c0.7,0,1.26,0.38,1.26,1.2V7h-0.71V4.72
				c0-0.48-0.21-0.8-0.72-0.8c-0.58,0-0.95,0.35-0.95,0.89V7h-0.71V1.99z"/>
			<path class="st4" d="M15.43,2.04h0.79V2.8h-0.79V2.04z M15.47,3.42h0.71V7h-0.71V3.42z"/>
			<path class="st4" d="M16.85,5.21c0-1.12,0.69-1.89,1.76-1.89c0.92,0,1.53,0.6,1.62,1.4H19.5c-0.03-0.36-0.24-0.82-0.88-0.82
				c-0.75,0-1.03,0.64-1.03,1.31s0.28,1.31,1.03,1.31c0.64,0,0.85-0.45,0.88-0.85h0.73C20.18,6.5,19.54,7.1,18.62,7.1
				C17.55,7.1,16.85,6.33,16.85,5.21z"/>
			<path class="st4" d="M20.88,1.99h0.71V7h-0.71V1.99z"/>
			<path class="st4" d="M22.26,5.21c0-1.12,0.68-1.89,1.77-1.89c1.09,0,1.7,0.71,1.7,1.83c0,0.09,0,0.2-0.01,0.25h-2.74
				c0.01,0.6,0.36,1.13,1.06,1.13c0.62,0,0.86-0.39,0.92-0.62h0.72c-0.19,0.68-0.72,1.21-1.66,1.21C22.9,7.11,22.26,6.3,22.26,5.21z
				 M22.99,4.86H25c0-0.55-0.38-0.97-0.99-0.97C23.45,3.88,23.03,4.28,22.99,4.86z"/>
			<path class="st4" d="M27.79,4.49c0-1.51,0.95-2.61,2.42-2.61c1.47,0,2.42,1.1,2.42,2.61S31.68,7.1,30.21,7.1
				C28.74,7.1,27.79,6,27.79,4.49z M31.81,4.49c0-1.02-0.46-1.92-1.6-1.92s-1.59,0.9-1.59,1.92s0.45,1.93,1.59,1.93
				S31.81,5.52,31.81,4.49z"/>
			<path class="st4" d="M33.32,3.42h0.71v0.42h0.01c0.19-0.25,0.54-0.52,1.1-0.52c0.91,0,1.6,0.71,1.6,1.89
				c0,1.18-0.69,1.89-1.6,1.89c-0.56,0-0.91-0.27-1.1-0.54h-0.01v1.67h-0.71V3.42z M36,5.21c0-0.7-0.32-1.31-0.99-1.31
				c-0.61,0-0.98,0.5-0.98,1.31c0,0.81,0.37,1.31,0.98,1.31C35.68,6.52,36,5.91,36,5.21z"/>
			<path class="st4" d="M37.24,5.21c0-1.12,0.68-1.89,1.77-1.89c1.09,0,1.7,0.71,1.7,1.83c0,0.09,0,0.2-0.01,0.25h-2.74
				c0.01,0.6,0.36,1.13,1.06,1.13c0.62,0,0.86-0.39,0.92-0.62h0.72c-0.19,0.68-0.72,1.21-1.66,1.21C37.88,7.11,37.24,6.3,37.24,5.21
				z M37.97,4.86h2.01c0-0.55-0.38-0.97-0.99-0.97C38.43,3.88,38.01,4.28,37.97,4.86z"/>
			<path class="st4" d="M41.39,3.42h0.71V4.1h0.01c0.18-0.42,0.48-0.71,0.96-0.71h0.32v0.67h-0.23c-0.62,0-1.06,0.45-1.06,1.1V7
				h-0.71V3.42z"/>
			<path class="st4" d="M43.8,6.08c0-0.8,0.6-1.04,1.48-1.2c0.55-0.11,0.9-0.17,0.9-0.53c0-0.26-0.15-0.47-0.67-0.47
				c-0.59,0-0.78,0.2-0.81,0.67H44c0.04-0.69,0.48-1.23,1.55-1.23c0.75,0,1.33,0.31,1.33,1.24V7h-0.67V6.57h-0.01
				C45.95,6.9,45.55,7.1,44.97,7.1C44.25,7.1,43.8,6.69,43.8,6.08z M46.19,5.6V5.13c-0.11,0.1-0.42,0.18-0.78,0.25
				c-0.62,0.13-0.88,0.29-0.88,0.64c0,0.33,0.17,0.51,0.59,0.51C45.75,6.54,46.19,6.22,46.19,5.6z"/>
			<path class="st4" d="M47.96,6.05V4h-0.52V3.42h0.52V2.59h0.71v0.83h0.82V4h-0.82v2.01c0,0.31,0.11,0.37,0.4,0.37h0.43V7h-0.59
				C48.32,7,47.96,6.8,47.96,6.05z"/>
			<path class="st4" d="M50.13,2.04h0.79V2.8h-0.79V2.04z M50.17,3.42h0.71V7h-0.71V3.42z"/>
			<path class="st4" d="M51.56,5.21c0-1.12,0.68-1.9,1.8-1.9c1.11,0,1.79,0.78,1.79,1.89c0,1.12-0.67,1.91-1.79,1.91
				C52.24,7.11,51.56,6.33,51.56,5.21z M54.42,5.21c0-0.75-0.34-1.32-1.06-1.32c-0.73,0-1.07,0.57-1.07,1.32
				c0,0.74,0.34,1.32,1.07,1.32C54.07,6.53,54.42,5.96,54.42,5.21z"/>
			<path class="st4" d="M55.82,3.42h0.71v0.39h0.01c0.17-0.24,0.53-0.48,1.11-0.48c0.7,0,1.26,0.38,1.26,1.2V7H58.2V4.72
				c0-0.48-0.21-0.8-0.72-0.8c-0.58,0-0.95,0.35-0.95,0.89V7h-0.71V3.42z"/>
			<path class="st4" d="M59.52,5.86h0.7c0.02,0.43,0.29,0.68,0.9,0.68c0.58,0,0.78-0.23,0.78-0.52s-0.17-0.44-0.56-0.51l-0.63-0.1
				c-0.66-0.11-1.09-0.41-1.09-1.04c0-0.63,0.52-1.04,1.42-1.04c1.02,0,1.44,0.48,1.46,1.13h-0.71c-0.01-0.36-0.21-0.58-0.75-0.58
				c-0.46,0-0.69,0.16-0.69,0.44c0,0.27,0.16,0.41,0.55,0.48l0.63,0.1c0.67,0.12,1.11,0.45,1.11,1.07c0,0.71-0.55,1.12-1.53,1.12
				C60.01,7.1,59.53,6.58,59.52,5.86z"/>
			<path class="st4" d="M5.46,14.29h-2.3v-0.71l2.3-3.19h0.77v3.24h0.68v0.67H6.24v1.11H5.46V14.29z M5.46,13.63v-2.25l-1.6,2.25
				H5.46z"/>
			<path class="st4" d="M7.36,12.9c0-1.44,0.57-2.61,1.93-2.61c1.35,0,1.93,1.18,1.93,2.61c0,1.44-0.57,2.61-1.93,2.61
				C7.94,15.5,7.36,14.34,7.36,12.9z M8.43,14.36l1.25-3.35c-0.11-0.04-0.25-0.07-0.39-0.07c-0.89,0-1.16,0.91-1.16,1.96
				C8.14,13.47,8.22,14,8.43,14.36z M10.44,12.9c0-0.57-0.08-1.1-0.29-1.46L8.9,14.78c0.11,0.04,0.24,0.07,0.39,0.07
				C10.18,14.85,10.44,13.94,10.44,12.9z"/>
			<path class="st4" d="M13.49,11.82h0.71v0.42h0.01c0.19-0.25,0.54-0.52,1.1-0.52c0.91,0,1.6,0.71,1.6,1.89
				c0,1.18-0.69,1.89-1.6,1.89c-0.56,0-0.91-0.27-1.1-0.54h-0.01v1.67h-0.71V11.82z M16.17,13.61c0-0.7-0.32-1.31-0.99-1.31
				c-0.61,0-0.98,0.5-0.98,1.31c0,0.81,0.37,1.31,0.98,1.31C15.85,14.92,16.17,14.31,16.17,13.61z"/>
			<path class="st4" d="M18.3,13.57l-1.23-1.75h0.81l0.83,1.27h0.01l0.83-1.27h0.8l-1.22,1.75l1.35,1.83h-0.83l-0.95-1.36h-0.01
				l-0.94,1.36h-0.82L18.3,13.57z"/>
		</g>
	</g>
</g>
<g id="Icons">
	<path class="st6" d="M60,39.98c-11.04,0-20.02,8.98-20.02,20.02S48.96,80.02,60,80.02S80.02,71.04,80.02,60S71.04,39.98,60,39.98z
		 M76.6,53l-0.01-0.02C76.6,52.99,76.6,53,76.6,53z M67.02,43.41l-0.03-0.01C67,43.4,67.01,43.4,67.02,43.41z M53.01,43.4
		l-0.03,0.01C52.99,43.4,53,43.4,53.01,43.4z M43.41,52.99L43.4,53C43.4,53,43.4,52.99,43.41,52.99z M43.4,67l0,0.01
		C43.4,67.01,43.4,67,43.4,67z M52.99,76.6l0.01,0C53,76.6,52.99,76.6,52.99,76.6z M67,76.6l0.01,0C67.01,76.6,67,76.6,67,76.6z
		 M67.8,76.22l-1-2.42l-1.85,0.77l1,2.42c-1.87,0.66-3.86,1.03-5.95,1.03s-4.09-0.38-5.95-1.03l1-2.42L53.2,73.8l-1,2.42
		c-3.67-1.77-6.64-4.75-8.42-8.42l2.42-1l-0.77-1.85l-2.42,1c-0.66-1.87-1.03-3.86-1.03-5.95c0-2.09,0.38-4.09,1.03-5.95l2.42,1
		l0.77-1.85l-2.42-1c1.77-3.67,4.75-6.64,8.42-8.42l1,2.42l1.85-0.77l-1-2.42c1.87-0.66,3.86-1.03,5.95-1.03s4.09,0.38,5.95,1.03
		l-1,2.42l1.85,0.77l1-2.42c3.67,1.77,6.64,4.75,8.42,8.42l-2.42,1l0.77,1.85l2.42-1c0.66,1.87,1.03,3.86,1.03,5.95
		c0,2.09-0.38,4.09-1.03,5.95l-2.42-1L73.8,66.8l2.42,1C74.44,71.47,71.47,74.44,67.8,76.22z M76.6,67c0,0,0,0.01,0,0.01L76.6,67z
		 M60,47.99c-6.62,0-12.01,5.39-12.01,12.01c0,6.62,5.39,12.01,12.01,12.01S72.01,66.62,72.01,60C72.01,53.38,66.62,47.99,60,47.99z
		 M60,70.01c-5.52,0-10.01-4.49-10.01-10.01S54.48,49.99,60,49.99S70.01,54.48,70.01,60S65.52,70.01,60,70.01z M60,56
		c-2.21,0-4,1.79-4,4c0,2.21,1.79,4,4,4s4-1.79,4-4C64,57.79,62.21,56,60,56z M60,62c-1.1,0-2-0.9-2-2c0-1.1,0.9-2,2-2s2,0.9,2,2
		C62,61.1,61.1,62,60,62z M59,53c0-0.55,0.45-1,1-1s1,0.45,1,1c0,0.55-0.45,1-1,1S59,53.55,59,53z M61,66.98c0,0.55-0.45,1-1,1
		s-1-0.45-1-1c0-0.55,0.45-1,1-1S61,66.43,61,66.98z M67,59c0.55,0,1,0.45,1,1c0,0.55-0.45,1-1,1s-1-0.45-1-1
		C66,59.45,66.45,59,67,59z M54,60c0,0.55-0.45,1-1,1s-1-0.45-1-1c0-0.55,0.45-1,1-1S54,59.45,54,60z M64.29,55.71
		c-0.39-0.39-0.39-1.02,0-1.42c0.39-0.39,1.02-0.39,1.42,0c0.39,0.39,0.39,1.02,0,1.42C65.32,56.1,64.68,56.1,64.29,55.71z
		 M55.71,64.29c0.39,0.39,0.39,1.02,0,1.42c-0.39,0.39-1.02,0.39-1.42,0c-0.39-0.39-0.39-1.02,0-1.42
		C54.68,63.9,55.32,63.9,55.71,64.29z M65.71,64.29c0.39,0.39,0.39,1.02,0,1.42c-0.39,0.39-1.02,0.39-1.42,0
		c-0.39-0.39-0.39-1.02,0-1.42C64.68,63.9,65.32,63.9,65.71,64.29z M54.29,55.71c-0.39-0.39-0.39-1.02,0-1.42
		c0.39-0.39,1.02-0.39,1.42,0c0.39,0.39,0.39,1.02,0,1.42C55.32,56.1,54.68,56.1,54.29,55.71z"/>
</g>
<g id="Grid" class="st0">
	<g class="st3">
		<g>
			<line class="st7" x1="41" y1="40" x2="41" y2="80"/>
			<line class="st7" x1="42" y1="40" x2="42" y2="80"/>
			<line class="st7" x1="43" y1="40" x2="43" y2="80"/>
			<line class="st7" x1="44" y1="40" x2="44" y2="80"/>
			<line class="st7" x1="45" y1="40" x2="45" y2="80"/>
			<line class="st7" x1="46" y1="40" x2="46" y2="80"/>
			<line class="st7" x1="47" y1="40" x2="47" y2="80"/>
			<line class="st7" x1="48" y1="40" x2="48" y2="80"/>
			<line class="st7" x1="49" y1="40" x2="49" y2="80"/>
			<line class="st7" x1="50" y1="40" x2="50" y2="80"/>
			<line class="st7" x1="51" y1="40" x2="51" y2="80"/>
			<line class="st7" x1="52" y1="40" x2="52" y2="80"/>
			<line class="st7" x1="53" y1="40" x2="53" y2="80"/>
			<line class="st7" x1="54" y1="40" x2="54" y2="80"/>
			<line class="st7" x1="55" y1="40" x2="55" y2="80"/>
			<line class="st7" x1="56" y1="40" x2="56" y2="80"/>
			<line class="st7" x1="57" y1="40" x2="57" y2="80"/>
			<line class="st7" x1="58" y1="40" x2="58" y2="80"/>
			<line class="st7" x1="59" y1="40" x2="59" y2="80"/>
			<line class="st7" x1="60" y1="40" x2="60" y2="80"/>
			<line class="st7" x1="61" y1="40" x2="61" y2="80"/>
			<line class="st7" x1="62" y1="40" x2="62" y2="80"/>
			<line class="st7" x1="63" y1="40" x2="63" y2="80"/>
			<line class="st7" x1="64" y1="40" x2="64" y2="80"/>
			<line class="st7" x1="65" y1="40" x2="65" y2="80"/>
			<line class="st7" x1="66" y1="40" x2="66" y2="80"/>
			<line class="st7" x1="67" y1="40" x2="67" y2="80"/>
			<line class="st7" x1="68" y1="40" x2="68" y2="80"/>
			<line class="st7" x1="69" y1="40" x2="69" y2="80"/>
			<line class="st7" x1="70" y1="40" x2="70" y2="80"/>
			<line class="st7" x1="71" y1="40" x2="71" y2="80"/>
			<line class="st7" x1="72" y1="40" x2="72" y2="80"/>
			<line class="st7" x1="73" y1="40" x2="73" y2="80"/>
			<line class="st7" x1="74" y1="40" x2="74" y2="80"/>
			<line class="st7" x1="75" y1="40" x2="75" y2="80"/>
			<line class="st7" x1="76" y1="40" x2="76" y2="80"/>
			<line class="st7" x1="77" y1="40" x2="77" y2="80"/>
			<line class="st7" x1="78" y1="40" x2="78" y2="80"/>
			<line class="st7" x1="79" y1="40" x2="79" y2="80"/>
			<line class="st7" x1="80" y1="40" x2="80" y2="80"/>
		</g>
		<g>
			<line class="st7" x1="80" y1="41" x2="40" y2="41"/>
			<line class="st7" x1="80" y1="42" x2="40" y2="42"/>
			<line class="st7" x1="80" y1="43" x2="40" y2="43"/>
			<line class="st7" x1="80" y1="44" x2="40" y2="44"/>
			<line class="st7" x1="80" y1="45" x2="40" y2="45"/>
			<line class="st7" x1="80" y1="46" x2="40" y2="46"/>
			<line class="st7" x1="80" y1="47" x2="40" y2="47"/>
			<line class="st7" x1="80" y1="48" x2="40" y2="48"/>
			<line class="st7" x1="80" y1="49" x2="40" y2="49"/>
			<line class="st7" x1="80" y1="50" x2="40" y2="50"/>
			<line class="st7" x1="80" y1="51" x2="40" y2="51"/>
			<line class="st7" x1="80" y1="52" x2="40" y2="52"/>
			<line class="st7" x1="80" y1="53" x2="40" y2="53"/>
			<line class="st7" x1="80" y1="54" x2="40" y2="54"/>
			<line class="st7" x1="80" y1="55" x2="40" y2="55"/>
			<line class="st7" x1="80" y1="56" x2="40" y2="56"/>
			<line class="st7" x1="80" y1="57" x2="40" y2="57"/>
			<line class="st7" x1="80" y1="58" x2="40" y2="58"/>
			<line class="st7" x1="80" y1="59" x2="40" y2="59"/>
			<line class="st7" x1="80" y1="60" x2="40" y2="60"/>
			<line class="st7" x1="80" y1="61" x2="40" y2="61"/>
			<line class="st7" x1="80" y1="62" x2="40" y2="62"/>
			<line class="st7" x1="80" y1="63" x2="40" y2="63"/>
			<line class="st7" x1="80" y1="64" x2="40" y2="64"/>
			<line class="st7" x1="80" y1="65" x2="40" y2="65"/>
			<line class="st7" x1="80" y1="66" x2="40" y2="66"/>
			<line class="st7" x1="80" y1="67" x2="40" y2="67"/>
			<line class="st7" x1="80" y1="68" x2="40" y2="68"/>
			<line class="st7" x1="80" y1="69" x2="40" y2="69"/>
			<line class="st7" x1="80" y1="70" x2="40" y2="70"/>
			<line class="st7" x1="80" y1="71" x2="40" y2="71"/>
			<line class="st7" x1="80" y1="72" x2="40" y2="72"/>
			<line class="st7" x1="80" y1="73" x2="40" y2="73"/>
			<line class="st7" x1="80" y1="74" x2="40" y2="74"/>
			<line class="st7" x1="80" y1="75" x2="40" y2="75"/>
			<line class="st7" x1="80" y1="76" x2="40" y2="76"/>
			<line class="st7" x1="80" y1="77" x2="40" y2="77"/>
			<line class="st7" x1="80" y1="78" x2="40" y2="78"/>
			<line class="st7" x1="80" y1="79" x2="40" y2="79"/>
		</g>
		<rect x="40" y="40" class="st7" width="40" height="40"/>
	</g>
</g>
</svg>
