<?xml version="1.0" encoding="utf-8"?>
<!-- Generator: Adobe Illustrator 27.1.1, SVG Export Plug-In . SVG Version: 6.00 Build 0)  -->
<svg version="1.1" xmlns="http://www.w3.org/2000/svg" xmlns:xlink="http://www.w3.org/1999/xlink" x="0px" y="0px"
	 viewBox="0 0 120 120" style="enable-background:new 0 0 120 120;" xml:space="preserve">
<style type="text/css">
	.st0{display:none;}
	.st1{display:inline;fill:#FFFFFF;}
	.st2{display:inline;fill:#221F20;}
	.st3{display:inline;}
	.st4{fill:#221F20;}
	.st5{fill:#FFFFFF;}
	.st6{fill:#FFCC01;}
	.st7{fill:none;stroke:#646464;stroke-width:0.035;stroke-miterlimit:10;}
</style>
<g id="Labels__x26__Base" class="st0">
	<rect class="st1" width="120" height="120"/>
	<g class="st3">
		<g>
			<path class="st4" d="M5.43,5.63h0.7c0.03,0.59,0.39,0.88,1.1,0.88c0.7,0,0.97-0.29,0.97-0.69c0-0.36-0.22-0.58-0.74-0.67
				L6.8,5.03C5.98,4.88,5.54,4.45,5.54,3.83c0-0.77,0.62-1.2,1.55-1.2c1,0,1.62,0.47,1.65,1.34h-0.7C8.01,3.46,7.71,3.2,7.1,3.2
				c-0.55,0-0.85,0.22-0.85,0.6c0,0.34,0.21,0.55,0.72,0.64l0.65,0.12C8.46,4.71,8.89,5.1,8.89,5.78c0,0.76-0.56,1.3-1.65,1.3
				C6.18,7.08,5.46,6.59,5.43,5.63z"/>
			<path class="st4" d="M9.31,5.47c0-0.96,0.58-1.62,1.54-1.62c0.95,0,1.53,0.67,1.53,1.62c0,0.96-0.58,1.63-1.54,1.63
				C9.89,7.1,9.31,6.43,9.31,5.47z M11.76,5.47c0-0.64-0.29-1.13-0.91-1.13c-0.62,0-0.91,0.49-0.91,1.13c0,0.64,0.29,1.13,0.91,1.13
				C11.46,6.6,11.76,6.11,11.76,5.47z"/>
			<path class="st4" d="M12.97,2.71h0.61V7h-0.61V2.71z"/>
			<path class="st4" d="M14.16,5.47c0-1.01,0.59-1.62,1.37-1.62c0.48,0,0.77,0.22,0.94,0.46h0.01v-1.6h0.61V7h-0.61V6.64h-0.01
				c-0.16,0.22-0.46,0.45-0.94,0.45C14.75,7.09,14.16,6.48,14.16,5.47z M16.48,5.47c0-0.69-0.32-1.12-0.85-1.12
				c-0.57,0-0.85,0.52-0.85,1.12s0.28,1.12,0.85,1.12C16.16,6.59,16.48,6.16,16.48,5.47z"/>
			<path class="st4" d="M17.78,2.75h0.68V3.4h-0.68V2.75z M17.82,3.94h0.61V7h-0.61V3.94z"/>
			<path class="st4" d="M19.01,5.46c0-0.96,0.58-1.62,1.52-1.62s1.46,0.61,1.46,1.57c0,0.08,0,0.17-0.01,0.21h-2.35
				c0.01,0.52,0.31,0.97,0.91,0.97c0.53,0,0.74-0.34,0.79-0.53h0.62c-0.16,0.58-0.62,1.03-1.42,1.03C19.55,7.1,19.01,6.4,19.01,5.46
				z M19.63,5.17h1.72c0-0.47-0.32-0.83-0.85-0.83C20.02,4.33,19.67,4.67,19.63,5.17z"/>
			<path class="st4" d="M22.57,3.94h0.61v0.58h0.01c0.16-0.36,0.41-0.61,0.82-0.61h0.28v0.58h-0.2c-0.53,0-0.91,0.38-0.91,0.94V7
				h-0.61V3.94z"/>
			<path class="st4" d="M7.35,13.25H5.38v-0.61l1.97-2.73h0.66v2.77h0.58v0.57H8.01v0.95H7.35V13.25z M7.35,12.68v-1.92l-1.37,1.92
				H7.35z"/>
			<path class="st4" d="M8.98,12.06c0-1.23,0.49-2.24,1.65-2.24c1.16,0,1.65,1.01,1.65,2.24c0,1.24-0.49,2.23-1.65,2.23
				C9.47,14.29,8.98,13.29,8.98,12.06z M9.89,13.31l1.07-2.87c-0.1-0.04-0.21-0.06-0.34-0.06c-0.76,0-0.99,0.78-0.99,1.68
				C9.64,12.54,9.71,13,9.89,13.31z M11.62,12.06c0-0.49-0.07-0.94-0.25-1.25l-1.07,2.87c0.1,0.04,0.21,0.06,0.34,0.06
				C11.39,13.73,11.62,12.95,11.62,12.06z"/>
			<path class="st4" d="M14.23,11.14h0.61v0.36h0.01c0.16-0.22,0.46-0.44,0.94-0.44c0.78,0,1.37,0.61,1.37,1.62
				s-0.59,1.62-1.37,1.62c-0.48,0-0.78-0.23-0.94-0.46h-0.01v1.43h-0.61V11.14z M16.52,12.67c0-0.6-0.28-1.12-0.85-1.12
				c-0.52,0-0.84,0.43-0.84,1.12s0.32,1.12,0.84,1.12C16.25,13.79,16.52,13.27,16.52,12.67z"/>
			<path class="st4" d="M18.35,12.63l-1.05-1.5H18l0.71,1.09h0.01l0.71-1.09h0.68l-1.04,1.5l1.16,1.57h-0.71l-0.81-1.16h-0.01
				l-0.8,1.16h-0.7L18.35,12.63z"/>
		</g>
	</g>
</g>
<g id="Icons">
	<path class="st6" d="M76,54.51c-0.04-3.86-1.55-7.48-4.28-10.22c-2.77-2.77-6.45-4.3-10.37-4.3h-0.28h-2.15h-0.28
		c-3.92,0-7.6,1.53-10.37,4.3c-2.76,2.77-4.29,6.45-4.29,10.36v7.25c0,1.89,1.14,3.57,2.89,4.26l0.77,0.31l0,0l1.01,0.4L48.99,67
		l-0.02,12.98l2,0l0.02-12.19l2.14,0.85l0,0l11.86,4.7V80h2v-5.67l1.52,0c1.9,0,3.45-1.55,3.46-3.45L72,66.5h2.18
		c0.5,0,0.98-0.24,1.28-0.64c0.3-0.4,0.39-0.93,0.24-1.41l-2.35-7.69l2.66-0.63L76,54.51L76,54.51z M74,54.55l-4.82,1.16
		c-0.06-1.72-1-3.19-2.39-4.01l2.22-7.11c0.45,0.34,0.89,0.71,1.3,1.12C72.67,48.07,73.98,51.21,74,54.55z M51.82,65.97l-2.57-1.02
		l1.78-6.13c1-3.43,4.18-5.82,7.75-5.82h5.55c1.57,0,2.86,1.28,2.86,2.86v0.13h-8.41c-2.39,0-4.53,1.6-5.2,3.9L51.82,65.97z
		 M58.93,41.99h2.15h0.28c2.1,0,4.11,0.51,5.92,1.46l-2.37,7.61c-0.18-0.02-0.36-0.06-0.55-0.06h-5.55c-1.06,0-2.09,0.17-3.06,0.49
		l-2.57-8.24c1.69-0.82,3.56-1.26,5.49-1.26H58.93z M45.99,61.9v-7.25c0-3.38,1.31-6.55,3.7-8.94c0.53-0.53,1.1-0.99,1.69-1.41
		l2.5,8.01c-2.26,1.27-4.02,3.38-4.77,5.96L47.4,64.2C46.54,63.75,45.99,62.88,45.99,61.9z M73.62,64.5H70l-0.03,6.37
		c0,0.8-0.66,1.46-1.46,1.46l-0.66,0l-14.16-5.62l1.82-6.26c0.42-1.45,1.77-2.46,3.28-2.46h9.32l3.29-0.78L73.62,64.5z"/>
</g>
<g id="Grid" class="st0">
	<g class="st3">
		<g>
			<line class="st7" x1="41" y1="40" x2="41" y2="80"/>
			<line class="st7" x1="42" y1="40" x2="42" y2="80"/>
			<line class="st7" x1="43" y1="40" x2="43" y2="80"/>
			<line class="st7" x1="44" y1="40" x2="44" y2="80"/>
			<line class="st7" x1="45" y1="40" x2="45" y2="80"/>
			<line class="st7" x1="46" y1="40" x2="46" y2="80"/>
			<line class="st7" x1="47" y1="40" x2="47" y2="80"/>
			<line class="st7" x1="48" y1="40" x2="48" y2="80"/>
			<line class="st7" x1="49" y1="40" x2="49" y2="80"/>
			<line class="st7" x1="50" y1="40" x2="50" y2="80"/>
			<line class="st7" x1="51" y1="40" x2="51" y2="80"/>
			<line class="st7" x1="52" y1="40" x2="52" y2="80"/>
			<line class="st7" x1="53" y1="40" x2="53" y2="80"/>
			<line class="st7" x1="54" y1="40" x2="54" y2="80"/>
			<line class="st7" x1="55" y1="40" x2="55" y2="80"/>
			<line class="st7" x1="56" y1="40" x2="56" y2="80"/>
			<line class="st7" x1="57" y1="40" x2="57" y2="80"/>
			<line class="st7" x1="58" y1="40" x2="58" y2="80"/>
			<line class="st7" x1="59" y1="40" x2="59" y2="80"/>
			<line class="st7" x1="60" y1="40" x2="60" y2="80"/>
			<line class="st7" x1="61" y1="40" x2="61" y2="80"/>
			<line class="st7" x1="62" y1="40" x2="62" y2="80"/>
			<line class="st7" x1="63" y1="40" x2="63" y2="80"/>
			<line class="st7" x1="64" y1="40" x2="64" y2="80"/>
			<line class="st7" x1="65" y1="40" x2="65" y2="80"/>
			<line class="st7" x1="66" y1="40" x2="66" y2="80"/>
			<line class="st7" x1="67" y1="40" x2="67" y2="80"/>
			<line class="st7" x1="68" y1="40" x2="68" y2="80"/>
			<line class="st7" x1="69" y1="40" x2="69" y2="80"/>
			<line class="st7" x1="70" y1="40" x2="70" y2="80"/>
			<line class="st7" x1="71" y1="40" x2="71" y2="80"/>
			<line class="st7" x1="72" y1="40" x2="72" y2="80"/>
			<line class="st7" x1="73" y1="40" x2="73" y2="80"/>
			<line class="st7" x1="74" y1="40" x2="74" y2="80"/>
			<line class="st7" x1="75" y1="40" x2="75" y2="80"/>
			<line class="st7" x1="76" y1="40" x2="76" y2="80"/>
			<line class="st7" x1="77" y1="40" x2="77" y2="80"/>
			<line class="st7" x1="78" y1="40" x2="78" y2="80"/>
			<line class="st7" x1="79" y1="40" x2="79" y2="80"/>
			<line class="st7" x1="80" y1="40" x2="80" y2="80"/>
		</g>
		<g>
			<line class="st7" x1="80" y1="41" x2="40" y2="41"/>
			<line class="st7" x1="80" y1="42" x2="40" y2="42"/>
			<line class="st7" x1="80" y1="43" x2="40" y2="43"/>
			<line class="st7" x1="80" y1="44" x2="40" y2="44"/>
			<line class="st7" x1="80" y1="45" x2="40" y2="45"/>
			<line class="st7" x1="80" y1="46" x2="40" y2="46"/>
			<line class="st7" x1="80" y1="47" x2="40" y2="47"/>
			<line class="st7" x1="80" y1="48" x2="40" y2="48"/>
			<line class="st7" x1="80" y1="49" x2="40" y2="49"/>
			<line class="st7" x1="80" y1="50" x2="40" y2="50"/>
			<line class="st7" x1="80" y1="51" x2="40" y2="51"/>
			<line class="st7" x1="80" y1="52" x2="40" y2="52"/>
			<line class="st7" x1="80" y1="53" x2="40" y2="53"/>
			<line class="st7" x1="80" y1="54" x2="40" y2="54"/>
			<line class="st7" x1="80" y1="55" x2="40" y2="55"/>
			<line class="st7" x1="80" y1="56" x2="40" y2="56"/>
			<line class="st7" x1="80" y1="57" x2="40" y2="57"/>
			<line class="st7" x1="80" y1="58" x2="40" y2="58"/>
			<line class="st7" x1="80" y1="59" x2="40" y2="59"/>
			<line class="st7" x1="80" y1="60" x2="40" y2="60"/>
			<line class="st7" x1="80" y1="61" x2="40" y2="61"/>
			<line class="st7" x1="80" y1="62" x2="40" y2="62"/>
			<line class="st7" x1="80" y1="63" x2="40" y2="63"/>
			<line class="st7" x1="80" y1="64" x2="40" y2="64"/>
			<line class="st7" x1="80" y1="65" x2="40" y2="65"/>
			<line class="st7" x1="80" y1="66" x2="40" y2="66"/>
			<line class="st7" x1="80" y1="67" x2="40" y2="67"/>
			<line class="st7" x1="80" y1="68" x2="40" y2="68"/>
			<line class="st7" x1="80" y1="69" x2="40" y2="69"/>
			<line class="st7" x1="80" y1="70" x2="40" y2="70"/>
			<line class="st7" x1="80" y1="71" x2="40" y2="71"/>
			<line class="st7" x1="80" y1="72" x2="40" y2="72"/>
			<line class="st7" x1="80" y1="73" x2="40" y2="73"/>
			<line class="st7" x1="80" y1="74" x2="40" y2="74"/>
			<line class="st7" x1="80" y1="75" x2="40" y2="75"/>
			<line class="st7" x1="80" y1="76" x2="40" y2="76"/>
			<line class="st7" x1="80" y1="77" x2="40" y2="77"/>
			<line class="st7" x1="80" y1="78" x2="40" y2="78"/>
			<line class="st7" x1="80" y1="79" x2="40" y2="79"/>
		</g>
		<rect x="40" y="40" class="st7" width="40" height="40"/>
	</g>
</g>
</svg>
