<?xml version="1.0" encoding="utf-8"?>
<!-- Generator: Adobe Illustrator 27.1.1, SVG Export Plug-In . SVG Version: 6.00 Build 0)  -->
<svg version="1.1" xmlns="http://www.w3.org/2000/svg" xmlns:xlink="http://www.w3.org/1999/xlink" x="0px" y="0px"
	 viewBox="0 0 120 120" style="enable-background:new 0 0 120 120;" xml:space="preserve">
<style type="text/css">
	.st0{display:none;}
	.st1{display:inline;fill:#FFFFFF;}
	.st2{display:inline;fill:#221F20;}
	.st3{display:inline;}
	.st4{fill:#221F20;}
	.st5{fill:#FFFFFF;}
	.st6{fill:#FFCC01;}
	.st7{fill:none;stroke:#646464;stroke-width:0.035;stroke-miterlimit:10;}
</style>
<g id="Labels__x26__Base" class="st0">
	<rect class="st1" width="120" height="120"/>
	<g class="st3">
		<g>
			<path class="st4" d="M3.52,1.99h3.55v0.68H4.31v1.4h2.42v0.68H4.31v1.57h2.83V7H3.52V1.99z"/>
			<path class="st4" d="M7.77,1.99h0.71V7H7.77V1.99z"/>
			<path class="st4" d="M9.15,5.21c0-1.12,0.68-1.89,1.77-1.89s1.7,0.71,1.7,1.83c0,0.09,0,0.2-0.01,0.25H9.88
				C9.9,6,10.25,6.53,10.94,6.53c0.62,0,0.86-0.39,0.92-0.62h0.72c-0.19,0.68-0.72,1.21-1.66,1.21C9.79,7.11,9.15,6.3,9.15,5.21z
				 M9.88,4.86h2.01c0-0.55-0.38-0.97-0.99-0.97C10.34,3.88,9.92,4.28,9.88,4.86z"/>
			<path class="st4" d="M13.13,5.21c0-1.12,0.69-1.89,1.76-1.89c0.92,0,1.53,0.6,1.62,1.4h-0.73c-0.03-0.36-0.24-0.82-0.88-0.82
				c-0.75,0-1.03,0.64-1.03,1.31s0.28,1.31,1.03,1.31c0.64,0,0.85-0.45,0.88-0.85h0.73C16.46,6.5,15.81,7.1,14.89,7.1
				C13.82,7.1,13.13,6.33,13.13,5.21z"/>
			<path class="st4" d="M17.43,6.05V4h-0.52V3.42h0.52V2.59h0.71v0.83h0.82V4h-0.82v2.01c0,0.31,0.1,0.37,0.4,0.37h0.43V7h-0.59
				C17.78,7,17.43,6.8,17.43,6.05z"/>
			<path class="st4" d="M19.64,3.42h0.71V4.1h0.01c0.18-0.42,0.48-0.71,0.96-0.71h0.32v0.67h-0.23c-0.62,0-1.06,0.45-1.06,1.1V7
				h-0.71V3.42z"/>
			<path class="st4" d="M22.21,2.04h0.79V2.8h-0.79V2.04z M22.26,3.42h0.71V7h-0.71V3.42z"/>
			<path class="st4" d="M23.64,5.21c0-1.12,0.69-1.89,1.76-1.89c0.92,0,1.53,0.6,1.62,1.4h-0.73c-0.03-0.36-0.24-0.82-0.88-0.82
				c-0.75,0-1.03,0.64-1.03,1.31s0.28,1.31,1.03,1.31c0.64,0,0.85-0.45,0.88-0.85h0.73C26.97,6.5,26.33,7.1,25.41,7.1
				C24.34,7.1,23.64,6.33,23.64,5.21z"/>
			<path class="st4" d="M27.63,2.04h0.79V2.8h-0.79V2.04z M27.67,3.42h0.71V7h-0.71V3.42z"/>
			<path class="st4" d="M29.5,6.05V4h-0.52V3.42h0.52V2.59h0.71v0.83h0.82V4h-0.82v2.01c0,0.31,0.11,0.37,0.4,0.37h0.43V7h-0.59
				C29.86,7,29.5,6.8,29.5,6.05z"/>
			<path class="st4" d="M31.74,8.24V7.61h0.29c0.27,0,0.6-0.13,0.74-0.65l-1.33-3.54h0.77l0.92,2.72h0.01l0.92-2.72h0.73l-1.35,3.66
				c-0.36,0.88-0.73,1.16-1.32,1.16H31.74z"/>
			<path class="st4" d="M38.6,1.99h0.65L37.31,7h-0.65L38.6,1.99z"/>
			<path class="st4" d="M41.48,1.99h3.55v0.68h-2.76v1.4h2.42v0.68h-2.42v1.57h2.83V7h-3.62V1.99z"/>
			<path class="st4" d="M45.73,1.99h0.71V7h-0.71V1.99z"/>
			<path class="st4" d="M47.11,5.21c0-1.12,0.68-1.89,1.77-1.89c1.09,0,1.7,0.71,1.7,1.83c0,0.09,0,0.2-0.01,0.25h-2.74
				c0.01,0.6,0.36,1.13,1.06,1.13c0.62,0,0.86-0.39,0.92-0.62h0.72c-0.19,0.68-0.72,1.21-1.66,1.21C47.75,7.11,47.11,6.3,47.11,5.21
				z M47.84,4.86h2.01c0-0.55-0.38-0.97-0.99-0.97C48.3,3.88,47.88,4.28,47.84,4.86z"/>
			<path class="st4" d="M51.09,5.21c0-1.12,0.69-1.89,1.76-1.89c0.92,0,1.53,0.6,1.62,1.4h-0.73C53.71,4.36,53.5,3.9,52.85,3.9
				c-0.75,0-1.03,0.64-1.03,1.31s0.28,1.31,1.03,1.31c0.64,0,0.86-0.45,0.88-0.85h0.73C54.42,6.5,53.77,7.1,52.85,7.1
				C51.78,7.1,51.09,6.33,51.09,5.21z"/>
			<path class="st4" d="M55.39,6.05V4h-0.52V3.42h0.52V2.59h0.71v0.83h0.82V4h-0.82v2.01c0,0.31,0.1,0.37,0.4,0.37h0.43V7h-0.59
				C55.74,7,55.39,6.8,55.39,6.05z"/>
			<path class="st4" d="M57.6,3.42h0.71V4.1h0.01c0.18-0.42,0.48-0.71,0.96-0.71h0.32v0.67h-0.23c-0.62,0-1.06,0.45-1.06,1.1V7H57.6
				V3.42z"/>
			<path class="st4" d="M60.18,2.04h0.79V2.8h-0.79V2.04z M60.22,3.42h0.71V7h-0.71V3.42z"/>
			<path class="st4" d="M61.6,5.21c0-1.12,0.69-1.89,1.76-1.89c0.92,0,1.53,0.6,1.62,1.4h-0.73c-0.03-0.36-0.24-0.82-0.88-0.82
				c-0.75,0-1.03,0.64-1.03,1.31s0.28,1.31,1.03,1.31c0.64,0,0.86-0.45,0.88-0.85h0.73C64.93,6.5,64.29,7.1,63.37,7.1
				C62.3,7.1,61.6,6.33,61.6,5.21z"/>
			<path class="st4" d="M65.59,2.04h0.79V2.8h-0.79V2.04z M65.63,3.42h0.71V7h-0.71V3.42z"/>
			<path class="st4" d="M66.98,6.08c0-0.8,0.6-1.04,1.49-1.2c0.55-0.11,0.9-0.17,0.9-0.53c0-0.26-0.15-0.47-0.67-0.47
				c-0.59,0-0.78,0.2-0.81,0.67h-0.71c0.04-0.69,0.48-1.23,1.55-1.23c0.75,0,1.33,0.31,1.33,1.24V7h-0.67V6.57h-0.01
				C69.13,6.9,68.72,7.1,68.15,7.1C67.43,7.1,66.98,6.69,66.98,6.08z M69.37,5.6V5.13c-0.11,0.1-0.42,0.18-0.78,0.25
				c-0.62,0.13-0.88,0.29-0.88,0.64c0,0.33,0.17,0.51,0.59,0.51C68.93,6.54,69.37,6.22,69.37,5.6z"/>
			<path class="st4" d="M70.86,3.42h0.71v0.39h0.01c0.17-0.24,0.53-0.48,1.11-0.48c0.7,0,1.26,0.38,1.26,1.2V7h-0.71V4.72
				c0-0.48-0.21-0.8-0.72-0.8c-0.58,0-0.95,0.35-0.95,0.89V7h-0.71V3.42z"/>
			<path class="st4" d="M5.46,14.29h-2.3v-0.71l2.3-3.19h0.77v3.24h0.68v0.67H6.24v1.11H5.46V14.29z M5.46,13.63v-2.25l-1.6,2.25
				H5.46z"/>
			<path class="st4" d="M7.36,12.9c0-1.44,0.57-2.61,1.93-2.61c1.35,0,1.93,1.18,1.93,2.61c0,1.44-0.57,2.61-1.93,2.61
				C7.94,15.5,7.36,14.34,7.36,12.9z M8.43,14.36l1.25-3.35c-0.11-0.04-0.25-0.07-0.39-0.07c-0.89,0-1.16,0.91-1.16,1.96
				C8.14,13.47,8.22,14,8.43,14.36z M10.44,12.9c0-0.57-0.08-1.1-0.29-1.46L8.9,14.78c0.11,0.04,0.24,0.07,0.39,0.07
				C10.18,14.85,10.44,13.94,10.44,12.9z"/>
			<path class="st4" d="M13.49,11.82h0.71v0.42h0.01c0.19-0.25,0.54-0.52,1.1-0.52c0.91,0,1.6,0.71,1.6,1.89
				c0,1.18-0.69,1.89-1.6,1.89c-0.56,0-0.91-0.27-1.1-0.54h-0.01v1.67h-0.71V11.82z M16.17,13.61c0-0.7-0.32-1.31-0.99-1.31
				c-0.61,0-0.98,0.5-0.98,1.31c0,0.81,0.37,1.31,0.98,1.31C15.85,14.92,16.17,14.31,16.17,13.61z"/>
			<path class="st4" d="M18.3,13.57l-1.23-1.75h0.81l0.83,1.27h0.01l0.83-1.27h0.8l-1.22,1.75l1.35,1.83h-0.83l-0.95-1.36h-0.01
				l-0.94,1.36h-0.82L18.3,13.57z"/>
		</g>
	</g>
</g>
<g id="Icons">
	<path class="st6" d="M53.07,80h1.42l20.16-24H62.77l4.77-15.96h-1.22L46.37,64h11.91L53.07,80z M50.63,62l12.88-15.46L60.09,58
		h10.27l-13.1,15.59L61.04,62H50.63z"/>
</g>
<g id="Grid" class="st0">
	<g class="st3">
		<g>
			<line class="st7" x1="41" y1="40" x2="41" y2="80"/>
			<line class="st7" x1="42" y1="40" x2="42" y2="80"/>
			<line class="st7" x1="43" y1="40" x2="43" y2="80"/>
			<line class="st7" x1="44" y1="40" x2="44" y2="80"/>
			<line class="st7" x1="45" y1="40" x2="45" y2="80"/>
			<line class="st7" x1="46" y1="40" x2="46" y2="80"/>
			<line class="st7" x1="47" y1="40" x2="47" y2="80"/>
			<line class="st7" x1="48" y1="40" x2="48" y2="80"/>
			<line class="st7" x1="49" y1="40" x2="49" y2="80"/>
			<line class="st7" x1="50" y1="40" x2="50" y2="80"/>
			<line class="st7" x1="51" y1="40" x2="51" y2="80"/>
			<line class="st7" x1="52" y1="40" x2="52" y2="80"/>
			<line class="st7" x1="53" y1="40" x2="53" y2="80"/>
			<line class="st7" x1="54" y1="40" x2="54" y2="80"/>
			<line class="st7" x1="55" y1="40" x2="55" y2="80"/>
			<line class="st7" x1="56" y1="40" x2="56" y2="80"/>
			<line class="st7" x1="57" y1="40" x2="57" y2="80"/>
			<line class="st7" x1="58" y1="40" x2="58" y2="80"/>
			<line class="st7" x1="59" y1="40" x2="59" y2="80"/>
			<line class="st7" x1="60" y1="40" x2="60" y2="80"/>
			<line class="st7" x1="61" y1="40" x2="61" y2="80"/>
			<line class="st7" x1="62" y1="40" x2="62" y2="80"/>
			<line class="st7" x1="63" y1="40" x2="63" y2="80"/>
			<line class="st7" x1="64" y1="40" x2="64" y2="80"/>
			<line class="st7" x1="65" y1="40" x2="65" y2="80"/>
			<line class="st7" x1="66" y1="40" x2="66" y2="80"/>
			<line class="st7" x1="67" y1="40" x2="67" y2="80"/>
			<line class="st7" x1="68" y1="40" x2="68" y2="80"/>
			<line class="st7" x1="69" y1="40" x2="69" y2="80"/>
			<line class="st7" x1="70" y1="40" x2="70" y2="80"/>
			<line class="st7" x1="71" y1="40" x2="71" y2="80"/>
			<line class="st7" x1="72" y1="40" x2="72" y2="80"/>
			<line class="st7" x1="73" y1="40" x2="73" y2="80"/>
			<line class="st7" x1="74" y1="40" x2="74" y2="80"/>
			<line class="st7" x1="75" y1="40" x2="75" y2="80"/>
			<line class="st7" x1="76" y1="40" x2="76" y2="80"/>
			<line class="st7" x1="77" y1="40" x2="77" y2="80"/>
			<line class="st7" x1="78" y1="40" x2="78" y2="80"/>
			<line class="st7" x1="79" y1="40" x2="79" y2="80"/>
			<line class="st7" x1="80" y1="40" x2="80" y2="80"/>
		</g>
		<g>
			<line class="st7" x1="80" y1="41" x2="40" y2="41"/>
			<line class="st7" x1="80" y1="42" x2="40" y2="42"/>
			<line class="st7" x1="80" y1="43" x2="40" y2="43"/>
			<line class="st7" x1="80" y1="44" x2="40" y2="44"/>
			<line class="st7" x1="80" y1="45" x2="40" y2="45"/>
			<line class="st7" x1="80" y1="46" x2="40" y2="46"/>
			<line class="st7" x1="80" y1="47" x2="40" y2="47"/>
			<line class="st7" x1="80" y1="48" x2="40" y2="48"/>
			<line class="st7" x1="80" y1="49" x2="40" y2="49"/>
			<line class="st7" x1="80" y1="50" x2="40" y2="50"/>
			<line class="st7" x1="80" y1="51" x2="40" y2="51"/>
			<line class="st7" x1="80" y1="52" x2="40" y2="52"/>
			<line class="st7" x1="80" y1="53" x2="40" y2="53"/>
			<line class="st7" x1="80" y1="54" x2="40" y2="54"/>
			<line class="st7" x1="80" y1="55" x2="40" y2="55"/>
			<line class="st7" x1="80" y1="56" x2="40" y2="56"/>
			<line class="st7" x1="80" y1="57" x2="40" y2="57"/>
			<line class="st7" x1="80" y1="58" x2="40" y2="58"/>
			<line class="st7" x1="80" y1="59" x2="40" y2="59"/>
			<line class="st7" x1="80" y1="60" x2="40" y2="60"/>
			<line class="st7" x1="80" y1="61" x2="40" y2="61"/>
			<line class="st7" x1="80" y1="62" x2="40" y2="62"/>
			<line class="st7" x1="80" y1="63" x2="40" y2="63"/>
			<line class="st7" x1="80" y1="64" x2="40" y2="64"/>
			<line class="st7" x1="80" y1="65" x2="40" y2="65"/>
			<line class="st7" x1="80" y1="66" x2="40" y2="66"/>
			<line class="st7" x1="80" y1="67" x2="40" y2="67"/>
			<line class="st7" x1="80" y1="68" x2="40" y2="68"/>
			<line class="st7" x1="80" y1="69" x2="40" y2="69"/>
			<line class="st7" x1="80" y1="70" x2="40" y2="70"/>
			<line class="st7" x1="80" y1="71" x2="40" y2="71"/>
			<line class="st7" x1="80" y1="72" x2="40" y2="72"/>
			<line class="st7" x1="80" y1="73" x2="40" y2="73"/>
			<line class="st7" x1="80" y1="74" x2="40" y2="74"/>
			<line class="st7" x1="80" y1="75" x2="40" y2="75"/>
			<line class="st7" x1="80" y1="76" x2="40" y2="76"/>
			<line class="st7" x1="80" y1="77" x2="40" y2="77"/>
			<line class="st7" x1="80" y1="78" x2="40" y2="78"/>
			<line class="st7" x1="80" y1="79" x2="40" y2="79"/>
		</g>
		<rect x="40" y="40" class="st7" width="40" height="40"/>
	</g>
</g>
</svg>
