<?xml version="1.0" encoding="utf-8"?>
<!-- Generator: Adobe Illustrator 27.1.1, SVG Export Plug-In . SVG Version: 6.00 Build 0)  -->
<svg version="1.1" xmlns="http://www.w3.org/2000/svg" xmlns:xlink="http://www.w3.org/1999/xlink" x="0px" y="0px"
	 viewBox="0 0 120 120" style="enable-background:new 0 0 120 120;" xml:space="preserve">
<style type="text/css">
	.st0{display:none;}
	.st1{display:inline;fill:#FFFFFF;}
	.st2{display:inline;fill:#221F20;}
	.st3{display:inline;}
	.st4{fill:#221F20;}
	.st5{fill:#FFFFFF;}
	.st6{fill:#FFCC01;}
	.st7{fill:none;stroke:#646464;stroke-width:0.035;stroke-miterlimit:10;}
</style>
<g id="Labels__x26__Base" class="st0">
	<rect class="st2" width="120" height="120"/>
	<g class="st3">
		<path class="st5" d="M3.44,2.71h0.68v3.71h2.16V7H3.44V2.71z"/>
		<path class="st5" d="M6.62,5.47c0-0.96,0.58-1.62,1.54-1.62c0.95,0,1.53,0.67,1.53,1.62c0,0.96-0.58,1.63-1.54,1.63
			C7.2,7.1,6.62,6.43,6.62,5.47z M9.06,5.47c0-0.64-0.29-1.13-0.91-1.13c-0.62,0-0.91,0.49-0.91,1.13c0,0.64,0.29,1.13,0.91,1.13
			C8.77,6.6,9.06,6.11,9.06,5.47z"/>
		<path class="st5" d="M10.12,5.47c0-0.96,0.59-1.62,1.5-1.62c0.79,0,1.31,0.51,1.39,1.2h-0.62c-0.02-0.31-0.2-0.7-0.75-0.7
			c-0.64,0-0.88,0.55-0.88,1.12c0,0.58,0.24,1.12,0.88,1.12c0.55,0,0.73-0.38,0.75-0.73h0.62c-0.04,0.7-0.59,1.22-1.38,1.22
			C10.72,7.09,10.12,6.43,10.12,5.47z"/>
		<path class="st5" d="M13.39,6.21c0-0.68,0.52-0.89,1.27-1.03c0.47-0.09,0.77-0.14,0.77-0.45c0-0.22-0.13-0.4-0.58-0.4
			c-0.5,0-0.67,0.17-0.7,0.57h-0.61c0.03-0.59,0.41-1.05,1.33-1.05c0.64,0,1.14,0.26,1.14,1.06V7h-0.58V6.63h-0.01
			c-0.2,0.28-0.55,0.46-1.04,0.46C13.78,7.09,13.39,6.74,13.39,6.21z M15.44,5.8V5.4c-0.1,0.08-0.36,0.15-0.67,0.22
			c-0.53,0.11-0.75,0.25-0.75,0.55c0,0.28,0.15,0.44,0.51,0.44C15.06,6.6,15.44,6.33,15.44,5.8z"/>
		<path class="st5" d="M16.96,6.18V4.43h-0.44v-0.5h0.44V3.23h0.61v0.71h0.7v0.5h-0.7v1.72c0,0.26,0.09,0.32,0.34,0.32h0.37V7h-0.5
			C17.26,7,16.96,6.83,16.96,6.18z"/>
		<path class="st5" d="M18.82,2.75h0.68V3.4h-0.68V2.75z M18.85,3.94h0.61V7h-0.61V3.94z"/>
		<path class="st5" d="M20.04,5.47c0-0.96,0.58-1.62,1.54-1.62c0.95,0,1.53,0.67,1.53,1.62c0,0.96-0.58,1.63-1.54,1.63
			C20.62,7.1,20.04,6.43,20.04,5.47z M22.49,5.47c0-0.64-0.29-1.13-0.91-1.13c-0.62,0-0.91,0.49-0.91,1.13
			c0,0.64,0.29,1.13,0.91,1.13C22.19,6.6,22.49,6.11,22.49,5.47z"/>
		<path class="st5" d="M23.69,3.94h0.61v0.33h0.01c0.15-0.2,0.45-0.41,0.95-0.41c0.6,0,1.08,0.33,1.08,1.03V7h-0.61V5.05
			c0-0.41-0.18-0.68-0.62-0.68c-0.5,0-0.82,0.3-0.82,0.76V7h-0.61V3.94z"/>
		<path class="st5" d="M5.11,13.25H3.14v-0.61l1.97-2.73h0.66v2.77h0.58v0.57H5.77v0.95H5.11V13.25z M5.11,12.68v-1.92l-1.37,1.92
			H5.11z"/>
		<path class="st5" d="M6.74,12.06c0-1.23,0.49-2.24,1.66-2.24c1.16,0,1.65,1.01,1.65,2.24c0,1.24-0.49,2.23-1.65,2.23
			C7.23,14.29,6.74,13.29,6.74,12.06z M7.66,13.31l1.07-2.87c-0.1-0.04-0.21-0.06-0.34-0.06c-0.76,0-0.99,0.78-0.99,1.68
			C7.4,12.54,7.47,13,7.66,13.31z M9.38,12.06c0-0.49-0.07-0.94-0.25-1.25l-1.07,2.87c0.1,0.04,0.21,0.06,0.34,0.06
			C9.15,13.73,9.38,12.95,9.38,12.06z"/>
		<path class="st5" d="M10.67,11.14h0.61v0.36h0.01c0.16-0.22,0.46-0.44,0.94-0.44c0.78,0,1.37,0.61,1.37,1.62
			c0,1.01-0.59,1.62-1.37,1.62c-0.48,0-0.78-0.23-0.94-0.46h-0.01v1.43h-0.61V11.14z M12.96,12.67c0-0.6-0.28-1.12-0.84-1.12
			c-0.52,0-0.84,0.43-0.84,1.12s0.32,1.12,0.84,1.12C12.69,13.79,12.96,13.27,12.96,12.67z"/>
		<path class="st5" d="M14.8,12.63l-1.05-1.5h0.7l0.71,1.09h0.01l0.71-1.09h0.68l-1.04,1.5l1.16,1.57h-0.71l-0.81-1.16h-0.01
			l-0.8,1.16h-0.7L14.8,12.63z"/>
	</g>
</g>
<g id="Icons">
	<path class="st5" d="M65.66,52.33c-3.12-3.1-8.19-3.1-11.31,0c-2.94,2.93-3.16,7.54-0.5,10.72c0,0,0,0,0,0c0,0,0,0,0,0L60,70.27
		l6.18-7.26c0,0,0,0,0,0s0,0,0,0C68.81,59.83,68.58,55.24,65.66,52.33z M54.61,62.4L54.61,62.4c-2.32-2.78-2.13-6.8,0.44-9.36
		c2.73-2.71,7.17-2.71,9.9,0c2.56,2.54,2.76,6.55,0.47,9.33L60,68.73L54.61,62.4z M61.92,59.18L63.09,63L60,60.65L56.91,63
		l1.17-3.82L55,56.82l3.81-0.01L60,53l1.19,3.81L65,56.82L61.92,59.18z"/>
</g>
<g id="Grid" class="st0">
	<g class="st3">
		<rect x="50" y="50" class="st7" width="20" height="20"/>
		<g>
			<line class="st7" x1="51" y1="50" x2="51" y2="70"/>
			<line class="st7" x1="52" y1="50" x2="52" y2="70"/>
			<line class="st7" x1="53" y1="50" x2="53" y2="70"/>
			<line class="st7" x1="54" y1="50" x2="54" y2="70"/>
			<line class="st7" x1="55" y1="50" x2="55" y2="70"/>
			<line class="st7" x1="56" y1="50" x2="56" y2="70"/>
			<line class="st7" x1="57" y1="50" x2="57" y2="70"/>
			<line class="st7" x1="58" y1="50" x2="58" y2="70"/>
			<line class="st7" x1="59" y1="50" x2="59" y2="70"/>
			<line class="st7" x1="60" y1="50" x2="60" y2="70"/>
			<line class="st7" x1="61" y1="50" x2="61" y2="70"/>
			<line class="st7" x1="62" y1="50" x2="62" y2="70"/>
			<line class="st7" x1="63" y1="50" x2="63" y2="70"/>
			<line class="st7" x1="64" y1="50" x2="64" y2="70"/>
			<line class="st7" x1="65" y1="50" x2="65" y2="70"/>
			<line class="st7" x1="66" y1="50" x2="66" y2="70"/>
			<line class="st7" x1="67" y1="50" x2="67" y2="70"/>
			<line class="st7" x1="68" y1="50" x2="68" y2="70"/>
			<line class="st7" x1="69" y1="50" x2="69" y2="70"/>
		</g>
		<g>
			<line class="st7" x1="70" y1="51" x2="50" y2="51"/>
			<line class="st7" x1="70" y1="52" x2="50" y2="52"/>
			<line class="st7" x1="70" y1="53" x2="50" y2="53"/>
			<line class="st7" x1="70" y1="54" x2="50" y2="54"/>
			<line class="st7" x1="70" y1="55" x2="50" y2="55"/>
			<line class="st7" x1="70" y1="56" x2="50" y2="56"/>
			<line class="st7" x1="70" y1="57" x2="50" y2="57"/>
			<line class="st7" x1="70" y1="58" x2="50" y2="58"/>
			<line class="st7" x1="70" y1="59" x2="50" y2="59"/>
			<line class="st7" x1="70" y1="60" x2="50" y2="60"/>
			<line class="st7" x1="70" y1="61" x2="50" y2="61"/>
			<line class="st7" x1="70" y1="62" x2="50" y2="62"/>
			<line class="st7" x1="70" y1="63" x2="50" y2="63"/>
			<line class="st7" x1="70" y1="64" x2="50" y2="64"/>
			<line class="st7" x1="70" y1="65" x2="50" y2="65"/>
			<line class="st7" x1="70" y1="66" x2="50" y2="66"/>
			<line class="st7" x1="70" y1="67" x2="50" y2="67"/>
			<line class="st7" x1="70" y1="68" x2="50" y2="68"/>
			<line class="st7" x1="70" y1="69" x2="50" y2="69"/>
		</g>
	</g>
</g>
</svg>
