<?xml version="1.0" encoding="utf-8"?>
<!-- Generator: Adobe Illustrator 27.1.1, SVG Export Plug-In . SVG Version: 6.00 Build 0)  -->
<svg version="1.1" xmlns="http://www.w3.org/2000/svg" xmlns:xlink="http://www.w3.org/1999/xlink" x="0px" y="0px"
	 viewBox="0 0 120 120" style="enable-background:new 0 0 120 120;" xml:space="preserve">
<style type="text/css">
	.st0{display:none;}
	.st1{display:inline;fill:#FFFFFF;}
	.st2{display:inline;fill:#221F20;}
	.st3{display:inline;}
	.st4{fill:#221F20;}
	.st5{fill:#FFFFFF;}
	.st6{fill:#FFCC01;}
	.st7{fill:none;stroke:#646464;stroke-width:0.035;stroke-miterlimit:10;}
</style>
<g id="Labels__x26__Base" class="st0">
	<rect class="st2" width="120" height="120"/>
	<g class="st3">
		<g>
			<path class="st5" d="M3.44,2.71h0.89l1.22,3.35h0.01l1.22-3.35h0.89V7H7.01V3.7H7L5.84,7H5.28L4.12,3.7H4.11V7H3.44V2.71z"/>
			<path class="st5" d="M8.31,6.21c0-0.68,0.52-0.89,1.27-1.03c0.47-0.09,0.77-0.14,0.77-0.45c0-0.22-0.13-0.4-0.58-0.4
				c-0.5,0-0.67,0.17-0.7,0.57H8.48C8.51,4.31,8.89,3.85,9.8,3.85c0.64,0,1.14,0.26,1.14,1.06V7h-0.58V6.63h-0.01
				c-0.2,0.28-0.55,0.46-1.04,0.46C8.69,7.09,8.31,6.74,8.31,6.21z M10.35,5.8V5.4C10.26,5.48,10,5.55,9.69,5.61
				C9.16,5.72,8.94,5.86,8.94,6.17c0,0.28,0.15,0.44,0.51,0.44C9.98,6.6,10.35,6.33,10.35,5.8z"/>
			<path class="st5" d="M11.64,3.94h0.61v0.36h0.01c0.16-0.22,0.46-0.44,0.94-0.44c0.78,0,1.37,0.61,1.37,1.62s-0.59,1.62-1.37,1.62
				c-0.48,0-0.78-0.23-0.94-0.46h-0.01v1.43h-0.61V3.94z M13.94,5.47c0-0.6-0.28-1.12-0.85-1.12c-0.52,0-0.84,0.43-0.84,1.12
				s0.32,1.12,0.84,1.12C13.66,6.59,13.94,6.07,13.94,5.47z"/>
			<path class="st5" d="M4.45,12.31c0.69-0.45,1.04-0.63,1.04-1.22c0-0.34-0.14-0.7-0.69-0.7c-0.64,0-0.85,0.42-0.85,0.99H3.28
				c0-0.89,0.48-1.56,1.53-1.56c0.76,0,1.37,0.46,1.37,1.25c0,0.85-0.65,1.28-1.25,1.66c-0.4,0.25-0.77,0.5-0.89,0.89v0.01h2.1v0.57
				H3.18C3.18,13.39,3.65,12.83,4.45,12.31z"/>
			<path class="st5" d="M6.67,12.06c0-1.23,0.49-2.24,1.66-2.24c1.16,0,1.65,1.01,1.65,2.24c0,1.24-0.49,2.23-1.65,2.23
				C7.16,14.29,6.67,13.29,6.67,12.06z M7.58,13.31l1.07-2.87c-0.1-0.04-0.21-0.06-0.34-0.06c-0.76,0-0.99,0.78-0.99,1.68
				C7.33,12.54,7.4,13,7.58,13.31z M9.3,12.06c0-0.49-0.07-0.94-0.25-1.25l-1.07,2.87c0.1,0.04,0.21,0.06,0.34,0.06
				C9.08,13.73,9.3,12.95,9.3,12.06z"/>
			<path class="st5" d="M11.92,11.14h0.61v0.36h0.01c0.16-0.22,0.46-0.44,0.94-0.44c0.78,0,1.37,0.61,1.37,1.62
				s-0.59,1.62-1.37,1.62c-0.48,0-0.78-0.23-0.94-0.46h-0.01v1.43h-0.61V11.14z M14.21,12.67c0-0.6-0.28-1.12-0.85-1.12
				c-0.52,0-0.84,0.43-0.84,1.12s0.32,1.12,0.84,1.12C13.94,13.79,14.21,13.27,14.21,12.67z"/>
			<path class="st5" d="M16.04,12.63l-1.05-1.5h0.7l0.71,1.09h0.01l0.71-1.09h0.68l-1.04,1.5l1.16,1.57h-0.71l-0.81-1.16H16.4
				l-0.8,1.16h-0.7L16.04,12.63z"/>
		</g>
	</g>
</g>
<g id="Icons">
	<path class="st5" d="M63.49,52.48l-7-2L50,52.64v17.05l6.51-2.16l7,1.99L70,67.36V50.31L63.49,52.48z M57,51.66l6,1.71v14.96
		l-6-1.7V51.66z M51,53.36l5-1.67v14.96l-5,1.65V53.36z M69,66.64l-5,1.67V53.36l5-1.67V66.64z"/>
</g>
<g id="Grid" class="st0">
	<g class="st3">
		<rect x="50" y="50" class="st7" width="20" height="20"/>
		<g>
			<line class="st7" x1="51" y1="50" x2="51" y2="70"/>
			<line class="st7" x1="52" y1="50" x2="52" y2="70"/>
			<line class="st7" x1="53" y1="50" x2="53" y2="70"/>
			<line class="st7" x1="54" y1="50" x2="54" y2="70"/>
			<line class="st7" x1="55" y1="50" x2="55" y2="70"/>
			<line class="st7" x1="56" y1="50" x2="56" y2="70"/>
			<line class="st7" x1="57" y1="50" x2="57" y2="70"/>
			<line class="st7" x1="58" y1="50" x2="58" y2="70"/>
			<line class="st7" x1="59" y1="50" x2="59" y2="70"/>
			<line class="st7" x1="60" y1="50" x2="60" y2="70"/>
			<line class="st7" x1="61" y1="50" x2="61" y2="70"/>
			<line class="st7" x1="62" y1="50" x2="62" y2="70"/>
			<line class="st7" x1="63" y1="50" x2="63" y2="70"/>
			<line class="st7" x1="64" y1="50" x2="64" y2="70"/>
			<line class="st7" x1="65" y1="50" x2="65" y2="70"/>
			<line class="st7" x1="66" y1="50" x2="66" y2="70"/>
			<line class="st7" x1="67" y1="50" x2="67" y2="70"/>
			<line class="st7" x1="68" y1="50" x2="68" y2="70"/>
			<line class="st7" x1="69" y1="50" x2="69" y2="70"/>
		</g>
		<g>
			<line class="st7" x1="70" y1="51" x2="50" y2="51"/>
			<line class="st7" x1="70" y1="52" x2="50" y2="52"/>
			<line class="st7" x1="70" y1="53" x2="50" y2="53"/>
			<line class="st7" x1="70" y1="54" x2="50" y2="54"/>
			<line class="st7" x1="70" y1="55" x2="50" y2="55"/>
			<line class="st7" x1="70" y1="56" x2="50" y2="56"/>
			<line class="st7" x1="70" y1="57" x2="50" y2="57"/>
			<line class="st7" x1="70" y1="58" x2="50" y2="58"/>
			<line class="st7" x1="70" y1="59" x2="50" y2="59"/>
			<line class="st7" x1="70" y1="60" x2="50" y2="60"/>
			<line class="st7" x1="70" y1="61" x2="50" y2="61"/>
			<line class="st7" x1="70" y1="62" x2="50" y2="62"/>
			<line class="st7" x1="70" y1="63" x2="50" y2="63"/>
			<line class="st7" x1="70" y1="64" x2="50" y2="64"/>
			<line class="st7" x1="70" y1="65" x2="50" y2="65"/>
			<line class="st7" x1="70" y1="66" x2="50" y2="66"/>
			<line class="st7" x1="70" y1="67" x2="50" y2="67"/>
			<line class="st7" x1="70" y1="68" x2="50" y2="68"/>
			<line class="st7" x1="70" y1="69" x2="50" y2="69"/>
		</g>
	</g>
</g>
</svg>
