<?xml version="1.0" encoding="utf-8"?>
<!-- Generator: Adobe Illustrator 27.1.1, SVG Export Plug-In . SVG Version: 6.00 Build 0)  -->
<svg version="1.1" xmlns="http://www.w3.org/2000/svg" xmlns:xlink="http://www.w3.org/1999/xlink" x="0px" y="0px"
	 viewBox="0 0 120 120" style="enable-background:new 0 0 120 120;" xml:space="preserve">
<style type="text/css">
	.st0{display:none;}
	.st1{display:inline;fill:#FFFFFF;}
	.st2{display:inline;fill:#221F20;}
	.st3{display:inline;}
	.st4{fill:#221F20;}
	.st5{fill:#FFFFFF;}
	.st6{fill:#FFCC01;}
	.st7{fill:none;stroke:#646464;stroke-width:0.035;stroke-miterlimit:10;}
</style>
<g id="Labels__x26__Base" class="st0">
	<rect class="st2" width="120" height="120"/>
	<g class="st3">
		<g>
			<path class="st5" d="M3.19,5.63h0.7c0.03,0.59,0.39,0.88,1.1,0.88c0.7,0,0.97-0.29,0.97-0.69c0-0.36-0.22-0.58-0.74-0.67
				L4.56,5.03C3.74,4.88,3.31,4.45,3.31,3.83c0-0.77,0.62-1.2,1.55-1.2c1,0,1.62,0.47,1.65,1.34h-0.7C5.78,3.46,5.48,3.2,4.86,3.2
				c-0.55,0-0.85,0.22-0.85,0.6c0,0.34,0.21,0.55,0.72,0.64l0.65,0.12C6.22,4.71,6.65,5.1,6.65,5.78c0,0.76-0.56,1.3-1.65,1.3
				C3.94,7.08,3.22,6.59,3.19,5.63z"/>
			<path class="st5" d="M7.07,5.47c0-0.96,0.58-1.62,1.54-1.62c0.95,0,1.53,0.67,1.53,1.62c0,0.96-0.58,1.63-1.54,1.63
				C7.66,7.1,7.07,6.43,7.07,5.47z M9.52,5.47c0-0.64-0.29-1.13-0.91-1.13c-0.62,0-0.91,0.49-0.91,1.13c0,0.64,0.29,1.13,0.91,1.13
				C9.23,6.6,9.52,6.11,9.52,5.47z"/>
			<path class="st5" d="M10.73,2.71h0.61V7h-0.61V2.71z"/>
			<path class="st5" d="M11.92,5.47c0-1.01,0.59-1.62,1.37-1.62c0.48,0,0.77,0.22,0.94,0.46h0.01v-1.6h0.61V7h-0.61V6.64h-0.01
				c-0.16,0.22-0.46,0.45-0.94,0.45C12.52,7.09,11.92,6.48,11.92,5.47z M14.24,5.47c0-0.69-0.32-1.12-0.85-1.12
				c-0.57,0-0.85,0.52-0.85,1.12s0.28,1.12,0.85,1.12C13.92,6.59,14.24,6.16,14.24,5.47z"/>
			<path class="st5" d="M15.54,2.75h0.68V3.4h-0.68V2.75z M15.58,3.94h0.61V7h-0.61V3.94z"/>
			<path class="st5" d="M16.77,5.46c0-0.96,0.58-1.62,1.52-1.62s1.46,0.61,1.46,1.57c0,0.08,0,0.17-0.01,0.21h-2.35
				c0.01,0.52,0.31,0.97,0.91,0.97c0.53,0,0.74-0.34,0.79-0.53h0.62c-0.16,0.58-0.62,1.03-1.42,1.03C17.32,7.1,16.77,6.4,16.77,5.46
				z M17.39,5.17h1.72c0-0.47-0.32-0.83-0.85-0.83C17.78,4.33,17.43,4.67,17.39,5.17z"/>
			<path class="st5" d="M20.33,3.94h0.61v0.58h0.01c0.16-0.36,0.41-0.61,0.82-0.61h0.28v0.58h-0.2c-0.53,0-0.91,0.38-0.91,0.94V7
				h-0.61V3.94z"/>
			<path class="st5" d="M4.45,12.31c0.69-0.45,1.04-0.63,1.04-1.22c0-0.34-0.14-0.7-0.69-0.7c-0.64,0-0.85,0.42-0.85,0.99H3.28
				c0-0.89,0.48-1.56,1.53-1.56c0.76,0,1.37,0.46,1.37,1.25c0,0.85-0.65,1.28-1.25,1.66c-0.4,0.25-0.77,0.5-0.89,0.89v0.01h2.1v0.57
				H3.18C3.18,13.39,3.65,12.83,4.45,12.31z"/>
			<path class="st5" d="M6.67,12.06c0-1.23,0.49-2.24,1.66-2.24c1.16,0,1.65,1.01,1.65,2.24c0,1.24-0.49,2.23-1.65,2.23
				C7.16,14.29,6.67,13.29,6.67,12.06z M7.58,13.31l1.07-2.87c-0.1-0.04-0.21-0.06-0.33-0.06c-0.76,0-0.99,0.78-0.99,1.68
				C7.33,12.54,7.4,13,7.58,13.31z M9.3,12.06c0-0.49-0.07-0.94-0.25-1.25l-1.07,2.87c0.1,0.04,0.21,0.06,0.34,0.06
				C9.08,13.73,9.3,12.95,9.3,12.06z"/>
			<path class="st5" d="M11.92,11.14h0.61v0.36h0.01c0.16-0.22,0.46-0.44,0.94-0.44c0.78,0,1.37,0.61,1.37,1.62
				s-0.59,1.62-1.37,1.62c-0.48,0-0.78-0.23-0.94-0.46h-0.01v1.43h-0.61V11.14z M14.21,12.67c0-0.6-0.28-1.12-0.85-1.12
				c-0.52,0-0.84,0.43-0.84,1.12s0.32,1.12,0.84,1.12C13.94,13.79,14.21,13.27,14.21,12.67z"/>
			<path class="st5" d="M16.04,12.63l-1.05-1.5h0.7l0.71,1.09h0.01l0.71-1.09h0.68l-1.04,1.5l1.16,1.57h-0.71l-0.81-1.16H16.4
				l-0.8,1.16h-0.7L16.04,12.63z"/>
		</g>
	</g>
</g>
<g id="Icons">
	<path class="st5" d="M67.99,57.27c-0.02-1.93-0.77-3.74-2.14-5.1c-1.38-1.38-3.22-2.15-5.18-2.15h-0.14h-1.07h-0.14
		c-1.96,0-3.8,0.76-5.18,2.15C52.76,53.55,52,55.38,52,57.34v3.62c0,0.95,0.57,1.78,1.45,2.13l0.39,0.15l0,0l0.22,0.09l0.45,0.18
		l-0.01,6.48l1,0l0.01-6.09l1.07,0.42l0,0l5.92,2.35V70h1v-2.83l0.76,0c0.95,0,1.73-0.78,1.73-1.73l0.01-2.18h1.09
		c0.25,0,0.49-0.12,0.64-0.32c0.15-0.2,0.2-0.47,0.12-0.71l-1.17-3.84L68,58.08L67.99,57.27L67.99,57.27z M53,60.96v-3.62
		c0-1.69,0.66-3.27,1.85-4.47c1.19-1.2,2.78-1.85,4.47-1.85h0.14h1.07h0.14c1.69,0,3.28,0.66,4.47,1.85
		c1.18,1.18,1.83,2.75,1.85,4.42l-3,0.72h-4.6c-1.2,0-2.26,0.8-2.6,1.95l-0.88,3.04l-1.09-0.43l-1.01-0.4
		C53.32,61.97,53,61.5,53,60.96z M66.8,62.26H65l-0.01,3.18c0,0.4-0.33,0.73-0.73,0.73l-0.33,0l-7.07-2.81l0.91-3.13
		c0.21-0.72,0.88-1.23,1.64-1.23h4.66l1.64-0.39L66.8,62.26z"/>
</g>
<g id="Grid" class="st0">
	<g class="st3">
		<rect x="50" y="50" class="st7" width="20" height="20"/>
		<g>
			<line class="st7" x1="51" y1="50" x2="51" y2="70"/>
			<line class="st7" x1="52" y1="50" x2="52" y2="70"/>
			<line class="st7" x1="53" y1="50" x2="53" y2="70"/>
			<line class="st7" x1="54" y1="50" x2="54" y2="70"/>
			<line class="st7" x1="55" y1="50" x2="55" y2="70"/>
			<line class="st7" x1="56" y1="50" x2="56" y2="70"/>
			<line class="st7" x1="57" y1="50" x2="57" y2="70"/>
			<line class="st7" x1="58" y1="50" x2="58" y2="70"/>
			<line class="st7" x1="59" y1="50" x2="59" y2="70"/>
			<line class="st7" x1="60" y1="50" x2="60" y2="70"/>
			<line class="st7" x1="61" y1="50" x2="61" y2="70"/>
			<line class="st7" x1="62" y1="50" x2="62" y2="70"/>
			<line class="st7" x1="63" y1="50" x2="63" y2="70"/>
			<line class="st7" x1="64" y1="50" x2="64" y2="70"/>
			<line class="st7" x1="65" y1="50" x2="65" y2="70"/>
			<line class="st7" x1="66" y1="50" x2="66" y2="70"/>
			<line class="st7" x1="67" y1="50" x2="67" y2="70"/>
			<line class="st7" x1="68" y1="50" x2="68" y2="70"/>
			<line class="st7" x1="69" y1="50" x2="69" y2="70"/>
		</g>
		<g>
			<line class="st7" x1="70" y1="51" x2="50" y2="51"/>
			<line class="st7" x1="70" y1="52" x2="50" y2="52"/>
			<line class="st7" x1="70" y1="53" x2="50" y2="53"/>
			<line class="st7" x1="70" y1="54" x2="50" y2="54"/>
			<line class="st7" x1="70" y1="55" x2="50" y2="55"/>
			<line class="st7" x1="70" y1="56" x2="50" y2="56"/>
			<line class="st7" x1="70" y1="57" x2="50" y2="57"/>
			<line class="st7" x1="70" y1="58" x2="50" y2="58"/>
			<line class="st7" x1="70" y1="59" x2="50" y2="59"/>
			<line class="st7" x1="70" y1="60" x2="50" y2="60"/>
			<line class="st7" x1="70" y1="61" x2="50" y2="61"/>
			<line class="st7" x1="70" y1="62" x2="50" y2="62"/>
			<line class="st7" x1="70" y1="63" x2="50" y2="63"/>
			<line class="st7" x1="70" y1="64" x2="50" y2="64"/>
			<line class="st7" x1="70" y1="65" x2="50" y2="65"/>
			<line class="st7" x1="70" y1="66" x2="50" y2="66"/>
			<line class="st7" x1="70" y1="67" x2="50" y2="67"/>
			<line class="st7" x1="70" y1="68" x2="50" y2="68"/>
			<line class="st7" x1="70" y1="69" x2="50" y2="69"/>
		</g>
	</g>
</g>
</svg>
