<?xml version="1.0" encoding="utf-8"?>
<!-- Generator: Adobe Illustrator 27.1.1, SVG Export Plug-In . SVG Version: 6.00 Build 0)  -->
<svg version="1.1" xmlns="http://www.w3.org/2000/svg" xmlns:xlink="http://www.w3.org/1999/xlink" x="0px" y="0px"
	 viewBox="0 0 120 120" style="enable-background:new 0 0 120 120;" xml:space="preserve">
<style type="text/css">
	.st0{display:none;}
	.st1{display:inline;fill:#FFFFFF;}
	.st2{display:inline;fill:#221F20;}
	.st3{display:inline;}
	.st4{fill:#221F20;}
	.st5{fill:#FFFFFF;}
	.st6{fill:#FFCC01;}
	.st7{fill:none;stroke:#646464;stroke-width:0.035;stroke-miterlimit:10;}
</style>
<g id="Labels__x26__Base" class="st0">
	<rect class="st2" width="120" height="120"/>
	<g class="st3">
		<g>
			<path class="st5" d="M3.52,1.99h0.79v2.09h2.42V1.99h0.8V7h-0.8V4.76H4.31V7H3.52V1.99z"/>
			<path class="st5" d="M8.3,5.21c0-1.12,0.68-1.89,1.77-1.89c1.09,0,1.7,0.71,1.7,1.83c0,0.09,0,0.2-0.01,0.25H9.03
				C9.04,6,9.39,6.53,10.08,6.53c0.62,0,0.86-0.39,0.92-0.62h0.72c-0.19,0.68-0.72,1.21-1.66,1.21C8.94,7.11,8.3,6.3,8.3,5.21z
				 M9.03,4.86h2.01c0-0.55-0.38-0.97-0.99-0.97C9.48,3.88,9.07,4.28,9.03,4.86z"/>
			<path class="st5" d="M12.24,6.08c0-0.8,0.6-1.04,1.48-1.2c0.55-0.11,0.9-0.17,0.9-0.53c0-0.26-0.15-0.47-0.67-0.47
				c-0.59,0-0.78,0.2-0.81,0.67h-0.71c0.04-0.69,0.48-1.23,1.55-1.23c0.75,0,1.33,0.31,1.33,1.24V7h-0.67V6.57h-0.01
				c-0.24,0.33-0.64,0.54-1.22,0.54C12.69,7.1,12.24,6.69,12.24,6.08z M14.63,5.6V5.13c-0.11,0.1-0.42,0.17-0.78,0.25
				c-0.62,0.13-0.88,0.29-0.88,0.64c0,0.33,0.17,0.51,0.6,0.51C14.19,6.54,14.63,6.22,14.63,5.6z"/>
			<path class="st5" d="M16.12,1.99h0.71V7h-0.71V1.99z"/>
			<path class="st5" d="M17.96,6.05V4h-0.52V3.42h0.52V2.59h0.71v0.83h0.82V4h-0.82v2.01c0,0.31,0.1,0.37,0.4,0.37h0.43V7h-0.59
				C18.32,7,17.96,6.8,17.96,6.05z"/>
			<path class="st5" d="M20.17,1.99h0.71v1.81h0.01c0.18-0.24,0.53-0.48,1.11-0.48c0.7,0,1.26,0.38,1.26,1.2V7h-0.71V4.72
				c0-0.48-0.21-0.8-0.72-0.8c-0.58,0-0.95,0.35-0.95,0.89V7h-0.71V1.99z"/>
			<path class="st5" d="M23.89,5.21c0-1.12,0.69-1.89,1.76-1.89c0.92,0,1.53,0.59,1.62,1.4h-0.73C26.51,4.36,26.3,3.9,25.66,3.9
				c-0.75,0-1.03,0.64-1.03,1.31c0,0.67,0.28,1.31,1.03,1.31c0.64,0,0.85-0.45,0.88-0.85h0.73C27.22,6.5,26.58,7.1,25.66,7.1
				C24.59,7.1,23.89,6.33,23.89,5.21z"/>
			<path class="st5" d="M27.71,6.08c0-0.8,0.6-1.04,1.48-1.2c0.55-0.11,0.9-0.17,0.9-0.53c0-0.26-0.15-0.47-0.67-0.47
				c-0.59,0-0.78,0.2-0.81,0.67h-0.71c0.04-0.69,0.48-1.23,1.55-1.23c0.75,0,1.33,0.31,1.33,1.24V7h-0.67V6.57H30.1
				c-0.24,0.33-0.64,0.54-1.22,0.54C28.16,7.1,27.71,6.69,27.71,6.08z M30.1,5.6V5.13c-0.11,0.1-0.42,0.17-0.78,0.25
				c-0.62,0.13-0.88,0.29-0.88,0.64c0,0.33,0.17,0.51,0.6,0.51C29.66,6.54,30.1,6.22,30.1,5.6z"/>
			<path class="st5" d="M31.59,3.42h0.71V4.1h0.01c0.18-0.42,0.48-0.71,0.96-0.71h0.32v0.67h-0.23c-0.62,0-1.06,0.45-1.06,1.1V7
				h-0.71V3.42z"/>
			<path class="st5" d="M34.04,5.21c0-1.12,0.68-1.89,1.77-1.89c1.09,0,1.7,0.71,1.7,1.83c0,0.09,0,0.2-0.01,0.25h-2.74
				c0.01,0.6,0.36,1.13,1.06,1.13c0.62,0,0.86-0.39,0.92-0.62h0.72c-0.19,0.68-0.72,1.21-1.66,1.21C34.68,7.11,34.04,6.3,34.04,5.21
				z M34.77,4.86h2.01c0-0.55-0.38-0.97-0.99-0.97C35.22,3.88,34.81,4.28,34.77,4.86z"/>
			<path class="st5" d="M4.69,13.19c0.81-0.53,1.22-0.74,1.22-1.42c0-0.4-0.16-0.82-0.81-0.82c-0.75,0-0.99,0.49-0.99,1.16H3.33
				c0-1.04,0.56-1.82,1.79-1.82c0.88,0,1.6,0.53,1.6,1.46c0,0.99-0.76,1.49-1.46,1.94c-0.46,0.29-0.9,0.59-1.04,1.04v0.01h2.45v0.67
				H3.21C3.21,14.45,3.76,13.8,4.69,13.19z"/>
			<path class="st5" d="M7.28,12.9c0-1.44,0.57-2.61,1.93-2.61c1.35,0,1.93,1.18,1.93,2.61c0,1.44-0.57,2.61-1.93,2.61
				C7.85,15.5,7.28,14.34,7.28,12.9z M8.35,14.36l1.25-3.36c-0.11-0.04-0.25-0.07-0.39-0.07c-0.89,0-1.16,0.91-1.16,1.96
				C8.05,13.47,8.13,14,8.35,14.36z M10.36,12.9c0-0.57-0.08-1.1-0.29-1.46l-1.25,3.35c0.11,0.04,0.25,0.07,0.39,0.07
				C10.1,14.85,10.36,13.94,10.36,12.9z"/>
			<path class="st5" d="M13.4,11.82h0.71v0.42h0.01c0.19-0.25,0.54-0.52,1.1-0.52c0.91,0,1.6,0.71,1.6,1.89
				c0,1.18-0.69,1.89-1.6,1.89c-0.56,0-0.91-0.27-1.1-0.54h-0.01v1.67H13.4V11.82z M16.08,13.61c0-0.7-0.32-1.31-0.99-1.31
				c-0.61,0-0.98,0.5-0.98,1.31c0,0.81,0.37,1.31,0.98,1.31C15.76,14.92,16.08,14.31,16.08,13.61z"/>
			<path class="st5" d="M18.22,13.57l-1.23-1.75h0.81l0.83,1.28h0.01l0.83-1.28h0.8l-1.22,1.75l1.35,1.83h-0.83l-0.95-1.36h-0.01
				l-0.94,1.36h-0.82L18.22,13.57z"/>
		</g>
	</g>
</g>
<g id="Icons">
	<path class="st5" d="M70,50.5c0-0.28-0.22-0.5-0.5-0.5h-2c-0.28,0-0.5,0.22-0.5,0.5s0.22,0.5,0.5,0.5h1.44
		c-0.16,1.42-0.6,5.29-0.94,7.94C67.64,61.79,65.98,62,63.49,62c-2.48,0-4.14-0.21-4.49-3.06c-0.33-2.65-0.77-6.52-0.94-7.94h1.44
		c0.28,0,0.5-0.22,0.5-0.5S59.78,50,59.5,50h-2c-0.28,0-0.5,0.22-0.5,0.5c0,0.02,0.01,0.04,0.01,0.05l-0.01,0c0,0,0.59,5.2,1,8.51
		c0.46,3.64,2.96,3.91,5,3.94v4.78c0,0.48-0.21,0.88-0.58,1.08c-0.4,0.22-0.9,0.17-1.34-0.09l-7.3-5.88C53.92,62.62,54,62.32,54,62
		c0-1.1-0.9-2-2-2s-2,0.9-2,2s0.9,2,2,2c0.42,0,0.81-0.13,1.13-0.35l7.38,5.94c0.44,0.28,0.92,0.42,1.37,0.42
		c0.36,0,0.71-0.09,1.03-0.26c0.69-0.38,1.09-1.11,1.09-1.96V63c2.04-0.02,4.54-0.31,5-3.93c0.42-3.3,1-8.51,1-8.51l-0.01,0
		C69.99,50.54,70,50.52,70,50.5z M51,62c0-0.55,0.45-1,1-1s1,0.45,1,1s-0.45,1-1,1S51,62.55,51,62z"/>
</g>
<g id="Grid" class="st0">
	<g class="st3">
		<rect x="50" y="50" class="st7" width="20" height="20"/>
		<g>
			<line class="st7" x1="51" y1="50" x2="51" y2="70"/>
			<line class="st7" x1="52" y1="50" x2="52" y2="70"/>
			<line class="st7" x1="53" y1="50" x2="53" y2="70"/>
			<line class="st7" x1="54" y1="50" x2="54" y2="70"/>
			<line class="st7" x1="55" y1="50" x2="55" y2="70"/>
			<line class="st7" x1="56" y1="50" x2="56" y2="70"/>
			<line class="st7" x1="57" y1="50" x2="57" y2="70"/>
			<line class="st7" x1="58" y1="50" x2="58" y2="70"/>
			<line class="st7" x1="59" y1="50" x2="59" y2="70"/>
			<line class="st7" x1="60" y1="50" x2="60" y2="70"/>
			<line class="st7" x1="61" y1="50" x2="61" y2="70"/>
			<line class="st7" x1="62" y1="50" x2="62" y2="70"/>
			<line class="st7" x1="63" y1="50" x2="63" y2="70"/>
			<line class="st7" x1="64" y1="50" x2="64" y2="70"/>
			<line class="st7" x1="65" y1="50" x2="65" y2="70"/>
			<line class="st7" x1="66" y1="50" x2="66" y2="70"/>
			<line class="st7" x1="67" y1="50" x2="67" y2="70"/>
			<line class="st7" x1="68" y1="50" x2="68" y2="70"/>
			<line class="st7" x1="69" y1="50" x2="69" y2="70"/>
		</g>
		<g>
			<line class="st7" x1="70" y1="51" x2="50" y2="51"/>
			<line class="st7" x1="70" y1="52" x2="50" y2="52"/>
			<line class="st7" x1="70" y1="53" x2="50" y2="53"/>
			<line class="st7" x1="70" y1="54" x2="50" y2="54"/>
			<line class="st7" x1="70" y1="55" x2="50" y2="55"/>
			<line class="st7" x1="70" y1="56" x2="50" y2="56"/>
			<line class="st7" x1="70" y1="57" x2="50" y2="57"/>
			<line class="st7" x1="70" y1="58" x2="50" y2="58"/>
			<line class="st7" x1="70" y1="59" x2="50" y2="59"/>
			<line class="st7" x1="70" y1="60" x2="50" y2="60"/>
			<line class="st7" x1="70" y1="61" x2="50" y2="61"/>
			<line class="st7" x1="70" y1="62" x2="50" y2="62"/>
			<line class="st7" x1="70" y1="63" x2="50" y2="63"/>
			<line class="st7" x1="70" y1="64" x2="50" y2="64"/>
			<line class="st7" x1="70" y1="65" x2="50" y2="65"/>
			<line class="st7" x1="70" y1="66" x2="50" y2="66"/>
			<line class="st7" x1="70" y1="67" x2="50" y2="67"/>
			<line class="st7" x1="70" y1="68" x2="50" y2="68"/>
			<line class="st7" x1="70" y1="69" x2="50" y2="69"/>
		</g>
	</g>
</g>
</svg>
