<?xml version="1.0" encoding="utf-8"?>
<!-- Generator: Adobe Illustrator 27.1.1, SVG Export Plug-In . SVG Version: 6.00 Build 0)  -->
<svg version="1.1" xmlns="http://www.w3.org/2000/svg" xmlns:xlink="http://www.w3.org/1999/xlink" x="0px" y="0px"
	 viewBox="0 0 120 120" style="enable-background:new 0 0 120 120;" xml:space="preserve">
<style type="text/css">
	.st0{display:none;}
	.st1{display:inline;fill:#FFFFFF;}
	.st2{display:inline;fill:#221F20;}
	.st3{display:inline;}
	.st4{fill:#221F20;}
	.st5{fill:#FFFFFF;}
	.st6{fill:#FFCC01;}
	.st7{fill:none;stroke:#646464;stroke-width:0.035;stroke-miterlimit:10;}
</style>
<g id="Labels__x26__Base" class="st0">
	<rect class="st2" width="120" height="120"/>
	<g class="st3">
		<g>
			<path class="st5" d="M3.44,2.71h2.98v0.58h-2.3v1.28h1.86v0.58H4.12V7H3.44V2.71z"/>
			<path class="st5" d="M6.88,2.75h0.68V3.4H6.88V2.75z M6.91,3.94h0.61V7H6.91V3.94z"/>
			<path class="st5" d="M8.48,6.18V4.43H8.04v-0.5h0.44V3.23h0.61v0.71h0.7v0.5h-0.7v1.72c0,0.26,0.09,0.32,0.34,0.32H9.8V7H9.3
				C8.79,7,8.48,6.83,8.48,6.18z"/>
			<path class="st5" d="M10.38,3.94h0.61v0.33H11c0.15-0.2,0.45-0.41,0.95-0.41c0.6,0,1.08,0.33,1.08,1.03V7h-0.61V5.05
				c0-0.41-0.18-0.68-0.62-0.68c-0.5,0-0.82,0.3-0.82,0.76V7h-0.61V3.94z"/>
			<path class="st5" d="M13.57,5.46c0-0.96,0.58-1.62,1.52-1.62s1.46,0.61,1.46,1.57c0,0.08,0,0.17-0.01,0.21h-2.34
				c0.01,0.52,0.31,0.97,0.91,0.97c0.53,0,0.74-0.34,0.79-0.53h0.62c-0.16,0.58-0.62,1.03-1.42,1.03C14.12,7.1,13.57,6.4,13.57,5.46
				z M14.19,5.17h1.72c0-0.47-0.32-0.83-0.85-0.83C14.58,4.33,14.23,4.67,14.19,5.17z"/>
			<path class="st5" d="M16.96,6.02h0.6c0.02,0.37,0.25,0.58,0.77,0.58c0.5,0,0.67-0.2,0.67-0.44s-0.14-0.38-0.48-0.44l-0.54-0.09
				c-0.57-0.1-0.94-0.35-0.94-0.89c0-0.54,0.44-0.89,1.22-0.89c0.87,0,1.23,0.41,1.25,0.97H18.9c-0.01-0.31-0.18-0.5-0.64-0.5
				c-0.39,0-0.59,0.14-0.59,0.38c0,0.23,0.14,0.35,0.47,0.41l0.54,0.09c0.58,0.1,0.95,0.38,0.95,0.92c0,0.61-0.47,0.96-1.31,0.96
				C17.38,7.08,16.97,6.64,16.96,6.02z"/>
			<path class="st5" d="M20.03,6.02h0.6c0.02,0.37,0.25,0.58,0.77,0.58c0.5,0,0.67-0.2,0.67-0.44s-0.14-0.38-0.48-0.44l-0.54-0.09
				c-0.57-0.1-0.94-0.35-0.94-0.89c0-0.54,0.44-0.89,1.22-0.89c0.87,0,1.23,0.41,1.25,0.97h-0.61c-0.01-0.31-0.18-0.5-0.64-0.5
				c-0.39,0-0.59,0.14-0.59,0.38c0,0.23,0.14,0.35,0.47,0.41l0.54,0.09c0.58,0.1,0.95,0.38,0.95,0.92c0,0.61-0.47,0.96-1.31,0.96
				C20.44,7.08,20.03,6.64,20.03,6.02z"/>
			<path class="st5" d="M4.45,12.31c0.69-0.45,1.04-0.63,1.04-1.22c0-0.34-0.14-0.7-0.69-0.7c-0.64,0-0.85,0.42-0.85,0.99H3.28
				c0-0.89,0.48-1.56,1.53-1.56c0.76,0,1.37,0.46,1.37,1.25c0,0.85-0.65,1.28-1.25,1.66c-0.4,0.25-0.77,0.5-0.89,0.89v0.01h2.1v0.57
				H3.18C3.18,13.39,3.65,12.83,4.45,12.31z"/>
			<path class="st5" d="M6.67,12.06c0-1.23,0.49-2.24,1.66-2.24c1.16,0,1.65,1.01,1.65,2.24c0,1.24-0.49,2.23-1.65,2.23
				C7.16,14.29,6.67,13.29,6.67,12.06z M7.58,13.31l1.07-2.87c-0.1-0.04-0.21-0.06-0.34-0.06c-0.76,0-0.99,0.78-0.99,1.68
				C7.33,12.54,7.4,13,7.58,13.31z M9.3,12.06c0-0.49-0.07-0.94-0.25-1.25l-1.07,2.87c0.1,0.04,0.21,0.06,0.34,0.06
				C9.08,13.73,9.3,12.95,9.3,12.06z"/>
			<path class="st5" d="M11.92,11.14h0.61v0.36h0.01c0.16-0.22,0.46-0.44,0.94-0.44c0.78,0,1.37,0.61,1.37,1.62
				s-0.59,1.62-1.37,1.62c-0.48,0-0.78-0.23-0.94-0.46h-0.01v1.43h-0.61V11.14z M14.21,12.67c0-0.6-0.28-1.12-0.85-1.12
				c-0.52,0-0.84,0.43-0.84,1.12s0.32,1.12,0.84,1.12C13.94,13.79,14.21,13.27,14.21,12.67z"/>
			<path class="st5" d="M16.04,12.63l-1.05-1.5h0.7l0.71,1.09h0.01l0.71-1.09h0.68l-1.04,1.5l1.16,1.57h-0.71l-0.81-1.16H16.4
				l-0.8,1.16h-0.7L16.04,12.63z"/>
		</g>
	</g>
</g>
<g id="Icons">
	<path class="st5" d="M68,58v-3.65c0-0.75-0.61-1.35-1.35-1.35h-2.3C63.61,53,63,53.61,63,54.35V58h-6v-3.65
		c0-0.75-0.61-1.35-1.35-1.35h-2.3C52.61,53,52,53.61,52,54.35V58h-2v4h2v3.65c0,0.75,0.61,1.35,1.35,1.35h2.3
		c0.74,0,1.35-0.61,1.35-1.35V62h6v3.65c0,0.75,0.61,1.35,1.35,1.35h2.3c0.74,0,1.35-0.61,1.35-1.35V62h2v-4H68z M52,61h-1v-2h1V61z
		 M56,65.65c0,0.19-0.16,0.35-0.35,0.35h-2.3C53.16,66,53,65.84,53,65.65v-11.3c0-0.19,0.16-0.35,0.35-0.35h2.3
		c0.19,0,0.35,0.16,0.35,0.35V65.65z M57,61v-2h6v2H57z M67,65.65c0,0.19-0.16,0.35-0.35,0.35h-2.3C64.16,66,64,65.84,64,65.65
		v-11.3c0-0.19,0.16-0.35,0.35-0.35h2.3c0.19,0,0.35,0.16,0.35,0.35V65.65z M69,61h-1v-2h1V61z"/>
</g>
<g id="Grid" class="st0">
	<g class="st3">
		<rect x="50" y="50" class="st7" width="20" height="20"/>
		<g>
			<line class="st7" x1="51" y1="50" x2="51" y2="70"/>
			<line class="st7" x1="52" y1="50" x2="52" y2="70"/>
			<line class="st7" x1="53" y1="50" x2="53" y2="70"/>
			<line class="st7" x1="54" y1="50" x2="54" y2="70"/>
			<line class="st7" x1="55" y1="50" x2="55" y2="70"/>
			<line class="st7" x1="56" y1="50" x2="56" y2="70"/>
			<line class="st7" x1="57" y1="50" x2="57" y2="70"/>
			<line class="st7" x1="58" y1="50" x2="58" y2="70"/>
			<line class="st7" x1="59" y1="50" x2="59" y2="70"/>
			<line class="st7" x1="60" y1="50" x2="60" y2="70"/>
			<line class="st7" x1="61" y1="50" x2="61" y2="70"/>
			<line class="st7" x1="62" y1="50" x2="62" y2="70"/>
			<line class="st7" x1="63" y1="50" x2="63" y2="70"/>
			<line class="st7" x1="64" y1="50" x2="64" y2="70"/>
			<line class="st7" x1="65" y1="50" x2="65" y2="70"/>
			<line class="st7" x1="66" y1="50" x2="66" y2="70"/>
			<line class="st7" x1="67" y1="50" x2="67" y2="70"/>
			<line class="st7" x1="68" y1="50" x2="68" y2="70"/>
			<line class="st7" x1="69" y1="50" x2="69" y2="70"/>
		</g>
		<g>
			<line class="st7" x1="70" y1="51" x2="50" y2="51"/>
			<line class="st7" x1="70" y1="52" x2="50" y2="52"/>
			<line class="st7" x1="70" y1="53" x2="50" y2="53"/>
			<line class="st7" x1="70" y1="54" x2="50" y2="54"/>
			<line class="st7" x1="70" y1="55" x2="50" y2="55"/>
			<line class="st7" x1="70" y1="56" x2="50" y2="56"/>
			<line class="st7" x1="70" y1="57" x2="50" y2="57"/>
			<line class="st7" x1="70" y1="58" x2="50" y2="58"/>
			<line class="st7" x1="70" y1="59" x2="50" y2="59"/>
			<line class="st7" x1="70" y1="60" x2="50" y2="60"/>
			<line class="st7" x1="70" y1="61" x2="50" y2="61"/>
			<line class="st7" x1="70" y1="62" x2="50" y2="62"/>
			<line class="st7" x1="70" y1="63" x2="50" y2="63"/>
			<line class="st7" x1="70" y1="64" x2="50" y2="64"/>
			<line class="st7" x1="70" y1="65" x2="50" y2="65"/>
			<line class="st7" x1="70" y1="66" x2="50" y2="66"/>
			<line class="st7" x1="70" y1="67" x2="50" y2="67"/>
			<line class="st7" x1="70" y1="68" x2="50" y2="68"/>
			<line class="st7" x1="70" y1="69" x2="50" y2="69"/>
		</g>
	</g>
</g>
</svg>
