<?xml version="1.0" encoding="utf-8"?>
<!-- Generator: Adobe Illustrator 27.1.1, SVG Export Plug-In . SVG Version: 6.00 Build 0)  -->
<svg version="1.1" xmlns="http://www.w3.org/2000/svg" xmlns:xlink="http://www.w3.org/1999/xlink" x="0px" y="0px"
	 viewBox="0 0 120 120" style="enable-background:new 0 0 120 120;" xml:space="preserve">
<style type="text/css">
	.st0{display:none;}
	.st1{display:inline;fill:#FFFFFF;}
	.st2{display:inline;fill:#221F20;}
	.st3{display:inline;}
	.st4{fill:#221F20;}
	.st5{fill:#FFFFFF;}
	.st6{fill:#FFCC01;}
	.st7{fill:none;stroke:#646464;stroke-width:0.035;stroke-miterlimit:10;}
</style>
<g id="Labels__x26__Base" class="st0">
	<rect class="st2" width="120" height="120"/>
	<g class="st3">
		<g>
			<path class="st5" d="M3.52,1.99h1.04L5.98,5.9H6l1.43-3.91h1.04V7H7.69V3.14H7.67L6.31,7H5.67L4.31,3.14H4.3V7H3.52V1.99z"/>
			<path class="st5" d="M9.23,5.21c0-1.12,0.68-1.9,1.8-1.9c1.11,0,1.79,0.78,1.79,1.89c0,1.12-0.67,1.91-1.79,1.91
				C9.91,7.11,9.23,6.33,9.23,5.21z M12.09,5.21c0-0.75-0.34-1.32-1.06-1.32c-0.73,0-1.06,0.57-1.06,1.32
				c0,0.74,0.34,1.32,1.06,1.32C11.74,6.53,12.09,5.96,12.09,5.21z"/>
			<path class="st5" d="M13.49,3.42h0.71v0.38h0.01c0.18-0.24,0.53-0.48,1.11-0.48c0.7,0,1.26,0.38,1.26,1.2V7h-0.71V4.72
				c0-0.48-0.21-0.8-0.72-0.8c-0.58,0-0.95,0.35-0.95,0.89V7h-0.71V3.42z"/>
			<path class="st5" d="M17.22,5.21c0-1.12,0.68-1.89,1.77-1.89c1.09,0,1.7,0.71,1.7,1.83c0,0.09,0,0.2-0.01,0.25h-2.74
				C17.96,6,18.31,6.53,19,6.53c0.62,0,0.86-0.39,0.92-0.62h0.72c-0.19,0.68-0.72,1.21-1.66,1.21C17.85,7.11,17.22,6.3,17.22,5.21z
				 M17.95,4.86h2.01c0-0.55-0.38-0.97-0.99-0.97C18.4,3.88,17.99,4.28,17.95,4.86z"/>
			<path class="st5" d="M21.26,8.24V7.61h0.29c0.27,0,0.6-0.13,0.74-0.65l-1.33-3.54h0.77l0.92,2.72h0.01l0.92-2.72h0.73l-1.34,3.66
				c-0.36,0.88-0.74,1.16-1.32,1.16H21.26z"/>
			<path class="st5" d="M28.11,1.99h0.65L26.82,7h-0.65L28.11,1.99z"/>
			<path class="st5" d="M30.99,1.99h2.1c0.95,0,1.65,0.44,1.65,1.49c0,1.05-0.69,1.49-1.65,1.49h-1.31V7h-0.79V1.99z M33.91,3.48
				c0-0.56-0.29-0.81-0.86-0.81h-1.27V4.3h1.27C33.63,4.3,33.91,4.04,33.91,3.48z"/>
			<path class="st5" d="M35.06,6.08c0-0.8,0.6-1.04,1.48-1.2c0.55-0.11,0.9-0.17,0.9-0.53c0-0.26-0.15-0.47-0.67-0.47
				c-0.59,0-0.78,0.2-0.81,0.67h-0.71c0.04-0.69,0.48-1.23,1.55-1.23c0.75,0,1.33,0.31,1.33,1.24V7h-0.67V6.57h-0.01
				C37.21,6.89,36.8,7.1,36.23,7.1C35.51,7.1,35.06,6.69,35.06,6.08z M37.45,5.6V5.13c-0.11,0.1-0.42,0.17-0.78,0.25
				c-0.62,0.13-0.88,0.29-0.88,0.64c0,0.33,0.17,0.51,0.6,0.51C37.01,6.54,37.45,6.22,37.45,5.6z"/>
			<path class="st5" d="M38.83,8.24V7.61h0.29c0.27,0,0.6-0.13,0.74-0.65l-1.33-3.54h0.77l0.92,2.72h0.01l0.92-2.72h0.73l-1.34,3.66
				c-0.36,0.88-0.74,1.16-1.32,1.16H38.83z"/>
			<path class="st5" d="M4.69,13.19c0.81-0.53,1.22-0.74,1.22-1.42c0-0.4-0.16-0.82-0.81-0.82c-0.75,0-0.99,0.49-0.99,1.16H3.33
				c0-1.04,0.56-1.82,1.79-1.82c0.88,0,1.6,0.53,1.6,1.46c0,0.99-0.76,1.49-1.46,1.94c-0.46,0.29-0.9,0.59-1.04,1.04v0.01h2.45v0.67
				H3.21C3.21,14.45,3.76,13.8,4.69,13.19z"/>
			<path class="st5" d="M7.28,12.9c0-1.44,0.57-2.61,1.93-2.61c1.35,0,1.93,1.18,1.93,2.61c0,1.44-0.57,2.61-1.93,2.61
				C7.85,15.5,7.28,14.34,7.28,12.9z M8.35,14.36l1.25-3.36c-0.11-0.04-0.25-0.07-0.39-0.07c-0.89,0-1.16,0.91-1.16,1.96
				C8.05,13.47,8.13,14,8.35,14.36z M10.36,12.9c0-0.57-0.08-1.1-0.29-1.46l-1.25,3.35c0.11,0.04,0.25,0.07,0.39,0.07
				C10.1,14.85,10.36,13.94,10.36,12.9z"/>
			<path class="st5" d="M13.4,11.82h0.71v0.42h0.01c0.19-0.25,0.54-0.52,1.1-0.52c0.91,0,1.6,0.71,1.6,1.89
				c0,1.18-0.69,1.89-1.6,1.89c-0.56,0-0.91-0.27-1.1-0.54h-0.01v1.67H13.4V11.82z M16.08,13.61c0-0.7-0.32-1.31-0.99-1.31
				c-0.61,0-0.98,0.5-0.98,1.31c0,0.81,0.37,1.31,0.98,1.31C15.76,14.92,16.08,14.31,16.08,13.61z"/>
			<path class="st5" d="M18.22,13.57l-1.23-1.75h0.81l0.83,1.28h0.01l0.83-1.28h0.8l-1.22,1.75l1.35,1.83h-0.83l-0.95-1.36h-0.01
				l-0.94,1.36h-0.82L18.22,13.57z"/>
		</g>
	</g>
</g>
<g id="Icons">
	<path class="st5" d="M60,50c-5.51,0-10,4.49-10,10s4.49,10,10,10s10-4.49,10-10S65.51,50,60,50z M60,69c-4.96,0-9-4.04-9-9
		s4.04-9,9-9s9,4.04,9,9S64.96,69,60,69z M63,58h1c0-2.06-1.5-3.69-3.5-3.93l0-1.57h-1l0,1.56c-1.97,0.21-3.5,1.6-3.5,3.29
		c0,1.61,1.53,2.93,3.5,3.13l0,4.49C58.06,64.74,57,63.52,57,62h-1c0,2.08,1.5,3.73,3.5,3.97l0,1.53h1l0-1.52
		c1.97-0.21,3.5-1.6,3.5-3.29c0-1.61-1.53-2.93-3.5-3.13l0-4.49C61.93,55.3,63,56.5,63,58z M57,57.35c0-1.15,1.08-2.11,2.5-2.29
		l0,4.42C58.08,59.31,57,58.42,57,57.35z M63,62.69c0,1.15-1.08,2.11-2.5,2.29l0-4.42C61.92,60.73,63,61.61,63,62.69z"/>
</g>
<g id="Grid" class="st0">
	<g class="st3">
		<rect x="50" y="50" class="st7" width="20" height="20"/>
		<g>
			<line class="st7" x1="51" y1="50" x2="51" y2="70"/>
			<line class="st7" x1="52" y1="50" x2="52" y2="70"/>
			<line class="st7" x1="53" y1="50" x2="53" y2="70"/>
			<line class="st7" x1="54" y1="50" x2="54" y2="70"/>
			<line class="st7" x1="55" y1="50" x2="55" y2="70"/>
			<line class="st7" x1="56" y1="50" x2="56" y2="70"/>
			<line class="st7" x1="57" y1="50" x2="57" y2="70"/>
			<line class="st7" x1="58" y1="50" x2="58" y2="70"/>
			<line class="st7" x1="59" y1="50" x2="59" y2="70"/>
			<line class="st7" x1="60" y1="50" x2="60" y2="70"/>
			<line class="st7" x1="61" y1="50" x2="61" y2="70"/>
			<line class="st7" x1="62" y1="50" x2="62" y2="70"/>
			<line class="st7" x1="63" y1="50" x2="63" y2="70"/>
			<line class="st7" x1="64" y1="50" x2="64" y2="70"/>
			<line class="st7" x1="65" y1="50" x2="65" y2="70"/>
			<line class="st7" x1="66" y1="50" x2="66" y2="70"/>
			<line class="st7" x1="67" y1="50" x2="67" y2="70"/>
			<line class="st7" x1="68" y1="50" x2="68" y2="70"/>
			<line class="st7" x1="69" y1="50" x2="69" y2="70"/>
		</g>
		<g>
			<line class="st7" x1="70" y1="51" x2="50" y2="51"/>
			<line class="st7" x1="70" y1="52" x2="50" y2="52"/>
			<line class="st7" x1="70" y1="53" x2="50" y2="53"/>
			<line class="st7" x1="70" y1="54" x2="50" y2="54"/>
			<line class="st7" x1="70" y1="55" x2="50" y2="55"/>
			<line class="st7" x1="70" y1="56" x2="50" y2="56"/>
			<line class="st7" x1="70" y1="57" x2="50" y2="57"/>
			<line class="st7" x1="70" y1="58" x2="50" y2="58"/>
			<line class="st7" x1="70" y1="59" x2="50" y2="59"/>
			<line class="st7" x1="70" y1="60" x2="50" y2="60"/>
			<line class="st7" x1="70" y1="61" x2="50" y2="61"/>
			<line class="st7" x1="70" y1="62" x2="50" y2="62"/>
			<line class="st7" x1="70" y1="63" x2="50" y2="63"/>
			<line class="st7" x1="70" y1="64" x2="50" y2="64"/>
			<line class="st7" x1="70" y1="65" x2="50" y2="65"/>
			<line class="st7" x1="70" y1="66" x2="50" y2="66"/>
			<line class="st7" x1="70" y1="67" x2="50" y2="67"/>
			<line class="st7" x1="70" y1="68" x2="50" y2="68"/>
			<line class="st7" x1="70" y1="69" x2="50" y2="69"/>
		</g>
	</g>
</g>
</svg>
