<?xml version="1.0" encoding="utf-8"?>
<!-- Generator: Adobe Illustrator 26.5.0, SVG Export Plug-In . SVG Version: 6.00 Build 0)  -->
<svg version="1.1" id="logo1" xmlns="http://www.w3.org/2000/svg" xmlns:xlink="http://www.w3.org/1999/xlink" x="0px" y="0px"
	 viewBox="0 0 1014.9 241.8" style="enable-background:new 0 0 1014.9 241.8;" xml:space="preserve">
<style type="text/css">
	.st0{fill:#FFCC01;}
	.st1{fill:#221F20;}
</style>
<path class="st0" d="M252,92.8h-95.5L127,2L97.5,92.8H2L79.3,149l-29.5,90.8l77.3-56.1l77.3,56.1L174.8,149L252,92.8L252,92.8z
	 M127,155.8l-34.4,25l13.1-40.4l-34.4-25h42.5L127,75l13.1,40.4h42.5l-34.4,25l13.1,40.4L127,155.8L127,155.8z"/>
<path class="st1" d="M353.3,92.8h26.3v91.9c0,15-10.5,24.2-26.5,24.2h-31.5c-16,0-26.5-9.1-26.5-24.2V92.8h26.6v87.5
	c0,2.2,1.5,3.9,3.9,3.9h23.7c2.3,0,3.9-1.7,3.9-3.9V92.8z M389.3,182.3h26.2v26.5h-26.2V182.3z M425.2,132.4v-18.3
	c0-12.2,9-21.4,22.9-21.4H485c13.9,0,22.9,9.1,22.9,21.4v17h-25.6v-10.8c0-2.2-1.7-3.9-3.9-3.9h-23.7c-2.2,0-3.9,1.7-3.9,3.9v9
	c0,1.7,0.9,3.4,3.4,4l37,11.1c13.2,4,16.4,8.8,16.4,23.4v19.5c0,12.1-9,21.4-22.9,21.4H448c-13.9,0-22.9-9.3-22.9-21.4v-18.8h25.6
	v12.6c0,2.2,1.7,3.9,3.9,3.9h23.7c2.2,0,3.9-1.7,3.9-3.9v-10.4c0-1.7-1.2-3.2-3.4-3.9l-37-11.1C428.4,151.8,425.2,147,425.2,132.4
	L425.2,132.4z M517.7,182.3h26.2v26.5h-26.2V182.3z M648.1,190.2h-39.8l-5.1,18.6h-27.4l34.4-116H648l33,116h-27.9L648.1,190.2
	L648.1,190.2z M641.8,166.8l-13.5-49.9l-13.6,49.9H641.8z M766.9,161.2l-5.9,5l20.5,42.6h-29.3l-17.8-39.4h-15.5v39.4h-26.7v-116h59
	c14.9,0,24.9,8.8,24.9,22.2V138C776.2,149.5,775,154.6,766.9,161.2L766.9,161.2z M749.6,142.2V121c0-2.2-1.7-3.9-3.9-3.9h-26.8v29
	h26.8C747.9,146.1,749.6,144.4,749.6,142.2L749.6,142.2z M866.1,92.8h33.8v116h-25.6v-70.2L850,208.8h-7.3l-24.2-70.2v70.2h-24.6
	v-116h34.2l19.1,61L866.1,92.8L866.1,92.8z M1012.9,92.8l-39,71.4v44.6h-26.5v-44.5l-38-71.6h31l21.4,43.2L983,92.8L1012.9,92.8
	L1012.9,92.8z"/>
</svg>
