<?xml version="1.0" encoding="utf-8"?>
<!-- Generator: Adobe Illustrator 27.1.1, SVG Export Plug-In . SVG Version: 6.00 Build 0)  -->
<svg version="1.1" xmlns="http://www.w3.org/2000/svg" xmlns:xlink="http://www.w3.org/1999/xlink" x="0px" y="0px"
	 viewBox="0 0 120 120" style="enable-background:new 0 0 120 120;" xml:space="preserve">
<style type="text/css">
	.st0{display:none;}
	.st1{display:inline;fill:#FFFFFF;}
	.st2{display:inline;fill:#221F20;}
	.st3{display:inline;}
	.st4{fill:#221F20;}
	.st5{fill:#FFFFFF;}
	.st6{fill:#FFCC01;}
	.st7{fill:none;stroke:#646464;stroke-width:0.035;stroke-miterlimit:10;}
</style>
<g id="Labels__x26__Base" class="st0">
	<rect class="st2" width="120" height="120"/>
	<g class="st3">
		<g>
			<path class="st5" d="M3.22,5.4h0.81c0.04,0.69,0.46,1.03,1.28,1.03c0.82,0,1.13-0.34,1.13-0.81c0-0.42-0.25-0.68-0.86-0.78
				L4.83,4.7C3.86,4.52,3.36,4.02,3.36,3.29c0-0.9,0.73-1.4,1.81-1.4c1.16,0,1.89,0.55,1.93,1.57H6.29c-0.05-0.6-0.4-0.9-1.12-0.9
				c-0.64,0-0.99,0.26-0.99,0.7c0,0.39,0.25,0.64,0.85,0.75l0.76,0.14c0.97,0.18,1.48,0.64,1.48,1.43c0,0.88-0.65,1.52-1.93,1.52
				C4.1,7.1,3.26,6.52,3.22,5.4z"/>
			<path class="st5" d="M7.75,5.21c0-1.12,0.68-1.9,1.8-1.9c1.11,0,1.79,0.78,1.79,1.89c0,1.12-0.67,1.91-1.79,1.91
				C8.43,7.11,7.75,6.33,7.75,5.21z M10.61,5.21c0-0.75-0.34-1.32-1.06-1.32c-0.73,0-1.06,0.57-1.06,1.32
				c0,0.74,0.34,1.32,1.06,1.32C10.27,6.53,10.61,5.96,10.61,5.21z"/>
			<path class="st5" d="M12.02,1.99h0.71V7h-0.71V1.99z"/>
			<path class="st5" d="M13.41,5.21c0-1.18,0.69-1.89,1.6-1.89c0.56,0,0.9,0.26,1.09,0.54h0.01V1.99h0.71V7h-0.71V6.58h-0.01
				c-0.19,0.25-0.53,0.53-1.09,0.53C14.1,7.1,13.41,6.39,13.41,5.21z M16.12,5.21c0-0.81-0.38-1.31-0.99-1.31
				c-0.67,0-0.99,0.61-0.99,1.31c0,0.7,0.32,1.31,0.99,1.31C15.74,6.52,16.12,6.02,16.12,5.21z"/>
			<path class="st5" d="M17.64,2.04h0.79V2.8h-0.79V2.04z M17.68,3.42h0.71V7h-0.71V3.42z"/>
			<path class="st5" d="M19.06,5.21c0-1.12,0.68-1.89,1.77-1.89c1.09,0,1.7,0.71,1.7,1.83c0,0.09,0,0.2-0.01,0.25h-2.74
				c0.01,0.6,0.36,1.13,1.06,1.13c0.62,0,0.86-0.39,0.92-0.62h0.72c-0.19,0.68-0.72,1.21-1.66,1.21C19.7,7.11,19.06,6.3,19.06,5.21z
				 M19.79,4.86h2.01c0-0.55-0.38-0.97-0.99-0.97C20.25,3.88,19.84,4.28,19.79,4.86z"/>
			<path class="st5" d="M23.22,3.42h0.71V4.1h0.01c0.18-0.42,0.48-0.71,0.96-0.71h0.32v0.67h-0.23c-0.62,0-1.06,0.45-1.06,1.1V7
				h-0.71V3.42z"/>
			<path class="st5" d="M25.64,5.86h0.7c0.02,0.43,0.29,0.68,0.9,0.68c0.58,0,0.78-0.23,0.78-0.52s-0.17-0.44-0.56-0.51l-0.63-0.1
				c-0.67-0.11-1.09-0.41-1.09-1.04c0-0.63,0.52-1.04,1.42-1.04c1.02,0,1.44,0.48,1.46,1.13h-0.71c-0.01-0.36-0.21-0.58-0.75-0.58
				c-0.46,0-0.69,0.16-0.69,0.44c0,0.27,0.16,0.41,0.55,0.48l0.63,0.1c0.67,0.12,1.11,0.45,1.11,1.07c0,0.71-0.55,1.12-1.53,1.12
				C26.12,7.1,25.65,6.58,25.64,5.86z"/>
			<path class="st5" d="M31.06,5.06c0-1.31,0.45-2.39,0.97-3.1h0.62c-0.45,0.85-0.81,1.8-0.81,3.1c0,1.27,0.36,2.23,0.81,3.07h-0.62
				C31.51,7.43,31.06,6.33,31.06,5.06z"/>
			<path class="st5" d="M32.94,5.07c0-1.14,0.69-1.75,1.58-1.75c0.57,0,0.9,0.27,1.09,0.52h0.01V3.42h0.71v3.29
				c0,1.09-0.65,1.57-1.68,1.57c-1.02,0-1.53-0.5-1.61-1.13h0.73c0.07,0.32,0.31,0.56,0.88,0.56c0.64,0,0.97-0.28,0.97-0.95V6.29
				h-0.01c-0.19,0.27-0.52,0.54-1.09,0.54C33.62,6.82,32.94,6.22,32.94,5.07z M35.62,5.07c0-0.78-0.36-1.17-0.97-1.17
				c-0.67,0-0.97,0.5-0.97,1.17c0,0.67,0.31,1.17,0.97,1.17C35.26,6.24,35.62,5.84,35.62,5.07z"/>
			<path class="st5" d="M37.18,3.42h0.71V4.1h0.01c0.18-0.42,0.48-0.71,0.96-0.71h0.32v0.67h-0.23c-0.62,0-1.06,0.45-1.06,1.1V7
				h-0.71V3.42z"/>
			<path class="st5" d="M39.62,5.21c0-1.12,0.68-1.9,1.8-1.9c1.11,0,1.79,0.78,1.79,1.89c0,1.12-0.67,1.91-1.79,1.91
				C40.3,7.11,39.62,6.33,39.62,5.21z M42.48,5.21c0-0.75-0.34-1.32-1.06-1.32c-0.73,0-1.06,0.57-1.06,1.32
				c0,0.74,0.34,1.32,1.06,1.32C42.14,6.53,42.48,5.96,42.48,5.21z"/>
			<path class="st5" d="M43.84,5.9V3.42h0.71V5.7c0,0.48,0.21,0.8,0.72,0.8c0.57,0,0.95-0.35,0.95-0.89V3.42h0.7V7h-0.7V6.62h-0.01
				c-0.17,0.23-0.53,0.48-1.11,0.48C44.4,7.1,43.84,6.72,43.84,5.9z"/>
			<path class="st5" d="M47.78,3.42h0.71v0.42h0.01c0.19-0.25,0.54-0.52,1.1-0.52c0.91,0,1.6,0.71,1.6,1.89
				c0,1.18-0.69,1.89-1.6,1.89c-0.56,0-0.91-0.27-1.1-0.54h-0.01v1.67h-0.71V3.42z M50.46,5.21c0-0.7-0.32-1.31-0.99-1.31
				c-0.61,0-0.98,0.5-0.98,1.31c0,0.81,0.37,1.31,0.98,1.31C50.14,6.52,50.46,5.91,50.46,5.21z"/>
			<path class="st5" d="M52.29,5.04c0-1.27-0.36-2.23-0.81-3.07h0.62c0.52,0.71,0.97,1.81,0.97,3.07c0,1.31-0.45,2.39-0.97,3.1
				h-0.62C51.94,7.29,52.29,6.33,52.29,5.04z"/>
			<path class="st5" d="M3.31,12.91c0-1.65,0.7-2.63,1.91-2.63c0.9,0,1.51,0.6,1.6,1.33h-0.8c-0.06-0.39-0.29-0.68-0.81-0.68
				c-0.9,0-1.12,0.91-1.14,1.7l0.01,0.01c0.25-0.32,0.69-0.53,1.22-0.53c0.99,0,1.64,0.68,1.64,1.65c0,0.97-0.66,1.74-1.74,1.74
				C3.81,15.5,3.31,14.43,3.31,12.91z M6.15,13.82c0-0.66-0.37-1.05-0.92-1.05c-0.66,0-1.06,0.44-1.06,1.06
				c0,0.61,0.36,1.02,1.02,1.02C5.81,14.85,6.15,14.45,6.15,13.82z"/>
			<path class="st5" d="M7.49,12.9c0-1.44,0.57-2.61,1.93-2.61c1.35,0,1.93,1.18,1.93,2.61c0,1.44-0.57,2.61-1.93,2.61
				C8.07,15.5,7.49,14.34,7.49,12.9z M8.57,14.36l1.25-3.35c-0.11-0.04-0.25-0.07-0.39-0.07c-0.89,0-1.16,0.91-1.16,1.96
				C8.27,13.47,8.35,14,8.57,14.36z M10.58,12.9c0-0.57-0.08-1.1-0.29-1.46l-1.25,3.35c0.11,0.04,0.25,0.07,0.39,0.07
				C10.32,14.85,10.58,13.94,10.58,12.9z"/>
			<path class="st5" d="M13.62,11.82h0.71v0.42h0.01c0.19-0.25,0.54-0.52,1.1-0.52c0.91,0,1.6,0.71,1.6,1.89
				c0,1.18-0.69,1.89-1.6,1.89c-0.56,0-0.91-0.27-1.1-0.54h-0.01v1.67h-0.71V11.82z M16.3,13.61c0-0.7-0.32-1.31-0.99-1.31
				c-0.61,0-0.98,0.5-0.98,1.31c0,0.81,0.37,1.31,0.98,1.31C15.98,14.92,16.3,14.31,16.3,13.61z"/>
			<path class="st5" d="M18.44,13.57l-1.23-1.75h0.81l0.83,1.27h0.01l0.83-1.27h0.8l-1.22,1.75l1.35,1.83h-0.83l-0.95-1.36h-0.01
				l-0.94,1.36h-0.82L18.44,13.57z"/>
		</g>
	</g>
</g>
<g id="Icons">
	<path class="st5" d="M82.99,71.92h-8v-3h8V71.92z M58,44.98h-1.5v0.25c0,5.15-3.9,9.43-8.87,9.75C47.42,54.99,47.21,55,46.99,55
		c-2.42,0-4.7-0.9-6.48-2.57c-1.91-1.79-3-4.31-3-6.93v-0.52H36v-3h0.03C36.29,35.88,41.11,31,47,31s10.71,4.88,10.97,10.98H58v0.48
		c0,0.01,0,0.03,0,0.04h0V44.98z M39.03,41.98h15.95C54.72,37.53,51.25,34,47,34S39.29,37.53,39.03,41.98z M53.5,44.98h-13v0.52
		c0,1.82,0.73,3.5,2.06,4.74c1.32,1.24,3.06,1.86,4.88,1.74c3.4-0.22,6.06-3.19,6.06-6.76V44.98z M57,68.92h-8v3h8V68.92z M90,90
		V66.42C89.96,61.77,86.16,58,81.5,58H64.49c-0.39,0-0.77,0.04-1.16,0.09c0.91,0.84,1.68,1.82,2.28,2.91H81.5
		c3.03,0,5.5,2.47,5.51,5.5L87.02,90h1.5L90,90z M33.01,90L33,66.51c0-1.47,0.57-2.85,1.61-3.89C35.65,61.57,37.03,61,38.5,61h17.01
		c3.03,0,5.5,2.47,5.51,5.5L61.03,90l3,0l-0.01-23.5c0-4.69-3.82-8.5-8.51-8.5H38.5c-2.27,0-4.41,0.89-6.02,2.49
		C30.88,62.1,30,64.24,30,66.51L30.01,90L33.01,90z M84,44.98h-1.5v0.25c0,5.15-3.9,9.43-8.87,9.75C73.42,54.99,73.21,55,72.99,55
		c-2.42,0-4.7-0.9-6.48-2.57c-1.91-1.79-3-4.31-3-6.93v-0.52H62v-3h0.03C62.29,35.88,67.11,31,73,31s10.71,4.88,10.97,10.98H84v0.48
		c0,0.01,0,0.03,0,0.04h0V44.98z M65.03,41.98h15.95C80.72,37.53,77.25,34,73,34S65.29,37.53,65.03,41.98z M79.5,44.98h-13v0.52
		c0,1.82,0.73,3.5,2.06,4.74c1.32,1.24,3.06,1.86,4.88,1.74c3.4-0.22,6.06-3.19,6.06-6.76V44.98z"/>
</g>
<g id="Grid" class="st0">
	<g class="st3">
		<rect x="30" y="30" class="st7" width="60" height="60"/>
		<g>
			<line class="st7" x1="31" y1="30" x2="31" y2="90"/>
			<line class="st7" x1="32" y1="30" x2="32" y2="90"/>
			<line class="st7" x1="33" y1="30" x2="33" y2="90"/>
			<line class="st7" x1="34" y1="30" x2="34" y2="90"/>
			<line class="st7" x1="35" y1="30" x2="35" y2="90"/>
			<line class="st7" x1="36" y1="30" x2="36" y2="90"/>
			<line class="st7" x1="37" y1="30" x2="37" y2="90"/>
			<line class="st7" x1="38" y1="30" x2="38" y2="90"/>
			<line class="st7" x1="39" y1="30" x2="39" y2="90"/>
			<line class="st7" x1="40" y1="30" x2="40" y2="90"/>
			<line class="st7" x1="41" y1="30" x2="41" y2="90"/>
			<line class="st7" x1="42" y1="30" x2="42" y2="90"/>
			<line class="st7" x1="43" y1="30" x2="43" y2="90"/>
			<line class="st7" x1="44" y1="30" x2="44" y2="90"/>
			<line class="st7" x1="45" y1="30" x2="45" y2="90"/>
			<line class="st7" x1="46" y1="30" x2="46" y2="90"/>
			<line class="st7" x1="47" y1="30" x2="47" y2="90"/>
			<line class="st7" x1="48" y1="30" x2="48" y2="90"/>
			<line class="st7" x1="49" y1="30" x2="49" y2="90"/>
			<line class="st7" x1="50" y1="30" x2="50" y2="90"/>
			<line class="st7" x1="51" y1="30" x2="51" y2="90"/>
			<line class="st7" x1="52" y1="30" x2="52" y2="90"/>
			<line class="st7" x1="53" y1="30" x2="53" y2="90"/>
			<line class="st7" x1="54" y1="30" x2="54" y2="90"/>
			<line class="st7" x1="55" y1="30" x2="55" y2="90"/>
			<line class="st7" x1="56" y1="30" x2="56" y2="90"/>
			<line class="st7" x1="57" y1="30" x2="57" y2="90"/>
			<line class="st7" x1="58" y1="30" x2="58" y2="90"/>
			<line class="st7" x1="59" y1="30" x2="59" y2="90"/>
			<line class="st7" x1="60" y1="30" x2="60" y2="90"/>
			<line class="st7" x1="61" y1="30" x2="61" y2="90"/>
			<line class="st7" x1="62" y1="30" x2="62" y2="90"/>
			<line class="st7" x1="63" y1="30" x2="63" y2="90"/>
			<line class="st7" x1="64" y1="30" x2="64" y2="90"/>
			<line class="st7" x1="65" y1="30" x2="65" y2="90"/>
			<line class="st7" x1="66" y1="30" x2="66" y2="90"/>
			<line class="st7" x1="67" y1="30" x2="67" y2="90"/>
			<line class="st7" x1="68" y1="30" x2="68" y2="90"/>
			<line class="st7" x1="69" y1="30" x2="69" y2="90"/>
			<line class="st7" x1="70" y1="30" x2="70" y2="90"/>
			<line class="st7" x1="71" y1="30" x2="71" y2="90"/>
			<line class="st7" x1="72" y1="30" x2="72" y2="90"/>
			<line class="st7" x1="73" y1="30" x2="73" y2="90"/>
			<line class="st7" x1="74" y1="30" x2="74" y2="90"/>
			<line class="st7" x1="75" y1="30" x2="75" y2="90"/>
			<line class="st7" x1="76" y1="30" x2="76" y2="90"/>
			<line class="st7" x1="77" y1="30" x2="77" y2="90"/>
			<line class="st7" x1="78" y1="30" x2="78" y2="90"/>
			<line class="st7" x1="79" y1="30" x2="79" y2="90"/>
			<line class="st7" x1="80" y1="30" x2="80" y2="90"/>
			<line class="st7" x1="81" y1="30" x2="81" y2="90"/>
			<line class="st7" x1="82" y1="30" x2="82" y2="90"/>
			<line class="st7" x1="83" y1="30" x2="83" y2="90"/>
			<line class="st7" x1="84" y1="30" x2="84" y2="90"/>
			<line class="st7" x1="85" y1="30" x2="85" y2="90"/>
			<line class="st7" x1="86" y1="30" x2="86" y2="90"/>
			<line class="st7" x1="87" y1="30" x2="87" y2="90"/>
			<line class="st7" x1="88" y1="30" x2="88" y2="90"/>
			<line class="st7" x1="89" y1="30" x2="89" y2="90"/>
		</g>
		<g>
			<line class="st7" x1="90" y1="31" x2="30" y2="31"/>
			<line class="st7" x1="90" y1="32" x2="30" y2="32"/>
			<line class="st7" x1="90" y1="33" x2="30" y2="33"/>
			<line class="st7" x1="90" y1="34" x2="30" y2="34"/>
			<line class="st7" x1="90" y1="35" x2="30" y2="35"/>
			<line class="st7" x1="90" y1="36" x2="30" y2="36"/>
			<line class="st7" x1="90" y1="37" x2="30" y2="37"/>
			<line class="st7" x1="90" y1="38" x2="30" y2="38"/>
			<line class="st7" x1="90" y1="39" x2="30" y2="39"/>
			<line class="st7" x1="90" y1="40" x2="30" y2="40"/>
			<line class="st7" x1="90" y1="41" x2="30" y2="41"/>
			<line class="st7" x1="90" y1="42" x2="30" y2="42"/>
			<line class="st7" x1="90" y1="43" x2="30" y2="43"/>
			<line class="st7" x1="90" y1="44" x2="30" y2="44"/>
			<line class="st7" x1="90" y1="45" x2="30" y2="45"/>
			<line class="st7" x1="90" y1="46" x2="30" y2="46"/>
			<line class="st7" x1="90" y1="47" x2="30" y2="47"/>
			<line class="st7" x1="90" y1="48" x2="30" y2="48"/>
			<line class="st7" x1="90" y1="49" x2="30" y2="49"/>
			<line class="st7" x1="90" y1="50" x2="30" y2="50"/>
			<line class="st7" x1="90" y1="51" x2="30" y2="51"/>
			<line class="st7" x1="90" y1="52" x2="30" y2="52"/>
			<line class="st7" x1="90" y1="53" x2="30" y2="53"/>
			<line class="st7" x1="90" y1="54" x2="30" y2="54"/>
			<line class="st7" x1="90" y1="55" x2="30" y2="55"/>
			<line class="st7" x1="90" y1="56" x2="30" y2="56"/>
			<line class="st7" x1="90" y1="57" x2="30" y2="57"/>
			<line class="st7" x1="90" y1="58" x2="30" y2="58"/>
			<line class="st7" x1="90" y1="59" x2="30" y2="59"/>
			<line class="st7" x1="90" y1="60" x2="30" y2="60"/>
			<line class="st7" x1="90" y1="61" x2="30" y2="61"/>
			<line class="st7" x1="90" y1="62" x2="30" y2="62"/>
			<line class="st7" x1="90" y1="63" x2="30" y2="63"/>
			<line class="st7" x1="90" y1="64" x2="30" y2="64"/>
			<line class="st7" x1="90" y1="65" x2="30" y2="65"/>
			<line class="st7" x1="90" y1="66" x2="30" y2="66"/>
			<line class="st7" x1="90" y1="67" x2="30" y2="67"/>
			<line class="st7" x1="90" y1="68" x2="30" y2="68"/>
			<line class="st7" x1="90" y1="69" x2="30" y2="69"/>
			<line class="st7" x1="90" y1="70" x2="30" y2="70"/>
			<line class="st7" x1="90" y1="71" x2="30" y2="71"/>
			<line class="st7" x1="90" y1="72" x2="30" y2="72"/>
			<line class="st7" x1="90" y1="73" x2="30" y2="73"/>
			<line class="st7" x1="90" y1="74" x2="30" y2="74"/>
			<line class="st7" x1="90" y1="75" x2="30" y2="75"/>
			<line class="st7" x1="90" y1="76" x2="30" y2="76"/>
			<line class="st7" x1="90" y1="77" x2="30" y2="77"/>
			<line class="st7" x1="90" y1="78" x2="30" y2="78"/>
			<line class="st7" x1="90" y1="79" x2="30" y2="79"/>
			<line class="st7" x1="90" y1="80" x2="30" y2="80"/>
			<line class="st7" x1="90" y1="81" x2="30" y2="81"/>
			<line class="st7" x1="90" y1="82" x2="30" y2="82"/>
			<line class="st7" x1="90" y1="83" x2="30" y2="83"/>
			<line class="st7" x1="90" y1="84" x2="30" y2="84"/>
			<line class="st7" x1="90" y1="85" x2="30" y2="85"/>
			<line class="st7" x1="90" y1="86" x2="30" y2="86"/>
			<line class="st7" x1="90" y1="87" x2="30" y2="87"/>
			<line class="st7" x1="90" y1="88" x2="30" y2="88"/>
			<line class="st7" x1="90" y1="89" x2="30" y2="89"/>
		</g>
	</g>
</g>
</svg>
