<?xml version="1.0" encoding="utf-8"?>
<!-- Generator: Adobe Illustrator 27.1.1, SVG Export Plug-In . SVG Version: 6.00 Build 0)  -->
<svg version="1.1" xmlns="http://www.w3.org/2000/svg" xmlns:xlink="http://www.w3.org/1999/xlink" x="0px" y="0px"
	 viewBox="0 0 120 120" style="enable-background:new 0 0 120 120;" xml:space="preserve">
<style type="text/css">
	.st0{display:none;}
	.st1{display:inline;fill:#FFFFFF;}
	.st2{display:inline;fill:#221F20;}
	.st3{display:inline;}
	.st4{fill:#221F20;}
	.st5{fill:#FFFFFF;}
	.st6{font-family:'G.I.-530';}
	.st7{font-size:6px;}
	.st8{fill:#FFCC01;}
	.st9{fill:none;stroke:#646464;stroke-width:0.035;stroke-miterlimit:10;}
</style>
<g id="Labels__x26__Base" class="st0">
	<g class="st3">
		<text transform="matrix(1 0 0 1 2.9995 6.9999)"><tspan x="0" y="0" class="st5 st6 st7">Soldier</tspan><tspan x="0" y="7.2" class="st5 st6 st7">60 px</tspan></text>
	</g>
	<rect class="st1" width="120" height="120"/>
	<g class="st3">
		<g>
			<path class="st4" d="M3.19,5.63h0.7c0.03,0.59,0.39,0.88,1.1,0.88c0.7,0,0.97-0.29,0.97-0.69c0-0.36-0.22-0.58-0.74-0.67
				L4.56,5.03C3.74,4.88,3.31,4.45,3.31,3.83c0-0.77,0.62-1.2,1.55-1.2c1,0,1.62,0.47,1.65,1.34h-0.7C5.78,3.46,5.48,3.2,4.86,3.2
				c-0.55,0-0.85,0.22-0.85,0.6c0,0.34,0.21,0.55,0.72,0.64l0.65,0.12C6.22,4.71,6.65,5.1,6.65,5.78c0,0.76-0.56,1.3-1.65,1.3
				C3.94,7.08,3.22,6.59,3.19,5.63z"/>
			<path class="st4" d="M7.07,5.47c0-0.96,0.58-1.62,1.54-1.62c0.95,0,1.53,0.67,1.53,1.62c0,0.96-0.58,1.63-1.54,1.63
				C7.66,7.1,7.07,6.43,7.07,5.47z M9.52,5.47c0-0.64-0.29-1.13-0.91-1.13c-0.62,0-0.91,0.49-0.91,1.13c0,0.64,0.29,1.13,0.91,1.13
				C9.23,6.6,9.52,6.11,9.52,5.47z"/>
			<path class="st4" d="M10.73,2.71h0.61V7h-0.61V2.71z"/>
			<path class="st4" d="M11.92,5.47c0-1.01,0.59-1.62,1.37-1.62c0.48,0,0.77,0.22,0.94,0.46h0.01v-1.6h0.61V7h-0.61V6.64h-0.01
				c-0.16,0.22-0.46,0.45-0.94,0.45C12.52,7.09,11.92,6.48,11.92,5.47z M14.24,5.47c0-0.69-0.32-1.12-0.85-1.12
				c-0.57,0-0.85,0.52-0.85,1.12s0.28,1.12,0.85,1.12C13.92,6.59,14.24,6.16,14.24,5.47z"/>
			<path class="st4" d="M15.54,2.75h0.68V3.4h-0.68V2.75z M15.58,3.94h0.61V7h-0.61V3.94z"/>
			<path class="st4" d="M16.77,5.46c0-0.96,0.58-1.62,1.52-1.62s1.46,0.61,1.46,1.57c0,0.08,0,0.17-0.01,0.21h-2.35
				c0.01,0.52,0.31,0.97,0.91,0.97c0.53,0,0.74-0.34,0.79-0.53h0.62c-0.16,0.58-0.62,1.03-1.42,1.03C17.32,7.1,16.77,6.4,16.77,5.46
				z M17.39,5.17h1.72c0-0.47-0.32-0.83-0.85-0.83C17.78,4.33,17.43,4.67,17.39,5.17z"/>
			<path class="st4" d="M20.33,3.94h0.61v0.58h0.01c0.16-0.36,0.41-0.61,0.82-0.61h0.28v0.58h-0.2c-0.53,0-0.91,0.38-0.91,0.94V7
				h-0.61V3.94z"/>
			<path class="st4" d="M3.26,12.07c0-1.41,0.6-2.25,1.63-2.25c0.77,0,1.29,0.52,1.37,1.14H5.58c-0.05-0.34-0.25-0.58-0.69-0.58
				c-0.77,0-0.96,0.78-0.98,1.46l0.01,0.01c0.21-0.28,0.59-0.45,1.04-0.45c0.85,0,1.4,0.58,1.4,1.41s-0.56,1.49-1.49,1.49
				C3.69,14.29,3.26,13.37,3.26,12.07z M5.7,12.84c0-0.56-0.32-0.9-0.79-0.9C4.34,11.95,4,12.32,4,12.86c0,0.52,0.31,0.88,0.88,0.88
				C5.4,13.73,5.7,13.38,5.7,12.84z"/>
			<path class="st4" d="M6.85,12.06c0-1.23,0.49-2.24,1.66-2.24c1.16,0,1.65,1.01,1.65,2.24c0,1.24-0.49,2.23-1.65,2.23
				C7.34,14.29,6.85,13.29,6.85,12.06z M7.77,13.31l1.07-2.87c-0.1-0.04-0.21-0.06-0.33-0.06c-0.76,0-0.99,0.78-0.99,1.68
				C7.52,12.54,7.58,13,7.77,13.31z M9.49,12.06c0-0.49-0.07-0.94-0.25-1.25l-1.07,2.87c0.1,0.04,0.21,0.06,0.34,0.06
				C9.27,13.73,9.49,12.95,9.49,12.06z"/>
			<path class="st4" d="M12.1,11.14h0.61v0.36h0.01c0.16-0.22,0.46-0.44,0.94-0.44c0.78,0,1.37,0.61,1.37,1.62s-0.59,1.62-1.37,1.62
				c-0.48,0-0.78-0.23-0.94-0.46h-0.01v1.43H12.1V11.14z M14.4,12.67c0-0.6-0.28-1.12-0.85-1.12c-0.52,0-0.84,0.43-0.84,1.12
				s0.32,1.12,0.84,1.12C14.12,13.79,14.4,13.27,14.4,12.67z"/>
			<path class="st4" d="M16.23,12.63l-1.05-1.5h0.7l0.71,1.09h0.01l0.71-1.09H18l-1.04,1.5l1.16,1.57H17.4l-0.81-1.16h-0.01
				l-0.8,1.16h-0.7L16.23,12.63z"/>
		</g>
	</g>
</g>
<g id="Icons">
	<path class="st8" d="M84,51.75h-0.01c-0.05-5.79-2.32-11.22-6.42-15.32c-4.15-4.16-9.67-6.45-15.55-6.45h-0.41h-3.22h-0.41
		c-5.88,0-11.4,2.29-15.55,6.45C38.28,40.58,36,46.09,36,51.96v10.88c0,2.84,1.7,5.35,4.34,6.39l1.16,0.46l0,0l2,0.79l-0.03,19.55
		l3,0l0.03-18.37l3.2,1.27l0,0l0.01,0l0.84-2.89l-0.01,0l2.73-9.39c0.63-2.17,2.65-3.69,4.91-3.69h13.98l5.01-1.19l3.25,10.66H75
		l-0.04,9.83c0,1.21-0.99,2.19-2.2,2.19l-0.99,0l-18.43-7.31l-0.84,2.89L67,79.8v10.26h3v-8.6l2.77,0c2.85,0,5.18-2.33,5.19-5.18
		l0.03-6.84h3.27c0.75,0,1.47-0.36,1.92-0.97c0.45-0.61,0.58-1.4,0.36-2.12L80.1,55.1l3.9-0.92V51.75z M57.98,32.98h0.41h3.22h0.41
		c3.14,0,6.17,0.76,8.87,2.19l-3.71,11.88c-0.22-0.02-0.45-0.03-0.67-0.03h-8.33c-1.53,0-3.02,0.25-4.44,0.69l-4.01-12.83
		C52.28,33.65,55.07,32.98,57.98,32.98z M41.23,66.34C39.87,65.7,39,64.36,39,62.84V51.96c0-5.06,1.97-9.83,5.55-13.41
		c0.79-0.79,1.64-1.49,2.54-2.12l3.89,12.45c-3.45,1.89-6.14,5.09-7.29,9.02L41.23,66.34z M58.18,53.97c-3.59,0-6.79,2.41-7.8,5.85
		l-2.65,9.11l-3.71-1.47l2.54-8.72c1.49-5.14,6.27-8.72,11.62-8.72h8.33c2.25,0,4.08,1.75,4.25,3.95H58.18z M73.76,53.55
		c-0.25-2.41-1.68-4.47-3.7-5.6l3.46-11.07c0.68,0.52,1.33,1.06,1.95,1.68c3.54,3.55,5.5,8.25,5.54,13.26L73.76,53.55z"/>
</g>
<g id="Grid" class="st0">
	<g class="st3">
		<rect x="30" y="30" class="st9" width="60" height="60"/>
		<g>
			<line class="st9" x1="31" y1="30" x2="31" y2="90"/>
			<line class="st9" x1="32" y1="30" x2="32" y2="90"/>
			<line class="st9" x1="33" y1="30" x2="33" y2="90"/>
			<line class="st9" x1="34" y1="30" x2="34" y2="90"/>
			<line class="st9" x1="35" y1="30" x2="35" y2="90"/>
			<line class="st9" x1="36" y1="30" x2="36" y2="90"/>
			<line class="st9" x1="37" y1="30" x2="37" y2="90"/>
			<line class="st9" x1="38" y1="30" x2="38" y2="90"/>
			<line class="st9" x1="39" y1="30" x2="39" y2="90"/>
			<line class="st9" x1="40" y1="30" x2="40" y2="90"/>
			<line class="st9" x1="41" y1="30" x2="41" y2="90"/>
			<line class="st9" x1="42" y1="30" x2="42" y2="90"/>
			<line class="st9" x1="43" y1="30" x2="43" y2="90"/>
			<line class="st9" x1="44" y1="30" x2="44" y2="90"/>
			<line class="st9" x1="45" y1="30" x2="45" y2="90"/>
			<line class="st9" x1="46" y1="30" x2="46" y2="90"/>
			<line class="st9" x1="47" y1="30" x2="47" y2="90"/>
			<line class="st9" x1="48" y1="30" x2="48" y2="90"/>
			<line class="st9" x1="49" y1="30" x2="49" y2="90"/>
			<line class="st9" x1="50" y1="30" x2="50" y2="90"/>
			<line class="st9" x1="51" y1="30" x2="51" y2="90"/>
			<line class="st9" x1="52" y1="30" x2="52" y2="90"/>
			<line class="st9" x1="53" y1="30" x2="53" y2="90"/>
			<line class="st9" x1="54" y1="30" x2="54" y2="90"/>
			<line class="st9" x1="55" y1="30" x2="55" y2="90"/>
			<line class="st9" x1="56" y1="30" x2="56" y2="90"/>
			<line class="st9" x1="57" y1="30" x2="57" y2="90"/>
			<line class="st9" x1="58" y1="30" x2="58" y2="90"/>
			<line class="st9" x1="59" y1="30" x2="59" y2="90"/>
			<line class="st9" x1="60" y1="30" x2="60" y2="90"/>
			<line class="st9" x1="61" y1="30" x2="61" y2="90"/>
			<line class="st9" x1="62" y1="30" x2="62" y2="90"/>
			<line class="st9" x1="63" y1="30" x2="63" y2="90"/>
			<line class="st9" x1="64" y1="30" x2="64" y2="90"/>
			<line class="st9" x1="65" y1="30" x2="65" y2="90"/>
			<line class="st9" x1="66" y1="30" x2="66" y2="90"/>
			<line class="st9" x1="67" y1="30" x2="67" y2="90"/>
			<line class="st9" x1="68" y1="30" x2="68" y2="90"/>
			<line class="st9" x1="69" y1="30" x2="69" y2="90"/>
			<line class="st9" x1="70" y1="30" x2="70" y2="90"/>
			<line class="st9" x1="71" y1="30" x2="71" y2="90"/>
			<line class="st9" x1="72" y1="30" x2="72" y2="90"/>
			<line class="st9" x1="73" y1="30" x2="73" y2="90"/>
			<line class="st9" x1="74" y1="30" x2="74" y2="90"/>
			<line class="st9" x1="75" y1="30" x2="75" y2="90"/>
			<line class="st9" x1="76" y1="30" x2="76" y2="90"/>
			<line class="st9" x1="77" y1="30" x2="77" y2="90"/>
			<line class="st9" x1="78" y1="30" x2="78" y2="90"/>
			<line class="st9" x1="79" y1="30" x2="79" y2="90"/>
			<line class="st9" x1="80" y1="30" x2="80" y2="90"/>
			<line class="st9" x1="81" y1="30" x2="81" y2="90"/>
			<line class="st9" x1="82" y1="30" x2="82" y2="90"/>
			<line class="st9" x1="83" y1="30" x2="83" y2="90"/>
			<line class="st9" x1="84" y1="30" x2="84" y2="90"/>
			<line class="st9" x1="85" y1="30" x2="85" y2="90"/>
			<line class="st9" x1="86" y1="30" x2="86" y2="90"/>
			<line class="st9" x1="87" y1="30" x2="87" y2="90"/>
			<line class="st9" x1="88" y1="30" x2="88" y2="90"/>
			<line class="st9" x1="89" y1="30" x2="89" y2="90"/>
		</g>
		<g>
			<line class="st9" x1="90" y1="31" x2="30" y2="31"/>
			<line class="st9" x1="90" y1="32" x2="30" y2="32"/>
			<line class="st9" x1="90" y1="33" x2="30" y2="33"/>
			<line class="st9" x1="90" y1="34" x2="30" y2="34"/>
			<line class="st9" x1="90" y1="35" x2="30" y2="35"/>
			<line class="st9" x1="90" y1="36" x2="30" y2="36"/>
			<line class="st9" x1="90" y1="37" x2="30" y2="37"/>
			<line class="st9" x1="90" y1="38" x2="30" y2="38"/>
			<line class="st9" x1="90" y1="39" x2="30" y2="39"/>
			<line class="st9" x1="90" y1="40" x2="30" y2="40"/>
			<line class="st9" x1="90" y1="41" x2="30" y2="41"/>
			<line class="st9" x1="90" y1="42" x2="30" y2="42"/>
			<line class="st9" x1="90" y1="43" x2="30" y2="43"/>
			<line class="st9" x1="90" y1="44" x2="30" y2="44"/>
			<line class="st9" x1="90" y1="45" x2="30" y2="45"/>
			<line class="st9" x1="90" y1="46" x2="30" y2="46"/>
			<line class="st9" x1="90" y1="47" x2="30" y2="47"/>
			<line class="st9" x1="90" y1="48" x2="30" y2="48"/>
			<line class="st9" x1="90" y1="49" x2="30" y2="49"/>
			<line class="st9" x1="90" y1="50" x2="30" y2="50"/>
			<line class="st9" x1="90" y1="51" x2="30" y2="51"/>
			<line class="st9" x1="90" y1="52" x2="30" y2="52"/>
			<line class="st9" x1="90" y1="53" x2="30" y2="53"/>
			<line class="st9" x1="90" y1="54" x2="30" y2="54"/>
			<line class="st9" x1="90" y1="55" x2="30" y2="55"/>
			<line class="st9" x1="90" y1="56" x2="30" y2="56"/>
			<line class="st9" x1="90" y1="57" x2="30" y2="57"/>
			<line class="st9" x1="90" y1="58" x2="30" y2="58"/>
			<line class="st9" x1="90" y1="59" x2="30" y2="59"/>
			<line class="st9" x1="90" y1="60" x2="30" y2="60"/>
			<line class="st9" x1="90" y1="61" x2="30" y2="61"/>
			<line class="st9" x1="90" y1="62" x2="30" y2="62"/>
			<line class="st9" x1="90" y1="63" x2="30" y2="63"/>
			<line class="st9" x1="90" y1="64" x2="30" y2="64"/>
			<line class="st9" x1="90" y1="65" x2="30" y2="65"/>
			<line class="st9" x1="90" y1="66" x2="30" y2="66"/>
			<line class="st9" x1="90" y1="67" x2="30" y2="67"/>
			<line class="st9" x1="90" y1="68" x2="30" y2="68"/>
			<line class="st9" x1="90" y1="69" x2="30" y2="69"/>
			<line class="st9" x1="90" y1="70" x2="30" y2="70"/>
			<line class="st9" x1="90" y1="71" x2="30" y2="71"/>
			<line class="st9" x1="90" y1="72" x2="30" y2="72"/>
			<line class="st9" x1="90" y1="73" x2="30" y2="73"/>
			<line class="st9" x1="90" y1="74" x2="30" y2="74"/>
			<line class="st9" x1="90" y1="75" x2="30" y2="75"/>
			<line class="st9" x1="90" y1="76" x2="30" y2="76"/>
			<line class="st9" x1="90" y1="77" x2="30" y2="77"/>
			<line class="st9" x1="90" y1="78" x2="30" y2="78"/>
			<line class="st9" x1="90" y1="79" x2="30" y2="79"/>
			<line class="st9" x1="90" y1="80" x2="30" y2="80"/>
			<line class="st9" x1="90" y1="81" x2="30" y2="81"/>
			<line class="st9" x1="90" y1="82" x2="30" y2="82"/>
			<line class="st9" x1="90" y1="83" x2="30" y2="83"/>
			<line class="st9" x1="90" y1="84" x2="30" y2="84"/>
			<line class="st9" x1="90" y1="85" x2="30" y2="85"/>
			<line class="st9" x1="90" y1="86" x2="30" y2="86"/>
			<line class="st9" x1="90" y1="87" x2="30" y2="87"/>
			<line class="st9" x1="90" y1="88" x2="30" y2="88"/>
			<line class="st9" x1="90" y1="89" x2="30" y2="89"/>
		</g>
	</g>
</g>
</svg>
