<?xml version="1.0" encoding="UTF-8"?>
<svg id="Layer_2" data-name="Layer 2" xmlns="http://www.w3.org/2000/svg" viewBox="0 0 1884.458676 261.579606">
  <g>
    <path d="m361.578892,180.077665h-40.611461l-7.276488,26.668945h-24.8185l34.707671-122.816895h34.220393l34.919617,122.816895h-23.553756l-7.587475-26.668945Zm-6.595091-23.15918l-14.677768-51.583496-13.55267,51.583496h28.230438Z" fill="#fff"/>
    <path d="m497.220479,206.746611h-25.30875l-18.998894-43.336914h-18.882027v43.336914h-23.51315v-122.816895h60.251146c15.239326,0,22.859484,8.188477,22.859484,24.563477v29.651367c0,13.803223-5.280827,21.756348-15.837529,23.861816l19.42972,44.740234Zm-63.189671-65.794922h32.819964c1.196406,0,2.040229-.263184,2.530479-.789551s.734879-1.430664.734879-2.719238v-27.195312c0-1.285645-.244629-2.193359-.734879-2.719727-.490249-.525879-1.334072-.789062-2.530479-.789062h-32.819964v34.212891Z" fill="#fff"/>
    <path d="m631.274451,83.929716v122.816895h-23.186317v-78.251953l-24.655084,61.93457h-17.308277l-24.655084-62.24707v78.564453h-22.533641v-122.816895h25.798999l28.873209,72.286621,31.868187-72.286621h25.798009Z" fill="#fff"/>
    <path d="m708.179218,206.746611h-23.51315v-41.927734l-37.228246-80.88916h25.472166l23.678547,54.601562,23.673595-54.601562h25.145333l-37.228246,80.88916v41.927734Z" fill="#fff"/>
    <path d="m905.099,206.746611h-24.819491l-18.8642-80.041992-18.861228,80.041992h-25.791076l-28.574107-122.816895h24.491668l17.800507,90.183105,21.060913-90.183105h19.917988l21.060913,90.183105,17.802488-90.183105h23.51315l-28.737524,122.816895Z" fill="#fff"/>
    <path d="m1002.950783,180.077665h-40.611461l-7.276488,26.668945h-24.8185l34.707671-122.816895h34.220393l34.919617,122.816895h-23.553756l-7.587475-26.668945Zm-6.595091-23.15918l-14.677768-51.583496-13.55267,51.583496h28.230438Z" fill="#fff"/>
    <path d="m1138.592371,206.746611h-25.30875l-18.998894-43.336914h-18.882027v43.336914h-23.51315v-122.816895h60.251146c15.239326,0,22.859484,8.188477,22.859484,24.563477v29.651367c0,13.803223-5.280827,21.756348-15.837529,23.861816l19.42972,44.740234Zm-63.189671-65.794922h32.819964c1.196406,0,2.040229-.263184,2.530479-.789551s.734879-1.430664.734879-2.719238v-27.195312c0-1.285645-.244629-2.193359-.734879-2.719727-.490249-.525879-1.334072-.789062-2.530479-.789062h-32.819964v34.212891Z" fill="#fff"/>
    <path d="m1259.745358,206.746611h-37.880921c-15.241307,0-22.859484-8.185547-22.859484-24.563477v-73.689941c0-16.375,7.618177-24.563477,22.859484-24.563477h37.880921c15.239326,0,22.859484,8.188477,22.859484,24.563477v20.001465h-23.512159v-17.895996c0-1.285645-.244629-2.193359-.734879-2.719727s-1.334072-.789551-2.530479-.789551h-30.044855c-1.198387,0-2.040229.263184-2.530479.789551s-.734879,1.434082-.734879,2.719727v69.479004c0,1.289062.244629,2.193359.734879,2.719727s1.332092.789062,2.530479.789062h30.044855c1.196406,0,2.040229-.262695,2.530479-.789062s.734879-1.430664.734879-2.719727v-17.896484h23.512159v20.001953c0,16.37793-7.620158,24.563477-22.859484,24.563477Z" fill="#fff"/>
    <path d="m1367.836914,206.746611h-41.963361c-15.241307,0-22.859484-8.185547-22.859484-24.563477v-73.689941c0-16.375,7.618177-24.563477,22.859484-24.563477h41.963361c15.238335,0,22.859484,8.188477,22.859484,24.563477v73.689941c0,16.37793-7.621149,24.563477-22.859484,24.563477Zm-41.310686-96.147949v69.479004c0,1.289062.244629,2.193359.734879,2.719727s1.332092.789062,2.530479.789062h34.126305c1.196406,0,2.04122-.262695,2.531469-.789062.489259-.526367.733888-1.430664.733888-2.719727v-69.479004c0-1.285645-.244629-2.193359-.733888-2.719727-.490249-.526367-1.335063-.789551-2.531469-.789551h-34.126305c-1.198387,0-2.040229.263184-2.530479.789551s-.734879,1.434082-.734879,2.719727Z" fill="#fff"/>
    <path d="m1416.004158,83.929716h23.51315v99.656738h49.311158v23.160156h-72.824308v-122.816895Z" fill="#fff"/>
    <path d="m1508.91086,83.929716h23.51315v99.656738h49.311158v23.160156h-72.824308v-122.816895Z" fill="#fff"/>
    <path d="m1601.816573,83.929716h76.906748v23.159668h-53.393598v25.440918h43.269702v22.809082h-43.269702v28.24707h53.393598v23.160156h-76.906748v-122.816895Z" fill="#fff"/>
    <path d="m1759.221269,124.634794v-14.036133c0-1.285645-.24562-2.193359-.734879-2.719727-.490249-.526367-1.335063-.789551-2.531469-.789551h-31.513622c-1.198387,0-2.040229.263184-2.530479.789551s-.734879,1.434082-.734879,2.719727v69.479004c0,1.289062.244629,2.193359.734879,2.719727s1.332092.789062,2.530479.789062h31.513622c1.196406,0,2.04122-.262695,2.531469-.789062.489259-.526367.734879-1.430664.734879-2.719727v-18.949219h-21.554133v-22.106445h45.066293v43.161133c0,16.37793-7.620158,24.563477-22.859484,24.563477h-39.350679c-15.241307,0-22.859484-8.185547-22.859484-24.563477v-73.689941c0-16.375,7.618177-24.563477,22.859484-24.563477h39.350679c15.239326,0,22.859484,8.188477,22.859484,24.563477v16.141602h-23.512159Z" fill="#fff"/>
    <path d="m1807.551928,83.929716h76.906748v23.159668h-53.393598v25.440918h43.269702v22.809082h-43.269702v28.24707h53.393598v23.160156h-76.906748v-122.816895Z" fill="#fff"/>
  </g>
  <g id="Layer_2-2" data-name="Layer 2">
    <path d="m234.034624,81.077231l-83.492443-28.463839h-.918926l-83.394626,28.463839c-19.10787,139.462124,73.191513,172.62868,84.313569,175.782183-.000018.00304,102.600305-36.320059,83.492425-175.782183Z" fill="#010101" stroke="#818181" stroke-miterlimit="10" stroke-width="9"/>
    <path d="m159.773893,27.325618c-11.582132,20.666676-24.909833,42.677042-36.678334,59.21288-9.650231,13.561629-18.017698,23.896524-14.156988,43.917854-3.997374-14.153975-5.746033-24.591756-18.017698-33.582959,9.80553,20.529503-6.134278,44.341855-1.512603,66.342873,4.211686,20.043156,25.170732,49.407972,48.484105,47.325406-16.256613-6.537632-25.627309-26.106913-19.303562-42.624046,2.419548,8.691915,9.439019,15.338674,16.728725,19.375981-6.208818-16.177314-12.836953-31.537804-8.687371-49.729095,4.295553-18.817925,14.141443-35.550174,22.965496-50.991726,0,14.247504,1.031182,41.660704,6.472837,55.025922,6.205709,15.242029,19.586206,20.482741,15.281345-2.743498,26.947344,17.973054,15.874576,59.761581-7.721421,74.916308,37.650483-12.249106,45.502368-44.279499,32.600202-81.03931-12.833882-36.5821-44.086087-63.003895-36.454732-105.40659Z" fill="#ffca06"/>
  </g>
</svg>